<svg xmlns="http://www.w3.org/2000/svg" viewBox="0 0 75.46 47.5"><path d="M17.14,26.53s-.24,5.55-2.49,6.66c0,0-2.56-1.36,0-6.3Zm29.7-1.48c-.45,1.19-.15,1.64-.15,1.64a8.06,8.06,0,0,0,1.69-.32,3.09,3.09,0,0,0,.16-1.89C48.25,23.42,47.32,23.81,46.84,25.05Zm-11.52,8.4a1.8,1.8,0,0,0,2.28.5c1.07-.8-.24-2.24-.24-2.24ZM75.46,13.64V37.36a5.9,5.9,0,0,1-5.9,5.89H46s-2.8-.22-8.44,4.25c-5.67-4.47-8.47-4.25-8.47-4.25h-23A5.89,5.89,0,0,1,.19,37.36V13.64ZM22.08,34.83,24.49,23a6.29,6.29,0,0,0,4.36-4.29A41.79,41.79,0,0,1,20.38,20c-4.38.16-7.9.68-8.73,4.88a14.34,14.34,0,0,1,4.9-1.22c2.62-.12,5.43-.26,6.71-.44l-2.61,12A6.22,6.22,0,0,1,16,34.3s3.91-1.95,4.5-4.09,1.22-5.52,1.22-5.52l-6.56,1.2a7.69,7.69,0,0,1,.58-1.05,8,8,0,0,0-4.94,4.57A6.51,6.51,0,0,0,15,37.71c2.49.91,6.34.62,9.51-3.52A17.33,17.33,0,0,1,22.08,34.83Zm9.06-1.36s-1.6.62-1.42-.34.65-3.1.8-4.12a1.42,1.42,0,0,0-1.14-1.81c-.86-.15-1.08.25-1.58.93-.24.35-.91.6-.7.81,0,0,.42.37.16,1.51s-.58,3.32-.69,3.87.07,2.07,2.12,1.34A4.5,4.5,0,0,0,31.14,33.47ZM32,24.34c-.91-.52-2.23-1.12-2.23-1.12a9.5,9.5,0,0,0-2.07,1.6c.48.23,2,1.15,2,1.15Zm9.29,1.14a4.8,4.8,0,0,1-2.69-.2,1.08,1.08,0,0,0-.77,0c-.39.17-3,1.21-4,3.21a4.65,4.65,0,0,0,1,5.44L32.56,36s1.35,1.81,4.56.77,2.87-4.4,3-5.1a30.53,30.53,0,0,1,1.37-5.07C42,25.62,41.87,25.53,41.28,25.48ZM50.49,23a4.72,4.72,0,0,0-4.7.66c-2.18,1.54-2.31,4.26-2.18,5.81s1.27,2.7,3.55,2a4.77,4.77,0,0,0,3-2.44c-2,.92-2.94,1-3.6.46s-.13-1.75-.13-1.75l5-1.12C52.14,23.9,51,23.26,50.49,23Zm14.69-2.1s-.84-.1-1.67-.11a6.6,6.6,0,0,1-2.1-.29c-.56-.22-.7-.35-1-.12a24,24,0,0,1-2.92,1.82,3.06,3.06,0,0,0-2.17-.89,12.29,12.29,0,0,1-1,.93,1.1,1.1,0,0,0-.51.66s.49.32.25,1.2-.56,2.63-.69,3.41a1.72,1.72,0,0,0,1.08,2.18c1.19.36,3-.14,5.36-3.33a10.87,10.87,0,0,1-1.89.51c-.43,0-1-.12-.87-.82s.46-2.37.46-2.37,0-.38.54-.77.86-.8,1.73-.51,2.39.94,3.2.37S65,21.36,65.18,20.9ZM38.51,27.66c-.3,0-1.08-.43-1.5-.13a3.35,3.35,0,0,0-.95,1.35,1.9,1.9,0,0,0,.8,2.41c.74.28.5-.84.71-1.42a3.72,3.72,0,0,1,1.08-1.58C39,28,38.81,27.66,38.51,27.66ZM38.14,9.1l1.13.35c1,.31,1.21.46,1.21.83s-.28.43-.68.43A2.71,2.71,0,0,1,38,9.86H36.28v2.51h1.86v-.88a3.69,3.69,0,0,0,2.62,1.06c1.88,0,3.21-1.11,3.21-2.69a2.64,2.64,0,0,0-2-2.54l-2-.71a.5.5,0,0,1-.38-.45c0-.3.33-.45.78-.45a1.28,1.28,0,0,1,1.23.83h1.86V4H41.71V4.9A3.33,3.33,0,0,0,39.2,3.85a2.82,2.82,0,0,0-3,2.74A2.63,2.63,0,0,0,38.14,9.1Zm6.69-2.56v3.57a2.35,2.35,0,0,0,2.59,2.44,3.07,3.07,0,0,0,2.86-1.94v1.76h4V10.61a.59.59,0,0,1-.63-.63V4H49.35V5.78a.67.67,0,0,1,.76.76V9a.88.88,0,0,1-1.76,0V4H44.07V5.78A.67.67,0,0,1,44.83,6.54Zm15.06,4.07a.59.59,0,0,1-.63-.63V8.67l2.62,3.7h3.19V10.61a1.14,1.14,0,0,1-.76-.53L62.53,7.69l1.11-1.05a2.72,2.72,0,0,1,1.3-.86V4h-4.7V5.78h1.41L59.26,8V.05H55.11V1.81a.59.59,0,0,1,.63.63V10a.59.59,0,0,1-.63.63v1.76h4.78Zm5.58-.75c0-1.59,1.46-2.69,3.42-2.69a4.05,4.05,0,0,1,2.24.6V7.39C71.13,6.46,70.22,6,69,6a6.46,6.46,0,0,0-2.29.5l-.48-1.93A10,10,0,0,1,70,3.85c2.84,0,4.65,1.38,4.65,3.64V9.86a.66.66,0,0,0,.75.75v1.76H71.91V10.86c-.41,1.13-1.31,1.69-3,1.69C66.85,12.55,65.47,11.49,65.47,9.86Zm3.65-.13a.77.77,0,0,0,.8.8h.48a.8.8,0,0,0,0-1.6h-.48A.77.77,0,0,0,69.12,9.73Zm-39.53.88a.66.66,0,0,1-.75-.75V4H24.56V5.78a.67.67,0,0,1,.76.76V9.86a.67.67,0,0,1-.76.75v1.76h5ZM0,6.36A6.14,6.14,0,0,1,6.29,0a6.12,6.12,0,0,1,6.28,6.36,6.09,6.09,0,0,1-6.28,6.36A6.11,6.11,0,0,1,0,6.36ZM5,9.05a1.19,1.19,0,0,0,1.26,1.26A1.18,1.18,0,0,0,7.54,9.05V3.67A1.19,1.19,0,0,0,6.29,2.41,1.19,1.19,0,0,0,5,3.67Zm13.5,1.56a.66.66,0,0,1-.75-.75V7.37a.88.88,0,1,1,1.76,0v5h4.27V10.61a.66.66,0,0,1-.75-.75V6.29a2.35,2.35,0,0,0-2.59-2.44A3.07,3.07,0,0,0,17.6,5.78V4H13.5V5.78a.67.67,0,0,1,.76.76V9.86a.67.67,0,0,1-.76.75v1.76h5Zm12.12,1.76h5V10.61h-.2c-.88,0-1.26-.38-1.26-1.26V5.88h1.48V4H34.17V1.23H30.75V2.92c0,.75-.35,1.1-1.11,1.1V5.78h1ZM28.84.35H25.32V3.12h3.52Z" style="fill:#222322"/></svg>