<svg xmlns="http://www.w3.org/2000/svg" viewBox="0 0 414.28 103.25"><defs><style>.cls-1{fill:#fff;}</style></defs><g id="レイヤー_2" data-name="レイヤー 2"><g id="レイヤー_1-2" data-name="レイヤー 1"><path class="cls-1" d="M414.28,13.13V23.76a15.59,15.59,0,0,0-2.66-.25c-3.78,0-6.09,2-6.09,5.4v4.72a2.27,2.27,0,0,0,2.57,2.57h2.14v6h-19.3v-6a2.27,2.27,0,0,0,2.57-2.57V22.31a2.27,2.27,0,0,0-2.57-2.58v-6h13.64v8.58C405.87,16,409,13.13,414.28,13.13Zm-25,15.27v2.23H372.07c.26,3.26,1.37,4.89,5.49,4.89a18.56,18.56,0,0,0,7.63-1.63l2.49,5.49a22.93,22.93,0,0,1-11.24,3.43c-9.78,0-16.81-6.09-16.81-14.84s6.17-14.84,14.93-14.84C382.88,13.13,389.31,19.65,389.31,28.4Zm-11.24-5.92a3,3,0,1,0-6,0V26h6ZM322.91,1.2h-12v9.44h12Zm22.82,12.53h13.56s0,4.11,0,6a2.29,2.29,0,0,0-2.57,2.57V40.66c0,8.58-6.35,13.9-16.56,13.9-4.11,0-7.2-.86-12.52-3.34l2.57-6.52c3.43,1.63,5.41,2.14,7.64,2.14,4.54,0,6.86-2.14,6.86-6.18V37.23c-1.11,2.92-4,4.55-7.81,4.55-6.77,0-10.46-5.15-10.46-14.24s3.77-14.41,10.64-14.41c4.46,0,7.46,2.23,8.66,6.6Zm-.34,10.89a3.26,3.26,0,0,0-6.52,0V31a3.26,3.26,0,0,0,6.52,0Zm-22.48,9V13.73H308.33v6a2.28,2.28,0,0,1,2.57,2.58V33.63a2.27,2.27,0,0,1-2.57,2.57v6h17.15v-6A2.27,2.27,0,0,1,322.91,33.63ZM265.26,16.3h6.86V12.87a3.79,3.79,0,0,1,4.12-4.12h1.89v24a2.63,2.63,0,0,1-2.92,2.92h-3.09v6.52h26.6V35.69h-3.09a2.63,2.63,0,0,1-2.92-2.92v-24h1.89a3.79,3.79,0,0,1,4.12,4.12V16.3h6.78V1.2H265.26ZM223.4,33.63c0-5.41,5-9.18,11.66-9.18a13.8,13.8,0,0,1,7.64,2.06V25.22c0-3.17-3.09-4.72-7.12-4.72a22.15,22.15,0,0,0-7.81,1.72l-1.63-6.61a34.14,34.14,0,0,1,12.7-2.48c9.69,0,15.87,4.71,15.87,12.44v8.06a2.27,2.27,0,0,0,2.57,2.57v6H245.36V37.06c-1.37,3.86-4.46,5.75-10.3,5.75C228.11,42.81,223.4,39.21,223.4,33.63Zm12.44-.43A2.65,2.65,0,0,0,238.58,36h1.63a2.75,2.75,0,1,0,0-5.49h-1.63A2.65,2.65,0,0,0,235.84,33.2Zm-31.49,3a2,2,0,0,1-2.14-2.14V29.6l8.92,12.61H222v-6a3.8,3.8,0,0,1-2.57-1.8l-6.09-8.15,3.77-3.6c1.8-1.72,3.52-2.92,4.46-2.92v-6h-16v6h4.81l-8.15,7.47V.17H188.05v6a2,2,0,0,1,2.15,2.14V34.06a2,2,0,0,1-2.15,2.14v6h16.3ZM153,22.31V34.49c0,5.06,3.43,8.32,8.84,8.32,4.29,0,7.38-2.06,9.78-6.61v6h13.55v-6A2,2,0,0,1,183,34.06V13.73H168.4v6A2.28,2.28,0,0,1,171,22.31V30.8a3,3,0,0,1-6,0V13.73H150.39v6A2.28,2.28,0,0,1,153,22.31Zm-2.91,11.32c0-4.2-2.58-7.12-7-8.67l-6.69-2.4A1.76,1.76,0,0,1,135.12,21c0-1,1.11-1.55,2.66-1.55a4.4,4.4,0,0,1,4.2,2.84h6.35V13.73h-6v3a11.32,11.32,0,0,0-8.57-3.6c-5.84,0-10.21,4-10.21,9.35a9,9,0,0,0,6.6,8.58l3.86,1.2c3.35,1,4.12,1.54,4.12,2.83,0,1-.94,1.46-2.32,1.46-2,0-3.51-.86-6-2.92h-6v8.58h6.35v-3a12.58,12.58,0,0,0,8.92,3.6C145.5,42.81,150.05,39,150.05,33.63ZM116.59,4.2H104.92V10c0,2.57-1.2,3.78-3.77,3.78v6h3.43V42.21h17v-6h-.68c-3,0-4.29-1.28-4.29-4.29V20.07h5.06V13.73h-5.06ZM98.4,1.2h-12v9.44h12Zm0,32.43V13.73H83.82v6a2.28,2.28,0,0,1,2.57,2.58V33.63a2.27,2.27,0,0,1-2.57,2.57v6H101v-6A2.27,2.27,0,0,1,98.4,33.63Zm-19.73,0V21.45c0-5.06-3.43-8.32-8.84-8.32-4.29,0-7.38,2-9.78,6.6v-6h-14v6a2.28,2.28,0,0,1,2.57,2.58V33.63a2.27,2.27,0,0,1-2.57,2.57v6H63.23v-6a2.27,2.27,0,0,1-2.58-2.57V25.14a3,3,0,1,1,6,0V42.21H81.24v-6A2.27,2.27,0,0,1,78.67,33.63ZM42.89,21.7c0,12.87-9.17,21.71-21.44,21.71S0,34.49,0,21.7,9.26,0,21.45,0,42.89,9,42.89,21.7ZM25.74,12.52a4,4,0,0,0-4.29-4.28,4,4,0,0,0-4.29,4.28V30.88a4,4,0,0,0,4.29,4.29,4.05,4.05,0,0,0,4.29-4.29ZM177.81,94.84l-6.09-8.15,3.78-3.6c1.8-1.72,3.52-2.92,4.46-2.92v-6h-16v6h4.8l-8.15,7.46v-27H146.41v6a2,2,0,0,1,2.15,2.14V94.5a2,2,0,0,1-2.15,2.14v6h16.31v-6a2,2,0,0,1-2.15-2.14V90l8.92,12.61h10.9v-6A3.82,3.82,0,0,1,177.81,94.84Zm81.52-9.44-6.7-2.4a1.76,1.76,0,0,1-1.28-1.54c0-1,1.11-1.55,2.66-1.55a4.41,4.41,0,0,1,4.2,2.83h6.35V74.17h-6v3a11.33,11.33,0,0,0-8.58-3.6c-5.83,0-10.2,4-10.2,9.35a9,9,0,0,0,6.6,8.58l3.86,1.2c3.35,1,4.12,1.54,4.12,2.83,0,1-.94,1.46-2.32,1.46-2,0-3.51-.86-6-2.92h-6v8.58h6.35v-3a12.58,12.58,0,0,0,8.92,3.6c6.44,0,11-3.78,11-9.18C266.27,89.87,263.7,87,259.33,85.4ZM199.15,61.64h-12v9.44h12Zm0,32.43V74.17H184.57v6a2.27,2.27,0,0,1,2.57,2.57V94.07a2.27,2.27,0,0,1-2.57,2.57v6h17.16v-6A2.28,2.28,0,0,1,199.15,94.07Zm36.43,0h1.18v8.58H222.65V98.13c-1.3,3.41-4.74,5-8.75,5-6.78,0-10.47-5.15-10.47-14.24s3.77-14.42,10.64-14.42c4.42,0,7.41,2.2,8.63,6.51l0-10.89a3.14,3.14,0,0,0-.08-.81s0-.06,0-.09,0,0,0,0a1.13,1.13,0,0,0-1-.54h-1.18v-7h14V92.46h0v.31a4.19,4.19,0,0,0,0,.5,1.22,1.22,0,0,0,.1.24h0A1.12,1.12,0,0,0,235.58,94.07ZM222.4,86a3.26,3.26,0,0,0-6.52,0v6.35a3.26,3.26,0,0,0,6.52,0Z"/></g></g></svg>