<svg xmlns="http://www.w3.org/2000/svg" viewBox="0 0 812.04 743.49"><defs><style>.cls-1{fill:#fff;}</style></defs><g id="レイヤー_2" data-name="レイヤー 2"><g id="size"><path class="cls-1" d="M759.21,586.68l-.07,0c0-.07-.35-.39-.67-.71v-.5c0-2,0-3.95,0-5.93a6,6,0,0,0-1.3-3.56,31.62,31.62,0,0,1-4.26-6.41,8.12,8.12,0,0,1-.35-6.59,34.37,34.37,0,0,0,2.06-8.44c.32-2.22.39-4.47.59-6.71,0-.54-.08-.83-.67-.74-1.95.28-3.91.52-5.85.84-1.25.19-2.47.51-3.71.73-1.47.28-3,.56-4.44.72a37.63,37.63,0,0,1-5.19.29c-1.46,0-2.9-.45-4.36-.63a44.29,44.29,0,0,0-4.72-.44c-2.32,0-4.65,0-7,.17a38,38,0,0,0-3.93.8,25.12,25.12,0,0,1-4.68.61,44.58,44.58,0,0,1-5.94-.8c-1.89-.32-3.75-.74-5.64-1.09-2.12-.39-4.24-.77-6.36-1.1l-.49-.08c-.7.14-1,2.15-.59,4.48l.54,2a37.84,37.84,0,0,0,3.94,9.4c.57,1,1.08,2,.43,3.08a10.26,10.26,0,0,1-1.25,1.6c-1.19,1.31-2.43,2.57-3.63,3.88a4.27,4.27,0,0,0-1.12,2.61.94.94,0,0,0,.83,1.17l.3.08c.36.19-.07.7-1,1.12l.08,1.62a8.45,8.45,0,0,1,0,1.12,2,2,0,0,1-.27.9c-.58.86-1.21,1.68-1.8,2.52l-.32.44c-.34.53-.25,1,.2,1.11s1.45.71,1.38,1.25l-.65.05-.67,0c-.8.21-.8.7,0,1.07l.62.37c.78.47.76.81,0,1.31l-.47.31a5.32,5.32,0,0,0-.91.65,9.13,9.13,0,0,0,1.78.46l.87.17c-2.68-.51.45,3.13.63,3.34,2.11,2.51,4.68,4.38,6.93,6.71a38.07,38.07,0,0,0,7.27,6.31,36.46,36.46,0,0,1,3.16,2c3.15,2.43,4.57,5.95,5.7,9.57a9,9,0,0,0,4.73,5.81,19.13,19.13,0,0,0,9.55,1.88,10.19,10.19,0,0,0,2.7-.47,11.76,11.76,0,0,0,7.13-6.8c1.24-2.85,2.31-5.76,3.52-8.61a9.07,9.07,0,0,1,4.74-5.14c1.6-.7,3.25-1.27,4.89-1.87a10.81,10.81,0,0,0,5.18-3.55,18.28,18.28,0,0,0,1.55-2.44,13.63,13.63,0,0,0,1.1-2.55c.37-1.37.56-2.78.91-4.15C760.82,588,760.8,587.87,759.21,586.68Zm-47.4-18.55a.82.82,0,0,0,.12-.41,7.08,7.08,0,0,1,.44-1.51c.2-.39.28-1.49.47-1.52a2,2,0,0,0,.64-.39s0-.09.09-.09.18,0,.2-.09a1.8,1.8,0,0,1,.67-.37,2.55,2.55,0,0,1,.72-.1,1.68,1.68,0,0,1,.59,0,.46.46,0,0,1,.22.14s.11.16.17.16a.84.84,0,0,1,.37.27,9.4,9.4,0,0,0,1.06,1.07c.35.3,1,1.41,1.21,1.63s.75,1,.79,1a.58.58,0,0,1,.2.31,2.13,2.13,0,0,0,.13.45.11.11,0,0,1,.08.09s0,.18,0,.18a.82.82,0,0,1,0,.45,3.11,3.11,0,0,0,0,.77,3.76,3.76,0,0,1-.07.91c-.09.5-.36,1.49-.38,1.61a1.77,1.77,0,0,1-.28.63,3.77,3.77,0,0,0-.45.45s-.12.18-.17.18-.18,0-.2.09-.12.18-.17.18-.18,0-.2.09-.07.11-.1.16-.07.12-.1.15-.09,0-.13,0a.83.83,0,0,0-.16.09c-.09.07-.18,0-.29.07a1.68,1.68,0,0,0-.4.13s-.1.07-.21.05a.9.9,0,0,0-.36-.05c-.11,0-.1.18-.24.14l-.12,0a.86.86,0,0,0-.16,0c-.15,0-.2-.09-.29-.15a.6.6,0,0,0-.23-.06c-.13,0-.25.08-.39,0a1.29,1.29,0,0,0-.21-.07c-.14,0-.14-.12-.26-.17l-.41-.1a4.86,4.86,0,0,1-.9-.28A.7.7,0,0,1,713,574s0-.2-.08-.23a.6.6,0,0,1-.2-.27,1.07,1.07,0,0,0-.17-.4.79.79,0,0,1-.2-.36,3,3,0,0,0-.12-.54.53.53,0,0,1-.08-.32,4.16,4.16,0,0,0,0-.63s-.09-.06-.09-.14,0-.27,0-.27a.49.49,0,0,1-.08-.31,4.05,4.05,0,0,0,0-.63,10.53,10.53,0,0,1-.08-1.17A2.29,2.29,0,0,1,711.81,568.13Zm28.94,28.09a3.5,3.5,0,0,0-.55.45,2.92,2.92,0,0,0-.64,1.42,3.45,3.45,0,0,1-1,1.56c-.56.57-1.13,1.11-1.72,1.65a3.74,3.74,0,0,1-1.3.86,3.88,3.88,0,0,0-1,.55,1.37,1.37,0,0,0-.47.31,1.4,1.4,0,0,0-.83.29,1.19,1.19,0,0,0-.35.45l-.43.22a2.4,2.4,0,0,0-1,.31l-.35.09a3.17,3.17,0,0,0-.75.1,4,4,0,0,1-1,.09,24.44,24.44,0,0,0-3.2-.2,1.46,1.46,0,0,0-.36-.09,1.17,1.17,0,0,0-.9-.07l-.09,0a1.35,1.35,0,0,0-.62-.08l-.1,0a1.48,1.48,0,0,0-.29-.12,1.64,1.64,0,0,0-1.19-.35,1.9,1.9,0,0,0-.36-.08l-.16,0a13.09,13.09,0,0,0-1.25-.41,2.13,2.13,0,0,0-.54-.16l-.23,0a1.57,1.57,0,0,0-.69-.18l-.28-.11a1.22,1.22,0,0,0-.55-.23,2.33,2.33,0,0,0-.33-.14,7.34,7.34,0,0,0-.67-.3,1.74,1.74,0,0,0-.56-.31l-.16-.06a1.86,1.86,0,0,0-.64-.39,9.51,9.51,0,0,1-1.22-.8,1,1,0,0,0-.24-.15,1.13,1.13,0,0,0-.42-.27l-.11-.11a7.35,7.35,0,0,0-1-1,2.37,2.37,0,0,0-.43-.46,1.2,1.2,0,0,0-.11-.1,2,2,0,0,0-.5-.63,1.82,1.82,0,0,0-.41-.65,1.4,1.4,0,0,0-.44-.66,1.93,1.93,0,0,0-.23-.43,1.89,1.89,0,0,0-.11-.25,1.62,1.62,0,0,0-.19-.62l-.12-.24a3.81,3.81,0,0,0-.16-.53,2.17,2.17,0,0,0-.13-.58,1.87,1.87,0,0,0-.11-.58,3.83,3.83,0,0,0-.09-.91,4.47,4.47,0,0,1,.24-2.51.28.28,0,0,1,.14-.16.36.36,0,0,1,.18,0c.22,0,.72,0,.89.15a2.26,2.26,0,0,0,.55.48A17.23,17.23,0,0,1,715,592.5a1.61,1.61,0,0,1,.32.37,4.48,4.48,0,0,1,.67,1.23c.08.47,0,1,.08,1.45a2,2,0,0,0,.9,1.31,1.41,1.41,0,0,0,.38.21.39.39,0,0,0,.11.06,1.32,1.32,0,0,0,.53.32l.24.11a2.16,2.16,0,0,0,.65.21l.11,0a1.38,1.38,0,0,0,.48.26,1.74,1.74,0,0,0,.57.19l.11,0a1.33,1.33,0,0,0,.48.18,2.21,2.21,0,0,0,.59.13,9.77,9.77,0,0,1,1.1.22,4.88,4.88,0,0,0,2.4,0,4.6,4.6,0,0,0,.55-.12,1.71,1.71,0,0,0,1.19-.32,1.78,1.78,0,0,0,.66-.2,1.25,1.25,0,0,0,.5-.32,2.41,2.41,0,0,0,.85-.47,1.84,1.84,0,0,0,.58-.46l.22-.25a1.48,1.48,0,0,0,.51-.58,1.68,1.68,0,0,0,.36-.47,1.27,1.27,0,0,0,.27-.42,1.83,1.83,0,0,0,.31-.51,1.27,1.27,0,0,0,.2-.31,26.93,26.93,0,0,0,.57-.79,1.54,1.54,0,0,0,.43-.62.93.93,0,0,0,0-.1,1.88,1.88,0,0,0,.48-.7,1.54,1.54,0,0,0,.27-.37,3.85,3.85,0,0,1,1.43-1.2l.27-.09a2.36,2.36,0,0,0,.34-.3c.35-.3.71-.13,1.1-.24l.21-.08.17,0c.24-.07.66,0,.94,0a1.09,1.09,0,0,1,.83.06,1.63,1.63,0,0,1,.45.42l.59.69c.34.4.28.82.56,1.23a7.08,7.08,0,0,0,.89.84,6.68,6.68,0,0,1,.7.91,1.76,1.76,0,0,1,.24,1A1.71,1.71,0,0,1,740.75,596.22Zm1-23.76a.15.15,0,0,0-.08.13.81.81,0,0,1,0,.27,1.32,1.32,0,0,0-.08.54c0,.3,0,1.08,0,1.08a.11.11,0,0,0-.09.09s0,.2-.08.23-.16.13-.16.18,0,.18,0,.18a.15.15,0,0,0-.08.13c0,.08,0,.29-.09.32s-.13.29-.22.43a1.66,1.66,0,0,1-.53.38.91.91,0,0,1-.54.08,1.49,1.49,0,0,1-.52-.07,2.79,2.79,0,0,0-.39-.1,3.74,3.74,0,0,1-.65-.14c0-.08-.23-.09-.28-.09a.84.84,0,0,1-.44-.07l-.26-.11s0-.09-.09-.09-.16,0-.16,0a.7.7,0,0,0-.36-.21c-.2-.07-.59-.73-.7-.77s-.19-.21-.26-.3a.57.57,0,0,0-.12-.15c-.07,0-.14,0-.21-.08a.53.53,0,0,1-.2-.25c0-.07,0-.23-.07-.27s-.12-.09-.07-.09,0-.28,0-.31a.47.47,0,0,0-.3-.34c-.18,0-.37-.11-.38-.32s0-.17-.09-.25a.45.45,0,0,1-.19-.15,1.7,1.7,0,0,1,0-.22c0-.12-.19-.17-.27-.27a.5.5,0,0,1-.09-.34,2.51,2.51,0,0,1,.07-.64.11.11,0,0,0,.08-.09s0-.18,0-.18a.14.14,0,0,0,.09-.13.76.76,0,0,1,0-.27A.27.27,0,0,0,734,570a1.47,1.47,0,0,1,.12-.36.66.66,0,0,0,.08-.36,2.3,2.3,0,0,1,.17-.86,1.42,1.42,0,0,0,.32-.36.6.6,0,0,1,.17-.31,1.87,1.87,0,0,0,.32-.36s0-.19.05-.19a.38.38,0,0,0,.16-.13c0-.07.2-.27.24-.27s.17,0,.17,0a.32.32,0,0,1,.24-.09,1.26,1.26,0,0,0,.57-.13,1,1,0,0,1,.49-.32,2.26,2.26,0,0,1,1.08.25,3.22,3.22,0,0,0,.75.35,1.08,1.08,0,0,1,.35.22c.11.1.16.25.27.36a1.71,1.71,0,0,1,.41.49.69.69,0,0,0,.13.36c.06,0,.24.22.24.27a.45.45,0,0,0,.08.23.64.64,0,0,1,.21.22,1.77,1.77,0,0,0,.32.5,3.07,3.07,0,0,1,.49.54s0,.2.09.22a.48.48,0,0,1,.16.27,1.36,1.36,0,0,0,0,.36c.16,0,.22.64.21.74S741.74,572.46,741.75,572.46Z"/><path class="cls-1" d="M11.18,679.05C4.12,679.05,0,684.37,0,689.69a10.15,10.15,0,0,0,10.48,10.14c6,0,11.06-4.37,11.06-10.68A10.14,10.14,0,0,0,11.18,679.05Zm.06,20c-5.13,0-9-4.12-9-10.3s3.83-8.93,8-9c5.1,0,9.12,3.48,9.12,10.67C19.38,696.12,15.52,699.07,11.24,699.07Z"/><path class="cls-1" d="M35.58,696.25V690a3.79,3.79,0,0,0-4.12-4.12,4.93,4.93,0,0,0-2.56.88c-1,.67-1.78,1.24-2.41,1.62V685.7A9.8,9.8,0,0,1,23,687v.41c1.78.35,2,.48,2,2.6v6.36c0,1.91-.51,2.38-2.34,2.51v.44H29v-.44c-2.18-.13-2.5-.6-2.5-2.63v-7.13a6.39,6.39,0,0,1,4.15-1.93c2.91,0,3.42,2,3.42,3.83v5.2c0,2.09-.38,2.53-2.54,2.66v.44h6.12v-.44C35.86,698.78,35.58,698.46,35.58,696.25Z"/><path class="cls-1" d="M41.17,681.36a1.26,1.26,0,0,0,1.21-1.26,1.21,1.21,0,1,0-1.21,1.26Z"/><path class="cls-1" d="M41.9,696.5V685.73A12.76,12.76,0,0,1,38.35,687v.41c1.81.32,2,.48,2,2.5v6.59c0,1.84-.32,2.25-2.34,2.41v.44h6.24v-.44C42.22,698.75,41.9,698.34,41.9,696.5Z"/><path class="cls-1" d="M49.94,698.53c-1,0-1.9-.54-1.9-3.11v-8.23h3.58a.82.82,0,0,0,.31-.63.85.85,0,0,0-.09-.38H48v-3.93l-.44,0-1.08,2.15v1.75H45l-.86.66.1.35h2.28v9.09c0,2.15.85,3.42,2.63,3.42a2.33,2.33,0,0,0,1.3-.35l1.93-1-.26-.48A4.18,4.18,0,0,1,49.94,698.53Z"/><path class="cls-1" d="M57.06,691.69c-1.27-.51-2.82-1.27-2.82-2.82a2.2,2.2,0,0,1,2.35-2.34c1.61,0,2.78,1.61,3.32,3.19l.44-.19a21.4,21.4,0,0,0-.6-3.2,5.85,5.85,0,0,0-2.47-.5c-2.75,0-4.53,1.77-4.53,3.74s1.78,3,3.77,3.79c1.55.64,2.63,1.46,2.63,3.14a2.34,2.34,0,0,1-2.53,2.5c-1.94,0-3.36-1.93-4-4l-.48.15a21,21,0,0,0,.48,3.45,5.17,5.17,0,0,0,3.42,1.05c2.44,0,4.75-1.43,4.75-4C60.83,693.68,59.28,692.54,57.06,691.69Z"/><path class="cls-1" d="M76.4,698.21l-1-.06c-1.23-.1-1.58-.26-1.58-1.84V686a23.79,23.79,0,0,1-4.31.57v.34l1.2.2c1.14.22,1.59.34,1.59,2.21v7a6.07,6.07,0,0,1-4.12,2c-1.77,0-3.29-.82-3.29-4V690.1A39.6,39.6,0,0,1,65,686c-.7.15-3,.54-3.76.6v.31l1,.22c.66.2,1.14.35,1.14,2.22v5.86c0,3.52,1.9,4.5,3.8,4.5a4.3,4.3,0,0,0,2.4-.7,18.53,18.53,0,0,0,2.73-1.87v2.44l.16.16a18.88,18.88,0,0,1,3.89-1.08Z"/><path class="cls-1" d="M82.72,691.69c4-4.57,4.88-4.82,7.23-5.2V686l-6.21.28v.48c.91.12,1.33.25,1.33.57a13.48,13.48,0,0,1-3,3.89,5,5,0,0,1-2.22.95V677.5a14.65,14.65,0,0,1-3.87,1.07V679c2.13.22,2.35.53,2.35,2.66v14.66c0,2.06-.32,2.5-2.5,2.63v.44h6.49v-.44c-2.15-.13-2.47-.57-2.47-2.63v-3.52a2.31,2.31,0,0,1,.76-.19,2,2,0,0,1,1.36.79c1.81,1.75,4,4.34,5.83,6.06l3.29-.07v-.44c-1,.09-1.61-.45-3-1.68A68.34,68.34,0,0,1,82.72,691.69Z"/><path class="cls-1" d="M101.3,698.24c-.67,0-1.14-.5-1.14-1.8v-6.81a3.47,3.47,0,0,0-3.51-3.8A16.18,16.18,0,0,0,92.18,688a1.45,1.45,0,0,0-.89,1.14,1.05,1.05,0,0,0,.95,1.08.7.7,0,0,0,.7-.54c.54-2.53,2.25-2.66,2.76-2.69,2.85,0,2.88,2.75,2.88,4.31A25.34,25.34,0,0,1,94.24,693c-2.19.66-3.17,1.67-3.17,3.1a3.57,3.57,0,0,0,3.67,3.61c1.18,0,2.6-1.11,3.84-2.06a3.09,3.09,0,0,0,.69,1.49,2.76,2.76,0,0,0,1,.57l2.69-1.33-.29-.54A2.65,2.65,0,0,1,101.3,698.24Zm-2.72-1.52a4.78,4.78,0,0,1-3.17,1.62,2.46,2.46,0,0,1-2.47-2.5c0-1.18.86-1.78,2.28-2.32.7-.28,2.69-1,3.36-1.42Z"/><path class="cls-1" d="M125.23,678.8l-.54,0a1.43,1.43,0,0,1-1.49.76H110.44a3.18,3.18,0,0,1-1-.09,1.34,1.34,0,0,1-.7-.67h-.51c-.06,1.78-.16,3.68-.35,5.55h.51c1-3.33,1.36-4,5.51-4h2v15.52c0,2.4-.23,2.94-3.39,3.1v.44H121v-.44c-3.3-.16-3.52-.7-3.52-3.1V680.29h2.82c2.69,0,3.89.44,4.66,4l.53-.13A51.21,51.21,0,0,1,125.23,678.8Z"/><path class="cls-1" d="M127.84,680.1a1.28,1.28,0,0,0,1.21,1.26,1.26,1.26,0,0,0,1.2-1.26,1.21,1.21,0,1,0-2.41,0Z"/><path class="cls-1" d="M132.15,698.91c-2.06-.16-2.38-.57-2.38-2.41V685.73a12.65,12.65,0,0,1-3.55,1.27v.41c1.81.32,2,.48,2,2.5v6.59c0,1.84-.31,2.25-2.34,2.41v.44h6.24Z"/><path class="cls-1" d="M161,697l-.35-.48a5.1,5.1,0,0,1-3.83,1.74c-2.18,0-5.07-1.71-5-6.52,4.36-.13,8.42-.48,8.93-.57s.53-.19.53-.83a4.62,4.62,0,0,0-4.68-4.46c-2.57,0-6.37,2.88-6.37,7.53a6,6,0,0,0,6,6.34A7.45,7.45,0,0,0,161,697Zm-5.29-10.24a3.37,3.37,0,0,1,3.61,3.36c0,.19,0,.51-.79.51-1.36,0-5.83.09-6.56.09C152.49,688.11,154.17,686.71,155.75,686.71Z"/><path class="cls-1" d="M168.47,698.91c-2.53-.13-2.82-.54-2.82-2.51v-5.16c.83-2.31,2.06-3.73,2.92-3.73a1.72,1.72,0,0,1,1.33.66.27.27,0,0,0,.28.16,1.28,1.28,0,0,0,1.11-1.17,1.55,1.55,0,0,0-1.55-1.33c-1.55,0-3.26,2-4,3.74h-.07V685.7A10.88,10.88,0,0,1,162,687v.38c2,.22,2.18.41,2.18,2.73v6.2c0,2-.31,2.44-2.25,2.57v.44h6.59Z"/><path class="cls-1" d="M194.76,696.5V685.73a12.7,12.7,0,0,1-3.54,1.27v.41c1.8.32,2,.48,2,2.5v6.59c0,1.8-.32,2.23-2.24,2.39-.85,0-1.52-.52-2.84-1.66a66.66,66.66,0,0,1-5.29-5.54c4-4.57,4.88-4.82,7.22-5.2V686l-6.21.28v.48c.92.12,1.33.25,1.33.57a13.48,13.48,0,0,1-3,3.89,4.85,4.85,0,0,1-2.21.95V677.5a14.65,14.65,0,0,1-3.87,1.07V679c2.12.22,2.34.53,2.34,2.66v14.66c0,2.06-.31,2.5-2.5,2.63v.44h6.5v-.44c-2.16-.13-2.47-.57-2.47-2.63v-3.52a2.31,2.31,0,0,1,.76-.19,2,2,0,0,1,1.36.79c1.8,1.75,4,4.34,5.83,6.06l3.29-.07h5.94v-.44C195.08,698.75,194.76,698.34,194.76,696.5Z"/><path class="cls-1" d="M192.83,680.1a1.28,1.28,0,0,0,1.21,1.26,1.26,1.26,0,0,0,1.2-1.26,1.21,1.21,0,1,0-2.41,0Z"/><path class="cls-1" d="M212.91,698.59v-.38l-1.15-.09c-1-.13-1.42-.45-1.42-2V677.5a18.13,18.13,0,0,1-4.21,1.07V679c2.44.25,2.69.34,2.69,2.5v4.69a11,11,0,0,0-2.79-.35c-4.81,0-8.39,3.35-8.32,7.51a6.2,6.2,0,0,0,6,6.36,8.74,8.74,0,0,0,3.27-1.24l1.83-1v2.25A23,23,0,0,1,212.91,698.59Zm-8.17-.32c-2.83,0-5.2-2.18-5.2-5.79,0-4.59,3.07-5.73,5.1-5.73a5.26,5.26,0,0,1,4.18,1.64v8.17A6.64,6.64,0,0,1,204.74,698.27Z"/><path class="cls-1" d="M217.45,699c-1.93,0-3.36-1.93-4-4l-.47.15a20.11,20.11,0,0,0,.47,3.45,5.21,5.21,0,0,0,3.42,1.05c2.44,0,4.75-1.43,4.75-4,0-2.06-1.55-3.2-3.76-4-1.27-.51-2.82-1.27-2.82-2.82a2.2,2.2,0,0,1,2.34-2.34c1.61,0,2.79,1.61,3.32,3.19l.45-.19a24.28,24.28,0,0,0-.6-3.2,5.85,5.85,0,0,0-2.47-.5c-2.76,0-4.53,1.77-4.53,3.74s1.77,3,3.77,3.79c1.55.64,2.63,1.46,2.63,3.14A2.35,2.35,0,0,1,217.45,699Z"/><path class="cls-1" d="M234.07,699.7c1.9,0,4.08-1.43,5.41-3.2l-.37-.44c-1.68,1.77-2.79,2.15-4.31,2.15-2.06,0-5.29-1.42-5.32-6,0-3.68,2.34-5.16,4.24-5.16a5.5,5.5,0,0,1,3.77,1.14c.19.15.32.25.44.25a1.31,1.31,0,0,0,1.08-1.11c0-1-2.53-1.55-3.39-1.55-2.25,0-7.85,1.87-7.85,7.76A6.15,6.15,0,0,0,234.07,699.7Z"/><path class="cls-1" d="M240,693.08a6.78,6.78,0,0,0,7,6.62,7.06,7.06,0,0,0,7-7.19,6.81,6.81,0,0,0-7-6.68A7.1,7.1,0,0,0,240,693.08Zm12.07-.09c0,4.27-1.94,6-4.6,6-3.35,0-5.48-2.88-5.48-6.93,0-3.17,1.78-5.45,4.69-5.45C250.18,686.59,252.05,689.91,252.05,693Z"/><path class="cls-1" d="M254.53,698.91v.44h12.19v-.44c-2.09-.13-2.37-.57-2.37-2.53V677.5a12.68,12.68,0,0,1-3.81,1.07V679c2,.19,2.28.41,2.28,2.59v14.83c0,1.9-.33,2.37-2.2,2.51-1.92-.14-2.22-.61-2.22-2.51V677.5a12.69,12.69,0,0,1-3.8,1.07V679c2,.19,2.28.41,2.28,2.59v14.83C256.88,698.34,256.56,698.78,254.53,698.91Z"/><path class="cls-1" d="M278.21,690.29a4.63,4.63,0,0,0-4.69-4.46c-2.56,0-6.36,2.88-6.36,7.53a6,6,0,0,0,6,6.34A7.45,7.45,0,0,0,278,697l-.35-.48a5.13,5.13,0,0,1-3.83,1.74c-2.19,0-5.07-1.71-5-6.52,4.37-.13,8.43-.48,8.93-.57S278.21,690.93,278.21,690.29Zm-2.72.29c-1.36,0-5.83.09-6.56.09.48-2.56,2.15-4,3.74-4a3.37,3.37,0,0,1,3.61,3.36C276.28,690.26,276.28,690.58,275.49,690.58Z"/><path class="cls-1" d="M279.09,693.59a6.15,6.15,0,0,0,6.3,6.11c1.9,0,4.08-1.43,5.41-3.2l-.37-.44c-1.68,1.77-2.79,2.15-4.31,2.15-2.06,0-5.29-1.42-5.32-6,0-3.68,2.34-5.16,4.24-5.16a5.5,5.5,0,0,1,3.77,1.14c.19.15.32.25.44.25a1.31,1.31,0,0,0,1.08-1.11c0-1-2.53-1.55-3.39-1.55C284.69,685.83,279.09,687.7,279.09,693.59Z"/><path class="cls-1" d="M293.07,687.19v9.09c0,2.15.86,3.42,2.63,3.42a2.33,2.33,0,0,0,1.3-.35l1.93-1-.25-.48a4.26,4.26,0,0,1-2.19.64c-1,0-1.9-.54-1.9-3.11v-8.23h3.58a.83.83,0,0,0,.32-.63.75.75,0,0,0-.1-.38h-3.8v-3.93l-.44,0-1.08,2.15v1.75h-1.52l-.85.66.09.35Z"/><path class="cls-1" d="M301.59,681.36a1.26,1.26,0,0,0,1.2-1.26,1.2,1.2,0,1,0-1.2,1.26Z"/><path class="cls-1" d="M300.8,689.91v6.59c0,1.84-.32,2.25-2.35,2.41v.44h6.24v-.44c-2.05-.16-2.37-.57-2.37-2.41V685.73a12.88,12.88,0,0,1-3.55,1.27v.41C300.58,687.73,300.8,687.89,300.8,689.91Z"/><path class="cls-1" d="M319.16,692.51a6.81,6.81,0,0,0-7-6.68,7.1,7.1,0,0,0-7,7.25,6.78,6.78,0,0,0,7,6.62A7.06,7.06,0,0,0,319.16,692.51ZM312.64,699c-3.36,0-5.48-2.88-5.48-6.93,0-3.17,1.77-5.45,4.68-5.45,3.52,0,5.39,3.32,5.39,6.4C317.23,697.26,315.3,699,312.64,699Z"/><path class="cls-1" d="M324,696.28v-7.13a6.39,6.39,0,0,1,4.15-1.93c2.91,0,3.42,2,3.42,3.83v5.2c0,2.09-.38,2.53-2.53,2.66v.44h6.11v-.44c-1.77-.13-2.06-.45-2.06-2.66V690a3.79,3.79,0,0,0-4.11-4.12,5,5,0,0,0-2.57.88c-1,.67-1.77,1.24-2.41,1.62V685.7a9.82,9.82,0,0,1-3.51,1.33v.41c1.77.35,2,.48,2,2.6v6.36c0,1.91-.51,2.38-2.34,2.51v.44h6.36v-.44C324.31,698.78,324,698.31,324,696.28Z"/><path class="cls-1" d="M110.6,715.62v.45c2.66.12,2.91.66,2.91,3v13c0,2.31-.25,2.85-2.91,3v.44h8V735c-3.2-.16-3.48-.67-3.48-3v-6.18h3.64c3,0,3.23.38,3.77,2.85h.54v-6.14h-.54c-.54,2.12-.79,2.4-3.77,2.4h-3.64v-7.69c0-.82.06-.89.88-.89h2.66c3.65,0,4.47.83,5.07,4.18l.57-.06c-.13-1.52-.28-3.17-.28-4.88Z"/><path class="cls-1" d="M132.44,721.92a7.11,7.11,0,0,0-7,7.26,6.78,6.78,0,0,0,7,6.62,7.06,7.06,0,0,0,7-7.19A6.81,6.81,0,0,0,132.44,721.92Zm.5,13.15c-3.35,0-5.48-2.88-5.48-6.94,0-3.17,1.78-5.44,4.69-5.44,3.52,0,5.38,3.32,5.38,6.39C137.53,733.36,135.6,735.07,132.94,735.07Z"/><path class="cls-1" d="M148.38,721.92c-1.55,0-3.26,2-4,3.74h-.06V721.8a11.15,11.15,0,0,1-3.71,1.33v.38c2,.22,2.19.41,2.19,2.72v6.21c0,2-.32,2.44-2.25,2.57v.44h6.59V735c-2.54-.13-2.82-.54-2.82-2.51v-5.16c.82-2.31,2.06-3.74,2.91-3.74a1.72,1.72,0,0,1,1.33.67.29.29,0,0,0,.29.16,1.28,1.28,0,0,0,1.1-1.18A1.56,1.56,0,0,0,148.38,721.92Z"/><path class="cls-1" d="M170.29,734.31l-.95-.07c-1.24-.09-1.58-.25-1.58-1.83V722.08a23,23,0,0,1-4.31.57V723l1.2.19c1.14.22,1.59.35,1.59,2.22v7a6.09,6.09,0,0,1-4.12,2c-1.77,0-3.3-.82-3.3-4V726.2a36,36,0,0,1,.1-4.12c-.7.16-3,.54-3.77.61V723l1,.22c.66.19,1.13.35,1.13,2.22v5.86c0,3.52,1.91,4.5,3.81,4.5a4.32,4.32,0,0,0,2.4-.7,19.93,19.93,0,0,0,2.73-1.87v2.44l.15.16a19.15,19.15,0,0,1,3.9-1.08Z"/><path class="cls-1" d="M183.2,732.34V726a3.8,3.8,0,0,0-4.12-4.12,4.92,4.92,0,0,0-2.57.89c-1,.67-1.77,1.24-2.4,1.62V721.8a9.8,9.8,0,0,1-3.52,1.33v.41c1.78.35,2,.48,2,2.6v6.36c0,1.9-.51,2.38-2.35,2.51v.44h6.37V735c-2.18-.13-2.5-.61-2.5-2.63v-7.13a6.39,6.39,0,0,1,4.15-1.93c2.91,0,3.42,2,3.42,3.83v5.19c0,2.1-.38,2.54-2.54,2.67v.44h6.12V735C183.48,734.88,183.2,734.56,183.2,732.34Z"/><path class="cls-1" d="M192.21,734.31c-2.06,0-5.29-1.43-5.32-6,0-3.67,2.34-5.16,4.24-5.16a5.55,5.55,0,0,1,3.77,1.14c.19.16.32.26.45.26a1.32,1.32,0,0,0,1.07-1.11c0-1-2.53-1.56-3.39-1.56-2.25,0-7.85,1.88-7.85,7.77a6.16,6.16,0,0,0,6.3,6.11c1.9,0,4.09-1.43,5.42-3.2l-.38-.44C194.84,733.93,193.73,734.31,192.21,734.31Z"/><path class="cls-1" d="M204.36,721.92a7.11,7.11,0,0,0-7,7.26,6.78,6.78,0,0,0,7,6.62,7.06,7.06,0,0,0,7-7.19A6.81,6.81,0,0,0,204.36,721.92Zm.51,13.15c-3.36,0-5.48-2.88-5.48-6.94,0-3.17,1.77-5.44,4.68-5.44,3.52,0,5.39,3.32,5.39,6.39C209.46,733.36,207.52,735.07,204.87,735.07Z"/><path class="cls-1" d="M257.53,732.25v-6.49a3.66,3.66,0,0,0-3.83-3.84c-.64,0-1.56.1-5.26,2.57a3.82,3.82,0,0,0-3.32-2.57c-.92,0-1.78.16-5,2.45V721.8a9.66,9.66,0,0,1-3.64,1.33v.41c2,.38,2.09.51,2.09,2.63v6.24c0,2-.42,2.43-2.65,2.59-1.86-.13-2.18-.46-2.18-2.75v-6.49a3.66,3.66,0,0,0-3.83-3.84c-.63,0-1.55.1-5.26,2.57a3.82,3.82,0,0,0-3.32-2.57c-.92,0-1.78.16-5,2.45V721.8a9.66,9.66,0,0,1-3.64,1.33v.41c2,.38,2.09.51,2.09,2.63v6.24c0,2-.41,2.44-2.69,2.6v.44h6.27V735c-1.74-.13-2.06-.61-2.06-2.76v-7.06c1-.76,2.38-1.87,3.86-1.87,2.76,0,3.36,1.74,3.36,3.8v5.13c0,2.15-.38,2.63-2.76,2.76v.44h6.5V735c-1.87-.13-2.22-.61-2.22-2.76v-6.11c0-.19-.06-.54-.09-1a7.91,7.91,0,0,1,4-1.84c2.78,0,3.29,1.93,3.29,3.93v4.94c0,2.28-.47,2.69-2.69,2.82v.44h12.62V735c-1.75-.13-2.06-.61-2.06-2.76v-7.06c1-.76,2.37-1.87,3.86-1.87,2.76,0,3.36,1.74,3.36,3.8v5.13c0,2.15-.38,2.63-2.76,2.76v.44H251V735c-1.86-.13-2.21-.61-2.21-2.76v-6.11c0-.19-.07-.54-.1-1a8,8,0,0,1,4-1.84c2.79,0,3.3,1.93,3.3,3.93v4.94c0,2.28-.48,2.69-2.69,2.82v.44h6.43V735C257.85,734.88,257.53,734.56,257.53,732.25Z"/><path class="cls-1" d="M266.9,721.92a7.11,7.11,0,0,0-7,7.26,6.78,6.78,0,0,0,7,6.62,7.05,7.05,0,0,0,7-7.19A6.81,6.81,0,0,0,266.9,721.92Zm.51,13.15c-3.36,0-5.48-2.88-5.48-6.94,0-3.17,1.77-5.44,4.69-5.44,3.51,0,5.38,3.32,5.38,6.39C272,733.36,270.07,735.07,267.41,735.07Z"/><path class="cls-1" d="M293.33,732.47V713.6a12.9,12.9,0,0,1-3.8,1.07v.38c2,.19,2.28.41,2.28,2.6v14.82c0,2-.31,2.41-2.33,2.53-1.77-.12-2.06-.44-2.06-2.66V726a3.8,3.8,0,0,0-4.11-4.12,4.92,4.92,0,0,0-2.57.89c-1,.67-1.77,1.24-2.41,1.62V721.8a9.75,9.75,0,0,1-3.51,1.33v.41c1.77.35,2,.48,2,2.6v6.36c0,1.9-.5,2.38-2.34,2.51v.44h6.37V735c-2.19-.13-2.51-.61-2.51-2.63v-7.13a6.42,6.42,0,0,1,4.15-1.93c2.92,0,3.42,2,3.42,3.83v5.19c0,2.1-.38,2.54-2.53,2.67v.44h12.34V735C293.62,734.88,293.33,734.44,293.33,732.47Z"/><path class="cls-1" d="M304.35,722.72c1.3.19,1.84.38,1.84,1.2,0,1.59-3.08,8.08-3.55,9.06l-3.42-8.43a1.82,1.82,0,0,1-.22-.79c0-.63.54-.82,1.64-1v-.45h-5.79v.45c2,.31,2.18.79,2.88,2.4a106.11,106.11,0,0,1,3.67,10c0,.35-1.58,4.53-3.89,6.11-.45.32-.79.54-.79,1a1.41,1.41,0,0,0,1.42,1.3.87.87,0,0,0,.92-.63c.44-1.68,1.3-3.48,3.61-8.23,2.63-5.42,3.77-8,4.72-9.63s1.11-2.06,2.88-2.28v-.45h-5.92Z"/><path class="cls-1" d="M321.56,734.31c-2.05,0-5.29-1.43-5.32-6,0-3.67,2.35-5.16,4.25-5.16a5.57,5.57,0,0,1,3.77,1.14c.19.16.31.26.44.26a1.32,1.32,0,0,0,1.07-1.11c0-1-2.53-1.56-3.38-1.56-2.25,0-7.86,1.88-7.86,7.77a6.16,6.16,0,0,0,6.3,6.11c1.9,0,4.09-1.43,5.42-3.2l-.38-.44C324.19,733.93,323.08,734.31,321.56,734.31Z"/><path class="cls-1" d="M333.71,721.92a7.11,7.11,0,0,0-7,7.26,6.79,6.79,0,0,0,7,6.62,7.05,7.05,0,0,0,7-7.19A6.81,6.81,0,0,0,333.71,721.92Zm.51,13.15c-3.36,0-5.48-2.88-5.48-6.94,0-3.17,1.77-5.44,4.69-5.44,3.51,0,5.38,3.32,5.38,6.39C338.81,733.36,336.88,735.07,334.22,735.07Z"/><path class="cls-1" d="M349,721.92a7.11,7.11,0,0,0-7,7.26,6.78,6.78,0,0,0,7,6.62,7.06,7.06,0,0,0,7-7.19A6.81,6.81,0,0,0,349,721.92Zm.5,13.15c-3.35,0-5.48-2.88-5.48-6.94,0-3.17,1.78-5.44,4.69-5.44,3.52,0,5.39,3.32,5.39,6.39C354.13,733.36,352.19,735.07,349.53,735.07Z"/><path class="cls-1" d="M360.48,732.47V713.6a13,13,0,0,1-3.8,1.07v.38c2,.19,2.28.41,2.28,2.6v14.82c0,2-.32,2.41-2.35,2.54v.44h6.24V735C360.76,734.88,360.48,734.44,360.48,732.47Z"/><path class="cls-1" d="M386.52,732.6V721.83A13.09,13.09,0,0,1,383,723.1v.41c1.81.32,2,.47,2,2.5v6.59c0,1.8-.32,2.23-2.25,2.39-.84,0-1.52-.52-2.84-1.66a68.1,68.1,0,0,1-5.28-5.54c4-4.57,4.87-4.82,7.22-5.2v-.51l-6.21.29v.47c.92.13,1.33.26,1.33.57a13.35,13.35,0,0,1-3,3.9,4.9,4.9,0,0,1-2.22,1V713.6a14.94,14.94,0,0,1-3.86,1.07v.38c2.12.22,2.34.54,2.34,2.66v14.67c0,2.06-.32,2.5-2.5,2.63v.44h6.49V735c-2.15-.13-2.47-.57-2.47-2.63v-3.52a2.13,2.13,0,0,1,.76-.19,2,2,0,0,1,1.36.79c1.81,1.74,4,4.34,5.83,6l3.29-.06h5.95V735C386.84,734.85,386.52,734.44,386.52,732.6Z"/><path class="cls-1" d="M385.79,717.46a1.26,1.26,0,0,0,1.21-1.27,1.21,1.21,0,1,0-1.21,1.27Z"/><path class="cls-1" d="M402.1,732.22V713.6a18.24,18.24,0,0,1-4.22,1.07v.42c2.45.25,2.7.34,2.7,2.5v4.68a11.57,11.57,0,0,0-2.79-.35c-4.81,0-8.39,3.36-8.33,7.51a6.21,6.21,0,0,0,6,6.37,8.93,8.93,0,0,0,3.26-1.24l1.84-1v2.25a23.2,23.2,0,0,1,4.08-1.11v-.38l-1.14-.09C402.48,734.09,402.1,733.77,402.1,732.22Zm-1.52.44a6.7,6.7,0,0,1-4.09,1.71c-2.82,0-5.19-2.18-5.19-5.8,0-4.59,3.07-5.73,5.1-5.73a5.28,5.28,0,0,1,4.18,1.65Z"/><path class="cls-1" d="M409.65,727.79c-1.26-.51-2.82-1.27-2.82-2.83a2.22,2.22,0,0,1,2.35-2.34c1.61,0,2.78,1.62,3.32,3.2l.45-.19a22.45,22.45,0,0,0-.61-3.2,5.79,5.79,0,0,0-2.47-.51c-2.75,0-4.52,1.78-4.52,3.74s1.77,3,3.76,3.8c1.56.64,2.63,1.46,2.63,3.14a2.34,2.34,0,0,1-2.53,2.5c-1.93,0-3.36-1.93-4-4l-.47.16a20.41,20.41,0,0,0,.47,3.45,5.17,5.17,0,0,0,3.42,1c2.44,0,4.75-1.43,4.75-4C413.42,729.78,411.87,728.64,409.65,727.79Z"/><path class="cls-1" d="M147.69,699.12v-9.75c0-2.47.26-3,2.85-3.16v-.45h-4.49v2.57a7.05,7.05,0,0,0-12.44,4.75,6.78,6.78,0,0,0,7,6.62,7.21,7.21,0,0,0,5.41-2.63v.82a29.5,29.5,0,0,1-.23,4.19,5.36,5.36,0,0,1-4.63,5.21A5.69,5.69,0,0,1,138,707a1.55,1.55,0,0,1-1-1.1c0-.24-.12-2-.14-2.1-.2-.61-1.55-1-1.77,0-.19.81.83,2.35,1.42,2.87a6.24,6.24,0,0,0,5.67,1.48h0a6,6,0,0,0,1.7-.6l.44-.22,0,0a5.27,5.27,0,0,0,1.2-1C146.81,704.89,147.69,703,147.69,699.12Zm-6.61-.15c-3.35,0-5.48-2.88-5.48-6.93,0-3.17,1.78-5.45,4.69-5.45,3.52,0,5.38,3.32,5.38,6.4C145.67,697.26,143.74,699,141.08,699Z"/><path class="cls-1" d="M461.66,698.14c-.34,1-.58,1.9-1,3.34H450V701c1.69-1.69,3.4-3.4,4.87-5.15s4.11-4.23,4.11-7.29c0-2.79-1.44-4.27-3.86-4.27s-3.59,1.84-4.26,2.85l-.46-.36,1.65-2.3a5.44,5.44,0,0,1,3.84-1.63,4.61,4.61,0,0,1,4.75,4.69c0,2.7-1.44,4.63-3.9,7.27L451.94,700h6.32c1.53,0,2-.15,2.79-2Z"/><path class="cls-1" d="M477.91,692.32c0,4.29-1.62,9.5-5.79,9.5s-5.92-5.21-5.92-9.5,1.69-9.48,5.92-9.48S477.91,688.24,477.91,692.32Zm-5.79-8.77c-3.28,0-4.14,4.54-4.14,8.8s.86,8.79,4.17,8.79c3.15,0,4-4.62,4-8.79s-.89-8.8-4-8.8Z"/><path class="cls-1" d="M493.06,698.14a34.66,34.66,0,0,0-.95,3.34H481.35V701c1.68-1.69,3.4-3.4,4.87-5.15s4.11-4.23,4.11-7.29c0-2.79-1.44-4.27-3.86-4.27s-3.59,1.84-4.27,2.85l-.46-.36,1.66-2.3a5.43,5.43,0,0,1,3.83-1.63,4.61,4.61,0,0,1,4.75,4.69c0,2.7-1.44,4.63-3.89,7.27L483.34,700h6.31c1.54,0,2-.15,2.79-2Z"/><path class="cls-1" d="M498.7,701.05c2.85-.27,3-.61,3-2.66V686.64c0-1.31-.12-1.53-1.56-1.68l-1.32-.15v-.46a12.42,12.42,0,0,0,4.39-1.51v15.55c0,2.05.21,2.39,3.06,2.66v.43h-7.6Z"/><path class="cls-1" d="M537.48,686.74c-.52-1.78-1.25-4.2-4.23-4.2a3.11,3.11,0,0,0-3.31,3.43c0,2.58,1.87,3.59,3.87,4.6,1.34.67,5.11,2,5.11,5.82,0,3.19-2.45,5.49-6.31,5.55a12.33,12.33,0,0,1-3.1-.49,5.58,5.58,0,0,1-1.31-.58,34.68,34.68,0,0,1-.74-4.85H528c.49,1.66,1.81,5.12,5.4,5.12,2.36,0,3.8-1.28,3.8-4,0-3.1-2.52-4.14-4.14-5.06-.28-.15-4.78-1.59-4.78-5.33,0-2.55,2.08-4.94,5.7-4.94a10.07,10.07,0,0,1,3.58.65c.13,1,.28,2.17.49,4.26Z"/><path class="cls-1" d="M542.58,701.05c2.63-.12,2.88-.64,2.88-3.06v-12.2c0-2.46,0-2.92-2.7-3v-.46H550c1.94,0,6.69.25,6.69,5.34,0,4.47-4.26,6.31-7.15,6l-2.45-.67v5.09c0,2.39.22,2.82,3.34,3v.43h-7.87Zm4.53-8.77a6.2,6.2,0,0,0,2.61.46c2.73,0,5-1.41,5-5,0-3.34-1.93-4.88-5.7-4.88a8,8,0,0,0-1.56.07c-.22,0-.31.12-.31.76Z"/><path class="cls-1" d="M560.39,701.05c2.73-.12,3-.64,3-3.06v-12.3c0-2.42-.24-2.75-2.82-2.94v-.46h7.24c3,0,6.34.92,6.34,4.84,0,2.61-1.38,4.14-3.74,5.22a41.51,41.51,0,0,0,2.73,4.2c1.47,1.8,3.62,4.44,5.18,4.81l-.09.4c-2.79,0-4.26-.16-8.89-7.73-.77-1.1-1.69-1.13-4.29-1.13V698c0,2.42.24,2.94,2.88,3.06v.43h-7.51Zm6.5-8.77a5.69,5.69,0,0,0,3.74-.91,4.53,4.53,0,0,0,1.59-3.78c0-3.28-2.11-4.69-5.3-4.69a15.52,15.52,0,0,0-1.63.07c-.15,0-.27.09-.27.67v8.64Z"/><path class="cls-1" d="M580.93,701.05c2.67-.12,2.91-.64,2.91-3.06v-12.2c0-2.4-.24-2.92-2.91-3.07v-.43h7.42v.43c-2.64.15-2.91.67-2.91,3.07V698c0,2.42.27,2.94,2.91,3.06v.43h-7.42Z"/><path class="cls-1" d="M591.69,701.05c1.81-.12,2.67-.73,2.92-1.59a27.47,27.47,0,0,0,.33-5.7V687.1c0-2.72-.15-2.57-.7-3.24s-1.17-1-2.79-1.14v-.43h3.77l14.16,16.19h.09v-8.74c0-6,0-6.77-3.61-7v-.43h7.6v.43c-1.78.15-2.55.74-2.82,1.63a23.22,23.22,0,0,0-.31,5.39v12H610l-14.13-16.1h-.06v8.16a32.39,32.39,0,0,0,.28,5.64c.27,1,1.19,1.5,3.25,1.65v.43h-7.64Z"/><path class="cls-1" d="M636.76,693.3c-1.81.27-1.9.67-1.9,2v2.76a7.59,7.59,0,0,0,.28,2.6,30.46,30.46,0,0,1-7.12,1.26c-6.68,0-11.4-4.05-11.4-9.87,0-6.71,5.67-10.24,11.71-10.24a22.52,22.52,0,0,1,6,.83c.09.89.24,2.64.52,4.54l-.49.06c-1-3.87-3.4-4.69-6.56-4.69-5.89,0-9,3.4-9,9.07,0,4.29,2.45,9.53,9.22,9.53a13.09,13.09,0,0,0,3.93-.49c.92-.3,1.29-.73,1.29-2.08v-2.67c0-1.87-.16-2.39-3.65-2.63v-.43h7.17Z"/><path class="cls-1" d="M661,689h7.06v.43c-2.3.34-2.67,1-3.56,2.49-.83,1.19-1.56,2.48-2.51,3.74a45,45,0,0,1,4.62,6.25l-.24.25a11.45,11.45,0,0,1-2.67-1.32,30.93,30.93,0,0,0-2.82-3.65c-2.67,3.43-4.54,4.72-6.9,4.72a5.46,5.46,0,0,1-5.79-5.09c0-3.13,2.64-4.57,5-6.16-1.63-1.23-2.58-2.36-2.58-3.89a4.73,4.73,0,0,1,4.6-4.6,4.07,4.07,0,0,1,4.26,3.86,3.39,3.39,0,0,1-1.38,2.67l-2.48,1.59a38.45,38.45,0,0,1,5.86,4.94,10.6,10.6,0,0,0,2-4.51c0-.8-.68-1-2.48-1.29Zm-.55,7.64a29.85,29.85,0,0,0-6.71-5.55c-2.85,1.68-3.68,3.06-3.68,5.06a4.4,4.4,0,0,0,4.54,4.29C657.12,700.41,659.08,698.66,660.49,696.61Zm-8.21-10.7c0,1.9,1.28,3.09,2.82,4a4.26,4.26,0,0,0,2.66-4,2.89,2.89,0,0,0-2.82-3.07A2.74,2.74,0,0,0,652.28,685.91Z"/><path class="cls-1" d="M688.52,686.74c-.52-1.78-1.26-4.2-4.23-4.2A3.11,3.11,0,0,0,681,686c0,2.58,1.87,3.59,3.86,4.6,1.35.67,5.12,2,5.12,5.82,0,3.19-2.46,5.49-6.32,5.55a12.24,12.24,0,0,1-3.09-.49,5.52,5.52,0,0,1-1.32-.58,36.26,36.26,0,0,1-.74-4.85H679c.49,1.66,1.81,5.12,5.4,5.12,2.36,0,3.8-1.28,3.8-4,0-3.1-2.51-4.14-4.14-5.06-.28-.15-4.78-1.59-4.78-5.33,0-2.55,2.08-4.94,5.7-4.94a10.15,10.15,0,0,1,3.59.65c.12,1,.27,2.17.49,4.26Z"/><path class="cls-1" d="M711.69,691.43c0,3.83-.52,6.31-2.42,8.27a8.06,8.06,0,0,1-5.61,2.15,7.81,7.81,0,0,1-5-1.53c-1.6-1.29-2.43-3.19-2.43-6.66v-7.75c0-2.64-.24-2.94-3-3.19v-.43h7.39v.43c-2.61.06-2.82.74-2.82,3.19v6.8c0,5.43,2.48,7.82,6.62,7.82,4.72,0,6.38-3.62,6.41-8.95V690a27.62,27.62,0,0,0-.25-5.52c-.21-1-1.16-1.5-3.31-1.72v-.43h7.54v.43c-1.68.18-2.7.74-2.85,1.69a32.33,32.33,0,0,0-.31,5.55Z"/><path class="cls-1" d="M718.44,682.29h3.9l8.09,16.25,8.12-16.25H743v.43c-2.85.28-3.13.58-3,3.65l.22,10.88c.09,3.16.21,3.56,3.09,3.8v.43h-7.51v-.43c2.7-.21,2.79-.61,2.76-3.8l-.12-12.87h-.12L730,701.14h-.28l-7.54-15.72h-.06l-.4,8.28c-.09,1.44-.12,2.48-.12,3.31,0,2.94.31,3.77,3.16,4v.43h-7.39v-.43c1.9-.15,2.54-.67,2.79-1.9a43.33,43.33,0,0,0,.67-5.91l.43-5.61c0-.83.06-1.51.06-2.06,0-2.18-.52-2.57-2.85-2.85Z"/><path class="cls-1" d="M747.14,682.29H751l8.1,16.25,8.12-16.25h4.41v.43c-2.85.28-3.12.58-3,3.65l.22,10.88c.09,3.16.21,3.56,3.09,3.8v.43h-7.51v-.43c2.7-.21,2.79-.61,2.76-3.8l-.12-12.87H767l-8.3,16.76h-.28l-7.54-15.72h-.06l-.4,8.28c-.09,1.44-.12,2.48-.12,3.31,0,2.94.3,3.77,3.16,4v.43H746v-.43c1.9-.15,2.54-.67,2.79-1.9a43.33,43.33,0,0,0,.67-5.91l.43-5.61c0-.83.06-1.51.06-2.06,0-2.18-.52-2.57-2.85-2.85Z"/><path class="cls-1" d="M775.1,701.05c2.88-.15,3.1-.67,3.1-3V686c0-2.64-.25-3.16-2.79-3.28v-.43h13.34c0,1.07.15,2.88.27,4.69l-.52.09c-.64-3.12-1.23-4-4.94-4h-2.88c-.83,0-.86.06-.86.86v7.17h3.59c2.42,0,3-.31,3.46-2.36h.53v5.7h-.53c-.49-2.36-1.13-2.48-3.46-2.48h-3.59v6c0,2.89,1.26,2.89,3.81,2.89,1.87,0,3.7,0,4.69-1.17a9.5,9.5,0,0,0,1.71-3h.52c-.27,1.13-.85,3.86-1.1,4.9H775.1Z"/><path class="cls-1" d="M793.71,701.05c2.73-.12,3-.64,3-3.06v-12.3c0-2.42-.25-2.75-2.82-2.94v-.46h7.23c3,0,6.35.92,6.35,4.84,0,2.61-1.38,4.14-3.74,5.22a41.51,41.51,0,0,0,2.73,4.2c1.47,1.8,3.61,4.44,5.18,4.81l-.1.4c-2.78,0-4.26-.16-8.89-7.73-.76-1.1-1.68-1.13-4.29-1.13V698c0,2.42.25,2.94,2.89,3.06v.43h-7.52Zm6.5-8.77a5.67,5.67,0,0,0,3.74-.91,4.53,4.53,0,0,0,1.6-3.78c0-3.28-2.12-4.69-5.31-4.69a15.28,15.28,0,0,0-1.62.07c-.15,0-.28.09-.28.67v8.64Z"/><path class="cls-1" d="M469.63,731.23a49.71,49.71,0,0,1-1.59,5.18,38.45,38.45,0,0,1-6.17.85c-8,0-11.46-5.15-11.43-9.77,0-6.14,5.15-10.34,12.08-10.34a21.64,21.64,0,0,1,5.79.86c.25,1.54.4,3,.58,4.75l-.52.1c-.85-3.56-2.94-4.94-6.92-4.94-6.07,0-8.8,4-8.8,8.8,0,5.95,3.55,9.81,9,9.81,4.26,0,6-2.3,7.48-5.46Z"/><path class="cls-1" d="M493.79,726.93c0,6.1-4.87,10.33-10.7,10.33A9.81,9.81,0,0,1,473,727.45a10.36,10.36,0,0,1,10.82-10.3A9.81,9.81,0,0,1,493.79,726.93Zm-18.7-.36c0,6,3.77,10,8.74,10,4.14,0,7.88-2.85,7.88-8.31,0-7-3.9-10.33-8.83-10.33C478.8,717.92,475.09,720.65,475.09,726.57Z"/><path class="cls-1" d="M512.13,732c-.22,1-.89,3.44-1.11,4.78H497.69v-.42c2.6-.13,2.82-.65,2.82-3.22v-12c0-2.39-.22-2.91-2.94-3.07v-.43h7.6V718c-2.79.16-3.07.68-3.07,3.07v11.62c0,3.25.74,3.34,3.87,3.34,1.83,0,3.31-.37,4-1.1a12.7,12.7,0,0,0,1.6-3Z"/><path class="cls-1" d="M529.48,732c-.21,1-.89,3.44-1.1,4.78H515v-.42c2.61-.13,2.82-.65,2.82-3.22v-12c0-2.39-.21-2.91-2.94-3.07v-.43h7.6V718c-2.79.16-3.06.68-3.06,3.07v11.62c0,3.25.73,3.34,3.86,3.34,1.84,0,3.31-.37,4-1.1a12.33,12.33,0,0,0,1.6-3Z"/><path class="cls-1" d="M532.12,736.38c2.88-.16,3.1-.68,3.1-3v-12c0-2.63-.25-3.15-2.79-3.28v-.43h13.33c0,1.08.15,2.89.28,4.69l-.52.1c-.65-3.13-1.23-4-4.94-4H537.7c-.83,0-.86.06-.86.86v7.17h3.59c2.42,0,3-.3,3.46-2.36h.52v5.7h-.52c-.49-2.36-1.13-2.48-3.46-2.48h-3.59v6c0,2.88,1.26,2.88,3.8,2.88,1.87,0,3.71,0,4.69-1.17a9.49,9.49,0,0,0,1.72-3h.52c-.28,1.13-.86,3.86-1.1,4.9H532.12Z"/><path class="cls-1" d="M570.26,731.23a49.53,49.53,0,0,1-1.6,5.18,38.3,38.3,0,0,1-6.16.85c-8,0-11.46-5.15-11.43-9.77,0-6.14,5.15-10.34,12.08-10.34a21.64,21.64,0,0,1,5.79.86c.24,1.54.4,3,.58,4.75l-.52.1c-.86-3.56-2.94-4.94-6.93-4.94-6.07,0-8.8,4-8.8,8.8,0,5.95,3.56,9.81,9,9.81,4.26,0,6-2.3,7.48-5.46Z"/><path class="cls-1" d="M577.4,736.38c3.07-.16,3.28-.68,3.28-3v-15h-1.9c-4,0-4.41.67-5.33,3.89H573c.18-1.8.27-3.64.34-5.36h.49a1.3,1.3,0,0,0,.67.64,3,3,0,0,0,1,.09H587.8a1.4,1.4,0,0,0,1.44-.73l.52,0a47.87,47.87,0,0,0,.27,5.21l-.52.12c-.73-3.46-1.9-3.89-4.5-3.89h-2.73v15c0,2.33.21,2.85,3.4,3v.42H577.4Z"/><path class="cls-1" d="M593.16,736.38c2.67-.13,2.92-.65,2.92-3.07v-12.2c0-2.39-.25-2.91-2.92-3.07v-.43h7.42V718c-2.63.16-2.91.68-2.91,3.07v12.2c0,2.42.28,2.94,2.91,3.07v.42h-7.42Z"/><path class="cls-1" d="M625.23,726.93c0,6.1-4.87,10.33-10.7,10.33a9.81,9.81,0,0,1-10.14-9.81,10.36,10.36,0,0,1,10.82-10.3A9.81,9.81,0,0,1,625.23,726.93Zm-18.7-.36c0,6,3.77,10,8.74,10,4.14,0,7.88-2.85,7.88-8.31,0-7-3.9-10.33-8.83-10.33C610.24,717.92,606.53,720.65,606.53,726.57Z"/><path class="cls-1" d="M628.82,736.38c1.81-.13,2.67-.74,2.91-1.6a26.42,26.42,0,0,0,.34-5.7v-6.65c0-2.73-.15-2.58-.7-3.25s-1.17-.95-2.79-1.14v-.43h3.77l14.16,16.19h.09v-8.74c0-6,0-6.77-3.61-7v-.43h7.6V718c-1.78.16-2.55.74-2.82,1.63a23.22,23.22,0,0,0-.31,5.39v12h-.34L633,720.93h-.06v8.15a32.31,32.31,0,0,0,.28,5.64c.27.95,1.19,1.5,3.25,1.66v.42h-7.64Z"/><path class="cls-1" d="M812,25.17v20.4a29.44,29.44,0,0,0-5.1-.49c-7.24,0-11.68,3.78-11.68,10.36v9q0,4.94,4.93,4.94h4.12V80.94h-37V69.43q4.94,0,4.93-4.94V42.78c0-3.3-1.64-4.94-4.93-4.94V26.32h26.16V42.78C795.91,30.76,801.84,25.17,812,25.17ZM764.16,54.46v4.27H731.09c.5,6.25,2.64,9.38,10.53,9.38A35.56,35.56,0,0,0,756.27,65L761,75.51c-7.08,4.28-15.14,6.58-21.56,6.58-18.75,0-32.24-11.68-32.24-28.46s11.84-28.46,28.63-28.46C751.82,25.17,764.16,37.67,764.16,54.46ZM742.61,43.1a5.76,5.76,0,0,0-11.52,0v6.75h11.52ZM636.82,2.3h-23V20.4h23Zm43.77,24h26s0,7.9,0,11.53c-3.27,0-4.88,1.67-4.92,4.93V78c0,16.45-12.18,26.65-31.76,26.65-7.89,0-13.82-1.64-24-6.41l4.94-12.51c6.58,3.13,10.36,4.12,14.64,4.12,8.72,0,13.16-4.12,13.16-11.85V71.4c-2.14,5.59-7.73,8.72-15,8.72-13,0-20.07-9.87-20.07-27.31,0-17.6,7.24-27.64,20.4-27.64,8.56,0,14.31,4.28,16.62,12.67Zm-.66,20.9a6.25,6.25,0,1,0-12.5,0V59.39a6.25,6.25,0,0,0,12.5,0ZM636.82,64.49V26.32h-28V37.84c3.29,0,4.93,1.64,4.93,4.94V64.49q0,4.94-4.93,4.94V80.94h32.9V69.43Q636.83,69.43,636.82,64.49ZM526.27,31.26h13.16V24.68c0-4.94,3-7.9,7.9-7.9H551V62.85c0,3.61-2,5.59-5.6,5.59h-5.92v12.5h51V68.44h-5.92c-3.62,0-5.6-2-5.6-5.59V16.78h3.62c4.94,0,7.9,3,7.9,7.9v6.58h13V2.3H526.27ZM446,64.49c0-10.36,9.54-17.6,22.37-17.6a26.43,26.43,0,0,1,14.64,4V48.37c0-6.09-5.92-9-13.65-9-4.44,0-9.38,1.15-15,3.29l-3.13-12.67a65.58,65.58,0,0,1,24.35-4.77c18.59,0,30.44,9,30.44,23.86V64.49q0,4.94,4.93,4.94V80.94H488.1V71.07c-2.63,7.41-8.55,11-19.74,11C455,82.09,446,75.18,446,64.49Zm23.85-.82a5.1,5.1,0,0,0,5.27,5.26h3.12a5.27,5.27,0,1,0,0-10.53h-3.12A5.1,5.1,0,0,0,469.84,63.67Zm-60.38,5.76a3.89,3.89,0,0,1-4.11-4.12V56.76l17.11,24.18h20.89V69.43c-1.64,0-3.45-1.48-4.93-3.46L426.74,50.34,434,43.43c3.45-3.29,6.74-5.59,8.55-5.59V26.32H411.77V37.84H421L405.35,52.15V.33H378.2V11.85A3.89,3.89,0,0,1,382.32,16V65.31a3.89,3.89,0,0,1-4.12,4.12V80.94h31.26ZM310.92,42.78V66.14c0,9.7,6.58,16,16.94,16,8.23,0,14.15-3.94,18.76-12.66V80.94h26V69.43a3.89,3.89,0,0,1-4.11-4.12v-39h-28V37.84c3.29,0,4.93,1.64,4.93,4.94V59.06a5.76,5.76,0,1,1-11.51,0V26.32H306V37.84C309.27,37.84,310.92,39.48,310.92,42.78Zm-5.6,21.71c0-8.06-4.93-13.65-13.32-16.62l-12.84-4.6a3.39,3.39,0,0,1-2.46-3c0-2,2.14-3,5.1-3,3.62,0,6.41,1.81,8.06,5.43H302V26.32H290.52v5.76c-3.62-4.28-9.88-6.91-16.46-6.91-11.18,0-19.57,7.73-19.57,17.93,0,7.41,4.77,14,12.66,16.46l7.41,2.3c6.41,2,7.89,3,7.89,5.43,0,2-1.81,2.8-4.44,2.8-3.78,0-6.74-1.65-11.51-5.6H255V80.94h12.17V75.18a24.11,24.11,0,0,0,17.11,6.91C296.6,82.09,305.32,74.86,305.32,64.49ZM241.16,8.06H218.79v11c0,4.94-2.31,7.24-7.24,7.24V37.84h6.58v43.1H250.7V69.43h-1.31c-5.76,0-8.23-2.47-8.23-8.23V38.5h9.71V26.32h-9.71ZM206.28,2.3h-23V20.4h23Zm0,62.19V26.32h-28V37.84c3.29,0,4.94,1.64,4.94,4.94V64.49q0,4.94-4.94,4.94V80.94h32.91V69.43Q206.29,69.43,206.28,64.49Zm-37.84,0V41.13c0-9.71-6.58-16-16.94-16-8.23,0-14.15,3.95-18.76,12.67V26.32H105.93V37.84c3.29,0,4.93,1.64,4.93,4.94V64.49q0,4.94-4.93,4.94V80.94h32.9V69.43q-4.94,0-4.94-4.94V48.2a5.76,5.76,0,0,1,11.52,0V80.94h28V69.43Q168.45,69.43,168.44,64.49ZM99.84,41.62c0,24.68-17.61,41.63-41.13,41.63S17.58,66.14,17.58,41.62C17.58,17.27,35.35,0,58.71,0,82.23,0,99.84,17.27,99.84,41.62ZM66.93,24c0-4.94-3.29-8.23-8.22-8.23S50.48,19.08,50.48,24V59.23c0,4.93,3.29,8.22,8.23,8.22s8.22-3.29,8.22-8.22ZM358.57,181.88l-11.68-15.63,7.24-6.91c3.46-3.29,6.75-5.6,8.56-5.6V142.23H331.92v11.51h9.21l-15.62,14.32V116.23H298.36v11.52a3.88,3.88,0,0,1,4.11,4.11v49.36a3.88,3.88,0,0,1-4.11,4.11v11.52h31.26V185.33a3.88,3.88,0,0,1-4.11-4.11v-8.56l17.11,24.19h20.89V185.33C361.86,185.33,360.05,183.85,358.57,181.88Zm156.32-18.1-12.83-4.61a3.37,3.37,0,0,1-2.47-3c0-2,2.14-3,5.1-3,3.62,0,6.41,1.81,8.06,5.43h12.17V142.23H513.41V148c-3.62-4.28-9.87-6.91-16.45-6.91-11.19,0-19.58,7.73-19.58,17.93,0,7.4,4.77,14,12.67,16.45l7.4,2.3c6.42,2,7.9,3,7.9,5.43,0,2-1.81,2.8-4.45,2.8-3.78,0-6.74-1.65-11.51-5.59H477.87v16.45h12.18v-5.76A24.08,24.08,0,0,0,507.16,198c12.33,0,21.05-7.24,21.05-17.6C528.21,172.34,523.28,166.74,514.89,163.78ZM399.5,118.21h-23v18.1h23Zm0,62.19V142.23h-28v11.51q4.94,0,4.93,4.94V180.4q0,4.93-4.93,4.93v11.52h32.9V185.33Q399.5,185.33,399.5,180.4Zm69.85,0h2.27v16.45H444.55l0-8.67c-2.48,6.54-9.08,9.67-16.78,9.67-13,0-20.07-9.87-20.07-27.31,0-17.61,7.24-27.64,20.4-27.64,8.48,0,14.2,4.21,16.54,12.46l.06-20.87a5.88,5.88,0,0,0-.15-1.55c0-.06,0-.12-.07-.18a.63.63,0,0,1,0-.09,2.15,2.15,0,0,0-1.84-1h-2.26V118.21h26.89v59.11h0v.58a6.12,6.12,0,0,0,.08,1,1.81,1.81,0,0,0,.17.46s0,0,0,0h0A2.15,2.15,0,0,0,469.35,180.4Zm-25.27-15.46a6.26,6.26,0,0,0-12.51,0v12.18a6.26,6.26,0,0,0,12.51,0Z"/></g></g></svg>