<svg xmlns="http://www.w3.org/2000/svg" viewBox="0 0 43.35 46.84"><defs><style>.cls-1{fill:#fff;}</style></defs><g id="レイヤー_2" data-name="レイヤー 2"><g id="レイヤー_1-2" data-name="レイヤー 1"><path class="cls-1" d="M42.5,23.67l0,0-.4-.43v-.29c0-1.18,0-2.36,0-3.54a3.52,3.52,0,0,0-.78-2.12,19.15,19.15,0,0,1-2.54-3.83,4.88,4.88,0,0,1-.21-3.94,20.41,20.41,0,0,0,1.23-5c.19-1.32.23-2.66.35-4,0-.32,0-.49-.4-.44-1.16.16-2.33.31-3.49.5C35.48.63,34.75.82,34,1s-1.76.33-2.65.43a23.1,23.1,0,0,1-3.1.17,25.86,25.86,0,0,1-2.6-.38c-.94-.11-1.88-.24-2.82-.26-1.39,0-2.78,0-4.16.1a23.68,23.68,0,0,0-2.34.48,14.13,14.13,0,0,1-2.79.36A28.52,28.52,0,0,1,10,1.38C8.87,1.19,7.76.93,6.63.73S4.1.26,2.84.07l-.3,0C2.13.1,2,1.31,2.19,2.7l.32,1.18A22.49,22.49,0,0,0,4.87,9.49a1.7,1.7,0,0,1,.25,1.84,5.71,5.71,0,0,1-.74,1c-.72.78-1.45,1.53-2.17,2.31a2.59,2.59,0,0,0-.67,1.56.57.57,0,0,0,.5.7l.18,0c.21.12-.05.43-.57.68l.05,1a5,5,0,0,1,0,.67,1.26,1.26,0,0,1-.16.54c-.34.51-.72,1-1.08,1.5l-.19.27c-.2.31-.14.61.12.66s.87.42.83.75L.85,23l-.4,0c-.48.13-.48.42,0,.64l.37.22c.46.28.45.48,0,.78l-.27.19A3.17,3.17,0,0,0,0,25.2a6.31,6.31,0,0,0,1.06.27l.53.1c-1.61-.3.26,1.87.37,2,1.26,1.5,2.79,2.61,4.14,4a22.9,22.9,0,0,0,4.33,3.77,20,20,0,0,1,1.89,1.18c1.88,1.45,2.73,3.55,3.4,5.72a5.44,5.44,0,0,0,2.82,3.46,11.28,11.28,0,0,0,5.7,1.12,6.24,6.24,0,0,0,1.62-.27,7.05,7.05,0,0,0,4.26-4.07c.74-1.7,1.38-3.43,2.09-5.14a5.45,5.45,0,0,1,2.84-3.07c1-.41,1.94-.75,2.91-1.11A6.44,6.44,0,0,0,41.06,31,11.57,11.57,0,0,0,42,29.58a7,7,0,0,0,.65-1.52c.23-.81.34-1.66.55-2.47C43.47,24.47,43.46,24.38,42.5,23.67ZM14.21,12.6s.06-.11.08-.24a3.67,3.67,0,0,1,.26-.91c.11-.23.17-.89.28-.91a1.14,1.14,0,0,0,.38-.23s0-.05,0-.05.11,0,.12-.06a1.34,1.34,0,0,1,.41-.22,1.93,1.93,0,0,1,.42-.06,1.09,1.09,0,0,1,.36,0,.26.26,0,0,1,.13.08s.06.1.1.1a.54.54,0,0,1,.22.16,6,6,0,0,0,.63.64,12,12,0,0,1,.72,1c.13.13.45.58.48.59a.62.62,0,0,1,.12.19,1.24,1.24,0,0,0,.07.27s.05,0,.05.05,0,.11,0,.11,0,.12,0,.27a2.22,2.22,0,0,0,0,.46,1.7,1.7,0,0,1,0,.54c-.05.3-.21.89-.22,1a1.3,1.3,0,0,1-.17.38,2.26,2.26,0,0,0-.27.27s-.07.11-.1.11-.11,0-.12.05-.07.11-.1.11-.11,0-.12.05l-.06.1s0,.07-.06.09l-.08,0s-.06,0-.09.05-.11,0-.18,0a.74.74,0,0,0-.24.08s-.05,0-.12,0a.83.83,0,0,0-.22,0c-.06,0-.06.11-.14.09l-.07,0h-.1c-.09,0-.11,0-.17-.08a.33.33,0,0,0-.14,0c-.08,0-.15,0-.23,0a.5.5,0,0,0-.13,0c-.08,0-.08-.07-.15-.1a2.1,2.1,0,0,0-.24-.06,3.18,3.18,0,0,1-.54-.17.43.43,0,0,1-.09-.16s0-.12-.05-.13a.34.34,0,0,1-.12-.16.6.6,0,0,0-.1-.24.41.41,0,0,1-.12-.22,1.79,1.79,0,0,0-.07-.32s-.05-.09-.05-.19a1.68,1.68,0,0,0,0-.38.09.09,0,0,1-.05-.08.57.57,0,0,0,0-.16.3.3,0,0,1-.05-.19,2.86,2.86,0,0,0,0-.37,4.71,4.71,0,0,1-.05-.7A1.65,1.65,0,0,1,14.21,12.6ZM31.48,29.37a1.81,1.81,0,0,0-.32.27,1.66,1.66,0,0,0-.38.84,2.09,2.09,0,0,1-.59.93c-.34.34-.68.67-1,1a2.27,2.27,0,0,1-.78.52,2.69,2.69,0,0,0-.6.33.88.88,0,0,0-.28.18.85.85,0,0,0-.49.18.75.75,0,0,0-.21.26l-.26.14a1.56,1.56,0,0,0-.6.18,1,1,0,0,0-.2.06,1.66,1.66,0,0,0-.46.06,2.47,2.47,0,0,1-.61.05,13.51,13.51,0,0,0-1.91-.12l-.21-.06a.78.78,0,0,0-.54,0H22a.75.75,0,0,0-.36,0l-.07,0L21.35,34a1,1,0,0,0-.71-.21l-.21-.05-.1,0a1,1,0,0,0-.52-.17.62.62,0,0,0-.23-.07,1,1,0,0,0-.32-.09l-.13,0a1,1,0,0,0-.42-.1l-.17-.07a.7.7,0,0,0-.32-.13A.88.88,0,0,0,18,33a1,1,0,0,0-.23-.11l-.17-.07a1.21,1.21,0,0,0-.33-.18l-.1,0a1.1,1.1,0,0,0-.38-.23.93.93,0,0,0-.36-.21,1,1,0,0,0-.37-.27l-.14-.09a.89.89,0,0,0-.25-.16l-.07-.06a3.39,3.39,0,0,0-.62-.59,1.35,1.35,0,0,0-.25-.28l-.06-.05a1.36,1.36,0,0,0-.3-.38,1.12,1.12,0,0,0-.25-.39.75.75,0,0,0-.26-.39,1,1,0,0,0-.14-.26L13.68,29a1,1,0,0,0-.12-.37.61.61,0,0,0-.07-.14,1.65,1.65,0,0,0-.1-.32,1.21,1.21,0,0,0-.07-.35,1.14,1.14,0,0,0-.07-.34A2.13,2.13,0,0,0,13.2,27a2.64,2.64,0,0,1,.14-1.5.2.2,0,0,1,.08-.1h.11c.13,0,.43,0,.53.09a1.36,1.36,0,0,0,.33.29,10.58,10.58,0,0,1,1.75,1.39.8.8,0,0,1,.18.23,2.4,2.4,0,0,1,.41.73c.05.28,0,.58.05.87a1.15,1.15,0,0,0,.53.78,1,1,0,0,0,.23.12l.06,0a.78.78,0,0,0,.32.19.52.52,0,0,0,.15.06,1.14,1.14,0,0,0,.38.13h.07a1,1,0,0,0,.29.16,1.07,1.07,0,0,0,.33.11h.07a.73.73,0,0,0,.29.11,1.64,1.64,0,0,0,.35.08,4,4,0,0,1,.65.13,3,3,0,0,0,1.44,0,1.51,1.51,0,0,0,.33-.07,1,1,0,0,0,.71-.19,1,1,0,0,0,.39-.12.89.89,0,0,0,.3-.19,1.43,1.43,0,0,0,.51-.28,1.19,1.19,0,0,0,.34-.27l.13-.15a.9.9,0,0,0,.31-.35,1,1,0,0,0,.21-.28.92.92,0,0,0,.17-.25,1.26,1.26,0,0,0,.18-.3.76.76,0,0,0,.12-.19,1,1,0,0,0,.2-.27.78.78,0,0,0,.14-.2,1,1,0,0,0,.25-.37l0-.06a1.1,1.1,0,0,0,.28-.42.73.73,0,0,0,.16-.22,2.31,2.31,0,0,1,.86-.72l.15,0a.91.91,0,0,0,.21-.18c.21-.18.42-.08.65-.14l.13-.05.1,0a3.46,3.46,0,0,1,.56,0,.67.67,0,0,1,.5,0,1.07,1.07,0,0,1,.27.25c.12.14.23.28.35.41s.17.49.33.74.37.32.53.5a3.64,3.64,0,0,1,.42.55.91.91,0,0,1,.14.58A1,1,0,0,1,31.48,29.37Zm.6-14.19a.1.1,0,0,0,0,.08s0,.16,0,.16a.83.83,0,0,0,0,.32c0,.18,0,.65,0,.65s-.05,0-.05.05a.24.24,0,0,1-.05.14s-.1.08-.1.1,0,.11,0,.11a.1.1,0,0,0,0,.08c0,.05,0,.18-.05.19s-.08.17-.13.26-.22.16-.32.23a.59.59,0,0,1-.32.05,1,1,0,0,1-.31-.05l-.24-.06a1.85,1.85,0,0,1-.39-.08c0-.05-.13-.05-.16-.05a.58.58,0,0,1-.26-.05l-.16-.06a.05.05,0,0,0,0-.05l-.1,0A.4.4,0,0,0,29,17c-.12,0-.35-.43-.42-.45s-.11-.13-.15-.18a.34.34,0,0,0-.08-.09s-.08,0-.12-.05a.35.35,0,0,1-.12-.15s0-.14,0-.16-.07-.06,0-.06,0-.16,0-.18a.26.26,0,0,0-.18-.2c-.1,0-.22-.07-.22-.19s0-.11-.06-.16a.28.28,0,0,1-.11-.08s0-.09,0-.13-.11-.11-.16-.17a.33.33,0,0,1,0-.2,1.48,1.48,0,0,1,0-.38.05.05,0,0,0,.05-.05s0-.11,0-.11a.1.1,0,0,0,0-.08.45.45,0,0,1,0-.16.17.17,0,0,0,.07-.11c0-.06.06-.21.08-.21a.46.46,0,0,0,0-.22,1.4,1.4,0,0,1,.1-.51.78.78,0,0,0,.2-.22.34.34,0,0,1,.09-.18.94.94,0,0,0,.2-.22s0-.11,0-.11a.16.16,0,0,0,.1-.08s.12-.16.15-.16.1,0,.1,0a.18.18,0,0,1,.14,0,.77.77,0,0,0,.34-.08.71.71,0,0,1,.3-.19,1.35,1.35,0,0,1,.64.15,2.23,2.23,0,0,0,.44.21.57.57,0,0,1,.21.13c.07.06.1.15.17.21a1,1,0,0,1,.24.3.4.4,0,0,0,.07.21s.15.13.15.16a.24.24,0,0,0,.05.14.3.3,0,0,1,.12.13,1.29,1.29,0,0,0,.2.3,1.88,1.88,0,0,1,.29.32s0,.12.05.13A.29.29,0,0,1,32,14a1,1,0,0,0,0,.21c.09,0,.13.38.12.44S32.08,15.18,32.08,15.18Z"/></g></g></svg>