<svg xmlns="http://www.w3.org/2000/svg" viewBox="0 0 221.81 35.41"><defs><style>.cls-1{fill:#fff;}</style></defs><g id="レイヤー_2" data-name="レイヤー 2"><g id="レイヤー_1-2" data-name="レイヤー 1"><path class="cls-1" d="M6,.83A5.75,5.75,0,0,0,0,6.54,5.45,5.45,0,0,0,5.63,12a5.72,5.72,0,0,0,5.92-5.73A5.44,5.44,0,0,0,6,.83ZM6,11.57c-2.75,0-4.84-2.21-4.84-5.52S3.25,1.26,5.51,1.24C8.24,1.24,10.4,3.11,10.4,7A4.27,4.27,0,0,1,6,11.57Z"/><path class="cls-1" d="M19.09,10.06V6.68a2,2,0,0,0-2.21-2.21,2.72,2.72,0,0,0-1.38.47c-.52.36-.95.67-1.29.87V4.4a5.18,5.18,0,0,1-1.88.71v.23c.95.18,1.07.25,1.07,1.39v3.41c0,1-.28,1.28-1.26,1.35v.23h3.41v-.23c-1.17-.07-1.34-.33-1.34-1.41V6.25a3.48,3.48,0,0,1,2.23-1c1.56,0,1.83,1.08,1.83,2.05v2.79c0,1.12-.2,1.36-1.36,1.43v.23h3.28v-.23C19.24,11.42,19.09,11.25,19.09,10.06Z"/><path class="cls-1" d="M22.09,2.07a.67.67,0,0,0,.65-.68.65.65,0,1,0-1.3,0A.69.69,0,0,0,22.09,2.07Z"/><path class="cls-1" d="M22.48,10.2V4.42a7.19,7.19,0,0,1-1.9.68v.22c1,.17,1.08.25,1.08,1.34V10.2c0,1-.17,1.2-1.25,1.29v.23h3.35v-.23C22.65,11.4,22.48,11.18,22.48,10.2Z"/><path class="cls-1" d="M26.79,11.28c-.56,0-1-.29-1-1.66V5.2h1.92a.43.43,0,0,0,.17-.34.35.35,0,0,0-.05-.2h-2V2.55l-.23,0L25,3.72v.94h-.82L23.68,5l.05.19H25v4.88c0,1.15.46,1.83,1.41,1.83a1.29,1.29,0,0,0,.7-.19l1-.52L28,10.94A2.29,2.29,0,0,1,26.79,11.28Z"/><path class="cls-1" d="M30.61,7.61c-.67-.27-1.51-.68-1.51-1.51a1.19,1.19,0,0,1,1.26-1.26c.87,0,1.5.87,1.78,1.72l.24-.1a12,12,0,0,0-.32-1.72,3.21,3.21,0,0,0-1.33-.27,2.19,2.19,0,0,0-2.43,2c0,1.07,1,1.64,2,2,.83.34,1.41.78,1.41,1.69a1.26,1.26,0,0,1-1.36,1.34c-1,0-1.8-1-2.13-2.13L28,9.5a10.91,10.91,0,0,0,.25,1.85,2.78,2.78,0,0,0,1.84.56,2.3,2.3,0,0,0,2.55-2.12C32.64,8.68,31.8,8.07,30.61,7.61Z"/><path class="cls-1" d="M41,11.11l-.51,0c-.66-.05-.85-.14-.85-1V4.55a12.81,12.81,0,0,1-2.31.31v.19l.65.1c.61.12.85.19.85,1.19v3.74a3.28,3.28,0,0,1-2.21,1.05c-1,0-1.77-.44-1.77-2.14V6.76a20.67,20.67,0,0,1,0-2.21c-.37.09-1.63.29-2,.33v.17l.54.11c.36.11.62.19.62,1.19V9.5c0,1.88,1,2.41,2,2.41a2.33,2.33,0,0,0,1.29-.37,11.21,11.21,0,0,0,1.46-1v1.3l.08.09A10.31,10.31,0,0,1,41,11.35Z"/><path class="cls-1" d="M44.38,7.61C46.54,5.16,47,5,48.26,4.83V4.55l-3.33.16V5c.49.07.71.14.71.31A7.32,7.32,0,0,1,44,7.36a2.74,2.74,0,0,1-1.19.51V0a7.77,7.77,0,0,1-2.07.58v.2C41.89.9,42,1.07,42,2.21v7.87c0,1.1-.17,1.34-1.34,1.41v.23h3.49v-.23c-1.16-.07-1.33-.31-1.33-1.41V8.19a1.09,1.09,0,0,1,.41-.1,1.06,1.06,0,0,1,.73.42c1,.94,2.14,2.33,3.13,3.25l1.76,0v-.23c-.51,0-.86-.24-1.63-.9A37.6,37.6,0,0,1,44.38,7.61Z"/><path class="cls-1" d="M54.35,11.13c-.36,0-.61-.27-.61-1V6.51a1.86,1.86,0,0,0-1.89-2,8.72,8.72,0,0,0-2.39,1.17.76.76,0,0,0-.48.61.56.56,0,0,0,.51.58.39.39,0,0,0,.38-.29c.28-1.36,1.2-1.43,1.47-1.44,1.53,0,1.55,1.48,1.55,2.31a13.26,13.26,0,0,1-2.33.9c-1.17.36-1.7.9-1.7,1.67a1.91,1.91,0,0,0,2,1.93,4.22,4.22,0,0,0,2.06-1.1,1.75,1.75,0,0,0,.37.8,1.44,1.44,0,0,0,.55.3l1.44-.71-.15-.29A1.44,1.44,0,0,1,54.35,11.13Zm-1.46-.82a2.52,2.52,0,0,1-1.7.87,1.31,1.31,0,0,1-1.32-1.34c0-.63.45-.95,1.22-1.24.37-.15,1.44-.56,1.8-.77Z"/><path class="cls-1" d="M67.19.7l-.29,0a.79.79,0,0,1-.8.41H59.25A1.68,1.68,0,0,1,58.71,1a.74.74,0,0,1-.37-.36h-.28c0,.95-.08,2-.18,3h.27c.51-1.78.73-2.15,3-2.15h1V9.82c0,1.29-.12,1.58-1.82,1.67v.23h4.59v-.23C63.16,11.4,63,11.11,63,9.82V1.5h1.52c1.44,0,2.08.23,2.49,2.15l.29-.06A28.28,28.28,0,0,1,67.19.7Z"/><path class="cls-1" d="M68.59,1.39a.69.69,0,0,0,.65.68.67.67,0,0,0,.64-.68.68.68,0,0,0-.64-.71A.69.69,0,0,0,68.59,1.39Z"/><path class="cls-1" d="M70.9,11.49c-1.1-.09-1.27-.31-1.27-1.29V4.42a7.13,7.13,0,0,1-1.91.68v.22c1,.17,1.09.25,1.09,1.34V10.2c0,1-.17,1.2-1.26,1.29v.23H70.9Z"/><path class="cls-1" d="M86.4,10.43l-.18-.25a2.77,2.77,0,0,1-2.06.93c-1.17,0-2.72-.91-2.7-3.5,2.34-.07,4.52-.25,4.79-.3s.29-.11.29-.44A2.49,2.49,0,0,0,84,4.47a4,4,0,0,0-3.41,4,3.24,3.24,0,0,0,3.24,3.4A4,4,0,0,0,86.4,10.43ZM83.56,4.94A1.81,1.81,0,0,1,85.5,6.75c0,.1,0,.27-.42.27l-3.52.05C81.81,5.69,82.71,4.94,83.56,4.94Z"/><path class="cls-1" d="M90.39,11.49c-1.36-.07-1.51-.29-1.51-1.35V7.37c.44-1.24,1.1-2,1.56-2a.9.9,0,0,1,.71.36.17.17,0,0,0,.16.08.68.68,0,0,0,.59-.63.83.83,0,0,0-.83-.71c-.83,0-1.75,1.09-2.16,2h0V4.4a5.85,5.85,0,0,1-2,.71v.21c1,.12,1.17.22,1.17,1.46v3.33c0,1.07-.17,1.31-1.2,1.38v.23h3.53Z"/><path class="cls-1" d="M104.5,10.2V4.42a7.13,7.13,0,0,1-1.91.68v.22c1,.17,1.09.25,1.09,1.34V10.2c0,1-.17,1.19-1.2,1.28-.46,0-.82-.28-1.53-.89a35.72,35.72,0,0,1-2.83-3C100.27,5.16,100.73,5,102,4.83V4.55l-3.33.16V5c.49.07.71.14.71.31a7.32,7.32,0,0,1-1.63,2.09,2.68,2.68,0,0,1-1.19.51V0a7.77,7.77,0,0,1-2.07.58v.2c1.14.12,1.26.29,1.26,1.43v7.87c0,1.1-.17,1.34-1.35,1.41v.23h3.49v-.23c-1.16-.07-1.33-.31-1.33-1.41V8.19a1.09,1.09,0,0,1,.41-.1,1.06,1.06,0,0,1,.73.42c1,.94,2.14,2.33,3.13,3.25l1.76,0h3.19v-.23C104.67,11.4,104.5,11.18,104.5,10.2Z"/><path class="cls-1" d="M103.46,1.39a.69.69,0,0,0,.65.68.67.67,0,0,0,.64-.68.68.68,0,0,0-.64-.71A.69.69,0,0,0,103.46,1.39Z"/><path class="cls-1" d="M114.23,11.32v-.21l-.61,0c-.56-.07-.77-.24-.77-1.07V0a9.56,9.56,0,0,1-2.26.58V.8C111.9.93,112,1,112,2.14V4.66a5.93,5.93,0,0,0-1.5-.19,4.18,4.18,0,0,0-4.47,4,3.33,3.33,0,0,0,3.23,3.41,4.57,4.57,0,0,0,1.75-.66l1-.54v1.2A11.62,11.62,0,0,1,114.23,11.32Zm-4.38-.17A2.84,2.84,0,0,1,107.06,8c0-2.47,1.65-3.08,2.74-3.08a2.81,2.81,0,0,1,2.24.89v4.38A3.6,3.6,0,0,1,109.85,11.15Z"/><path class="cls-1" d="M116.67,11.54c-1,0-1.8-1-2.13-2.13l-.25.09a12,12,0,0,0,.25,1.85,2.8,2.8,0,0,0,1.84.56,2.3,2.3,0,0,0,2.55-2.12c0-1.11-.83-1.72-2-2.18-.68-.27-1.52-.68-1.52-1.51a1.19,1.19,0,0,1,1.26-1.26c.87,0,1.5.87,1.79,1.72l.23-.1a12,12,0,0,0-.32-1.72A3.19,3.19,0,0,0,117,4.47a2.18,2.18,0,0,0-2.43,2c0,1.07,1,1.64,2,2,.83.34,1.41.78,1.41,1.69A1.26,1.26,0,0,1,116.67,11.54Z"/><path class="cls-1" d="M125.59,11.91a4.07,4.07,0,0,0,2.9-1.71l-.2-.24A2.84,2.84,0,0,1,126,11.11a2.91,2.91,0,0,1-2.85-3.19c0-2,1.26-2.77,2.28-2.77a3,3,0,0,1,2,.61c.1.09.17.14.24.14a.7.7,0,0,0,.57-.6c0-.54-1.35-.83-1.81-.83-1.21,0-4.22,1-4.22,4.16A3.31,3.31,0,0,0,125.59,11.91Z"/><path class="cls-1" d="M128.76,8.36a3.64,3.64,0,0,0,3.77,3.55,3.79,3.79,0,0,0,3.74-3.86,3.65,3.65,0,0,0-3.78-3.58A3.81,3.81,0,0,0,128.76,8.36Zm6.47,0c0,2.29-1,3.21-2.46,3.21-1.81,0-2.94-1.54-2.94-3.72,0-1.7.95-2.92,2.51-2.92C134.23,4.88,135.23,6.66,135.23,8.31Z"/><path class="cls-1" d="M136.56,11.49v.23h6.54v-.23c-1.12-.07-1.27-.31-1.27-1.36V0a6.8,6.8,0,0,1-2,.58v.2c1.09.1,1.22.22,1.22,1.4v8c0,1-.17,1.27-1.18,1.35-1-.08-1.19-.33-1.19-1.35V0a6.8,6.8,0,0,1-2,.58v.2c1.09.1,1.22.22,1.22,1.4v8C137.82,11.18,137.65,11.42,136.56,11.49Z"/><path class="cls-1" d="M149.27,6.87a2.49,2.49,0,0,0-2.52-2.4,4,4,0,0,0-3.41,4,3.24,3.24,0,0,0,3.24,3.4,4,4,0,0,0,2.55-1.48l-.18-.25a2.77,2.77,0,0,1-2.06.93c-1.17,0-2.72-.91-2.7-3.5,2.34-.07,4.52-.25,4.79-.3S149.27,7.2,149.27,6.87ZM147.81,7l-3.52.05c.25-1.38,1.15-2.13,2-2.13a1.81,1.81,0,0,1,1.94,1.81C148.23,6.85,148.23,7,147.81,7Z"/><path class="cls-1" d="M149.74,8.63a3.3,3.3,0,0,0,3.38,3.28A4,4,0,0,0,156,10.2l-.2-.24a2.83,2.83,0,0,1-2.31,1.15,2.9,2.9,0,0,1-2.85-3.19c0-2,1.25-2.77,2.27-2.77a3,3,0,0,1,2,.61c.1.09.17.14.23.14a.71.71,0,0,0,.58-.6c0-.54-1.36-.83-1.82-.83C152.75,4.47,149.74,5.47,149.74,8.63Z"/><path class="cls-1" d="M157.24,5.2v4.88c0,1.15.46,1.83,1.41,1.83a1.27,1.27,0,0,0,.7-.19l1-.52-.14-.26a2.28,2.28,0,0,1-1.17.34c-.56,0-1-.29-1-1.66V5.2H160a.43.43,0,0,0,.17-.34.46.46,0,0,0-.05-.2h-2V2.55l-.24,0-.58,1.15v.94h-.81L156,5l.05.19Z"/><path class="cls-1" d="M161.81,2.07a.67.67,0,0,0,.65-.68.65.65,0,1,0-1.3,0A.69.69,0,0,0,161.81,2.07Z"/><path class="cls-1" d="M161.39,6.66V10.2c0,1-.17,1.2-1.26,1.29v.23h3.35v-.23c-1.11-.09-1.28-.31-1.28-1.29V4.42a7.07,7.07,0,0,1-1.9.68v.22C161.27,5.49,161.39,5.57,161.39,6.66Z"/><path class="cls-1" d="M171.24,8.05a3.65,3.65,0,0,0-3.77-3.58,3.81,3.81,0,0,0-3.74,3.89,3.64,3.64,0,0,0,3.77,3.55A3.79,3.79,0,0,0,171.24,8.05Zm-3.5,3.47c-1.8,0-2.94-1.54-2.94-3.72,0-1.7.95-2.92,2.51-2.92,1.89,0,2.89,1.78,2.89,3.43C170.2,10.6,169.16,11.52,167.74,11.52Z"/><path class="cls-1" d="M173.83,10.08V6.25a3.45,3.45,0,0,1,2.23-1c1.56,0,1.83,1.08,1.83,2.05v2.79c0,1.12-.2,1.36-1.36,1.43v.23h3.28v-.23c-.95-.07-1.1-.24-1.1-1.43V6.68a2,2,0,0,0-2.21-2.21,2.72,2.72,0,0,0-1.38.47c-.53.36-1,.67-1.29.87V4.4a5.3,5.3,0,0,1-1.89.71v.23c1,.18,1.07.25,1.07,1.39v3.41c0,1-.27,1.28-1.25,1.35v.23h3.41v-.23C174,11.42,173.83,11.16,173.83,10.08Z"/><path class="cls-1" d="M59.34,20.46v.23c1.43.07,1.56.36,1.56,1.6v7c0,1.24-.13,1.53-1.56,1.59v.24h4.31v-.24c-1.71-.08-1.86-.35-1.86-1.59V25.94h2c1.6,0,1.73.21,2,1.53h.29V24.18h-.29c-.29,1.13-.42,1.29-2,1.29h-2V21.34c0-.44,0-.48.47-.48h1.43c2,0,2.39.44,2.72,2.25l.3,0c-.07-.81-.15-1.7-.15-2.61Z"/><path class="cls-1" d="M71.06,23.84a3.81,3.81,0,0,0-3.74,3.89,3.64,3.64,0,0,0,3.77,3.55,3.79,3.79,0,0,0,3.74-3.86A3.65,3.65,0,0,0,71.06,23.84Zm.27,7.05c-1.8,0-2.94-1.55-2.94-3.72,0-1.7,1-2.93,2.51-2.93,1.89,0,2.89,1.79,2.89,3.44C73.79,30,72.75,30.89,71.33,30.89Z"/><path class="cls-1" d="M79.61,23.84c-.83,0-1.75,1.08-2.16,2h0V23.77a5.85,5.85,0,0,1-2,.71v.21c1,.11,1.17.22,1.17,1.46v3.33c0,1.07-.17,1.31-1.2,1.37v.24h3.53v-.24c-1.36-.06-1.51-.28-1.51-1.34V26.74c.44-1.24,1.1-2,1.56-2a.94.94,0,0,1,.72.35.14.14,0,0,0,.15.09.69.69,0,0,0,.59-.63A.83.83,0,0,0,79.61,23.84Z"/><path class="cls-1" d="M91.36,30.48l-.5,0c-.67-.05-.85-.14-.85-1V23.92a12.94,12.94,0,0,1-2.32.31v.18l.65.11c.61.11.85.18.85,1.19v3.73A3.24,3.24,0,0,1,87,30.5c-1,0-1.77-.44-1.77-2.14V26.13a17.24,17.24,0,0,1,.06-2.21c-.38.09-1.64.29-2,.32v.17l.55.12c.35.1.61.19.61,1.19v3.15c0,1.88,1,2.41,2,2.41a2.32,2.32,0,0,0,1.29-.38,9.53,9.53,0,0,0,1.46-1v1.31l.09.09a9.61,9.61,0,0,1,2.08-.58Z"/><path class="cls-1" d="M98.29,29.43V26.05a2,2,0,0,0-2.21-2.21,2.66,2.66,0,0,0-1.38.47c-.52.36-1,.67-1.29.87V23.77a5.18,5.18,0,0,1-1.88.71v.22c1,.19,1.07.26,1.07,1.4v3.41c0,1-.27,1.28-1.26,1.34v.24h3.42v-.24c-1.18-.06-1.35-.32-1.35-1.41V25.62a3.44,3.44,0,0,1,2.23-1c1.56,0,1.84,1.09,1.84,2.06v2.79c0,1.12-.21,1.36-1.36,1.42v.24H99.4v-.24C98.44,30.79,98.29,30.62,98.29,29.43Z"/><path class="cls-1" d="M103.12,30.48a2.91,2.91,0,0,1-2.85-3.19c0-2,1.26-2.77,2.28-2.77a3,3,0,0,1,2,.61.44.44,0,0,0,.24.13.7.7,0,0,0,.58-.59c0-.54-1.36-.83-1.82-.83-1.21,0-4.22,1-4.22,4.16a3.31,3.31,0,0,0,3.39,3.28,4.08,4.08,0,0,0,2.9-1.72l-.2-.23A2.84,2.84,0,0,1,103.12,30.48Z"/><path class="cls-1" d="M109.64,23.84a3.82,3.82,0,0,0-3.74,3.89,3.64,3.64,0,0,0,3.78,3.55,3.79,3.79,0,0,0,3.74-3.86A3.65,3.65,0,0,0,109.64,23.84Zm.28,7.05c-1.81,0-2.94-1.55-2.94-3.72,0-1.7,1-2.93,2.51-2.93,1.89,0,2.89,1.79,2.89,3.44C112.38,30,111.34,30.89,109.92,30.89Z"/><path class="cls-1" d="M138.17,29.38V25.89a2,2,0,0,0-2-2.05c-.34,0-.84.05-2.82,1.37a2.06,2.06,0,0,0-1.79-1.37c-.49,0-.95.08-2.7,1.31V23.77a5.11,5.11,0,0,1-2,.71v.22c1,.21,1.12.28,1.12,1.41v3.35c0,1.06-.23,1.3-1.43,1.39-1-.07-1.16-.25-1.16-1.47V25.89a2,2,0,0,0-2.06-2.05c-.34,0-.83.05-2.82,1.37a2,2,0,0,0-1.78-1.37c-.5,0-1,.08-2.7,1.31V23.77a5.22,5.22,0,0,1-2,.71v.22c1.05.21,1.12.28,1.12,1.41v3.35c0,1.07-.22,1.31-1.44,1.39v.24h3.36v-.24c-.93-.06-1.1-.32-1.1-1.47V25.59a3.75,3.75,0,0,1,2.07-1c1.48,0,1.8.94,1.8,2v2.76c0,1.15-.2,1.41-1.48,1.47v.24h3.49v-.24c-1-.06-1.19-.32-1.19-1.47V26.1c0-.11,0-.29,0-.53a4.32,4.32,0,0,1,2.15-1c1.5,0,1.77,1,1.77,2.11v2.65c0,1.23-.25,1.45-1.44,1.51v.24h6.77v-.24c-.94-.06-1.11-.32-1.11-1.47V25.59a3.82,3.82,0,0,1,2.07-1c1.48,0,1.81.94,1.81,2v2.76c0,1.15-.21,1.41-1.48,1.47v.24h3.48v-.24c-1-.06-1.19-.32-1.19-1.47V26.1c0-.11,0-.29,0-.53a4.35,4.35,0,0,1,2.16-1c1.49,0,1.77,1,1.77,2.11v2.65c0,1.23-.26,1.45-1.45,1.51v.24h3.45v-.24C138.34,30.79,138.17,30.62,138.17,29.38Z"/><path class="cls-1" d="M143.2,23.84a3.81,3.81,0,0,0-3.74,3.89,3.64,3.64,0,0,0,3.77,3.55A3.78,3.78,0,0,0,147,27.42,3.65,3.65,0,0,0,143.2,23.84Zm.27,7.05c-1.8,0-2.94-1.55-2.94-3.72,0-1.7.95-2.93,2.52-2.93,1.88,0,2.89,1.79,2.89,3.44C145.94,30,144.9,30.89,143.47,30.89Z"/><path class="cls-1" d="M157.38,29.5V19.37a6.85,6.85,0,0,1-2,.57v.21c1.09.1,1.23.22,1.23,1.39v8c0,1.05-.17,1.29-1.26,1.35s-1.1-.24-1.1-1.42V26.05A2,2,0,0,0,152,23.84a2.66,2.66,0,0,0-1.38.47c-.52.36-1,.67-1.29.87V23.77a5.18,5.18,0,0,1-1.88.71v.22c1,.19,1.07.26,1.07,1.4v3.41c0,1-.27,1.28-1.26,1.34v.24h3.42v-.24c-1.18-.06-1.35-.32-1.35-1.41V25.62a3.44,3.44,0,0,1,2.23-1c1.56,0,1.84,1.09,1.84,2.06v2.79c0,1.12-.21,1.36-1.36,1.42v.24h6.62v-.24C157.53,30.79,157.38,30.55,157.38,29.5Z"/><path class="cls-1" d="M163.29,24.26c.7.1,1,.2,1,.65,0,.85-1.65,4.33-1.91,4.86l-1.83-4.52a1,1,0,0,1-.12-.43c0-.34.29-.44.88-.56V24h-3.11v.24c1.06.17,1.18.43,1.55,1.29,1,2.35,2,5.15,2,5.35a7,7,0,0,1-2.09,3.28c-.24.17-.42.29-.42.53a.76.76,0,0,0,.76.7.47.47,0,0,0,.49-.34,28.09,28.09,0,0,1,1.94-4.42c1.41-2.91,2-4.3,2.53-5.17s.6-1.1,1.55-1.22V24h-3.18Z"/><path class="cls-1" d="M172.53,30.48a2.91,2.91,0,0,1-2.86-3.19c0-2,1.26-2.77,2.28-2.77a2.94,2.94,0,0,1,2,.61.44.44,0,0,0,.24.13.7.7,0,0,0,.58-.59c0-.54-1.36-.83-1.82-.83A4.27,4.27,0,0,0,168.76,28a3.3,3.3,0,0,0,3.38,3.28,4.06,4.06,0,0,0,2.9-1.72l-.2-.23A2.84,2.84,0,0,1,172.53,30.48Z"/><path class="cls-1" d="M179.05,23.84a3.81,3.81,0,0,0-3.74,3.89,3.64,3.64,0,0,0,3.77,3.55,3.79,3.79,0,0,0,3.74-3.86A3.65,3.65,0,0,0,179.05,23.84Zm.27,7.05c-1.8,0-2.94-1.55-2.94-3.72,0-1.7,1-2.93,2.51-2.93,1.89,0,2.89,1.79,2.89,3.44C181.78,30,180.74,30.89,179.32,30.89Z"/><path class="cls-1" d="M187.26,23.84a3.82,3.82,0,0,0-3.74,3.89,3.64,3.64,0,0,0,3.78,3.55A3.78,3.78,0,0,0,191,27.42,3.65,3.65,0,0,0,187.26,23.84Zm.27,7.05c-1.8,0-2.94-1.55-2.94-3.72,0-1.7,1-2.93,2.52-2.93C189,24.24,190,26,190,27.68,190,30,189,30.89,187.53,30.89Z"/><path class="cls-1" d="M193.41,29.5V19.37a6.85,6.85,0,0,1-2,.57v.21c1.09.1,1.22.22,1.22,1.39v8c0,1.05-.17,1.29-1.26,1.35v.24h3.35v-.24C193.56,30.79,193.41,30.55,193.41,29.5Z"/><path class="cls-1" d="M207.38,29.56V23.79a6.83,6.83,0,0,1-1.9.67v.23c1,.17,1.08.25,1.08,1.34v3.53c0,1-.17,1.2-1.2,1.29-.45,0-.82-.28-1.53-.9A34.14,34.14,0,0,1,201,27c2.16-2.45,2.61-2.58,3.87-2.79v-.27l-3.33.15v.26c.49.07.72.13.72.3a7,7,0,0,1-1.64,2.09,2.5,2.5,0,0,1-1.19.52V19.37a8,8,0,0,1-2.07.57v.21c1.14.12,1.26.29,1.26,1.43v7.86c0,1.11-.17,1.35-1.34,1.41v.24h3.48v-.24c-1.16-.06-1.33-.3-1.33-1.41V27.56a1.19,1.19,0,0,1,.41-.1,1.06,1.06,0,0,1,.73.42c1,.93,2.14,2.33,3.13,3.25l1.77,0h3.18v-.24C207.55,30.77,207.38,30.55,207.38,29.56Z"/><path class="cls-1" d="M207,21.44a.7.7,0,0,0,0-1.39.7.7,0,0,0,0,1.39Z"/><path class="cls-1" d="M215.74,29.36v-10a9.3,9.3,0,0,1-2.26.57v.23c1.31.13,1.44.18,1.44,1.34V24a6.35,6.35,0,0,0-1.49-.18c-2.59,0-4.51,1.8-4.47,4a3.33,3.33,0,0,0,3.23,3.42,4.81,4.81,0,0,0,1.74-.66l1-.55v1.21a12.67,12.67,0,0,1,2.19-.6v-.2l-.61-.05C215.94,30.36,215.74,30.19,215.74,29.36Zm-.82.24a3.59,3.59,0,0,1-2.19.91,2.85,2.85,0,0,1-2.79-3.11c0-2.46,1.65-3.07,2.74-3.07a2.82,2.82,0,0,1,2.24.88Z"/><path class="cls-1" d="M219.79,27c-.68-.27-1.51-.68-1.51-1.51a1.18,1.18,0,0,1,1.25-1.26c.87,0,1.5.87,1.79,1.72l.24-.1a11.93,11.93,0,0,0-.33-1.72,3,3,0,0,0-1.32-.27,2.18,2.18,0,0,0-2.43,2c0,1.07,1,1.63,2,2,.83.34,1.41.78,1.41,1.68a1.25,1.25,0,0,1-1.36,1.34c-1,0-1.8-1-2.12-2.12l-.26.09a10.79,10.79,0,0,0,.26,1.85,2.8,2.8,0,0,0,1.83.56,2.3,2.3,0,0,0,2.55-2.12C221.81,28.05,221,27.44,219.79,27Z"/><path class="cls-1" d="M79.24,11.6V6.37c0-1.32.14-1.61,1.53-1.7V4.43H78.36V5.81a3.79,3.79,0,0,0-6.68,2.55,3.64,3.64,0,0,0,3.78,3.55,3.87,3.87,0,0,0,2.9-1.41v.44a16.76,16.76,0,0,1-.12,2.25A2.89,2.89,0,0,1,75.75,16a3.17,3.17,0,0,1-1.69-.14.85.85,0,0,1-.56-.6c0-.12-.06-1.08-.08-1.12-.1-.33-.83-.52-1,0s.45,1.26.76,1.54a3.35,3.35,0,0,0,3,.79h0a3.54,3.54,0,0,0,.91-.33,1.67,1.67,0,0,0,.23-.12h0a2.82,2.82,0,0,0,.64-.53A5.25,5.25,0,0,0,79.24,11.6Zm-3.54-.08c-1.81,0-3-1.54-3-3.72,0-1.7,1-2.92,2.52-2.92,1.89,0,2.89,1.78,2.89,3.43C78.16,10.6,77.12,11.52,75.7,11.52Z"/></g></g></svg>