<svg xmlns="http://www.w3.org/2000/svg" viewBox="0 0 180.6 27.68"><defs><style>.cls-1{fill:#fff;}</style></defs><g id="レイヤー_2" data-name="レイヤー 2"><g id="レイヤー_1-2" data-name="レイヤー 1"><path class="cls-1" d="M5.85,8.14c-.17.48-.29.95-.48,1.67H0V9.57C.84,8.72,1.7,7.87,2.43,7S4.48,4.88,4.48,3.35,3.76,1.22,2.56,1.22A2.63,2.63,0,0,0,.43,2.65L.2,2.46,1,1.32A2.7,2.7,0,0,1,2.94.5,2.3,2.3,0,0,1,5.31,2.85c0,1.34-.72,2.31-1.94,3.62L1,9.06H4.15c.76,0,1-.08,1.39-1Z"/><path class="cls-1" d="M14,5.23C14,7.38,13.15,10,11.07,10s-3-2.6-3-4.75S9,.5,11.07.5,14,3.2,14,5.23ZM11.07.86C9.43.86,9,3.12,9,5.25s.43,4.39,2.08,4.39,2-2.31,2-4.39-.44-4.39-2-4.39Z"/><path class="cls-1" d="M21.52,8.14c-.16.48-.29.95-.47,1.67H15.68V9.57c.84-.85,1.7-1.7,2.43-2.58s2.05-2.11,2.05-3.64-.72-2.13-1.93-2.13a2.63,2.63,0,0,0-2.12,1.43l-.23-.19.82-1.14A2.72,2.72,0,0,1,18.62.5,2.3,2.3,0,0,1,21,2.85c0,1.34-.72,2.31-1.95,3.62L16.67,9.06h3.16c.76,0,1-.08,1.39-1Z"/><path class="cls-1" d="M24.34,9.6c1.43-.14,1.52-.31,1.52-1.34V2.4c0-.66-.06-.76-.78-.84l-.66-.08V1.25A6,6,0,0,0,26.61.5V8.26c0,1,.1,1.2,1.53,1.34v.21h-3.8Z"/><path class="cls-1" d="M43.71,2.45c-.26-.89-.63-2.1-2.11-2.1a1.56,1.56,0,0,0-1.66,1.72c0,1.28.94,1.79,1.93,2.29.68.34,2.56,1,2.56,2.91,0,1.59-1.23,2.74-3.15,2.77a5.89,5.89,0,0,1-1.55-.25,2.39,2.39,0,0,1-.66-.29,19.61,19.61,0,0,1-.37-2.41H39c.24.82.9,2.55,2.69,2.55a1.75,1.75,0,0,0,1.9-2c0-1.54-1.25-2.06-2.07-2.52-.13-.08-2.38-.8-2.38-2.67A2.58,2.58,0,0,1,41.93,0a5.22,5.22,0,0,1,1.79.32c.07.52.14,1.09.25,2.13Z"/><path class="cls-1" d="M46.25,9.6c1.32-.07,1.44-.33,1.44-1.53V2c0-1.22,0-1.45-1.35-1.51V.23H50c1,0,3.34.12,3.34,2.66a3.14,3.14,0,0,1-3.57,3l-1.22-.33V8.1c0,1.19.1,1.4,1.67,1.5v.21H46.25Zm2.27-4.38a3.07,3.07,0,0,0,1.3.23A2.26,2.26,0,0,0,52.3,3c0-1.67-1-2.43-2.85-2.43a4.71,4.71,0,0,0-.78,0c-.11,0-.15.06-.15.38Z"/><path class="cls-1" d="M55.15,9.6c1.36-.07,1.48-.33,1.48-1.53V1.93c0-1.21-.12-1.38-1.41-1.47V.23h3.62C60.35.23,62,.69,62,2.65a2.69,2.69,0,0,1-1.86,2.6,20,20,0,0,0,1.36,2.1c.73.9,1.8,2.22,2.59,2.4l0,.2c-1.39,0-2.13-.08-4.44-3.86-.38-.55-.84-.57-2.14-.57V8.07c0,1.2.12,1.46,1.44,1.53v.21H55.15Zm3.24-4.38a2.8,2.8,0,0,0,1.87-.46,2.27,2.27,0,0,0,.8-1.88C61.06,1.24,60,.54,58.41.54a6.63,6.63,0,0,0-.81,0c-.08,0-.14,0-.14.33V5.22Z"/><path class="cls-1" d="M65.41,9.6c1.33-.07,1.45-.33,1.45-1.53V2c0-1.19-.12-1.45-1.45-1.53V.23h3.7V.44C67.79.52,67.66.78,67.66,2v6.1c0,1.2.13,1.46,1.45,1.53v.21h-3.7Z"/><path class="cls-1" d="M70.78,9.6c.9-.07,1.33-.37,1.45-.8A12.88,12.88,0,0,0,72.4,6V2.63c0-1.36-.07-1.28-.35-1.62S71.47.54,70.66.44V.23h1.88l7.07,8.08h0V4c0-3,0-3.38-1.81-3.51V.23h3.8V.44c-.89.08-1.27.37-1.41.81A11.59,11.59,0,0,0,80.08,4v6h-.16l-7.06-8h0V6A16.71,16.71,0,0,0,73,8.77c.14.47.6.75,1.62.83v.21H70.78Z"/><path class="cls-1" d="M93.28,5.72c-.9.14-1,.34-1,1V8.11a3.89,3.89,0,0,0,.14,1.3,14.8,14.8,0,0,1-3.55.63c-3.34,0-5.69-2-5.69-4.93C83.23,1.76,86.06,0,89.07,0a11.49,11.49,0,0,1,3,.41c0,.45.12,1.32.26,2.27l-.25,0C91.57.78,90.38.37,88.8.37c-2.94,0-4.49,1.7-4.49,4.53,0,2.14,1.23,4.76,4.61,4.76a6.35,6.35,0,0,0,2-.25c.46-.15.64-.37.64-1V7c0-.93-.07-1.19-1.82-1.32V5.51h3.58Z"/><path class="cls-1" d="M105.41,3.57h3.52v.21A1.94,1.94,0,0,0,107.15,5c-.41.6-.78,1.24-1.25,1.87A22.13,22.13,0,0,1,108.21,10l-.12.12a5.68,5.68,0,0,1-1.33-.66,16,16,0,0,0-1.41-1.82C104,9.37,103.08,10,101.91,10A2.73,2.73,0,0,1,99,7.47c0-1.56,1.32-2.28,2.51-3.08a2.49,2.49,0,0,1-1.28-1.94,2.36,2.36,0,0,1,2.29-2.3,2,2,0,0,1,2.13,1.93A1.66,1.66,0,0,1,104,3.41l-1.24.8a19.36,19.36,0,0,1,2.93,2.46,5.28,5.28,0,0,0,1-2.25c0-.4-.34-.5-1.24-.64Zm-.28,3.81a14.39,14.39,0,0,0-3.35-2.77c-1.42.84-1.83,1.53-1.83,2.52a2.19,2.19,0,0,0,2.26,2.14A3.72,3.72,0,0,0,105.13,7.38ZM101,2a2.39,2.39,0,0,0,1.41,2,2.12,2.12,0,0,0,1.33-2A1.44,1.44,0,0,0,102.36.52,1.37,1.37,0,0,0,101,2Z"/><path class="cls-1" d="M119.13,2.45c-.26-.89-.63-2.1-2.11-2.1a1.56,1.56,0,0,0-1.66,1.72c0,1.28.94,1.79,1.93,2.29.67.34,2.56,1,2.56,2.91,0,1.59-1.23,2.74-3.16,2.77a5.87,5.87,0,0,1-1.54-.25,2.39,2.39,0,0,1-.66-.29,17.83,17.83,0,0,1-.37-2.41h.25c.24.82.9,2.55,2.69,2.55a1.75,1.75,0,0,0,1.9-2c0-1.54-1.26-2.06-2.07-2.52-.13-.08-2.38-.8-2.38-2.67A2.58,2.58,0,0,1,117.35,0a5.22,5.22,0,0,1,1.79.32c.06.52.14,1.09.25,2.13Z"/><path class="cls-1" d="M130.7,4.79c0,1.91-.26,3.15-1.21,4.13a4,4,0,0,1-2.8,1.07,3.91,3.91,0,0,1-2.49-.76c-.8-.64-1.21-1.59-1.21-3.32V2c0-1.32-.12-1.47-1.49-1.6V.23h3.69V.44c-1.3,0-1.41.37-1.41,1.6V5.43c0,2.71,1.24,3.91,3.31,3.91,2.36,0,3.18-1.81,3.2-4.47V4.06a14.94,14.94,0,0,0-.12-2.76c-.11-.49-.59-.75-1.66-.86V.23h3.77V.44c-.84.1-1.35.37-1.43.85a16.88,16.88,0,0,0-.15,2.77Z"/><path class="cls-1" d="M134.07.23h2l4,8.11L144.11.23h2.21V.44c-1.43.14-1.56.29-1.5,1.83l.1,5.43c.05,1.57.11,1.77,1.55,1.9v.21h-3.75V9.6c1.35-.11,1.39-.31,1.38-1.9L144,1.27H144l-4.14,8.37h-.14l-3.77-7.85h0l-.19,4.13c0,.72-.07,1.24-.07,1.66,0,1.46.16,1.88,1.58,2v.21h-3.69V9.6c.95-.08,1.27-.34,1.4-.95a23.89,23.89,0,0,0,.33-3l.22-2.8c0-.41,0-.75,0-1,0-1.09-.26-1.29-1.43-1.43Z"/><path class="cls-1" d="M148.4.23h1.95l4,8.11L158.44.23h2.21V.44c-1.43.14-1.56.29-1.5,1.83l.1,5.43c.05,1.57.11,1.77,1.55,1.9v.21h-3.75V9.6c1.35-.11,1.39-.31,1.38-1.9l-.06-6.43h-.06l-4.15,8.37H154l-3.76-7.85h0L150,5.92c-.05.72-.07,1.24-.07,1.66,0,1.46.16,1.88,1.58,2v.21h-3.69V9.6c1-.08,1.27-.34,1.4-.95a22,22,0,0,0,.33-3l.22-2.8c0-.41,0-.75,0-1,0-1.09-.26-1.29-1.43-1.43Z"/><path class="cls-1" d="M162.37,9.6c1.44-.08,1.54-.34,1.54-1.52v-6c0-1.31-.12-1.58-1.39-1.64V.23h6.66c0,.54.07,1.44.14,2.34l-.26.05c-.33-1.56-.62-2-2.47-2h-1.44c-.41,0-.43,0-.43.43V4.61h1.8c1.2,0,1.49-.16,1.72-1.18h.26V6.27h-.26C168,5.1,167.68,5,166.52,5h-1.8V8c0,1.44.63,1.44,1.9,1.44A3.07,3.07,0,0,0,169,8.88a4.68,4.68,0,0,0,.86-1.52h.26c-.14.57-.43,1.93-.55,2.45h-7.16Z"/><path class="cls-1" d="M171.66,9.6c1.36-.07,1.49-.33,1.49-1.53V1.93c0-1.21-.13-1.38-1.41-1.47V.23h3.61c1.52,0,3.17.46,3.17,2.42a2.7,2.7,0,0,1-1.87,2.6A23.89,23.89,0,0,0,178,7.35c.74.9,1.81,2.22,2.59,2.4l0,.2c-1.39,0-2.12-.08-4.43-3.86-.39-.55-.85-.57-2.15-.57V8.07c0,1.2.13,1.46,1.44,1.53v.21h-3.75Zm3.25-4.38a2.79,2.79,0,0,0,1.86-.46,2.24,2.24,0,0,0,.8-1.88c0-1.64-1.06-2.34-2.65-2.34a6.86,6.86,0,0,0-.81,0c-.08,0-.14,0-.14.33V5.22Z"/><path class="cls-1" d="M9.83,24.66A24.84,24.84,0,0,1,9,27.25,18.49,18.49,0,0,1,6,27.68c-4,0-5.72-2.57-5.7-4.88,0-3.06,2.57-5.16,6-5.16a10.87,10.87,0,0,1,2.9.43c.12.76.2,1.5.29,2.37l-.26,0C8.77,18.71,7.73,18,5.74,18a4.07,4.07,0,0,0-4.39,4.39c0,3,1.77,4.9,4.48,4.9,2.13,0,3-1.15,3.74-2.72Z"/><path class="cls-1" d="M21.89,22.52a5.15,5.15,0,0,1-5.34,5.16,4.91,4.91,0,0,1-5.07-4.9,5.17,5.17,0,0,1,5.4-5.14A4.9,4.9,0,0,1,21.89,22.52Zm-9.34-.18c0,3,1.89,5,4.37,5a3.85,3.85,0,0,0,3.93-4.15c0-3.47-1.94-5.15-4.41-5.15C14.41,18,12.55,19.38,12.55,22.34Z"/><path class="cls-1" d="M31.05,25.06c-.11.51-.45,1.72-.55,2.39H23.84v-.22c1.3-.06,1.41-.32,1.41-1.6v-6c0-1.19-.11-1.45-1.47-1.53v-.21h3.79v.21c-1.39.08-1.53.34-1.53,1.53v5.8c0,1.63.37,1.67,1.93,1.67a2.89,2.89,0,0,0,2-.55,6,6,0,0,0,.79-1.47Z"/><path class="cls-1" d="M39.71,25.06c-.1.51-.44,1.72-.55,2.39H32.5v-.22c1.31-.06,1.41-.32,1.41-1.6v-6c0-1.19-.1-1.45-1.47-1.53v-.21h3.8v.21c-1.39.08-1.53.34-1.53,1.53v5.8c0,1.63.37,1.67,1.93,1.67a2.87,2.87,0,0,0,2-.55,6,6,0,0,0,.8-1.47Z"/><path class="cls-1" d="M41,27.23c1.44-.07,1.55-.33,1.55-1.51v-6c0-1.32-.12-1.58-1.39-1.64v-.21h6.65c0,.53.08,1.44.14,2.34l-.26.05c-.32-1.57-.61-2-2.46-2H43.82c-.41,0-.43,0-.43.42v3.59h1.79c1.21,0,1.5-.16,1.73-1.18h.26v2.84h-.26c-.24-1.17-.57-1.24-1.73-1.24H43.39v3c0,1.44.63,1.44,1.9,1.44a3.08,3.08,0,0,0,2.34-.58A4.8,4.8,0,0,0,48.49,25h.26c-.14.57-.43,1.93-.55,2.45H41Z"/><path class="cls-1" d="M60.08,24.66a24.84,24.84,0,0,1-.8,2.59,18.49,18.49,0,0,1-3.08.43c-4,0-5.72-2.57-5.7-4.88,0-3.06,2.57-5.16,6-5.16a10.77,10.77,0,0,1,2.89.43c.12.76.2,1.5.29,2.37l-.26,0C59,18.71,58,18,56,18a4.07,4.07,0,0,0-4.39,4.39c0,3,1.77,4.9,4.48,4.9,2.13,0,3-1.15,3.74-2.72Z"/><path class="cls-1" d="M63.65,27.23c1.53-.07,1.63-.33,1.63-1.49v-7.5h-1c-2,0-2.2.33-2.66,1.94h-.24c.09-.9.14-1.82.17-2.68h.24a.6.6,0,0,0,.34.32,1.33,1.33,0,0,0,.49.05h6.16a.7.7,0,0,0,.72-.37l.26,0a25.29,25.29,0,0,0,.14,2.6l-.26.06c-.37-1.73-1-1.94-2.25-1.94H66.08v7.5c0,1.16.11,1.42,1.7,1.49v.22H63.65Z"/><path class="cls-1" d="M71.52,27.23c1.33-.06,1.45-.32,1.45-1.53V19.61c0-1.19-.12-1.45-1.45-1.53v-.21h3.7v.21c-1.32.08-1.45.34-1.45,1.53V25.7c0,1.21.13,1.47,1.45,1.53v.22h-3.7Z"/><path class="cls-1" d="M87.53,22.52a5.16,5.16,0,0,1-5.34,5.16,4.91,4.91,0,0,1-5.07-4.9,5.17,5.17,0,0,1,5.4-5.14A4.9,4.9,0,0,1,87.53,22.52Zm-9.34-.18c0,3,1.89,5,4.36,5a3.85,3.85,0,0,0,3.94-4.15c0-3.47-1.95-5.15-4.41-5.15C80,18,78.19,19.38,78.19,22.34Z"/><path class="cls-1" d="M89.32,27.23c.91-.06,1.34-.36,1.46-.79A13.57,13.57,0,0,0,91,23.59V20.27c0-1.36-.08-1.28-.36-1.62a1.83,1.83,0,0,0-1.39-.57v-.21h1.88L98.15,26h0V21.59c0-3,0-3.38-1.81-3.51v-.21h3.8v.21c-.89.08-1.27.37-1.41.81a11.79,11.79,0,0,0-.15,2.7v6h-.17l-7-8h0v4.07a17.16,17.16,0,0,0,.13,2.82c.14.47.6.75,1.62.82v.22H89.32Z"/></g></g></svg>