<svg xmlns="http://www.w3.org/2000/svg" viewBox="0 0 72.48 952.95"><defs><style>.cls-1{fill:#fff;}</style></defs><g id="レイヤー_2" data-name="レイヤー 2"><g id="レイヤー_1-2" data-name="レイヤー 1"><path class="cls-1" d="M42.85,537.44h11.4V519.32h-8q0,3.42-3.42,3.42h-15q-3.42,0-3.42-3.42h-8V545h8v-2.85q0-3.42,3.42-3.42h6.26c4.56,0,7.18,3.08,7.18,8.09a20.16,20.16,0,0,1-.34,3.53H55C55,543.25,51.17,539.15,42.85,537.44Z"/><path class="cls-1" d="M55,497.55c0-11.62-8.09-19.83-19.71-19.83s-19.72,9.35-19.72,22.34A30.52,30.52,0,0,0,20.17,515l7.3-3.31a24.58,24.58,0,0,1-2.17-10.14c0-5.47,2.17-7,6.5-7.29v22.9h3C46.38,517.15,55,508.61,55,497.55ZM38,502.22v-8h4.67a4,4,0,1,1,0,8Z"/><rect class="cls-1" x="58.35" y="412.99" width="12.54" height="15.95"/><path class="cls-1" d="M46.27,459.26c5.81-1.6,8.77-5.58,8.77-11.51,0-9.12-6.95-14.13-19.14-14.13S17,438.52,17,447.52c0,5,2.17,8.89,6,10.37H18.46c-5.35,0-8.2-3.07-8.2-9.11,0-3,.68-5.59,2.85-10.15l-8.67-3.42C1.14,442.28,0,446.38,0,451.85c0,13.56,7.07,22,18.46,22H42.85c2.25,0,3.41,1.15,3.41,3.41h8v-18Zm-14.93-.46a4.33,4.33,0,1,1,0-8.66h8.43a4.33,4.33,0,0,1,0,8.66Z"/><path class="cls-1" d="M27.81,429H54.25V409.57h-8q0,3.42-3.42,3.42h-15q-3.42,0-3.42-3.42h-8v22.8h8Q24.39,428.95,27.81,429Z"/><path class="cls-1" d="M50.83,352.37v9.11h4.56c3.41,0,5.47,2,5.47,5.47v2.51H29c-2.51,0-3.88-1.37-3.88-3.88v-4.1H16.41v35.33h8.66v-4.1c0-2.51,1.37-3.88,3.88-3.88H60.86v2.51c0,3.42-2.06,5.47-5.47,5.47H50.83v9h20V352.37Z"/><path class="cls-1" d="M27.81,338.35H38.52c10.26,0,16.52-8.21,16.52-21.08a45.49,45.49,0,0,0-3.3-16.87L43,302.57a29.3,29.3,0,0,1,2.28,10.37c0,5.35-2.05,9.46-6.26,9.46H37.27A18.43,18.43,0,0,0,40,312.25c0-8.89-5-15.5-12.19-15.5-7.41,0-12.2,6.27-12.2,15.5,0,7.75,2.51,11.85,7.64,13.68H16.41v15.84h8Q24.39,338.35,27.81,338.35Zm-3.08-19.26v-2.16a3.65,3.65,0,1,1,7.29,0v2.16a3.65,3.65,0,1,1-7.29,0Z"/><path class="cls-1" d="M26.78,291.51l10.83-8.09,4.78,5c2.28,2.4,3.88,4.68,3.88,5.93h8V273.05h-8v6.38l-9.92-10.82h35.9V249.8h-8a2.69,2.69,0,0,1-2.84,2.85H27.24a2.69,2.69,0,0,1-2.85-2.85h-8v21.65h8a2.69,2.69,0,0,1,2.85-2.84h5.92L16.41,280.46v14.47h8C24.39,293.79,25.41,292.54,26.78,291.51Z"/><path class="cls-1" d="M26.78,835.42l10.83-8.09,4.78,5c2.28,2.4,3.88,4.68,3.88,5.93h8V817h-8v6.38l-9.92-10.83h35.9v-18.8h-8a2.69,2.69,0,0,1-2.84,2.85H27.24a2.69,2.69,0,0,1-2.85-2.85h-8v21.65h8a2.69,2.69,0,0,1,2.85-2.85h5.92L16.41,824.37v14.47h8C24.39,837.7,25.41,836.45,26.78,835.42Z"/><path class="cls-1" d="M27.24,243.08h27V223.71h-8q0,3.4-3.42,3.41H31.57a4,4,0,1,1,0-8H54.25V199.77h-8q0,3.42-3.42,3.42H26.67c-6.73,0-11.06,4.56-11.06,11.74,0,5.7,2.74,9.8,8.78,13h-8v18h8A2.69,2.69,0,0,1,27.24,243.08Z"/><path class="cls-1" d="M39.32,190.09l3.19-8.89a2.34,2.34,0,0,1,2.05-1.71c1.37,0,2,1.48,2,3.53a5.84,5.84,0,0,1-3.76,5.59V197h11.4v-8h-4c3-2.51,4.78-6.84,4.78-11.4,0-7.74-5.35-13.56-12.42-13.56a11.92,11.92,0,0,0-11.39,8.78L29.63,178c-1.37,4.44-2.05,5.47-3.76,5.47-1.37,0-1.94-1.26-1.94-3.08,0-2.62,1.14-4.67,3.88-8v-8H16.41v8.43h4a16.71,16.71,0,0,0-4.79,11.85c0,8.55,5,14.59,12.2,14.59C33.39,199.32,37.27,195.9,39.32,190.09Z"/><path class="cls-1" d="M39.32,943.72l3.19-8.89a2.34,2.34,0,0,1,2.05-1.71c1.37,0,2,1.48,2,3.53a5.83,5.83,0,0,1-3.76,5.58v8.44h11.4v-8h-4c3-2.51,4.78-6.84,4.78-11.4,0-7.75-5.35-13.56-12.42-13.56a11.92,11.92,0,0,0-11.39,8.78l-1.6,5.13c-1.37,4.44-2.05,5.47-3.76,5.47-1.37,0-1.94-1.26-1.94-3.08,0-2.62,1.14-4.67,3.88-8v-8H16.41v8.44h4a16.71,16.71,0,0,0-4.79,11.85c0,8.55,5,14.59,12.2,14.59C33.39,953,37.27,949.53,39.32,943.72Z"/><path class="cls-1" d="M66.9,154.87v-15.5H59.26c-3.42,0-5-1.59-5-5h-8v4.56H16.41v22.56h8v-.91c0-4,1.71-5.7,5.7-5.7H45.81v6.73h8.44v-6.73Z"/><rect class="cls-1" x="58.35" y="114.76" width="12.54" height="15.95"/><path class="cls-1" d="M27.81,130.71H54.25V111.34h-8q0,3.42-3.42,3.42h-15q-3.42,0-3.42-3.42h-8v22.79h8Q24.39,130.71,27.81,130.71Z"/><rect class="cls-1" x="58.35" y="847.81" width="12.54" height="15.95"/><path class="cls-1" d="M27.81,863.77H54.25V844.39h-8q0,3.42-3.42,3.42h-15q-3.42,0-3.42-3.42h-8v22.8h8Q24.39,863.77,27.81,863.77Z"/><path class="cls-1" d="M27.81,104.5H44c6.72,0,11-4.56,11-11.74,0-5.69-2.73-9.8-8.77-13h8V61.2h-8q0,3.42-3.42,3.42h-15q-3.42,0-3.42-3.42h-8V84h8q0-3.42,3.42-3.42H39.09a4,4,0,0,1,0,8H16.41v19.37h8Q24.39,104.5,27.81,104.5Z"/><path class="cls-1" d="M72.48,28.49C72.48,12.31,60.51,0,43.65,0S14.81,12.19,14.81,28.49,26.55,57,43.65,57C60.51,57,72.48,44.79,72.48,28.49Zm-41,5.7a5.38,5.38,0,0,1-5.69-5.7,5.38,5.38,0,0,1,5.69-5.7H55.84a5.39,5.39,0,0,1,5.7,5.7,5.39,5.39,0,0,1-5.7,5.7Z"/><path class="cls-1" d="M28.53,910.88h0a1.75,1.75,0,0,1,.32-.12,4.89,4.89,0,0,1,.66,0H70.88V892.07H61.59v1.57a1.48,1.48,0,0,1-.72,1.27l-.06,0-.13,0a4.24,4.24,0,0,1-1.08.11l-14.45-.05c5.71-1.62,8.63-5.58,8.63-11.46,0-9.11-7-14.13-19.14-14.13s-18.92,4.9-18.92,13.9c0,5.34,2.17,9.91,6.7,11.63l-6,0v18.76h11.4v-1.57A1.49,1.49,0,0,1,28.53,910.88Zm1.55-16.23a4.33,4.33,0,0,1,0-8.66h8.43a4.33,4.33,0,1,1,0,8.66Z"/><path class="cls-1" d="M48.22,585.69c1.23-.36,2.91-.87,2.91-2.93a2.15,2.15,0,0,0-2.38-2.3c-1.78,0-2.49,1.3-3.19,2.68-.47.94-1.38,3.55-4,3.55-2.21,0-3.81-1.7-3.85-4.38a8.63,8.63,0,0,1,.34-2.15,3.5,3.5,0,0,1,.41-.91,23.65,23.65,0,0,1,3.36-.51v.34c-1.15.34-3.56,1.25-3.56,3.74A2.43,2.43,0,0,0,41,585.46c2.15,0,2.87-1.75,3.51-2.87.1-.2,1.1-3.32,3.7-3.32,1.76,0,3.42,1.45,3.42,4a7.13,7.13,0,0,1-.44,2.49c-.73.09-1.51.19-3,.34Z"/><path class="cls-1" d="M38.29,588.37c.08,1.83.44,2,2.12,2h8.47c1.7,0,2,0,2.11-1.87h.31v5c0,1.34-.17,4.64-3.7,4.64-3.1,0-4.38-3-4.17-5l.47-1.7H40.37c-1.66,0-1.95.15-2.08,2.32H38v-5.47Zm6.08,3.15a4.26,4.26,0,0,0-.32,1.8,3.14,3.14,0,0,0,3.45,3.45c2.32,0,3.38-1.34,3.38-4a6.72,6.72,0,0,0,0-1.08c0-.15-.09-.21-.53-.21Z"/><path class="cls-1" d="M38.29,599.87c.08,1.9.44,2.07,2.12,2.07h8.53c1.68,0,1.92-.17,2.05-2h.31v5c0,2.1-.63,4.4-3.36,4.4a3.75,3.75,0,0,1-3.61-2.59,29,29,0,0,0-2.92,1.89c-1.25,1-3.08,2.51-3.34,3.59l-.27-.06c0-1.93.1-3,5.36-6.17.76-.53.79-1.17.79-3H40.41c-1.68,0-2,.17-2.12,2H38v-5.21Zm6.08,4.51A3.93,3.93,0,0,0,45,607a3.12,3.12,0,0,0,2.62,1.1c2.27,0,3.25-1.46,3.25-3.68,0-.57,0-.93,0-1.12s-.07-.2-.47-.2h-6Z"/><path class="cls-1" d="M38.29,613.27c.08,1.85.44,2,2.12,2h8.47c1.66,0,2-.17,2.13-2h.29v5.15H51c-.11-1.83-.47-2-2.13-2H40.41c-1.68,0-2,.19-2.12,2H38v-5.15Z"/><path class="cls-1" d="M38.29,619.88c.08,1.26.51,1.85,1.1,2a18.55,18.55,0,0,0,4,.24H48c1.89,0,1.78-.11,2.25-.49s.66-.81.79-1.94h.29v2.62l-11.23,9.82v.07h6.07c4.14,0,4.7,0,4.87-2.51h.29V635H51c-.11-1.23-.51-1.76-1.13-2a16.26,16.26,0,0,0-3.74-.22h-8.3v-.23L49,622.77v0H43.35a22.7,22.7,0,0,0-3.91.19c-.66.19-1,.83-1.15,2.26H38v-5.3Z"/><path class="cls-1" d="M43.67,650.29C43.48,649,43.2,649,42.26,649H40.35a5.41,5.41,0,0,0-1.81.2,21.14,21.14,0,0,1-.87-4.94c0-4.64,2.81-7.91,6.85-7.91,4.66,0,7.1,3.93,7.1,8.12a15.9,15.9,0,0,1-.57,4.15c-.62.07-1.83.17-3.15.36l0-.34c2.68-.7,3.25-2.36,3.25-4.55,0-4.08-2.36-6.23-6.29-6.23-3,0-6.62,1.7-6.62,6.4a9.16,9.16,0,0,0,.34,2.72c.21.64.51.9,1.45.9h1.85c1.3,0,1.66-.11,1.83-2.53H44v5Z"/><path class="cls-1" d="M46.67,665.43v4.89h-.3a2.67,2.67,0,0,0-1.72-2.46c-.83-.58-1.73-1.09-2.6-1.75a30.11,30.11,0,0,1-4.34,3.21l-.17-.17a7.78,7.78,0,0,1,.92-1.85A21.4,21.4,0,0,0,41,665.35c-2.38-1.85-3.28-3.15-3.28-4.79a3.79,3.79,0,0,1,3.53-4c2.17,0,3.17,1.83,4.28,3.49.85-1.13,1.64-1.79,2.7-1.79a3.28,3.28,0,0,1,3.19,3.19,2.83,2.83,0,0,1-2.68,3,2.33,2.33,0,0,1-1.85-1l-1.11-1.72a26.09,26.09,0,0,1-3.42,4.06,7.31,7.31,0,0,0,3.13,1.41c.55,0,.7-.47.89-1.73Zm-5.3-.38a20.39,20.39,0,0,0,3.85-4.66c-1.17-2-2.13-2.55-3.51-2.55a3.05,3.05,0,0,0-3,3.15A5.2,5.2,0,0,0,41.37,665.05Zm7.42-5.7A3.3,3.3,0,0,0,46,661.3a3,3,0,0,0,2.76,1.86,2,2,0,0,0,2.13-2A1.9,1.9,0,0,0,48.79,659.35Z"/><path class="cls-1" d="M48.22,682.78c1.23-.36,2.91-.87,2.91-2.93a2.15,2.15,0,0,0-2.38-2.3c-1.78,0-2.49,1.3-3.19,2.68-.47.94-1.38,3.55-4,3.55-2.21,0-3.81-1.7-3.85-4.38a8.63,8.63,0,0,1,.34-2.15,3.5,3.5,0,0,1,.41-.91,23.65,23.65,0,0,1,3.36-.51v.34c-1.15.34-3.56,1.25-3.56,3.74A2.43,2.43,0,0,0,41,682.55c2.15,0,2.87-1.75,3.51-2.87.1-.2,1.1-3.32,3.7-3.32,1.76,0,3.42,1.44,3.42,3.95a7.13,7.13,0,0,1-.44,2.49c-.73.09-1.51.19-3,.34Z"/><path class="cls-1" d="M45,698c-2.66,0-4.39-.36-5.75-1.68a5.64,5.64,0,0,1-1.49-3.89A5.41,5.41,0,0,1,38.8,689c.89-1.11,2.21-1.68,4.61-1.68h5.38c1.83,0,2.05-.17,2.22-2.07h.29v5.13H51c0-1.81-.51-2-2.22-2H44.07c-3.76,0-5.42,1.73-5.42,4.6,0,3.27,2.51,4.42,6.21,4.44H46a19.55,19.55,0,0,0,3.83-.17c.68-.14,1-.8,1.19-2.29h.29v5.23H51c-.13-1.17-.51-1.87-1.17-2A22.06,22.06,0,0,0,46,698Z"/><path class="cls-1" d="M51.3,701.83v2.7L40,710.15l11.27,5.64v3.06H51c-.19-2-.41-2.17-2.53-2.09l-7.56.15c-2.19.07-2.46.15-2.63,2.15H38v-5.21h.3c.15,1.87.42,1.94,2.63,1.91l8.94-.08v-.09l-11.64-5.76v-.19l10.92-5.23v0l-5.75-.27c-1-.07-1.72-.09-2.3-.09-2,0-2.61.21-2.8,2.19H38v-5.12h.3c.1,1.32.46,1.76,1.32,1.93a29.46,29.46,0,0,0,4.1.47l3.89.3c.58,0,1,0,1.43,0,1.51,0,1.79-.36,2-2Z"/><path class="cls-1" d="M51.3,720.89v2.7L40,729.2l11.27,5.64v3.06H51c-.19-2-.41-2.17-2.53-2.08l-7.56.15c-2.19.06-2.46.14-2.63,2.14H38V732.9h.3c.15,1.87.42,1.94,2.63,1.92l8.94-.09v-.08l-11.64-5.77v-.19l10.92-5.23v0l-5.75-.28c-1-.06-1.72-.09-2.3-.09-2,0-2.61.22-2.8,2.2H38v-5.13h.3c.1,1.32.46,1.76,1.32,1.93a29.46,29.46,0,0,0,4.1.47l3.89.3c.58,0,1,0,1.43,0,1.51,0,1.79-.36,2-2Z"/><path class="cls-1" d="M38.29,739.43c.1,2,.46,2.15,2.1,2.15h8.34c1.83,0,2.19-.17,2.28-1.94h.29v9.25c-.74,0-2,.11-3.25.19l-.06-.36c2.17-.44,2.8-.85,2.8-3.42v-2c0-.58,0-.6-.59-.6h-5v2.49c0,1.68.21,2.09,1.64,2.4V748h-4v-.37c1.64-.34,1.73-.78,1.73-2.4V742.7H40.48c-2,0-2,.87-2,2.64,0,1.3,0,2.57.81,3.25a6.63,6.63,0,0,0,2.1,1.2v.36c-.78-.19-2.68-.6-3.4-.77v-10Z"/><path class="cls-1" d="M38.29,751.48c.08,1.9.44,2.07,2.12,2.07h8.53c1.68,0,1.92-.17,2.05-2h.31v5c0,2.11-.63,4.4-3.36,4.4a3.74,3.74,0,0,1-3.61-2.59,29,29,0,0,0-2.92,1.89c-1.25,1-3.08,2.51-3.34,3.6l-.27-.07c0-1.93.1-3,5.36-6.17.76-.53.79-1.17.79-3H40.41c-1.68,0-2,.17-2.12,2H38v-5.22ZM44.37,756a3.93,3.93,0,0,0,.64,2.6,3.12,3.12,0,0,0,2.62,1.1c2.27,0,3.25-1.46,3.25-3.68,0-.57,0-.93,0-1.12s-.07-.19-.47-.19h-6Z"/><path class="cls-1" d="M21.42,592a34.12,34.12,0,0,1-3.59-1.11,25.73,25.73,0,0,1-.6-4.27c0-5.58,3.58-8,6.79-7.94,4.25,0,7.17,3.57,7.17,8.38a14.66,14.66,0,0,1-.6,4c-1.06.17-2.08.28-3.29.41l-.07-.37c2.47-.59,3.43-2,3.43-4.8,0-4.21-2.79-6.11-6.11-6.11-4.13,0-6.8,2.47-6.8,6.24,0,3,1.59,4.16,3.78,5.19Z"/><path class="cls-1" d="M24.4,607.87a7.16,7.16,0,0,1-7.17-7.42,6.82,6.82,0,0,1,6.81-7,7.19,7.19,0,0,1,7.15,7.51A6.81,6.81,0,0,1,24.4,607.87Zm.26-13c-4.15,0-6.91,2.61-6.91,6.06a5.35,5.35,0,0,0,5.76,5.47c4.83,0,7.17-2.71,7.17-6.13C30.66,597.47,28.76,594.9,24.66,594.9Z"/><path class="cls-1" d="M20.87,619.74c-.7-.15-2.38-.62-3.32-.77v-9.25h.3c.09,1.81.45,2,2.23,2h8.36c1.66,0,2-.15,2.13-2h.3v5.28h-.3c-.11-1.94-.47-2.13-2.13-2.13H20.38c-2.25,0-2.32.51-2.32,2.68a4,4,0,0,0,.77,2.79,8.77,8.77,0,0,0,2,1.1Z"/><path class="cls-1" d="M20.87,630.92c-.7-.15-2.38-.62-3.32-.76V620.9h.3c.09,1.81.45,2,2.23,2h8.36c1.66,0,2-.15,2.13-2h.3v5.27h-.3c-.11-1.93-.47-2.12-2.13-2.12H20.38c-2.25,0-2.32.51-2.32,2.68a4,4,0,0,0,.77,2.78,8.36,8.36,0,0,0,2,1.11Z"/><path class="cls-1" d="M17.85,631.9c.11,2,.47,2.14,2.11,2.14h8.33c1.83,0,2.2-.17,2.28-1.93h.3v9.25c-.75,0-2,.11-3.26.19l-.06-.36c2.17-.45,2.81-.85,2.81-3.42v-2c0-.58,0-.6-.6-.6h-5v2.49c0,1.68.21,2.08,1.63,2.4v.37h-4v-.37c1.63-.34,1.72-.78,1.72-2.4v-2.49H20c-2,0-2,.87-2,2.64,0,1.3,0,2.57.81,3.25A6.41,6.41,0,0,0,21,642.25v.37c-.79-.19-2.68-.6-3.41-.77v-10Z"/><path class="cls-1" d="M21.42,657.5a34.31,34.31,0,0,1-3.59-1.1,25.72,25.72,0,0,1-.6-4.28c0-5.57,3.58-8,6.79-7.93,4.25,0,7.17,3.57,7.17,8.38a14.81,14.81,0,0,1-.6,4c-1.06.17-2.08.27-3.29.4l-.07-.36c2.47-.6,3.43-2,3.43-4.81,0-4.21-2.79-6.1-6.11-6.1-4.13,0-6.8,2.47-6.8,6.23,0,3,1.59,4.17,3.78,5.19Z"/><path class="cls-1" d="M17.85,661.6c.11,2.13.47,2.28,2.09,2.28H30.36v-1.32c0-2.79-.47-3.06-2.7-3.7v-.34c1.25.13,2.53.19,3.72.23v.34a1,1,0,0,0-.45.47,2.16,2.16,0,0,0-.06.68v8.57a1,1,0,0,0,.51,1l0,.36a32.53,32.53,0,0,0-3.62.2l-.08-.37c2.4-.51,2.7-1.31,2.7-3.12V665H19.94c-1.62,0-2,.15-2.09,2.37h-.3V661.6Z"/><path class="cls-1" d="M17.85,671.68c.09,1.85.45,2,2.13,2h8.46c1.66,0,2-.17,2.13-2h.3v5.15h-.3c-.11-1.83-.47-2-2.13-2H20c-1.68,0-2,.19-2.13,2h-.3v-5.15Z"/><path class="cls-1" d="M24.4,693.08a7.17,7.17,0,0,1-7.17-7.43,6.82,6.82,0,0,1,6.81-7,7.2,7.2,0,0,1,7.15,7.51A6.81,6.81,0,0,1,24.4,693.08Zm.26-13c-4.15,0-6.91,2.62-6.91,6.06,0,2.88,2,5.47,5.76,5.47,4.83,0,7.17-2.7,7.17-6.13C30.66,682.68,28.76,680.1,24.66,680.1Z"/><path class="cls-1" d="M17.85,694.71c.09,1.25.51,1.85,1.11,2a18.75,18.75,0,0,0,3.95.23h4.62c1.89,0,1.79-.1,2.25-.49s.66-.8.79-1.93h.3v2.62L19.64,707v.07H25.7c4.15,0,4.7,0,4.87-2.51h.3v5.27h-.3c-.11-1.23-.51-1.76-1.13-2a16.47,16.47,0,0,0-3.74-.21H17.4v-.23l11.17-9.81v0H22.91a22.86,22.86,0,0,0-3.91.19c-.66.19-1,.83-1.15,2.26h-.3v-5.3Z"/></g></g></svg>