<svg xmlns="http://www.w3.org/2000/svg" viewBox="0 0 703.84 159.65"><defs><style>.cls-1{fill:#004462;}</style></defs><g id="レイヤー_2" data-name="レイヤー 2"><g id="レイヤー_1-2" data-name="レイヤー 1"><path class="cls-1" d="M67.53.26A42.82,42.82,0,0,1,80.34,2.2a23,23,0,0,1,9.75,5.51q3.54,3.59,3.54,7.5a10.64,10.64,0,0,1-3.44,7.44,22.79,22.79,0,0,1-9.65,5.53,42.72,42.72,0,0,1-13,2,42.32,42.32,0,0,1-12.94-2,22.83,22.83,0,0,1-9.66-5.53,10.61,10.61,0,0,1-3.45-7.44q0-3.92,3.5-7.5A22.86,22.86,0,0,1,54.72,2.2,43,43,0,0,1,67.53.26ZM61.86,8.62a10.71,10.71,0,0,0-4.55,2.88,5.8,5.8,0,0,0-1.64,3.89,5.75,5.75,0,0,0,1.61,3.86,10.57,10.57,0,0,0,4.53,2.87,18.18,18.18,0,0,0,12.12,0,10.47,10.47,0,0,0,4.52-2.87,5.79,5.79,0,0,0,1.6-3.86A5.76,5.76,0,0,0,78.4,11.5a10.88,10.88,0,0,0-4.56-2.88,18.1,18.1,0,0,0-12,0Z"/><path class="cls-1" d="M115.35.85l20,17.31V.85h10.83V29.51H130.1L110.76,11.63V29.51h-11V.85Z"/><path class="cls-1" d="M165.74.85V29.51H152.36V.85Z"/><path class="cls-1" d="M171.88.85H217V9.38H201V29.51H187.46V9.38H171.88Z"/><path class="cls-1" d="M253.28,6.45a7.11,7.11,0,0,0-2.55-1.08,31.16,31.16,0,0,0-4.8-.56,23,23,0,0,0-4.36.53,4.32,4.32,0,0,0-1.93,1,2.08,2.08,0,0,0-.71,1.41,2,2,0,0,0,.68,1.38,4.45,4.45,0,0,0,1.91,1,8.67,8.67,0,0,0,2.63.36h4q5.22.15,7.7.35c1.65.13,2.93.25,3.83.38a15.75,15.75,0,0,1,3.53,1.1,12.24,12.24,0,0,1,3.38,2,7.36,7.36,0,0,1,1.9,2.68,5.23,5.23,0,0,1,.36,3.29,8.08,8.08,0,0,1-1.63,3.3,13.7,13.7,0,0,1-4.47,3.3,23.63,23.63,0,0,1-5.64,2.2,33.2,33.2,0,0,1-4.89.73q-2.44.18-7.54.18-5.64-.36-8.55-.81a28.39,28.39,0,0,1-5-1.18,15.54,15.54,0,0,1-4-2.11,16.9,16.9,0,0,1-2.9-2.59,4.22,4.22,0,0,1-1-2.78h14.7a3.87,3.87,0,0,0,1,1.76,6.09,6.09,0,0,0,1.83,1.39,7.1,7.1,0,0,0,2.32.61c.88.09,2,.15,3.26.18a33,33,0,0,0,3.81-.74,4.29,4.29,0,0,0,1.92-1,2,2,0,0,0,.69-1.39,2,2,0,0,0-.7-1.4,4.63,4.63,0,0,0-1.93-1.06,7.74,7.74,0,0,0-2.55-.33,112.11,112.11,0,0,1-15.38-1.1,14.61,14.61,0,0,1-6.63-2.75,5.42,5.42,0,0,1-2.35-4.14,7.06,7.06,0,0,1,1.26-4.06A11.63,11.63,0,0,1,229.14,3,30.23,30.23,0,0,1,238,.6,45.66,45.66,0,0,1,246.45,0a74.16,74.16,0,0,1,7.83.65,30.94,30.94,0,0,1,8,1.74,19.12,19.12,0,0,1,4.55,2.76,7.11,7.11,0,0,1,2.55,3.87H255.52A10,10,0,0,0,253.28,6.45Z"/><path class="cls-1" d="M275.51.85h12.41V17.21c0,3.43,3.14,5.14,9.43,5.16,5.13,0,8.33-.47,9.58-1.35a4.4,4.4,0,0,0,1.88-3.81V.85h12.4V17.12a10.25,10.25,0,0,1-1.46,5.54,11.1,11.1,0,0,1-4.3,3.89,23.84,23.84,0,0,1-6.95,2.26,53.9,53.9,0,0,1-9.44.74,61.51,61.51,0,0,1-9.9-.71,28,28,0,0,1-7.41-2.13,11.64,11.64,0,0,1-4.64-3.58,8.32,8.32,0,0,1-1.6-5.11Z"/><path class="cls-1" d="M367.16.85,352,15.12l16,14.39H353.27L340.44,18.27V29.51H327.36V.85h13.08v10l12.83-10Z"/><path class="cls-1" d="M389.72.85H407l15.64,28.66H410.23l-2.84-5.14H389.52l-2.84,5.14H374.16Zm3,17.8h11.69L398.46,8.28Z"/><path class="cls-1" d="M442.27.85h45.16V9.38h-16V29.51H457.85V9.38H442.27Z"/><path class="cls-1" d="M507,.85V29.51H493.57V.85Z"/><path class="cls-1" d="M558.5,29.73l-2.22-4a17.07,17.07,0,0,1-3.53,1.84A39.27,39.27,0,0,1,548.34,29a46,46,0,0,1-4.76.93,34.05,34.05,0,0,1-4.55.34,61,61,0,0,1-10-.76,32.11,32.11,0,0,1-8-2.3,15.94,15.94,0,0,1-5.49-3.9,9.52,9.52,0,0,1-2.34-5.49c0-.18,0-.39,0-.61s0-.44,0-.65a4.44,4.44,0,0,1,0-.62v-.65c0-.24,0-.49,0-.76s0-.53,0-.79v-.76a8.78,8.78,0,0,1,2.1-5.06,15.56,15.56,0,0,1,5.35-4A33.6,33.6,0,0,1,529,1.27,60.35,60.35,0,0,1,540.24.33,64.42,64.42,0,0,1,549,.89a31.84,31.84,0,0,1,7.23,1.81,16.87,16.87,0,0,1,5.3,3.22,9.72,9.72,0,0,1,2.83,4.81v-.05a.79.79,0,0,1,.09.36c0,.17,0,.32.07.46H548.62a2.68,2.68,0,0,1-.16-.48,1.4,1.4,0,0,0-.13-.36v.07A5.38,5.38,0,0,0,545.49,8a13.22,13.22,0,0,0-5.58-1,19.43,19.43,0,0,0-7.83,1.47q-3.36,1.49-4,3.82a17.65,17.65,0,0,0-.58,2.9c0,.41,0,.93,0,1.56a3.45,3.45,0,0,0,.55,1.79,10,10,0,0,0,1.42,1.73,10.4,10.4,0,0,0,2.8,1.81A9.1,9.1,0,0,0,536,23c1.15.05,2.47.07,3.94.07q7.68.21,9.5-4.1h-3V16.74h18.69c0,.69,0,1.46,0,2.3v2.11c0,.72.06,1.48.08,2.28s0,1.57.06,2.34,0,1.49,0,2.18v1.78Z"/><path class="cls-1" d="M610.26.85V7.6H583.88v4.28h23.43v6l-23.43,0v4.48l26.38,0v7.19H571.49V.85Z"/><path class="cls-1" d="M650.11.82q10.86,1,11.48,8-.74,6.81-10.51,7.61v.09q11.28.35,9.77,10.74A3.07,3.07,0,0,0,662,29.51H649.86q-3.65-1.2-4-3.43c-.24-1.48-.42-2.94-.52-4.37s-1.11-2.18-3-2.22H628.65v10H616.41V.82ZM628.65,7v6.17h16.6c2.2,0,3.43-1,3.69-2.93Q648.17,7,645.11,7Z"/><path class="cls-1" d="M52.09,43.18,36.92,57.46,53,71.84H38.2L25.37,60.61V71.84H12.28V43.18H25.37v10l12.83-10Z"/><path class="cls-1" d="M72.46,43.18V71.84H59.09V43.18Z"/><path class="cls-1" d="M107.63,43.18Q126,44,126.74,56.26q-.15,15.93-24.83,15.58H78.61V43.18Zm-16,7.28,0,13.84h10.9q11,.08,11-7.61,0-6-12-6.23Z"/><path class="cls-1" d="M163,48.79a7.11,7.11,0,0,0-2.55-1.08,31.16,31.16,0,0,0-4.8-.56,23,23,0,0,0-4.36.53,4.32,4.32,0,0,0-1.94,1,2.17,2.17,0,0,0-.71,1.41,2.08,2.08,0,0,0,.69,1.38,4.41,4.41,0,0,0,1.9,1,8.78,8.78,0,0,0,2.64.36h4q5.22.15,7.7.35c1.65.12,2.93.25,3.83.38a15.75,15.75,0,0,1,3.53,1.1,12.4,12.4,0,0,1,3.38,2,7.36,7.36,0,0,1,1.9,2.68,5.22,5.22,0,0,1,.36,3.29,8.08,8.08,0,0,1-1.63,3.3,13.7,13.7,0,0,1-4.47,3.3,24.07,24.07,0,0,1-5.64,2.2,33.2,33.2,0,0,1-4.89.73q-2.44.18-7.54.18c-3.76-.24-6.62-.51-8.55-.81a28.39,28.39,0,0,1-5-1.18,15.27,15.27,0,0,1-4-2.12,16.13,16.13,0,0,1-2.9-2.58,4.23,4.23,0,0,1-1-2.79h14.7a3.9,3.9,0,0,0,1,1.77A6.09,6.09,0,0,0,150.43,66a7.11,7.11,0,0,0,2.32.6c.88.09,2,.15,3.26.18a30.69,30.69,0,0,0,3.8-.73,4.38,4.38,0,0,0,1.93-1,1.75,1.75,0,0,0,0-2.79,4.63,4.63,0,0,0-1.93-1.06,7.74,7.74,0,0,0-2.55-.33,112.11,112.11,0,0,1-15.38-1.1A14.61,14.61,0,0,1,135.24,57a5.42,5.42,0,0,1-2.35-4.14,7.11,7.11,0,0,1,1.26-4.07,11.71,11.71,0,0,1,4.69-3.5,30.23,30.23,0,0,1,8.82-2.38,45.83,45.83,0,0,1,8.49-.57A74.93,74.93,0,0,1,164,43a30.52,30.52,0,0,1,8,1.74,19.12,19.12,0,0,1,4.55,2.76,7,7,0,0,1,2.54,3.87H165.22A10,10,0,0,0,163,48.79Z"/><path class="cls-1" d="M240.5,42.76q22.2,0,25.87,12H252.86q-.63-2.67-4.44-3.77a28.63,28.63,0,0,0-7.92-1.09A17.72,17.72,0,0,0,233,51.6q-3.6,1.68-4,6.31a6.13,6.13,0,0,0,3.79,5.94,17.82,17.82,0,0,0,7.69,1.78,22.72,22.72,0,0,0,7.92-1.41,7.54,7.54,0,0,0,4.91-4.53h13Q263,72.19,240.5,72.18,216.05,72.18,215,58,216.05,42.76,240.5,42.76Z"/><path class="cls-1" d="M298.56,42.6a42.61,42.61,0,0,1,12.82,1.94,22.94,22.94,0,0,1,9.74,5.51q3.54,3.59,3.54,7.5A10.67,10.67,0,0,1,321.23,65a22.83,22.83,0,0,1-9.66,5.53,42.68,42.68,0,0,1-13,2,42.37,42.37,0,0,1-12.94-2A23,23,0,0,1,276,65a10.61,10.61,0,0,1-3.45-7.44q0-3.91,3.51-7.5a22.72,22.72,0,0,1,9.73-5.51A42.69,42.69,0,0,1,298.56,42.6ZM292.89,51a10.79,10.79,0,0,0-4.55,2.87,5.44,5.44,0,0,0,0,7.76,10.54,10.54,0,0,0,4.54,2.87,18.15,18.15,0,0,0,12.11,0,10.47,10.47,0,0,0,4.52-2.87,5.44,5.44,0,0,0-.05-7.76A11,11,0,0,0,304.87,51a18.1,18.1,0,0,0-12,0Z"/><path class="cls-1" d="M330.8,43.18h14.07V63.51H366v8.33H330.8Z"/><path class="cls-1" d="M372.18,43.18h14.07V63.51h21.17v8.33H372.18Z"/><path class="cls-1" d="M452.33,43.18v6.76H425.94v4.28h23.44v6l-23.44,0v4.48l26.39,0v7.18H413.56V43.18Z"/><path class="cls-1" d="M484,42.76q22.2,0,25.87,12H496.34q-.63-2.67-4.44-3.77A28.63,28.63,0,0,0,484,49.94a17.72,17.72,0,0,0-7.52,1.66q-3.6,1.68-4,6.31a6.13,6.13,0,0,0,3.79,5.94A17.82,17.82,0,0,0,484,65.63a22.72,22.72,0,0,0,7.92-1.41,7.58,7.58,0,0,0,4.92-4.53h13q-3.33,12.5-25.8,12.49-24.45,0-25.51-14.18Q459.54,42.76,484,42.76Z"/><path class="cls-1" d="M516,43.18h45.16v8.54h-16V71.84H531.58V51.72H516Z"/><path class="cls-1" d="M580.68,43.18V71.84H567.3V43.18Z"/><path class="cls-1" d="M612.87,42.6a42.5,42.5,0,0,1,12.81,1.94,23,23,0,0,1,9.75,5.51c2.36,2.39,3.53,4.89,3.53,7.5A10.63,10.63,0,0,1,635.53,65a22.83,22.83,0,0,1-9.66,5.53,43.5,43.5,0,0,1-26,0A22.85,22.85,0,0,1,590.27,65a10.61,10.61,0,0,1-3.45-7.44q0-3.91,3.5-7.5a22.76,22.76,0,0,1,9.74-5.51A42.69,42.69,0,0,1,612.87,42.6ZM607.2,51a10.79,10.79,0,0,0-4.55,2.87,5.44,5.44,0,0,0,0,7.76,10.57,10.57,0,0,0,4.53,2.87,18.15,18.15,0,0,0,12.11,0,10.5,10.5,0,0,0,4.53-2.87,5.43,5.43,0,0,0-.06-7.76A10.83,10.83,0,0,0,619.17,51a18.07,18.07,0,0,0-12,0Z"/><path class="cls-1" d="M660.69,43.18l20,17.32V43.18h10.83V71.84H675.44L656.1,54V71.84h-11V43.18Z"/><path class="cls-1" d="M0,87.17H40.3v6.46H13.53v6H36.41v7.09H13.53v9.07H0Z"/><path class="cls-1" d="M72.49,86.59a42.92,42.92,0,0,1,12.82,1.93A23,23,0,0,1,95.05,94c2.36,2.39,3.54,4.88,3.54,7.5s-1.15,5.07-3.43,7.44a22.82,22.82,0,0,1-9.66,5.52,43.29,43.29,0,0,1-25.95,0A23,23,0,0,1,49.89,109q-3.45-3.56-3.45-7.44c0-2.62,1.17-5.11,3.51-7.5a22.73,22.73,0,0,1,9.73-5.52A43,43,0,0,1,72.49,86.59ZM66.82,95a10.7,10.7,0,0,0-4.55,2.87,5.44,5.44,0,0,0,0,7.76,10.54,10.54,0,0,0,4.54,2.87,18.31,18.31,0,0,0,12.11,0,10.47,10.47,0,0,0,4.52-2.87,5.44,5.44,0,0,0,0-7.76A10.86,10.86,0,0,0,78.8,95a18.1,18.1,0,0,0-12,0Z"/><path class="cls-1" d="M138.44,87.15q10.84,1,11.48,8-.75,6.8-10.51,7.61v.09q11.26.33,9.77,10.74a3,3,0,0,0,1.12,2.27H138.19q-3.65-1.18-4-3.42c-.24-1.49-.41-2.94-.52-4.38s-1.11-2.17-3-2.22H117v10H104.73V87.15ZM117,93.32v6.17h16.59q3.31,0,3.7-2.93-.77-3.24-3.83-3.24Z"/><path class="cls-1" d="M170.34,87.17h12.4v16.37q0,5.13,9.44,5.16,7.69,0,9.58-1.35a4.4,4.4,0,0,0,1.88-3.81V87.17H216v16.28a10.27,10.27,0,0,1-1.46,5.54,11,11,0,0,1-4.3,3.88,23.54,23.54,0,0,1-6.95,2.27,54,54,0,0,1-9.44.74,62.68,62.68,0,0,1-9.9-.71,27.9,27.9,0,0,1-7.41-2.13,11.73,11.73,0,0,1-4.64-3.58,8.32,8.32,0,0,1-1.6-5.11Z"/><path class="cls-1" d="M237.77,87.17l20,17.32V87.17h10.82v28.66H252.51L233.17,98v17.87h-11V87.17Z"/><path class="cls-1" d="M300.29,86.74q22.2,0,25.87,12.05H312.65c-.42-1.79-1.9-3-4.45-3.77a28.51,28.51,0,0,0-7.91-1.09,17.72,17.72,0,0,0-7.52,1.66c-2.4,1.11-3.73,3.21-4,6.31a6.13,6.13,0,0,0,3.79,5.94,17.79,17.79,0,0,0,7.69,1.78,22.62,22.62,0,0,0,7.91-1.41,7.56,7.56,0,0,0,4.92-4.53h13q-3.33,12.5-25.8,12.49-24.45,0-25.51-14.18Q275.83,86.75,300.29,86.74Z"/><path class="cls-1" d="M358.35,86.59a42.81,42.81,0,0,1,12.81,1.93A23.06,23.06,0,0,1,380.91,94c2.36,2.39,3.53,4.88,3.53,7.5A10.66,10.66,0,0,1,381,109a22.82,22.82,0,0,1-9.66,5.52,43.29,43.29,0,0,1-26,0,22.84,22.84,0,0,1-9.65-5.52q-3.45-3.56-3.45-7.44c0-2.62,1.17-5.11,3.5-7.5a22.77,22.77,0,0,1,9.74-5.52A43,43,0,0,1,358.35,86.59ZM352.68,95a10.64,10.64,0,0,0-4.55,2.87,5.43,5.43,0,0,0,0,7.76,10.66,10.66,0,0,0,4.54,2.87,18.31,18.31,0,0,0,12.11,0,10.57,10.57,0,0,0,4.53-2.87,5.85,5.85,0,0,0,1.6-3.86,5.75,5.75,0,0,0-1.66-3.9A10.74,10.74,0,0,0,364.65,95a18.07,18.07,0,0,0-12,0Z"/><path class="cls-1" d="M390.59,87.17h17.18l10.24,15,10.29-15h16.86v28.66H434.45V97.73l-11.6,18.1H413l-11.53-18.1v18.1H390.59Z"/><path class="cls-1" d="M451.31,87.17h17.18l10.24,15,10.29-15h16.86v28.66H495.17V97.73l-11.6,18.1h-9.88l-11.53-18.1v18.1H451.31Z"/><path class="cls-1" d="M538.08,86.59a42.9,42.9,0,0,1,12.81,1.93A23,23,0,0,1,560.63,94c2.36,2.39,3.54,4.88,3.54,7.5s-1.15,5.07-3.43,7.44a22.82,22.82,0,0,1-9.66,5.52,43.29,43.29,0,0,1-26,0,23,23,0,0,1-9.66-5.52,10.64,10.64,0,0,1-3.44-7.44c0-2.62,1.16-5.11,3.5-7.5a22.73,22.73,0,0,1,9.73-5.52A43,43,0,0,1,538.08,86.59ZM532.4,95a10.7,10.7,0,0,0-4.55,2.87,5.44,5.44,0,0,0,0,7.76,10.6,10.6,0,0,0,4.54,2.87,18.31,18.31,0,0,0,12.11,0,10.47,10.47,0,0,0,4.52-2.87,5.44,5.44,0,0,0,0-7.76A10.8,10.8,0,0,0,544.38,95a18.1,18.1,0,0,0-12,0Z"/><path class="cls-1" d="M585.89,87.17l20,17.32V87.17h10.83v28.66H600.64L581.3,98v17.87h-11V87.17Z"/><path class="cls-1" d="M622.91,87.17H637V107.5h21.16v8.33H622.91Z"/><path class="cls-1" d="M690.85,106.13v9.7H677.09v-9.7l-12.81-19h13l7.48,11.26,7.18-11.26h11.93Z"/><path class="cls-1" d="M179.55,129.91q22.2,0,25.87,12H191.91q-.63-2.67-4.45-3.77a28.51,28.51,0,0,0-7.91-1.09,17.73,17.73,0,0,0-7.52,1.67c-2.4,1.11-3.73,3.21-4,6.3a6.14,6.14,0,0,0,3.8,5.94,17.79,17.79,0,0,0,7.69,1.78,22.85,22.85,0,0,0,7.91-1.4,7.57,7.57,0,0,0,4.92-4.54h13q-3.33,12.49-25.8,12.49-24.45,0-25.51-14.18Q155.09,129.91,179.55,129.91Z"/><path class="cls-1" d="M237.61,129.75a42.82,42.82,0,0,1,12.81,1.94,23.15,23.15,0,0,1,9.75,5.51c2.36,2.39,3.53,4.89,3.53,7.5a10.63,10.63,0,0,1-3.43,7.44,22.83,22.83,0,0,1-9.66,5.53,43.5,43.5,0,0,1-26,0,23,23,0,0,1-9.66-5.53,10.64,10.64,0,0,1-3.44-7.44q0-3.91,3.5-7.5a22.86,22.86,0,0,1,9.74-5.51A43,43,0,0,1,237.61,129.75Zm-5.67,8.36a10.65,10.65,0,0,0-4.55,2.88,5.42,5.42,0,0,0,0,7.75,10.66,10.66,0,0,0,4.54,2.87,18.15,18.15,0,0,0,12.11,0,10.57,10.57,0,0,0,4.53-2.87,5.83,5.83,0,0,0,1.6-3.86,5.73,5.73,0,0,0-1.66-3.89,10.75,10.75,0,0,0-4.56-2.88,18.07,18.07,0,0,0-12,0Z"/><path class="cls-1" d="M295.9,129.75a42.86,42.86,0,0,1,12.81,1.94,23.15,23.15,0,0,1,9.75,5.51q3.53,3.59,3.53,7.5a10.63,10.63,0,0,1-3.43,7.44,22.83,22.83,0,0,1-9.66,5.53,43.5,43.5,0,0,1-25.95,0,23,23,0,0,1-9.66-5.53,10.64,10.64,0,0,1-3.44-7.44c0-2.61,1.16-5.11,3.5-7.5a22.8,22.8,0,0,1,9.74-5.51A42.91,42.91,0,0,1,295.9,129.75Zm-5.68,8.36a10.67,10.67,0,0,0-4.54,2.88,5.42,5.42,0,0,0,0,7.75,10.6,10.6,0,0,0,4.54,2.87,18.15,18.15,0,0,0,12.11,0,10.57,10.57,0,0,0,4.53-2.87,5.83,5.83,0,0,0,1.6-3.86,5.77,5.77,0,0,0-1.66-3.89,10.75,10.75,0,0,0-4.56-2.88,17.84,17.84,0,0,0-6-1A18,18,0,0,0,290.22,138.11Z"/><path class="cls-1" d="M328.14,130.34h14.07v20.33h21.16V159H328.14Z"/><path class="cls-1" d="M422.83,130.34l-15.18,14.27,16,14.39H408.94L396.1,147.76V159H383V130.34H396.1v10l12.84-10Z"/><path class="cls-1" d="M443.2,130.34V159H429.83V130.34Z"/><path class="cls-1" d="M478.37,130.34q18.31.81,19.11,13.08-.15,15.92-24.83,15.58h-23.3V130.34Zm-16,7.27,0,13.84h10.9q11,.08,11-7.61,0-6-12-6.23Z"/><path class="cls-1" d="M533.72,135.94a7.11,7.11,0,0,0-2.55-1.08,31.33,31.33,0,0,0-4.8-.56,22.83,22.83,0,0,0-4.36.53,4.42,4.42,0,0,0-1.94,1,2.17,2.17,0,0,0-.71,1.41,2.08,2.08,0,0,0,.69,1.38,4.41,4.41,0,0,0,1.9,1,8.78,8.78,0,0,0,2.64.36h4q5.22.15,7.7.35c1.65.13,2.93.25,3.83.38a15.75,15.75,0,0,1,3.53,1.1,12.4,12.4,0,0,1,3.38,2,7.48,7.48,0,0,1,1.9,2.68,5.37,5.37,0,0,1,.36,3.29,8.08,8.08,0,0,1-1.63,3.3,13.93,13.93,0,0,1-4.47,3.3,23.63,23.63,0,0,1-5.64,2.2,33.33,33.33,0,0,1-4.9.73q-2.45.18-7.53.18-5.66-.36-8.55-.81a28.18,28.18,0,0,1-5-1.18,15.54,15.54,0,0,1-4-2.11,16.53,16.53,0,0,1-2.9-2.59,4.22,4.22,0,0,1-1-2.78h14.7a3.87,3.87,0,0,0,1,1.76,6,6,0,0,0,1.83,1.39,7.11,7.11,0,0,0,2.31.61q1.34.13,3.27.18a32.27,32.27,0,0,0,3.8-.74,4.28,4.28,0,0,0,1.93-1,1.75,1.75,0,0,0,0-2.79,4.63,4.63,0,0,0-1.93-1.06A7.78,7.78,0,0,0,528,148a112.11,112.11,0,0,1-15.38-1.1,14.61,14.61,0,0,1-6.63-2.75,5.42,5.42,0,0,1-2.35-4.14,7.06,7.06,0,0,1,1.26-4.06,11.63,11.63,0,0,1,4.69-3.51,30.23,30.23,0,0,1,8.82-2.38,45.61,45.61,0,0,1,8.48-.56,74.09,74.09,0,0,1,7.84.65,30.94,30.94,0,0,1,8,1.74,19.12,19.12,0,0,1,4.55,2.76,7,7,0,0,1,2.54,3.87H536A10.23,10.23,0,0,0,533.72,135.94Z"/></g></g></svg>