<svg xmlns="http://www.w3.org/2000/svg" viewBox="0 0 952.95 72.48"><defs><style>.cls-1{fill:#fff;}</style></defs><g id="レイヤー_2" data-name="レイヤー 2"><g id="レイヤー_1-2" data-name="レイヤー 1"><path class="cls-1" d="M537.44,29.63V18.23H519.32v8q3.42,0,3.42,3.42v15q0,3.42-3.42,3.42v8H545v-8h-2.85q-3.42,0-3.42-3.42V38.4c0-4.55,3.08-7.18,8.09-7.18a20.23,20.23,0,0,1,3.53.35V17.44C543.25,17.44,539.15,21.31,537.44,29.63Z"/><path class="cls-1" d="M497.55,17.44c-11.62,0-19.83,8.09-19.83,19.71s9.35,19.72,22.34,19.72A30.52,30.52,0,0,0,515,52.31L511.68,45a24.58,24.58,0,0,1-10.14,2.17c-5.47,0-7-2.17-7.29-6.5h22.9v-3C517.15,26.1,508.61,17.44,497.55,17.44Zm4.67,17.09h-8V29.86a4,4,0,1,1,8,0Z"/><rect class="cls-1" x="412.99" y="1.59" width="15.95" height="12.54"/><path class="cls-1" d="M459.26,26.21c-1.6-5.81-5.58-8.77-11.51-8.77-9.12,0-14.13,7-14.13,19.14s4.9,18.92,13.9,18.92c5,0,8.89-2.17,10.37-6V54c0,5.35-3.07,8.2-9.11,8.2-3,0-5.59-.68-10.15-2.85L435.21,68c7.07,3.31,11.17,4.45,16.64,4.45,13.56,0,22-7.07,22-18.46V29.63c0-2.25,1.15-3.41,3.41-3.41,0-2.52,0-8,0-8h-18Zm-.46,14.93a4.33,4.33,0,1,1-8.66,0V32.71a4.33,4.33,0,1,1,8.66,0Z"/><path class="cls-1" d="M429,44.67V18.23H409.57v8q3.42,0,3.42,3.42v15q0,3.42-3.42,3.42v8h22.8v-8Q428.95,48.09,429,44.67Z"/><path class="cls-1" d="M352.37,21.65h9.11V17.09c0-3.42,2-5.47,5.47-5.47h2.51V43.53c0,2.51-1.37,3.88-3.88,3.88h-4.1v8.66h35.33V47.41h-4.1c-2.51,0-3.88-1.37-3.88-3.88V11.62h2.51c3.42,0,5.47,2.05,5.47,5.47v4.56h9V1.59H352.37Z"/><path class="cls-1" d="M338.35,44.67V34c0-10.26-8.21-16.52-21.08-16.52a45.29,45.29,0,0,0-16.87,3.3l2.17,8.78a29.3,29.3,0,0,1,10.37-2.28c5.35,0,9.46,2.05,9.46,6.26v1.71a18.43,18.43,0,0,0-10.15-2.73c-8.89,0-15.5,5-15.5,12.19,0,7.41,6.27,12.2,15.5,12.2,7.75,0,11.85-2.51,13.68-7.64v6.84h15.84v-8Q338.35,48.09,338.35,44.67Zm-19.26,3.08h-2.16a3.65,3.65,0,1,1,0-7.29h2.16a3.65,3.65,0,1,1,0,7.29Z"/><path class="cls-1" d="M291.51,45.7l-8.09-10.83,5-4.78c2.4-2.28,4.68-3.88,5.93-3.88v-8H273.05v8h6.38l-10.82,9.92V.23H249.8v8a2.69,2.69,0,0,1,2.85,2.85V45.24a2.69,2.69,0,0,1-2.85,2.85v8h21.65v-8a2.69,2.69,0,0,1-2.84-2.85V39.32l11.85,16.75h14.47v-8C293.79,48.09,292.54,47.07,291.51,45.7Z"/><path class="cls-1" d="M835.42,45.7l-8.09-10.83,5-4.78c2.4-2.28,4.68-3.88,5.93-3.88v-8H817v8h6.38l-10.83,9.92V.23h-18.8v8a2.69,2.69,0,0,1,2.85,2.85V45.24a2.69,2.69,0,0,1-2.85,2.85v8h21.65v-8a2.69,2.69,0,0,1-2.85-2.85V39.32l11.86,16.75h14.47v-8C837.7,48.09,836.45,47.07,835.42,45.7Z"/><path class="cls-1" d="M243.08,45.24v-27H223.71v8q3.4,0,3.41,3.42V40.91a4,4,0,1,1-8,0V18.23H199.77v8q3.42,0,3.42,3.42V45.81c0,6.73,4.56,11.06,11.74,11.06,5.7,0,9.8-2.74,13-8.78v8h18v-8A2.69,2.69,0,0,1,243.08,45.24Z"/><path class="cls-1" d="M190.09,33.16,181.2,30a2.34,2.34,0,0,1-1.71-2c0-1.37,1.48-2.05,3.53-2.05a5.84,5.84,0,0,1,5.59,3.76H197V18.23h-8v4c-2.51-3-6.84-4.78-11.4-4.78-7.74,0-13.56,5.35-13.56,12.42a11.93,11.93,0,0,0,8.78,11.39l5.13,1.6c4.44,1.37,5.47,2,5.47,3.76,0,1.37-1.26,1.94-3.08,1.94-2.62,0-4.67-1.14-8-3.88h-8v11.4h8.43v-4a16.71,16.71,0,0,0,11.85,4.79c8.55,0,14.59-5,14.59-12.2C199.32,39.09,195.9,35.21,190.09,33.16Z"/><path class="cls-1" d="M943.72,33.16,934.83,30a2.34,2.34,0,0,1-1.71-2c0-1.37,1.48-2.05,3.53-2.05a5.83,5.83,0,0,1,5.58,3.76h8.44V18.23h-8v4c-2.51-3-6.84-4.78-11.4-4.78-7.75,0-13.56,5.35-13.56,12.42a11.93,11.93,0,0,0,8.78,11.39l5.13,1.6c4.44,1.37,5.47,2,5.47,3.76,0,1.37-1.26,1.94-3.08,1.94-2.62,0-4.67-1.14-8-3.88h-8v11.4h8.44v-4a16.71,16.71,0,0,0,11.85,4.79c8.55,0,14.59-5,14.59-12.2C953,39.09,949.53,35.21,943.72,33.16Z"/><path class="cls-1" d="M154.87,5.58h-15.5v7.64c0,3.42-1.59,5-5,5v8h4.56V56.07h22.56v-8h-.91c-4,0-5.7-1.71-5.7-5.7V26.67h6.73V18.23h-6.73Z"/><rect class="cls-1" x="114.76" y="1.59" width="15.95" height="12.54"/><path class="cls-1" d="M130.71,44.67V18.23H111.34v8q3.42,0,3.42,3.42v15q0,3.42-3.42,3.42v8h22.79v-8Q130.71,48.09,130.71,44.67Z"/><rect class="cls-1" x="847.81" y="1.59" width="15.95" height="12.54"/><path class="cls-1" d="M863.77,44.67V18.23H844.39v8q3.42,0,3.42,3.42v15q0,3.42-3.42,3.42v8h22.8v-8Q863.77,48.09,863.77,44.67Z"/><path class="cls-1" d="M104.5,44.67V28.49c0-6.72-4.56-11-11.74-11-5.69,0-9.8,2.73-13,8.77v-8H61.2v8q3.42,0,3.42,3.42v15q0,3.42-3.42,3.42v8H84v-8q-3.42,0-3.42-3.42V33.39a4,4,0,1,1,8,0V56.07h19.37v-8Q104.5,48.09,104.5,44.67Z"/><path class="cls-1" d="M28.49,0C12.31,0,0,12,0,28.83S12.19,57.66,28.49,57.66,57,45.93,57,28.83C57,12,44.79,0,28.49,0Zm5.7,41a5.38,5.38,0,0,1-5.7,5.69A5.38,5.38,0,0,1,22.79,41V16.64a5.39,5.39,0,0,1,5.7-5.7,5.39,5.39,0,0,1,5.7,5.7Z"/><path class="cls-1" d="M910.88,44h0s0,0,0,0a1.75,1.75,0,0,1-.12-.32,4.89,4.89,0,0,1,0-.66v-.41h0V1.59H892.07v9.3h1.57a1.48,1.48,0,0,1,1.27.72l0,.06s0,.09,0,.13a4.24,4.24,0,0,1,.11,1.08l-.05,14.45c-1.62-5.71-5.58-8.63-11.46-8.63-9.11,0-14.13,7-14.13,19.14s4.9,18.92,13.9,18.92c5.34,0,9.91-2.17,11.63-6.7l0,6h18.76V44.67h-1.57A1.49,1.49,0,0,1,910.88,44ZM894.65,42.4a4.33,4.33,0,1,1-8.66,0V34a4.33,4.33,0,1,1,8.66,0Z"/><path class="cls-1" d="M585.69,24.26c-.36-1.24-.87-2.92-2.93-2.92a2.16,2.16,0,0,0-2.3,2.39c0,1.78,1.3,2.48,2.68,3.19.94.46,3.55,1.38,3.55,4,0,2.21-1.7,3.8-4.38,3.85a9.13,9.13,0,0,1-2.15-.34,3.5,3.5,0,0,1-.91-.41,23.65,23.65,0,0,1-.51-3.36h.34c.34,1.15,1.25,3.56,3.74,3.56a2.43,2.43,0,0,0,2.64-2.77c0-2.15-1.75-2.87-2.87-3.51-.19-.11-3.32-1.11-3.32-3.7,0-1.77,1.45-3.43,4-3.43a7.18,7.18,0,0,1,2.48.45c.09.72.19,1.51.34,3Z"/><path class="cls-1" d="M588.37,34.19c1.83-.08,2-.45,2-2.13V23.6c0-1.7,0-2-1.87-2.11v-.32h5c1.34,0,4.64.17,4.64,3.7,0,3.11-3,4.39-5,4.17l-1.7-.46v3.53c0,1.66.15,2,2.32,2.08v.3h-5.47Zm3.15-6.08a4.43,4.43,0,0,0,1.8.32A3.14,3.14,0,0,0,596.77,25c0-2.32-1.34-3.38-4-3.38a6.72,6.72,0,0,0-1.08,0c-.15,0-.21.09-.21.53Z"/><path class="cls-1" d="M599.87,34.19c1.9-.08,2.07-.45,2.07-2.13V23.53c0-1.68-.17-1.91-2-2v-.32h5c2.1,0,4.4.64,4.4,3.36a3.75,3.75,0,0,1-2.59,3.62,27.9,27.9,0,0,0,1.89,2.91c1,1.26,2.51,3.09,3.59,3.34l-.06.28c-1.93,0-3-.11-6.17-5.36-.53-.77-1.17-.79-3-.79v3.53c0,1.68.17,2,2,2.13v.3h-5.21Zm4.51-6.08a3.93,3.93,0,0,0,2.6-.64,3.12,3.12,0,0,0,1.1-2.62c0-2.27-1.46-3.25-3.68-3.25-.57,0-.93,0-1.12,0s-.2.07-.2.47v6Z"/><path class="cls-1" d="M613.27,34.19c1.85-.08,2-.45,2-2.13V23.6c0-1.66-.17-2-2-2.13v-.3h5.15v.3c-1.83.11-2,.47-2,2.13v8.46c0,1.68.19,2,2,2.13v.3h-5.15Z"/><path class="cls-1" d="M619.88,34.19c1.26-.08,1.85-.51,2-1.1a18.55,18.55,0,0,0,.24-4V24.51c0-1.89-.11-1.78-.49-2.25s-.81-.66-1.94-.79v-.3h2.62l9.82,11.23h.07V26.34c0-4.15,0-4.7-2.51-4.87v-.3H635v.3c-1.23.11-1.76.51-2,1.13a16.26,16.26,0,0,0-.22,3.74v8.3h-.23l-9.81-11.17h0v5.66a22.7,22.7,0,0,0,.19,3.91c.19.66.83,1.05,2.26,1.15v.3h-5.3Z"/><path class="cls-1" d="M650.29,28.81c-1.25.19-1.31.47-1.31,1.4v1.92a5.44,5.44,0,0,0,.19,1.81,21.14,21.14,0,0,1-4.94.87c-4.64,0-7.91-2.81-7.91-6.85,0-4.66,3.93-7.11,8.12-7.11a15.81,15.81,0,0,1,4.15.58c.07.62.17,1.83.36,3.15l-.34,0c-.7-2.68-2.36-3.26-4.55-3.26-4.08,0-6.23,2.37-6.23,6.3,0,3,1.7,6.62,6.4,6.62a9.16,9.16,0,0,0,2.72-.34c.64-.22.9-.51.9-1.45V30.64c0-1.3-.11-1.66-2.53-1.83v-.3h5Z"/><path class="cls-1" d="M665.43,25.81h4.89v.3a2.67,2.67,0,0,0-2.46,1.72c-.58.83-1.09,1.72-1.75,2.6a30.57,30.57,0,0,1,3.21,4.33l-.17.18A8.18,8.18,0,0,1,667.3,34a20.59,20.59,0,0,0-1.95-2.53c-1.85,2.38-3.15,3.27-4.79,3.27a3.79,3.79,0,0,1-4-3.53c0-2.16,1.83-3.16,3.49-4.27-1.13-.85-1.79-1.64-1.79-2.7a3.28,3.28,0,0,1,3.19-3.19,2.83,2.83,0,0,1,3,2.68,2.33,2.33,0,0,1-1,1.85l-1.72,1.1a26.84,26.84,0,0,1,4.06,3.43A7.31,7.31,0,0,0,667.18,27c0-.55-.47-.7-1.73-.89Zm-.38,5.3a20.39,20.39,0,0,0-4.66-3.85c-2,1.17-2.55,2.12-2.55,3.51a3,3,0,0,0,3.15,3A5.19,5.19,0,0,0,665.05,31.11Zm-5.7-7.43a3.3,3.3,0,0,0,2,2.79,3,3,0,0,0,1.85-2.77,2,2,0,0,0-2-2.12A1.89,1.89,0,0,0,659.35,23.68Z"/><path class="cls-1" d="M682.78,24.26c-.36-1.24-.87-2.92-2.93-2.92a2.16,2.16,0,0,0-2.3,2.39c0,1.78,1.3,2.48,2.68,3.19.94.46,3.55,1.38,3.55,4,0,2.21-1.7,3.8-4.38,3.85a9.13,9.13,0,0,1-2.15-.34,3.5,3.5,0,0,1-.91-.41,23.65,23.65,0,0,1-.51-3.36h.34c.34,1.15,1.25,3.56,3.74,3.56a2.43,2.43,0,0,0,2.64-2.77c0-2.15-1.75-2.87-2.87-3.51-.2-.11-3.32-1.11-3.32-3.7,0-1.77,1.45-3.43,3.95-3.43a7.19,7.19,0,0,1,2.49.45c.09.72.19,1.51.34,3Z"/><path class="cls-1" d="M698,27.51c0,2.66-.36,4.38-1.68,5.75a5.63,5.63,0,0,1-3.89,1.48A5.4,5.4,0,0,1,689,33.68c-1.11-.89-1.68-2.21-1.68-4.61V23.68c0-1.83-.17-2-2.06-2.21v-.3h5.12v.3c-1.81,0-2,.51-2,2.21v4.73c0,3.76,1.73,5.42,4.6,5.42,3.27,0,4.42-2.51,4.44-6.21V26.49a19.55,19.55,0,0,0-.17-3.83c-.14-.68-.8-1-2.29-1.19v-.3h5.23v.3c-1.17.13-1.87.51-2,1.17a22.06,22.06,0,0,0-.21,3.85Z"/><path class="cls-1" d="M701.83,21.17h2.7l5.62,11.28,5.64-11.28h3.06v.3c-2,.19-2.17.41-2.09,2.53l.15,7.55c.07,2.19.15,2.47,2.15,2.64v.3h-5.21v-.3c1.87-.15,1.94-.42,1.91-2.64l-.08-8.93h-.09l-5.76,11.64h-.19l-5.23-10.92h0l-.27,5.75c-.07,1-.09,1.72-.09,2.29,0,2.05.21,2.62,2.19,2.81v.3h-5.12v-.3c1.32-.1,1.76-.47,1.93-1.32a29.68,29.68,0,0,0,.47-4.1l.3-3.9c0-.57,0-1,0-1.42,0-1.51-.36-1.79-2-2Z"/><path class="cls-1" d="M720.89,21.17h2.7l5.61,11.28,5.64-11.28h3.06v.3c-2,.19-2.17.41-2.08,2.53l.15,7.55c.06,2.19.14,2.47,2.14,2.64v.3H732.9v-.3c1.87-.15,1.94-.42,1.92-2.64l-.09-8.93h-.08l-5.77,11.64h-.19l-5.23-10.92h0l-.28,5.75c-.06,1-.09,1.72-.09,2.29,0,2.05.22,2.62,2.2,2.81v.3h-5.13v-.3c1.32-.1,1.76-.47,1.94-1.32a32.14,32.14,0,0,0,.46-4.1l.3-3.9c0-.57,0-1,0-1.42,0-1.51-.36-1.79-2-2Z"/><path class="cls-1" d="M739.43,34.19c2-.1,2.15-.47,2.15-2.1V23.75c0-1.83-.17-2.19-1.94-2.28v-.3h9.25c0,.75.11,2,.19,3.26l-.36.06c-.44-2.17-.85-2.81-3.42-2.81h-2c-.58,0-.6.05-.6.6v5h2.49c1.68,0,2.09-.22,2.41-1.64H748v4h-.36c-.35-1.64-.79-1.73-2.41-1.73H742.7V32c0,2,.87,2,2.64,2,1.3,0,2.57,0,3.26-.81a6.64,6.64,0,0,0,1.19-2.1h.36c-.19.78-.6,2.68-.77,3.4h-10Z"/><path class="cls-1" d="M751.48,34.19c1.9-.08,2.07-.45,2.07-2.13V23.53c0-1.68-.17-1.91-2-2v-.32h5c2.11,0,4.4.64,4.4,3.36a3.74,3.74,0,0,1-2.59,3.62,27.9,27.9,0,0,0,1.89,2.91c1,1.26,2.51,3.09,3.6,3.34l-.07.28c-1.93,0-3-.11-6.17-5.36-.53-.77-1.17-.79-3-.79v3.53c0,1.68.17,2,2,2.13v.3h-5.22ZM756,28.11a3.93,3.93,0,0,0,2.6-.64,3.12,3.12,0,0,0,1.1-2.62c0-2.27-1.46-3.25-3.67-3.25-.58,0-.94,0-1.13,0s-.19.07-.19.47v6Z"/><path class="cls-1" d="M592,51.05a33.64,33.64,0,0,1-1.11,3.6,25.94,25.94,0,0,1-4.27.59c-5.58,0-8-3.57-7.94-6.78,0-4.26,3.58-7.17,8.38-7.17a14.66,14.66,0,0,1,4,.6c.17,1.06.28,2.08.41,3.29l-.36.07c-.6-2.47-2.05-3.43-4.81-3.43-4.21,0-6.11,2.79-6.11,6.11,0,4.12,2.47,6.8,6.24,6.8,3,0,4.16-1.59,5.19-3.78Z"/><path class="cls-1" d="M607.87,48.08a7.16,7.16,0,0,1-7.42,7.16,6.81,6.81,0,0,1-7-6.8,7.19,7.19,0,0,1,7.51-7.15A6.81,6.81,0,0,1,607.87,48.08Zm-13-.26c0,4.15,2.61,6.91,6.06,6.91A5.35,5.35,0,0,0,606.43,49c0-4.83-2.7-7.17-6.13-7.17C597.47,41.82,594.9,43.72,594.9,47.82Z"/><path class="cls-1" d="M619.74,51.61c-.15.7-.62,2.38-.77,3.32h-9.25v-.3c1.81-.09,2-.45,2-2.24V44c0-1.65-.15-2-2-2.12v-.3h5.28v.3c-1.94.1-2.13.47-2.13,2.12V52.1c0,2.25.51,2.31,2.68,2.31a4,4,0,0,0,2.79-.76,8.77,8.77,0,0,0,1.1-2Z"/><path class="cls-1" d="M630.92,51.61c-.15.7-.62,2.38-.76,3.32H620.9v-.3c1.81-.09,2-.45,2-2.24V44c0-1.65-.15-2-2-2.12v-.3h5.27v.3c-1.93.1-2.12.47-2.12,2.12V52.1c0,2.25.51,2.31,2.68,2.31a4,4,0,0,0,2.78-.76,8.36,8.36,0,0,0,1.11-2Z"/><path class="cls-1" d="M631.9,54.63c2-.11,2.14-.47,2.14-2.11V44.18c0-1.83-.17-2.19-1.93-2.27v-.3h9.25c0,.74.11,2,.19,3.25l-.36.07c-.45-2.17-.85-2.81-3.42-2.81h-2c-.58,0-.6,0-.6.6v5h2.49c1.68,0,2.08-.21,2.4-1.64h.37v4h-.37c-.34-1.64-.78-1.72-2.4-1.72h-2.49v4.15c0,2,.87,2,2.64,2,1.3,0,2.57,0,3.25-.81a6.52,6.52,0,0,0,1.19-2.11h.37c-.19.79-.6,2.68-.77,3.41h-10Z"/><path class="cls-1" d="M657.5,51.05a33.82,33.82,0,0,1-1.1,3.6,25.93,25.93,0,0,1-4.28.59c-5.57,0-8-3.57-7.93-6.78,0-4.26,3.57-7.17,8.38-7.17a14.81,14.81,0,0,1,4,.6c.17,1.06.27,2.08.4,3.29l-.36.07c-.6-2.47-2-3.43-4.81-3.43-4.21,0-6.1,2.79-6.1,6.11,0,4.12,2.47,6.8,6.23,6.8,3,0,4.17-1.59,5.19-3.78Z"/><path class="cls-1" d="M661.6,54.63c2.13-.11,2.28-.47,2.28-2.09V42.12h-1.32c-2.79,0-3.06.47-3.7,2.7h-.34c.13-1.25.19-2.53.23-3.72h.34a1,1,0,0,0,.47.45,2.16,2.16,0,0,0,.68.06h8.57a1,1,0,0,0,1-.51l.36,0a32.53,32.53,0,0,0,.2,3.62l-.37.08c-.51-2.4-1.31-2.7-3.12-2.7H665V52.54c0,1.62.15,2,2.37,2.09v.3H661.6Z"/><path class="cls-1" d="M671.68,54.63c1.85-.09,2-.45,2-2.13V44c0-1.65-.17-2-2-2.12v-.3h5.15v.3c-1.83.1-2,.47-2,2.12V52.5c0,1.68.19,2,2,2.13v.3h-5.15Z"/><path class="cls-1" d="M693.08,48.08a7.16,7.16,0,0,1-7.43,7.16,6.81,6.81,0,0,1-7-6.8,7.19,7.19,0,0,1,7.51-7.15A6.81,6.81,0,0,1,693.08,48.08Zm-13-.26c0,4.15,2.62,6.91,6.06,6.91,2.88,0,5.47-2,5.47-5.76,0-4.83-2.7-7.17-6.13-7.17C682.68,41.82,680.1,43.72,680.1,47.82Z"/><path class="cls-1" d="M694.71,54.63c1.25-.09,1.85-.51,2-1.11a18.81,18.81,0,0,0,.23-4V45c0-1.89-.1-1.79-.48-2.26a2.59,2.59,0,0,0-1.94-.78v-.3h2.62L707,52.84h.07V46.78c0-4.15,0-4.7-2.51-4.87v-.3h5.27v.3c-1.23.1-1.76.51-2,1.12a16.58,16.58,0,0,0-.21,3.75v8.29h-.23L697.6,43.91h0v5.65a22.93,22.93,0,0,0,.19,3.92c.19.66.83,1,2.26,1.15v.3h-5.3Z"/></g></g></svg>