<svg xmlns="http://www.w3.org/2000/svg" viewBox="0 0 685.27 206.59"><defs><style>.cls-1{fill:#fff;}</style></defs><g id="レイヤー_2" data-name="レイヤー 2"><g id="レイヤー_1-2" data-name="レイヤー 1"><path class="cls-1" d="M76.81.25A41.69,41.69,0,0,1,89.3,2.14a22.45,22.45,0,0,1,9.5,5.38c2.29,2.32,3.44,4.76,3.44,7.3a10.37,10.37,0,0,1-3.34,7.25,22.16,22.16,0,0,1-9.42,5.39,41.38,41.38,0,0,1-12.67,1.93A41.18,41.18,0,0,1,64.2,27.46a22.25,22.25,0,0,1-9.41-5.39,10.35,10.35,0,0,1-3.36-7.25c0-2.54,1.14-5,3.41-7.3a22.23,22.23,0,0,1,9.49-5.38A41.77,41.77,0,0,1,76.81.25ZM71.29,8.4a10.5,10.5,0,0,0-4.44,2.8,5.69,5.69,0,0,0-1.6,3.8,5.68,5.68,0,0,0,1.57,3.76,10.43,10.43,0,0,0,4.42,2.8,17.63,17.63,0,0,0,5.9,1,17.69,17.69,0,0,0,5.91-1,10.33,10.33,0,0,0,4.41-2.8A5.7,5.7,0,0,0,89,15a5.61,5.61,0,0,0-1.61-3.8A10.56,10.56,0,0,0,83,8.4a17.69,17.69,0,0,0-11.67,0Z"/><path class="cls-1" d="M120.72.82,140.24,17.7V.82h10.55V28.75h-15.7L116.24,11.33V28.75H105.53V.82Z"/><path class="cls-1" d="M167.12.82V28.75h-13V.82Z"/><path class="cls-1" d="M170.41.82h44V9.14h-15.6V28.75H185.59V9.14H170.41Z"/><path class="cls-1" d="M247,6.29a7,7,0,0,0-2.48-1.06,31.53,31.53,0,0,0-4.68-.54,22.25,22.25,0,0,0-4.25.51,4.25,4.25,0,0,0-1.89,1A2.1,2.1,0,0,0,233,7.58a2,2,0,0,0,.67,1.35,4.32,4.32,0,0,0,1.86,1,8.56,8.56,0,0,0,2.56.35H242c3.39.1,5.89.22,7.5.34s2.85.25,3.73.37a15.4,15.4,0,0,1,3.44,1.08A11.89,11.89,0,0,1,260,14a7.2,7.2,0,0,1,1.86,2.61,5.23,5.23,0,0,1,.35,3.2A7.91,7.91,0,0,1,260.58,23a13.43,13.43,0,0,1-4.36,3.22,23.74,23.74,0,0,1-5.49,2.15,33.11,33.11,0,0,1-4.77.71q-2.39.18-7.34.18c-3.68-.24-6.45-.5-8.34-.79a29,29,0,0,1-4.87-1.15,15.29,15.29,0,0,1-3.9-2.07,16.43,16.43,0,0,1-2.83-2.52,4.12,4.12,0,0,1-1-2.71H232a3.8,3.8,0,0,0,1,1.72,5.61,5.61,0,0,0,1.78,1.35,6.58,6.58,0,0,0,2.26.59q1.29.13,3.18.18a35,35,0,0,0,3.71-.71,4.27,4.27,0,0,0,1.87-1,1.94,1.94,0,0,0,.67-1.35,1.9,1.9,0,0,0-.68-1.37,4.41,4.41,0,0,0-1.87-1,7.42,7.42,0,0,0-2.49-.32,109.14,109.14,0,0,1-15-1.08A14.23,14.23,0,0,1,220,14.32a5.3,5.3,0,0,1-2.29-4,6.91,6.91,0,0,1,1.23-4,11.31,11.31,0,0,1,4.57-3.41A29.52,29.52,0,0,1,232.1.58,45.9,45.9,0,0,1,240.37,0,75.3,75.3,0,0,1,248,.67a29.74,29.74,0,0,1,7.78,1.7,18.71,18.71,0,0,1,4.44,2.69,7,7,0,0,1,2.48,3.77h-13.5A9.65,9.65,0,0,0,247,6.29Z"/><path class="cls-1" d="M266,.82h12.08v16q0,5,9.2,5,7.5,0,9.33-1.32a4.27,4.27,0,0,0,1.83-3.71V.82h12.09V16.69a10,10,0,0,1-1.42,5.39,10.76,10.76,0,0,1-4.19,3.79,23.21,23.21,0,0,1-6.77,2.2,51.48,51.48,0,0,1-9.21.73,60.86,60.86,0,0,1-9.64-.69A28.14,28.14,0,0,1,272.07,26a11.51,11.51,0,0,1-4.52-3.49,8.18,8.18,0,0,1-1.55-5Z"/><path class="cls-1" d="M352.61.82,337.83,14.73l15.62,14H339.08L326.57,17.81V28.75H313.82V.82h12.75v9.72L339.08.82Z"/><path class="cls-1" d="M371.9.82h16.8L404,28.75H391.88l-2.76-5H371.7l-2.76,5h-12.2Zm2.89,17.36h11.39L380.41,8.06Z"/><path class="cls-1" d="M420.72.82h44V9.14h-15.6V28.75H435.9V9.14H420.72Z"/><path class="cls-1" d="M481.05.82V28.75H468V.82Z"/><path class="cls-1" d="M528.59,29,526.42,25A16.36,16.36,0,0,1,523,26.83a35.49,35.49,0,0,1-4.3,1.39,44.24,44.24,0,0,1-4.64.91,32.18,32.18,0,0,1-4.43.32,60.29,60.29,0,0,1-9.76-.73,31.3,31.3,0,0,1-7.81-2.25,15.4,15.4,0,0,1-5.34-3.79,9.26,9.26,0,0,1-2.28-5.36c0-.17,0-.37,0-.59s0-.43,0-.64a4,4,0,0,1-.05-.6v-.62c0-.24,0-.49,0-.75s0-.52,0-.77v-.74a8.57,8.57,0,0,1,2.05-4.93,15.2,15.2,0,0,1,5.21-3.88,33.07,33.07,0,0,1,8.17-2.56,59.18,59.18,0,0,1,11-.92,61.24,61.24,0,0,1,8.48.55,30.54,30.54,0,0,1,7.05,1.76,16.29,16.29,0,0,1,5.16,3.14,9.4,9.4,0,0,1,2.76,4.69v-.05a.71.71,0,0,1,.09.35c0,.16,0,.31.07.44H519a3,3,0,0,1-.15-.46,1.59,1.59,0,0,0-.13-.35v.07a5.26,5.26,0,0,0-2.77-2.7,12.74,12.74,0,0,0-5.44-1,18.8,18.8,0,0,0-7.62,1.44Q499.57,9.67,499,12a17.27,17.27,0,0,0-.57,2.83c0,.39,0,.9,0,1.51A3.3,3.3,0,0,0,499,18a9.46,9.46,0,0,0,1.38,1.68,10.2,10.2,0,0,0,2.73,1.77,9.12,9.12,0,0,0,3.55,1q1.69.06,3.84.06,7.49.19,9.26-4h-2.89V16.31h18.21c0,.68,0,1.42,0,2.24v2.06c0,.71,0,1.44.08,2.22s0,1.53,0,2.28,0,1.46,0,2.13V29Z"/><path class="cls-1" d="M553.71.82h16.81l15.25,27.93H573.7l-2.76-5H553.52l-2.77,5h-12.2Zm2.9,17.36H568L562.23,8.06Z"/><path class="cls-1" d="M621.9.8q10.58.94,11.19,7.77-.72,6.63-10.25,7.41v.09q11,.33,9.53,10.47a3,3,0,0,0,1.09,2.21h-11.8q-3.55-1.16-3.91-3.33c-.23-1.45-.4-2.87-.5-4.27S616.17,19,614.31,19H601v9.76H589.06V.8ZM601,6.81v6h16.17q3.23,0,3.6-2.85c-.5-2.1-1.74-3.16-3.73-3.16Z"/><path class="cls-1" d="M69.34,42.08,54.55,56,70.17,70H55.8l-12.5-11V70H30.55V42.08H43.3V51.8l12.5-9.72Z"/><path class="cls-1" d="M86.49,42.08V70h-13V42.08Z"/><path class="cls-1" d="M118.06,42.08q17.87.8,18.63,12.75-.15,15.51-24.2,15.18H89.79V42.08Zm-15.57,7.09,0,13.49h10.61q10.69.06,10.75-7.42,0-5.88-11.69-6.07Z"/><path class="cls-1" d="M169.3,47.54a6.9,6.9,0,0,0-2.48-1,31.23,31.23,0,0,0-4.68-.55,22.74,22.74,0,0,0-4.24.52,4.11,4.11,0,0,0-1.89,1,1.7,1.7,0,0,0,0,2.72,4.34,4.34,0,0,0,1.85,1,9,9,0,0,0,2.57.35h3.86q5.08.15,7.5.34c1.61.12,2.85.24,3.73.37A14.83,14.83,0,0,1,179,53.32a12.46,12.46,0,0,1,3.29,1.91,7.3,7.3,0,0,1,1.85,2.61,5.18,5.18,0,0,1,.35,3.21,7.9,7.9,0,0,1-1.59,3.21,13.26,13.26,0,0,1-4.35,3.22,23.27,23.27,0,0,1-5.5,2.14,32.73,32.73,0,0,1-4.77.72c-1.59.12-4,.17-7.34.17q-5.5-.35-8.34-.79a27.34,27.34,0,0,1-4.87-1.15,14.73,14.73,0,0,1-3.89-2.06A15.7,15.7,0,0,1,141,64a4.14,4.14,0,0,1-1-2.71h14.33a3.76,3.76,0,0,0,1,1.72,5.88,5.88,0,0,0,1.77,1.35,6.87,6.87,0,0,0,2.26.59q1.3.14,3.18.18a31.67,31.67,0,0,0,3.71-.72,4.12,4.12,0,0,0,1.88-1,1.94,1.94,0,0,0,.67-1.35,2,2,0,0,0-.68-1.37,4.56,4.56,0,0,0-1.88-1,8,8,0,0,0-2.49-.32,109.28,109.28,0,0,1-15-1.07,14.28,14.28,0,0,1-6.47-2.68,5.3,5.3,0,0,1-2.29-4,6.87,6.87,0,0,1,1.23-4,11.29,11.29,0,0,1,4.58-3.42,29.56,29.56,0,0,1,8.58-2.32,45.09,45.09,0,0,1,8.28-.55,72.28,72.28,0,0,1,7.63.64,29.94,29.94,0,0,1,7.79,1.7,18.62,18.62,0,0,1,4.43,2.68A7,7,0,0,1,185,50.09H171.49A9.92,9.92,0,0,0,169.3,47.54Z"/><path class="cls-1" d="M239.45,41.66q21.65,0,25.21,11.74H251.5q-.62-2.61-4.33-3.67a27.9,27.9,0,0,0-7.72-1.07,17.14,17.14,0,0,0-7.32,1.63q-3.51,1.62-3.86,6.14A6,6,0,0,0,232,62.22,17.33,17.33,0,0,0,239.45,64a22,22,0,0,0,7.72-1.37A7.38,7.38,0,0,0,252,58.16H264.6q-3.25,12.18-25.15,12.18-23.82,0-24.85-13.82Q215.62,41.66,239.45,41.66Z"/><path class="cls-1" d="M293.34,41.51a41.67,41.67,0,0,1,12.48,1.89,22.44,22.44,0,0,1,9.5,5.37c2.3,2.33,3.44,4.76,3.44,7.31a10.38,10.38,0,0,1-3.34,7.25A22.17,22.17,0,0,1,306,68.71a42.39,42.39,0,0,1-25.29,0,22.3,22.3,0,0,1-9.41-5.38A10.37,10.37,0,0,1,268,56.08c0-2.55,1.14-5,3.42-7.31a22.12,22.12,0,0,1,9.48-5.37A41.84,41.84,0,0,1,293.34,41.51Zm-5.53,8.15a10.4,10.4,0,0,0-4.43,2.8,5.62,5.62,0,0,0-1.6,3.79A5.69,5.69,0,0,0,283.34,60a10.32,10.32,0,0,0,4.42,2.79,17.77,17.77,0,0,0,11.81,0A10.22,10.22,0,0,0,304,60a5.69,5.69,0,0,0,1.56-3.77,5.6,5.6,0,0,0-1.62-3.79,10.5,10.5,0,0,0-4.44-2.8,17.52,17.52,0,0,0-11.67,0Z"/><path class="cls-1" d="M322.06,42.08h13.71V61.89h20.62V70H322.06Z"/><path class="cls-1" d="M359.68,42.08h13.71V61.89H394V70H359.68Z"/><path class="cls-1" d="M435.09,42.08v6.58H409.37v4.17h22.84v5.88l-22.84,0V63l25.72,0v7H397.31V42.08Z"/><path class="cls-1" d="M463.23,41.66q21.64,0,25.21,11.74H475.28q-.61-2.61-4.33-3.67a27.9,27.9,0,0,0-7.72-1.07,17.14,17.14,0,0,0-7.32,1.63q-3.51,1.62-3.86,6.14a6,6,0,0,0,3.69,5.79A17.33,17.33,0,0,0,463.23,64,22,22,0,0,0,471,62.58a7.38,7.38,0,0,0,4.79-4.42h12.64q-3.25,12.18-25.15,12.18-23.82,0-24.85-13.82Q439.4,41.66,463.23,41.66Z"/><path class="cls-1" d="M491.73,42.08h44V50.4h-15.6V70H506.91V50.4H491.73Z"/><path class="cls-1" d="M552.07,42.08V70H539V42.08Z"/><path class="cls-1" d="M580.74,41.51a41.63,41.63,0,0,1,12.48,1.89,22.38,22.38,0,0,1,9.5,5.37c2.3,2.33,3.45,4.76,3.45,7.31a10.4,10.4,0,0,1-3.35,7.25,22.17,22.17,0,0,1-9.41,5.38,42.39,42.39,0,0,1-25.29,0,22.3,22.3,0,0,1-9.41-5.38,10.4,10.4,0,0,1-3.35-7.25c0-2.55,1.13-5,3.41-7.31a22.1,22.1,0,0,1,9.49-5.37A41.77,41.77,0,0,1,580.74,41.51Zm-5.53,8.15a10.46,10.46,0,0,0-4.43,2.8,5.3,5.3,0,0,0,0,7.56,10.26,10.26,0,0,0,4.42,2.79,17.74,17.74,0,0,0,11.8,0A10.22,10.22,0,0,0,591.38,60a5.69,5.69,0,0,0,1.56-3.77,5.6,5.6,0,0,0-1.62-3.79,10.5,10.5,0,0,0-4.44-2.8,17.44,17.44,0,0,0-5.81-1A17.64,17.64,0,0,0,575.21,49.66Z"/><path class="cls-1" d="M624.64,42.08,644.17,59V42.08h10.55V70H639L620.16,52.59V70h-10.7V42.08Z"/><path class="cls-1" d="M0,84.94H39.27v6.3H13.19v5.88H35.48V104H13.19v8.84H0Z"/><path class="cls-1" d="M68,84.37a41.67,41.67,0,0,1,12.48,1.89,22.45,22.45,0,0,1,9.5,5.38c2.29,2.32,3.44,4.76,3.44,7.3A10.37,10.37,0,0,1,90,106.19a22.18,22.18,0,0,1-9.41,5.39,42.39,42.39,0,0,1-25.29,0,22.25,22.25,0,0,1-9.41-5.39,10.35,10.35,0,0,1-3.36-7.25c0-2.54,1.14-5,3.41-7.3a22.23,22.23,0,0,1,9.49-5.38A41.79,41.79,0,0,1,68,84.37Zm-5.53,8.15A10.4,10.4,0,0,0,58,95.32a5.29,5.29,0,0,0,0,7.56,10.43,10.43,0,0,0,4.42,2.8,17.77,17.77,0,0,0,11.81,0,10.33,10.33,0,0,0,4.41-2.8,5.7,5.7,0,0,0,1.55-3.76,5.61,5.61,0,0,0-1.61-3.8,10.5,10.5,0,0,0-4.44-2.8,17.69,17.69,0,0,0-11.67,0Z"/><path class="cls-1" d="M129.51,84.92q10.58.94,11.19,7.77-.73,6.63-10.25,7.41v.09q11,.33,9.52,10.47a3,3,0,0,0,1.1,2.21h-11.8c-2.37-.77-3.68-1.88-3.91-3.33s-.4-2.87-.5-4.27-1.09-2.12-2.94-2.16H108.6v9.76H96.66V84.92Zm-20.91,6v6h16.17q3.23,0,3.6-2.85c-.5-2.1-1.74-3.16-3.73-3.16Z"/><path class="cls-1" d="M189.66,84.94h12.09v16q0,5,9.19,5,7.51,0,9.34-1.32a4.27,4.27,0,0,0,1.83-3.71v-16H234.2v15.87a10,10,0,0,1-1.43,5.39,10.69,10.69,0,0,1-4.19,3.79,22.85,22.85,0,0,1-6.76,2.2,51.48,51.48,0,0,1-9.21.73,60.77,60.77,0,0,1-9.64-.69,28,28,0,0,1-7.23-2.08,11.51,11.51,0,0,1-4.52-3.49,8.12,8.12,0,0,1-1.56-5Z"/><path class="cls-1" d="M252.67,84.94l19.53,16.88V84.94h10.55v27.93H267L248.2,95.45v17.42H237.49V84.94Z"/><path class="cls-1" d="M310.9,84.53q21.63,0,25.21,11.73H322.94q-.62-2.61-4.33-3.67a27.87,27.87,0,0,0-7.71-1.06,17.28,17.28,0,0,0-7.33,1.62q-3.51,1.62-3.86,6.14a6,6,0,0,0,3.7,5.79,17.31,17.31,0,0,0,7.49,1.74,22.21,22.21,0,0,0,7.71-1.37A7.38,7.38,0,0,0,323.4,101H336Q332.8,113.2,310.9,113.2q-23.82,0-24.86-13.82Q287.08,84.53,310.9,84.53Z"/><path class="cls-1" d="M364.78,84.37a41.69,41.69,0,0,1,12.49,1.89,22.41,22.41,0,0,1,9.49,5.38c2.3,2.32,3.45,4.76,3.45,7.3a10.38,10.38,0,0,1-3.35,7.25,22.12,22.12,0,0,1-9.41,5.39,42.36,42.36,0,0,1-25.28,0,22.29,22.29,0,0,1-9.42-5.39,10.38,10.38,0,0,1-3.35-7.25c0-2.54,1.14-5,3.41-7.3a22.17,22.17,0,0,1,9.49-5.38A41.77,41.77,0,0,1,364.78,84.37Zm-5.53,8.15a10.53,10.53,0,0,0-4.43,2.8,5.3,5.3,0,0,0,0,7.56,10.37,10.37,0,0,0,4.42,2.8,17.74,17.74,0,0,0,11.8,0,10.33,10.33,0,0,0,4.41-2.8,5.3,5.3,0,0,0-.05-7.56,10.6,10.6,0,0,0-4.45-2.8,17.43,17.43,0,0,0-5.81-1A17.63,17.63,0,0,0,359.25,92.52Z"/><path class="cls-1" d="M393.5,84.94h16.74l10,14.59,10-14.59h16.43v27.93H436.24V95.23l-11.3,17.64h-9.63L404.07,95.23v17.64H393.5Z"/><path class="cls-1" d="M450,84.94h16.74l10,14.59,10-14.59h16.43v27.93H492.71V95.23l-11.3,17.64h-9.63L460.55,95.23v17.64H450Z"/><path class="cls-1" d="M531.83,84.37a41.67,41.67,0,0,1,12.48,1.89,22.45,22.45,0,0,1,9.5,5.38c2.29,2.32,3.44,4.76,3.44,7.3a10.37,10.37,0,0,1-3.34,7.25,22.18,22.18,0,0,1-9.41,5.39,42.39,42.39,0,0,1-25.29,0,22.25,22.25,0,0,1-9.41-5.39,10.35,10.35,0,0,1-3.36-7.25c0-2.54,1.14-5,3.41-7.3a22.23,22.23,0,0,1,9.49-5.38A41.84,41.84,0,0,1,531.83,84.37Zm-5.53,8.15a10.4,10.4,0,0,0-4.43,2.8,5.29,5.29,0,0,0,0,7.56,10.43,10.43,0,0,0,4.42,2.8,17.77,17.77,0,0,0,11.81,0,10.33,10.33,0,0,0,4.41-2.8,5.31,5.31,0,0,0-.06-7.56,10.5,10.5,0,0,0-4.44-2.8,17.69,17.69,0,0,0-11.67,0Z"/><path class="cls-1" d="M575.73,84.94l19.52,16.88V84.94h10.56v27.93H590.1L571.25,95.45v17.42H560.54V84.94Z"/><path class="cls-1" d="M609.1,84.94h13.71v19.82h20.62v8.11H609.1Z"/><path class="cls-1" d="M672.61,103.42v9.45H659.2v-9.45L646.72,84.94h12.64l7.28,11,7-11h11.63Z"/><path class="cls-1" d="M181.7,126.59q21.63,0,25.21,11.73H193.74q-.62-2.61-4.33-3.67a27.87,27.87,0,0,0-7.71-1.06,17.28,17.28,0,0,0-7.33,1.62q-3.51,1.62-3.86,6.14a6,6,0,0,0,3.7,5.79,17.28,17.28,0,0,0,7.49,1.74,22.21,22.21,0,0,0,7.71-1.37,7.38,7.38,0,0,0,4.79-4.42h12.64q-3.26,12.16-25.14,12.17-23.83,0-24.86-13.82Q157.88,126.59,181.7,126.59Z"/><path class="cls-1" d="M235.58,126.43a41.58,41.58,0,0,1,12.48,1.89,22.39,22.39,0,0,1,9.5,5.38c2.3,2.32,3.45,4.76,3.45,7.3a10.38,10.38,0,0,1-3.35,7.25,22.18,22.18,0,0,1-9.41,5.39,42.39,42.39,0,0,1-25.29,0,22.31,22.31,0,0,1-9.41-5.39,9.52,9.52,0,0,1,.06-14.55,22.11,22.11,0,0,1,9.49-5.38A41.77,41.77,0,0,1,235.58,126.43Zm-5.53,8.15a10.46,10.46,0,0,0-4.43,2.8,5.3,5.3,0,0,0,0,7.56,10.37,10.37,0,0,0,4.42,2.8,17.74,17.74,0,0,0,11.8,0,10.33,10.33,0,0,0,4.41-2.8,5.3,5.3,0,0,0-.05-7.56,10.6,10.6,0,0,0-4.45-2.8,17.43,17.43,0,0,0-5.81-1A17.63,17.63,0,0,0,230.05,134.58Z"/><path class="cls-1" d="M289.68,126.43a41.69,41.69,0,0,1,12.49,1.89,22.51,22.51,0,0,1,9.5,5.38c2.29,2.32,3.44,4.76,3.44,7.3a10.38,10.38,0,0,1-3.35,7.25,22.12,22.12,0,0,1-9.41,5.39,42.36,42.36,0,0,1-25.28,0,22.29,22.29,0,0,1-9.42-5.39A10.38,10.38,0,0,1,264.3,141c0-2.54,1.14-5,3.41-7.3a22.17,22.17,0,0,1,9.49-5.38A41.77,41.77,0,0,1,289.68,126.43Zm-5.53,8.15a10.53,10.53,0,0,0-4.43,2.8,5.3,5.3,0,0,0,0,7.56,10.37,10.37,0,0,0,4.42,2.8,17.74,17.74,0,0,0,11.8,0,10.33,10.33,0,0,0,4.41-2.8,5.3,5.3,0,0,0-.05-7.56,10.6,10.6,0,0,0-4.45-2.8,17.43,17.43,0,0,0-5.81-1A17.63,17.63,0,0,0,284.15,134.58Z"/><path class="cls-1" d="M318.4,127h13.71v19.82h20.62v8.11H318.4Z"/><path class="cls-1" d="M412.79,127,398,140.91l15.62,14H399.25L386.74,144v10.94H374V127h12.74v9.72L399.25,127Z"/><path class="cls-1" d="M429.94,127v27.93h-13V127Z"/><path class="cls-1" d="M461.51,127q17.87.8,18.63,12.75-.15,15.51-24.2,15.18H433.23V127Zm-15.57,7.09,0,13.49h10.62q10.68.07,10.75-7.41,0-5.88-11.69-6.08Z"/><path class="cls-1" d="M512.75,132.47a7,7,0,0,0-2.48-1.06,31.53,31.53,0,0,0-4.68-.54,22.25,22.25,0,0,0-4.25.51,4.16,4.16,0,0,0-1.88,1,2.07,2.07,0,0,0-.7,1.37,2,2,0,0,0,.67,1.35,4.32,4.32,0,0,0,1.86,1,8.56,8.56,0,0,0,2.56.35h3.87c3.39.1,5.89.22,7.5.34s2.85.25,3.73.37a15.4,15.4,0,0,1,3.44,1.08,11.89,11.89,0,0,1,3.29,1.91,7.2,7.2,0,0,1,1.86,2.61,5.16,5.16,0,0,1,.35,3.2,7.91,7.91,0,0,1-1.59,3.21,13.43,13.43,0,0,1-4.36,3.22,23.74,23.74,0,0,1-5.49,2.15,33.11,33.11,0,0,1-4.77.71q-2.39.18-7.34.18-5.5-.36-8.34-.79a29,29,0,0,1-4.87-1.15,15.07,15.07,0,0,1-3.89-2.07,15.7,15.7,0,0,1-2.83-2.52,4.05,4.05,0,0,1-1-2.71h14.33a3.68,3.68,0,0,0,1,1.72,5.61,5.61,0,0,0,1.78,1.35,6.58,6.58,0,0,0,2.26.59q1.29.13,3.18.18a35,35,0,0,0,3.71-.71,4.27,4.27,0,0,0,1.87-1,1.94,1.94,0,0,0,.67-1.35,1.9,1.9,0,0,0-.68-1.37,4.41,4.41,0,0,0-1.87-1,7.68,7.68,0,0,0-2.49-.32,109.14,109.14,0,0,1-15-1.08,14.23,14.23,0,0,1-6.46-2.67,5.3,5.3,0,0,1-2.29-4,6.91,6.91,0,0,1,1.23-4,11.31,11.31,0,0,1,4.57-3.41,29.61,29.61,0,0,1,8.59-2.33,45.9,45.9,0,0,1,8.27-.55,75.3,75.3,0,0,1,7.64.64,29.94,29.94,0,0,1,7.79,1.7,18.85,18.85,0,0,1,4.43,2.69,7,7,0,0,1,2.48,3.77h-13.5A9.65,9.65,0,0,0,512.75,132.47Z"/><path class="cls-1" d="M425.62,171.89c-.41-1.38-1-3.26-3.29-3.26a2.42,2.42,0,0,0-2.57,2.67c0,2,1.45,2.78,3,3.57,1.05.52,4,1.55,4,4.53,0,2.47-1.91,4.26-4.91,4.3a9.33,9.33,0,0,1-2.4-.38,3.82,3.82,0,0,1-1-.45,27.26,27.26,0,0,1-.58-3.76h.38c.38,1.28,1.4,4,4.19,4,1.84,0,3-1,3-3.1,0-2.4-1.95-3.21-3.22-3.93-.21-.12-3.72-1.24-3.72-4.14,0-2,1.63-3.84,4.44-3.84a8.18,8.18,0,0,1,2.78.5c.09.81.21,1.7.38,3.31Z"/><path class="cls-1" d="M428.61,183c2.06-.09,2.24-.5,2.24-2.38v-9.47c0-1.91,0-2.26-2.09-2.36v-.36h5.64c1.5,0,5.19.19,5.19,4.15,0,3.47-3.31,4.9-5.54,4.66l-1.91-.52v4c0,1.86.17,2.19,2.59,2.33v.34h-6.12Zm3.53-6.81a4.86,4.86,0,0,0,2,.36,3.51,3.51,0,0,0,3.85-3.85c0-2.6-1.5-3.79-4.43-3.79a6.73,6.73,0,0,0-1.21.05c-.17,0-.24.09-.24.59Z"/><path class="cls-1" d="M441.5,183c2.12-.09,2.31-.5,2.31-2.38v-9.55c0-1.88-.19-2.14-2.2-2.28v-.36h5.62c2.36,0,4.93.72,4.93,3.77,0,2-1.07,3.21-2.9,4a32.77,32.77,0,0,0,2.11,3.26c1.15,1.41,2.82,3.46,4,3.74l-.07.31c-2.17,0-3.31-.12-6.91-6-.59-.86-1.31-.88-3.33-.88v3.95c0,1.88.19,2.29,2.24,2.38v.34H441.5Zm5.05-6.81a4.42,4.42,0,0,0,2.9-.71,3.49,3.49,0,0,0,1.24-2.93c0-2.55-1.64-3.64-4.12-3.64a10.76,10.76,0,0,0-1.27.05c-.11,0-.21.07-.21.52v6.71Z"/><path class="cls-1" d="M456.5,183c2.07-.09,2.26-.5,2.26-2.38v-9.47c0-1.86-.19-2.26-2.26-2.38v-.34h5.76v.34c-2,.12-2.26.52-2.26,2.38v9.47c0,1.88.22,2.29,2.26,2.38v.34H456.5Z"/><path class="cls-1" d="M463.91,183c1.4-.09,2.07-.57,2.26-1.23a21,21,0,0,0,.26-4.43v-5.17c0-2.12-.12-2-.55-2.52s-.9-.74-2.16-.88v-.34h2.92l11,12.57h.07v-6.78c0-4.64,0-5.26-2.8-5.45v-.34h5.9v.34c-1.38.12-2,.57-2.19,1.26a18.54,18.54,0,0,0-.24,4.19v9.28h-.26l-11-12.5h0v6.34a25.21,25.21,0,0,0,.21,4.38c.22.74.93,1.16,2.53,1.28v.34h-5.93Z"/><path class="cls-1" d="M498,177c-1.4.21-1.47.52-1.47,1.57v2.15a6.06,6.06,0,0,0,.21,2,23.65,23.65,0,0,1-5.52,1c-5.2,0-8.86-3.14-8.86-7.66,0-5.22,4.4-8,9.09-8a17.52,17.52,0,0,1,4.65.65c.07.69.19,2.05.4,3.52l-.38.05c-.78-3-2.64-3.64-5.1-3.64-4.57,0-7,2.64-7,7,0,3.34,1.91,7.41,7.17,7.41a10.23,10.23,0,0,0,3.05-.38c.71-.24,1-.57,1-1.62V179c0-1.45-.12-1.86-2.83-2v-.33H498Z"/><path class="cls-1" d="M514.91,173.63h5.48V174a3,3,0,0,0-2.77,1.93c-.64.93-1.21,1.93-2,2.91a35,35,0,0,1,3.6,4.86l-.19.19a9,9,0,0,1-2.08-1,23.91,23.91,0,0,0-2.19-2.83c-2.07,2.67-3.52,3.67-5.35,3.67a4.24,4.24,0,0,1-4.5-4c0-2.42,2.05-3.54,3.9-4.78-1.26-1-2-1.83-2-3a3.68,3.68,0,0,1,3.57-3.57,3.16,3.16,0,0,1,3.31,3,2.63,2.63,0,0,1-1.07,2.08l-1.92,1.23a30.33,30.33,0,0,1,4.54,3.84,8.17,8.17,0,0,0,1.57-3.5c0-.62-.52-.79-1.93-1Zm-.43,5.93a23.3,23.3,0,0,0-5.21-4.31c-2.22,1.31-2.86,2.38-2.86,3.93a3.41,3.41,0,0,0,3.52,3.33C511.86,182.51,513.38,181.16,514.48,179.56Zm-6.38-8.31a3.68,3.68,0,0,0,2.19,3.12,3.32,3.32,0,0,0,2.07-3.09,2.24,2.24,0,0,0-2.19-2.38A2.12,2.12,0,0,0,508.1,171.25Z"/><path class="cls-1" d="M534.34,171.89c-.4-1.38-1-3.26-3.28-3.26a2.42,2.42,0,0,0-2.58,2.67c0,2,1.46,2.78,3,3.57,1,.52,4,1.55,4,4.53,0,2.47-1.9,4.26-4.9,4.3a9.5,9.5,0,0,1-2.41-.38,4.18,4.18,0,0,1-1-.45,26.06,26.06,0,0,1-.57-3.76h.37c.39,1.28,1.41,4,4.2,4,1.83,0,3-1,3-3.1,0-2.4-2-3.21-3.22-3.93-.21-.12-3.71-1.24-3.71-4.14,0-2,1.62-3.84,4.43-3.84a8.14,8.14,0,0,1,2.78.5c.1.81.22,1.7.39,3.31Z"/><path class="cls-1" d="M551.38,175.54c0,3-.4,4.9-1.87,6.42a6.28,6.28,0,0,1-4.36,1.67,6.06,6.06,0,0,1-3.88-1.19c-1.24-1-1.88-2.47-1.88-5.16v-6c0-2.05-.2-2.28-2.31-2.47v-.34h5.73v.34c-2,0-2.19.57-2.19,2.47v5.29c0,4.21,1.94,6.07,5.15,6.07,3.66,0,5-2.81,5-7V174.4a21.69,21.69,0,0,0-.19-4.29c-.16-.76-.9-1.17-2.57-1.33v-.34h5.86v.34c-1.31.14-2.1.57-2.22,1.31a24.72,24.72,0,0,0-.24,4.31Z"/><path class="cls-1" d="M555.67,168.44h3L565,181.06l6.31-12.62h3.43v.34c-2.22.21-2.43.45-2.34,2.83l.17,8.45c.07,2.45.17,2.76,2.41,2.95v.34h-5.84V183c2.1-.16,2.17-.47,2.14-2.95l-.09-10h-.1l-6.45,13h-.21l-5.86-12.22h0l-.31,6.43c-.08,1.12-.1,1.93-.1,2.57,0,2.29.24,2.93,2.45,3.14v.34h-5.73V183c1.47-.12,2-.52,2.16-1.47a33.12,33.12,0,0,0,.53-4.6l.33-4.35c0-.65,0-1.17,0-1.6,0-1.69-.4-2-2.21-2.21Z"/><path class="cls-1" d="M577,168.44h3l6.28,12.62,6.31-12.62h3.43v.34c-2.21.21-2.43.45-2.33,2.83l.17,8.45c.07,2.45.16,2.76,2.4,2.95v.34h-5.83V183c2.09-.16,2.16-.47,2.14-2.95l-.1-10h-.09l-6.46,13h-.21l-5.86-12.22h0l-.31,6.43c-.07,1.12-.1,1.93-.1,2.57,0,2.29.24,2.93,2.46,3.14v.34h-5.74V183c1.47-.12,2-.52,2.17-1.47a35.52,35.52,0,0,0,.52-4.6l.33-4.35c0-.65.05-1.17.05-1.6,0-1.69-.41-2-2.21-2.21Z"/><path class="cls-1" d="M597.77,183c2.23-.12,2.4-.52,2.4-2.35v-9.34c0-2-.19-2.45-2.16-2.54v-.34h10.35c0,.84.12,2.24.22,3.65l-.41.07c-.5-2.43-.95-3.15-3.83-3.15H602.1c-.64,0-.67.05-.67.67v5.57h2.79c1.88,0,2.33-.24,2.69-1.83h.4v4.43h-.4c-.38-1.84-.88-1.93-2.69-1.93h-2.79v4.64c0,2.24,1,2.24,3,2.24,1.46,0,2.89,0,3.65-.9a7.42,7.42,0,0,0,1.33-2.36h.41c-.22.88-.67,3-.86,3.81H597.77Z"/><path class="cls-1" d="M611.27,183c2.12-.09,2.31-.5,2.31-2.38v-9.55c0-1.88-.19-2.14-2.19-2.28v-.36H617c2.36,0,4.93.72,4.93,3.77,0,2-1.07,3.21-2.9,4a31.32,31.32,0,0,0,2.12,3.26c1.14,1.41,2.81,3.46,4,3.74l-.07.31c-2.17,0-3.31-.12-6.91-6-.59-.86-1.31-.88-3.33-.88v3.95c0,1.88.19,2.29,2.24,2.38v.34h-5.83Zm5.05-6.81a4.42,4.42,0,0,0,2.9-.71,3.49,3.49,0,0,0,1.24-2.93c0-2.55-1.64-3.64-4.12-3.64a10.43,10.43,0,0,0-1.26.05c-.12,0-.22.07-.22.52v6.71Z"/><path class="cls-1" d="M432.64,201.9a36.4,36.4,0,0,1-1.24,4,29.16,29.16,0,0,1-4.78.67c-6.24,0-8.91-4-8.88-7.6,0-4.76,4-8,9.38-8a16.4,16.4,0,0,1,4.5.67c.18,1.19.3,2.33.45,3.69l-.4.07c-.67-2.76-2.29-3.83-5.39-3.83-4.71,0-6.83,3.11-6.83,6.83,0,4.62,2.76,7.62,7,7.62,3.3,0,4.66-1.79,5.81-4.24Z"/><path class="cls-1" d="M450.45,198.57a8,8,0,0,1-8.31,8,7.63,7.63,0,0,1-7.88-7.62,8,8,0,0,1,8.41-8A7.62,7.62,0,0,1,450.45,198.57Zm-14.52-.29c0,4.64,2.93,7.74,6.78,7.74,3.22,0,6.12-2.22,6.12-6.46,0-5.4-3-8-6.86-8C438.81,191.57,435.93,193.69,435.93,198.28Z"/><path class="cls-1" d="M463.74,202.52c-.17.78-.7,2.66-.86,3.71H452.52v-.33c2-.1,2.19-.5,2.19-2.5V194c0-1.86-.17-2.26-2.28-2.38v-.33h5.9v.33c-2.16.12-2.38.52-2.38,2.38v9c0,2.53.57,2.6,3,2.6a4.45,4.45,0,0,0,3.12-.86,9.7,9.7,0,0,0,1.24-2.28Z"/><path class="cls-1" d="M476.26,202.52c-.16.78-.69,2.66-.86,3.71H465v-.33c2-.1,2.2-.5,2.2-2.5V194c0-1.86-.17-2.26-2.29-2.38v-.33h5.91v.33c-2.17.12-2.38.52-2.38,2.38v9c0,2.53.56,2.6,3,2.6a4.45,4.45,0,0,0,3.12-.86,9.35,9.35,0,0,0,1.24-2.28Z"/><path class="cls-1" d="M477.35,205.9c2.24-.12,2.41-.52,2.41-2.36v-9.33c0-2.05-.19-2.45-2.17-2.55v-.33H488c0,.83.12,2.24.22,3.64l-.41.07c-.5-2.43-.95-3.14-3.83-3.14h-2.24c-.65,0-.67,0-.67.67v5.57h2.79c1.88,0,2.33-.24,2.69-1.84h.4v4.43h-.4c-.39-1.83-.88-1.93-2.69-1.93H481v4.65c0,2.23,1,2.23,3,2.23,1.46,0,2.89,0,3.65-.9a7.5,7.5,0,0,0,1.33-2.36h.41c-.22.88-.67,3-.86,3.81H477.35Z"/><path class="cls-1" d="M506,201.9a36.4,36.4,0,0,1-1.24,4,29,29,0,0,1-4.78.67c-6.24,0-8.91-4-8.88-7.6,0-4.76,4-8,9.38-8a16.4,16.4,0,0,1,4.5.67c.19,1.19.31,2.33.45,3.69l-.4.07c-.67-2.76-2.29-3.83-5.39-3.83-4.71,0-6.83,3.11-6.83,6.83,0,4.62,2.77,7.62,7,7.62,3.3,0,4.66-1.79,5.81-4.24Z"/><path class="cls-1" d="M510.62,205.9c2.38-.12,2.54-.52,2.54-2.33V191.9h-1.47c-3.12,0-3.43.52-4.14,3h-.39c.15-1.4.22-2.83.27-4.16h.38a1.11,1.11,0,0,0,.52.5,2.36,2.36,0,0,0,.77.07h9.59a1.1,1.1,0,0,0,1.12-.57l.4,0c0,1.12.1,2.62.21,4.05l-.4.09c-.57-2.69-1.47-3-3.5-3H514.4v11.67c0,1.81.17,2.21,2.65,2.33v.33h-6.43Z"/><path class="cls-1" d="M521.9,205.9c2.08-.1,2.26-.5,2.26-2.38V194c0-1.86-.18-2.26-2.26-2.38v-.33h5.77v.33c-2,.12-2.27.52-2.27,2.38v9.48c0,1.88.22,2.28,2.27,2.38v.33H521.9Z"/><path class="cls-1" d="M545.86,198.57a8,8,0,0,1-8.31,8,7.63,7.63,0,0,1-7.88-7.62,8,8,0,0,1,8.4-8A7.63,7.63,0,0,1,545.86,198.57Zm-14.52-.29c0,4.64,2.92,7.74,6.78,7.74,3.22,0,6.12-2.22,6.12-6.46,0-5.4-3-8-6.86-8C534.21,191.57,531.34,193.69,531.34,198.28Z"/><path class="cls-1" d="M547.69,205.9c1.4-.1,2.07-.57,2.26-1.24a20.91,20.91,0,0,0,.26-4.43v-5.16c0-2.12-.12-2-.54-2.53a2.88,2.88,0,0,0-2.17-.88v-.33h2.93l11,12.57h.07v-6.79c0-4.64,0-5.26-2.81-5.45v-.33h5.91v.33c-1.38.12-2,.57-2.2,1.26a18.59,18.59,0,0,0-.24,4.19v9.29h-.25l-11-12.5h0v6.33a25.72,25.72,0,0,0,.22,4.38c.21.74.92,1.17,2.52,1.29v.33h-5.93Z"/></g></g></svg>