<?xml version="1.0" standalone="no"?>
<!DOCTYPE svg PUBLIC "-//W3C//DTD SVG 20010904//EN"
 "http://www.w3.org/TR/2001/REC-SVG-20010904/DTD/svg10.dtd">
<svg version="1.0" xmlns="http://www.w3.org/2000/svg"
 width="102.000000pt" height="93.000000pt" viewBox="0 0 102.000000 93.000000"
 preserveAspectRatio="xMidYMid meet">

<g transform="translate(0.000000,93.000000) scale(0.100000,-0.100000)"
fill="#000000" stroke="none">
<path d="M53 879 c-7 -7 -9 -20 -4 -33 4 -11 6 -172 5 -356 -1 -184 1 -349 3
-367 4 -23 12 -33 32 -39 14 -4 179 -9 366 -11 187 -3 360 -5 385 -5 25 -1 62
5 83 13 l37 14 0 381 c0 330 2 383 15 388 55 21 -18 25 -448 26 -337 0 -466
-3 -474 -11z m641 -275 c10 -4 16 -19 17 -38 1 -17 3 -23 6 -13 2 9 13 17 24
17 20 0 26 -15 9 -25 -7 -4 -7 -12 0 -25 5 -10 10 -21 10 -24 0 -11 -19 -6
-33 9 -13 13 -16 13 -21 0 -3 -8 -11 -15 -18 -15 -9 0 -13 18 -13 60 -1 33 0
60 1 60 1 0 9 -3 18 -6z m-426 -16 c20 -20 14 -65 -10 -82 -29 -20 -47 -20
-70 1 -20 18 -24 63 -6 81 7 7 26 12 43 12 17 0 36 -5 43 -12z m162 2 c0 -5
-7 -10 -15 -10 -8 0 -15 5 -15 10 0 6 7 10 15 10 8 0 15 -4 15 -10z m51 -7 c4
-33 4 -93 0 -93 -24 1 -45 57 -34 87 5 14 32 18 34 6z m-103 -55 c2 -29 0 -38
-12 -38 -10 0 -16 9 -16 24 0 14 -4 28 -10 31 -6 4 -10 -5 -10 -19 0 -18 -5
-26 -17 -26 -14 0 -18 9 -19 35 0 34 0 35 40 32 40 -2 41 -3 44 -39z m52 12
c0 -16 1 -33 3 -37 1 -5 -7 -9 -18 -11 -18 -2 -20 3 -20 38 0 32 3 40 17 40
13 0 18 -8 18 -30z m130 20 c0 -5 -5 -10 -12 -10 -6 0 -3 -6 8 -14 16 -12 17
-17 6 -28 -17 -17 -62 -18 -62 -1 0 7 7 10 18 7 15 -5 15 -4 -2 10 -10 8 -16
22 -13 31 7 16 57 21 57 5z m50 -15 c0 -14 5 -25 10 -25 6 0 10 11 10 25 0 16
6 25 15 25 11 0 15 -11 15 -39 0 -39 -1 -40 -34 -38 -41 3 -41 3 -49 45 -6 27
-4 32 13 32 15 0 20 -7 20 -25z m223 18 c3 -5 8 -22 11 -39 7 -29 5 -31 -26
-31 -18 0 -38 4 -45 9 -17 14 -4 38 21 39 21 0 21 0 -1 9 -13 5 -23 12 -23 15
0 8 58 6 63 -2z m17 -207 c0 -159 3 -156 -163 -156 -94 0 -125 -4 -148 -17
-27 -16 -31 -16 -58 0 -23 13 -54 17 -148 17 -166 0 -163 -3 -163 156 l0 124
340 0 340 0 0 -124z"/>
<path d="M210 551 c0 -21 5 -31 16 -31 11 0 14 8 12 27 -4 39 -28 42 -28 4z"/>
<path d="M355 430 c-60 -8 -85 -18 -85 -34 0 -7 17 -10 50 -8 43 3 50 1 49
-15 0 -10 -3 -13 -6 -5 -2 6 -20 12 -38 12 -77 0 -99 -94 -28 -121 35 -13 77
8 78 41 3 67 7 81 30 106 36 39 40 37 -50 24z m-42 -90 c-8 -31 -23 -34 -23
-6 0 16 6 26 14 26 9 0 12 -7 9 -20z m42 -29 c-7 -34 -7 -34 -30 -25 -14 6
-13 8 5 21 11 8 20 21 20 30 0 9 3 14 6 10 3 -3 3 -19 -1 -36z"/>
<path d="M670 406 c-14 -14 -12 -63 1 -72 6 -3 21 4 33 16 11 13 15 20 9 16
-9 -5 -13 0 -13 13 0 17 6 21 29 21 17 0 33 5 36 10 8 14 -82 9 -95 -4z"/>
<path d="M425 390 c-8 -13 9 -20 24 -11 10 6 9 10 -3 14 -8 3 -18 2 -21 -3z"/>
<path d="M582 388 c-7 -7 -12 -25 -12 -40 0 -23 4 -28 24 -28 32 0 45 20 14
21 -20 1 -19 2 9 15 22 9 31 19 27 29 -7 18 -45 20 -62 3z"/>
<path d="M491 364 c-18 -13 -22 -23 -17 -45 3 -16 1 -31 -6 -35 -19 -12 20
-26 41 -14 20 10 24 20 36 78 6 27 4 32 -12 32 -10 0 -29 -7 -42 -16z m23 -29
c-4 -8 -8 -15 -10 -15 -2 0 -4 7 -4 15 0 8 4 15 10 15 5 0 7 -7 4 -15z"/>
<path d="M417 354 c-4 -4 -7 -23 -7 -41 0 -27 4 -34 17 -31 12 2 17 13 17 37
0 33 -13 49 -27 35z"/>
</g>
</svg>
