<?xml version="1.0" encoding="utf-8"?>
<!-- Generator: Adobe Illustrator 24.1.3, SVG Export Plug-In . SVG Version: 6.00 Build 0)  -->
<svg version="1.1" id="レイヤー_1" xmlns="http://www.w3.org/2000/svg" xmlns:xlink="http://www.w3.org/1999/xlink" x="0px"
	 y="0px" viewBox="0 0 30 30" style="enable-background:new 0 0 30 30;" xml:space="preserve">
<style type="text/css">
	.st0{fill:#000;}
</style>
<path class="st0" d="M29.3,5.8c-1.1,0.5-2.2,0.8-3.4,1c1.2-0.8,2.1-2,2.6-3.4c-1.2,0.7-2.4,1.2-3.8,1.5C23.6,3.7,22.1,3,20.5,3
	c-3.3,0-6,2.7-6,6v0.1c0,0.5,0.1,0.9,0.1,1.4C9.9,10.2,5.5,7.9,2.5,4.1C2,5,1.7,6.1,1.7,7.2c0,2,1,3.9,2.6,5c-0.9,0-1.9-0.3-2.7-0.8
	v0.1c-0.1,2.9,1.9,5.4,4.8,6c-0.9,0.2-1.8,0.3-2.7,0.1c0.7,2.4,3,4.1,5.5,4.2c-2.1,1.7-4.7,2.6-7.3,2.6c-0.5,0-0.9,0-1.4-0.1
	C3.2,26.1,6.3,27,9.6,27c10.9,0,16.8-9.2,16.8-17.2c0-0.3,0-0.5,0-0.8C27.6,8.1,28.5,7,29.3,5.8z"/>
</svg>
