<svg xmlns="http://www.w3.org/2000/svg" viewBox="0 0 13.56 143.23"><defs><style>.cls-1{fill:#fff;}.cls-2{fill:none;stroke:#fff;stroke-miterlimit:10;}</style></defs><g id="レイヤー_2" data-name="レイヤー 2"><g id="レイヤー_1-2" data-name="レイヤー 1"><path class="cls-1" d="M2.82.86A4.67,4.67,0,0,0,1.44,4.09c0,1.36.56,2.08,1.38,2.08s1.27-1.1,1.55-2.34C4.75,2.2,5.19.28,7.27.28,8.81.28,10.13,1.6,10.13,4A5.16,5.16,0,0,1,8.75,7.63l-1.26-.8A3.76,3.76,0,0,0,8.67,4c0-1.22-.48-2-1.26-2S6.29,3,6,4.23c-.38,1.68-.84,3.68-3,3.68C1.3,7.91,0,6.55,0,4A5.49,5.49,0,0,1,1.5,0Z"/><path class="cls-1" d="M10.13,15.7a4.21,4.21,0,0,1-1.7,3.61l-1.1-1.2a2.68,2.68,0,0,0,1.2-2.33,3.14,3.14,0,0,0-3.46-3.12A3.16,3.16,0,0,0,1.6,15.78a2.73,2.73,0,0,0,1.2,2.33l-1.1,1.2A4.21,4.21,0,0,1,0,15.7a4.82,4.82,0,0,1,5.07-4.92A4.81,4.81,0,0,1,10.13,15.7Z"/><path class="cls-1" d="M9.89,22.49v1.79H8.41a4.1,4.1,0,0,1,1.7,3.16H8.29a2.83,2.83,0,0,0,.06-.62A3.41,3.41,0,0,0,7,24.28H.24V22.49Z"/><path class="cls-1" d="M5.07,29.83a4.88,4.88,0,1,1,0,9.75,4.88,4.88,0,1,1,0-9.75Zm0,7.87c1.82,0,3.46-1.05,3.46-3s-1.64-3-3.46-3-3.47,1.08-3.47,3S3.24,37.7,5.07,37.7Z"/><path class="cls-1" d="M13.56,43.06v1.79H.24V43.06Z"/><path class="cls-1" d="M13.56,48.91V50.7H.24V48.91Z"/><polyline class="cls-2" points="1.81 65.75 1.81 142.13 10.79 134.26"/></g></g></svg>