<svg id="sp_btn_collection" xmlns="http://www.w3.org/2000/svg" width="285.031" height="56" viewBox="0 0 285.031 56">
  <defs>
    <style>
      .cls-1 {
        fill: #fff;
      }

      .cls-1, .cls-2 {
        fill-rule: evenodd;
      }
    </style>
  </defs>
  <path id="base" class="cls-1" d="M275.754,1107.37H560.786v56H275.754v-56Z" transform="translate(-275.75 -1107.38)"/>
  <path id="WATCH_THE_COLLECTION" data-name="WATCH THE COLLECTION" class="cls-2" d="M535.1,1126.06h0.05a9.318,9.318,0,0,1,9.319,9.32v0.02a9.318,9.318,0,0,1-9.319,9.32H535.1a9.317,9.317,0,0,1-9.318-9.32v-0.02A9.317,9.317,0,0,1,535.1,1126.06Zm4.173,9.55-6.3,3.64v-7.27Zm-169.268,7.21a5.375,5.375,0,0,0,5.469-4.24l-1.687-.37a3.643,3.643,0,0,1-3.8,3c-2.632,0-4.541-1.9-4.541-5.41s1.909-5.43,4.541-5.43a3.661,3.661,0,0,1,3.819,3.13l1.669-.39a5.285,5.285,0,0,0-5.469-4.33c-3.244,0-6.3,2.29-6.3,7.02S366.746,1142.82,370.009,1142.82Zm13.191,0c3.689,0,6.377-2.94,6.377-7.02s-2.688-7.02-6.377-7.02c-3.708,0-6.4,2.94-6.4,7.02S379.492,1142.82,383.2,1142.82Zm-0.019-1.61c-2.688,0-4.653-2.28-4.653-5.41s1.965-5.43,4.653-5.43c2.725,0,4.672,2.29,4.672,5.43S385.906,1141.21,383.181,1141.21Zm8.575,1.45h8.12v-1.61h-6.433v-12.12h-1.687v13.73Zm9.677,0h8.12v-1.61H403.12v-12.12h-1.687v13.73Zm9.678,0h8.379v-1.61H412.8v-4.88h5.264v-1.61H412.8v-4.04h6.488v-1.59h-8.175v13.73Zm15.52,0.16a5.375,5.375,0,0,0,5.469-4.24l-1.687-.37a3.643,3.643,0,0,1-3.8,3c-2.632,0-4.541-1.9-4.541-5.41s1.909-5.43,4.541-5.43a3.661,3.661,0,0,1,3.819,3.13l1.669-.39a5.285,5.285,0,0,0-5.469-4.33c-3.244,0-6.3,2.29-6.3,7.02S423.368,1142.82,426.631,1142.82Zm10.353-.16h1.687v-12.14h4.115v-1.59H432.85v1.59h4.134v12.14Zm7.406,0h1.687v-13.73H444.39v13.73Zm10.246,0.16c3.689,0,6.377-2.94,6.377-7.02s-2.688-7.02-6.377-7.02c-3.707,0-6.4,2.94-6.4,7.02S450.929,1142.82,454.636,1142.82Zm-0.018-1.61c-2.688,0-4.653-2.28-4.653-5.41s1.965-5.43,4.653-5.43c2.725,0,4.671,2.29,4.671,5.43S457.343,1141.21,454.618,1141.21Zm8.574,1.45h1.65v-10.88l6.544,10.88h1.873v-13.73h-1.65v10.93l-6.544-10.93h-1.873v13.73Z" transform="translate(-275.75 -1107.38)"/>
</svg>
