<svg id="sp_btn_runway" xmlns="http://www.w3.org/2000/svg" width="285.031" height="56" viewBox="0 0 285.031 56">
  <defs>
    <style>
      .cls-1 {
        fill: #fff;
      }

      .cls-1, .cls-2 {
        fill-rule: evenodd;
      }
    </style>
  </defs>
  <path id="base" class="cls-1" d="M275.754,1187.37H560.786v56H275.754v-56Z" transform="translate(-275.75 -1187.38)"/>
  <path id="WATCH_THE_RUNWAY" data-name="WATCH THE RUNWAY" class="cls-2" d="M536.1,1206.06h0.05a9.318,9.318,0,0,1,9.319,9.32v0.02a9.318,9.318,0,0,1-9.319,9.32H536.1a9.318,9.318,0,0,1-9.319-9.32v-0.02A9.318,9.318,0,0,1,536.1,1206.06Zm4.177,9.55-6.3,3.64v-7.27Zm-148.959,7.05-3.745-6.39a3.6,3.6,0,0,0,2.41-3.53c0-2.3-1.613-3.81-4.078-3.81h-4.672v13.73h1.687v-6.12h2.874l3.6,6.12h1.928Zm-8.4-12.14h2.8c1.6,0,2.54.83,2.54,2.22s-0.945,2.19-2.54,2.19h-2.8v-4.41Zm14.593,12.3a4.587,4.587,0,0,0,4.931-4.91v-8.98h-1.631v9.08a3.282,3.282,0,0,1-6.562,0v-9.08H392.6v8.98A4.582,4.582,0,0,0,397.513,1222.82Zm7.728-.16h1.65v-10.88l6.544,10.88h1.873v-13.73h-1.65v10.93l-6.544-10.93h-1.873v13.73Zm15.618,0h1.761l3.152-11.06,3.114,11.06h1.78l3.93-13.73h-1.743l-3.1,11.67-3.115-11.67h-1.761l-3.133,11.67-3.1-11.67h-1.742Zm23.332,0h1.761l-5.153-13.73H439.26l-5.135,13.73h1.742l1.279-3.49h5.766Zm-6.47-5.08,2.317-6.29,2.3,6.29h-4.616Zm11.6,5.08h1.7v-5.75l4.579-7.98h-1.909l-3.523,6.28-3.5-6.28h-1.91l4.561,7.98v5.75Z" transform="translate(-275.75 -1187.38)"/>
</svg>
