<?xml version="1.0" encoding="utf-8"?>
<!-- Generator: Adobe Illustrator 25.0.1, SVG Export Plug-In . SVG Version: 6.00 Build 0)  -->
<svg version="1.1" id="img_logo_main_white" xmlns="http://www.w3.org/2000/svg" xmlns:xlink="http://www.w3.org/1999/xlink"
	 x="0px" y="0px" viewBox="0 0 817.6 165.6" style="enable-background:new 0 0 817.6 165.6;" xml:space="preserve">
<style type="text/css">
	.st0{fill-rule:evenodd;clip-rule:evenodd;fill:#FFFFFF;}
</style>
<path id="SPRING_SUMMER_2021" class="st0" d="M772,82.5h37.7V70.7h-4.2c-3.4,0-5-1.7-5-5v-9.2c0-6.7,4.5-10.6,11.9-10.6
	c1.7,0,3.5,0.2,5.2,0.5V25.7c-10.4,0-16.4,5.7-18.9,17.9V26.8H772v11.7c3.3,0,5,1.7,5,5v22.1c0,3.4-1.7,5-5,5V82.5L772,82.5z
	 M735.1,50.8v-6.9c0-3.2,2.6-5.9,5.9-5.9c3.2,0,5.9,2.6,5.9,5.9v6.9H735.1z M743.7,83.7c6.5,0,14.8-2.3,22-6.7l-4.9-10.7
	c-4.7,2.1-9.8,3.2-14.9,3.2c-8.1,0-10.2-3.2-10.7-9.6h33.7v-4.4c0-17.1-12.6-29.8-28.8-29.8c-17.1,0-29.2,11.9-29.2,29
	S724.5,83.6,743.7,83.7L743.7,83.7z M676.6,66.9c-3.3,0.2-6.2-2.4-6.4-5.7c0-0.2,0-0.4,0-0.6V48.1c0-3.5,2.9-6.4,6.4-6.4
	c3.5,0,6.4,2.9,6.4,6.4v12.4c0.2,3.3-2.4,6.2-5.7,6.4C677,66.9,676.8,66.9,676.6,66.9L676.6,66.9z M615.6,20.8H639V2.4h-23.5V20.8
	L615.6,20.8z M672.7,106.6c19.9,0,32.4-10.4,32.4-27.2V43.6c0-3.3,1.7-5,5-5c0-3.7,0-11.7,0-11.7h-26.5v11.7
	c-2.3-8.5-8.2-12.9-16.9-12.9c-13.4,0-20.8,10.2-20.8,28.2c0,17.8,7.2,27.8,20.4,27.8c7.4,0,13.1-3.2,15.3-8.9v6.7
	c0,7.9-4.5,12.1-13.4,12.1c-4.4,0-8.2-1-14.9-4.2l-5,12.7C658.6,104.9,664.7,106.6,672.7,106.6L672.7,106.6z M610.5,82.5h33.5V70.7
	c-3.3,0-5-1.7-5-5V26.8h-28.5v11.7c3.3,0,5,1.7,5,5v22.1c0,3.4-1.7,5-5,5V82.5L610.5,82.5z M539.8,82.5h52V69.7h-6
	c-3.7,0-5.7-2-5.7-5.7V17.1h3.7c5,0,8.1,3,8.1,8v6.7H605V2.4h-78.6v29.5h13.4v-6.7c0-5,3-8,8.1-8h3.7V64c0,3.7-2,5.7-5.7,5.7h-6
	L539.8,82.5L539.8,82.5z M459.4,83.7c11.4,0,17.4-3.7,20.1-11.2v10.1h23.3V70.7c-3.4,0-5-1.7-5-5V50c0-15.1-12.1-24.3-31-24.3
	c-8.5,0-16.9,1.7-24.8,4.9l3.2,12.9c5.7-2.2,10.7-3.4,15.3-3.4c7.9,0,13.9,3,13.9,9.2v2.5c-4.5-2.8-9.7-4.2-14.9-4
	c-13.1,0-22.8,7.4-22.8,17.9C436.6,76.6,445.9,83.6,459.4,83.7L459.4,83.7z M466.3,70.2c-3,0-5.4-2.4-5.4-5.4c0-3,2.4-5.4,5.4-5.4
	l0,0h3.2c3,0,5.4,2.4,5.4,5.4c0,3-2.4,5.4-5.4,5.4H466.3z M367.6,82.5h31.9V70.7c-2.2,0.1-4.1-1.5-4.2-3.7c0-0.2,0-0.3,0-0.5v-8.7
	l17.4,24.6H434V70.7c-1.7,0-3.5-1.5-5-3.5L417,51.3l7.4-7c3.5-3.4,6.9-5.7,8.7-5.7V26.8h-31.4v11.7h9.4l-15.9,14.6V0.3h-27.7v11.7
	c2.2-0.1,4.1,1.5,4.2,3.7c0,0.2,0,0.3,0,0.5v50.3c0.1,2.2-1.5,4.1-3.7,4.2c-0.2,0-0.3,0-0.5,0L367.6,82.5L367.6,82.5z M316.2,83.6
	c8.4,0,14.4-4,19.1-12.9v11.7h26.5V70.7c-2.2,0.1-4.1-1.5-4.2-3.7c0-0.2,0-0.3,0-0.5V26.8h-28.5v11.7c3.4,0,5,1.7,5,5v16.6
	c0,3.2-2.7,5.8-5.9,5.8c-3.2,0-5.8-2.6-5.8-5.8V26.8H294v11.7c3.4,0,5,1.7,5,5v23.8C299,77.3,305.7,83.6,316.2,83.6z M271.8,83.6
	c12.6,0,21.5-7.4,21.5-17.9c0-8.2-5-13.9-13.6-16.9l-13.1-4.7c-1.7-0.7-2.5-1.8-2.5-3c0-2,2.2-3,5.2-3c3.7,0,6.5,1.8,8.2,5.5h12.4
	V26.8h-11.7v5.9c-3.7-4.4-10.1-7-16.8-7c-11.4,0-20,7.9-20,18.3c0,7.5,4.9,14.2,12.9,16.8l7.5,2.3c6.5,2,8,3,8,5.5
	c0,2-1.8,2.9-4.5,2.9c-3.9,0-6.9-1.7-11.7-5.7H242v16.8h12.4v-5.9C259,81.2,265.3,83.7,271.8,83.6L271.8,83.6z M204.4,82.5h33.2
	V70.7h-1.3c-5.9,0-8.4-2.5-8.4-8.4V39.2h9.9V26.8h-9.9V8.2h-22.8v11.2c0,5-2.3,7.4-7.4,7.4v11.7h6.7L204.4,82.5L204.4,82.5z
	 M168.9,20.8h23.5V2.4h-23.5L168.9,20.8L168.9,20.8z M163.8,82.5h33.5V70.7c-3.4,0-5-1.7-5-5V26.8h-28.5v11.7c3.4,0,5,1.7,5,5v22.1
	c0,3.4-1.7,5-5,5L163.8,82.5L163.8,82.5z M90.1,82.5h33.5V70.7c-3.4,0-5-1.7-5-5V49.1c0-3.2,2.7-5.8,5.9-5.8c3.2,0,5.8,2.6,5.8,5.8
	v33.4h28.5V70.7c-3.4,0-5-1.7-5-5V41.9c0-9.9-6.7-16.3-17.3-16.3c-8.4,0-14.4,4-19.1,12.9V26.8H90v11.7c3.4,0,5,1.7,5,5v22.1
	c0,3.4-1.7,5-5,5L90.1,82.5L90.1,82.5z M41.9,68.7c-5,0-8.4-3.4-8.4-8.4V24.5c0-5,3.4-8.4,8.4-8.4s8.4,3.4,8.4,8.4v35.9
	C50.3,65.4,47,68.7,41.9,68.7L41.9,68.7z M41.9,84.8c24,0,41.9-17.3,41.9-42.4C83.9,17.6,65.9,0,41.9,0C18.1,0,0,17.6,0,42.4
	C0,67.4,18,84.8,41.9,84.8L41.9,84.8z M195.9,162.5c6.9,0,11.6-3.9,11.6-9.7c0-12.9-14.7-9.1-14.7-13.4c0-1.4,1.2-2.2,3.1-2.2
	c2.5,0,4.3,1.7,4.9,4.4l6.8-3c-1.1-4.8-5.8-8.1-11.7-8.1s-10.6,3.8-10.6,9c0,11.7,14.7,8.4,14.7,13.6c0,1.7-1.5,2.8-3.7,2.8
	c-2.9-0.1-5.2-2.5-5.3-5.4l-6.5,2C184.8,158.1,189.9,162.5,195.9,162.5z M211.4,162.1h7.6v-11.3h5c6.2,0,10.3-3.9,10.3-10
	s-4-10-10.3-10h-12.6V162.1L211.4,162.1z M219,144v-6.4h4.2c2.2,0,3.6,1.2,3.6,3.2s-1.3,3.2-3.6,3.2L219,144L219,144z M262.3,162.1
	l-7.3-13.5c2.5-1.9,4-4.9,3.9-8c0-6-3.9-9.8-9.8-9.8H237l0.1,31.4h7.6v-11.7h2.8l5.9,11.7H262.3L262.3,162.1z M244.7,137.6h3.1
	c2.3,0,3.6,1.1,3.6,3s-1.3,3-3.6,3h-3.1V137.6z M264.8,162.1h7.6v-31.4h-7.6V162.1z M277.6,162.1h7v-18.7l10.5,18.7h7.4v-31.4h-7
	v18.7L285,130.8h-7.4L277.6,162.1L277.6,162.1z M321,162.5c3.1,0,5.8-1.3,7-3.1v2.8h6.9v-17.3h-14.3v6.3h7.3c-0.5,2.7-3,4.6-6.5,4.6
	c-4.4,0-7.6-3.5-7.6-9.2s3.2-9.2,7.8-9.2c3.3,0,6.2,2.5,6.6,5.8l7.5-1.6c-1.1-6.9-6.3-11-13.9-11c-8,0-15.4,5.3-15.4,16
	S313.4,162.5,321,162.5L321,162.5z M358.2,162.5c6.9,0,11.6-3.9,11.6-9.7c0-12.9-14.7-9.1-14.7-13.4c0-1.4,1.2-2.2,3.1-2.2
	c2.5,0,4.3,1.7,4.9,4.4l6.8-3c-1.1-4.8-5.8-8.1-11.7-8.1s-10.6,3.8-10.6,9c0,11.7,14.7,8.4,14.7,13.6c0,1.7-1.5,2.8-3.7,2.8
	c-2.9-0.1-5.2-2.5-5.3-5.4l-6.5,2C347.1,158.1,352.3,162.5,358.2,162.5L358.2,162.5z M385.7,162.5c7.1,0,12.1-3.9,12.1-12.3v-19.5
	h-6.9v19.4c0,3.9-2.2,5.5-5.1,5.5c-3,0-5.1-1.5-5.1-5.5v-19.4h-7v19.4C373.6,158.6,378.6,162.5,385.7,162.5L385.7,162.5z
	 M402.9,162.1h6.9v-16.6l6.8,16.6h5.3l6.7-16.6v16.6h6.9v-31.4h-8.2l-8.2,20.1l-8.2-20.1h-8.2L402.9,162.1L402.9,162.1z M441,162.1
	h7v-16.6l6.8,16.6h5.3l6.7-16.6v16.6h7v-31.4h-8.2l-8.2,20.1l-8.2-20.1H441L441,162.1L441,162.1z M479,162.1h21.4v-6.8h-13.8v-6.3
	h10.5v-6.8h-10.5v-4.7h13.3v-6.8H479V162.1z M529.7,162.1l-7.3-13.5c2.5-1.9,4-4.9,3.9-8c0-6-3.9-9.8-9.8-9.8h-12.2l0.1,31.4h7.6
	v-11.7h2.8l5.9,11.7L529.7,162.1L529.7,162.1z M512,137.6h3.1c2.3,0,3.6,1.1,3.6,3s-1.3,3-3.6,3H512V137.6z M539.7,162.1h21.7v-6.8
	h-11.2l3.7-2.9c5.2-4,7.5-7.6,7.5-11.6c0-6.1-4.5-10.4-11.2-10.4c-6.1,0-11,5-11,11.1c0,0.4,0,0.8,0.1,1.2l7.2,0.5
	c-0.2-3.6,1.2-6,3.7-6c1.9-0.1,3.5,1.3,3.6,3.2c0,0.1,0,0.3,0,0.4c0,1.9-1.3,3.9-4.3,6.4l-10,8.6L539.7,162.1z M577.1,162.5
	c7.7,0,12.7-6.3,12.7-16s-5-16-12.7-16c-7.6,0-12.7,6.3-12.7,16S569.5,162.5,577.1,162.5L577.1,162.5z M577.1,155.7
	c-3.3,0-5.1-3.2-5.1-9.2s1.8-9.2,5.1-9.2s5.2,3.2,5.2,9.2S580.5,155.7,577.1,155.7L577.1,155.7z M592.2,162.1H614v-6.8h-11.2
	l3.7-2.9c5.2-4,7.5-7.6,7.5-11.6c0-6.1-4.5-10.4-11.1-10.4c-6.1,0-11,5-11,11.1c0,0.4,0,0.8,0.1,1.2l7.2,0.5c-0.3-3.6,1.2-6,3.7-6
	c1.9-0.1,3.5,1.3,3.6,3.2c0,0.1,0,0.3,0,0.4c0,1.9-1.3,3.9-4.3,6.4l-10,8.6L592.2,162.1z M623.2,162.1h6.9v-31.4h-5.7
	c-2.3,1.9-5,3.4-7.9,4.3v7.1c2.4-0.6,4.7-1.6,6.6-3.1L623.2,162.1L623.2,162.1z"/>
</svg>
