<?xml version="1.0" encoding="utf-8"?>
<!-- Generator: Adobe Illustrator 24.2.1, SVG Export Plug-In . SVG Version: 6.00 Build 0)  -->
<svg version="1.1" id="レイヤー_1" xmlns="http://www.w3.org/2000/svg" xmlns:xlink="http://www.w3.org/1999/xlink" x="0px"
	 y="0px" viewBox="0 0 32 32" style="enable-background:new 0 0 32 32;" xml:space="preserve">
<style type="text/css">
	.st0{fill:#FFFFFF;}
</style>
<path class="st0" d="M21.9,6.3c-0.5,0-1.1,0-1.6,0.1S19.5,7,19.6,7.5s0.6,0.8,1.1,0.7c1.5-0.3,3.2,0.1,4.3,1.4
	c1.1,1.2,1.4,3,0.9,4.4c-0.2,0.5,0.1,1,0.6,1.2s1-0.1,1.2-0.6c0.7-2.1,0.3-4.5-1.3-6.2C25.2,7.1,23.6,6.4,21.9,6.3z M13.7,9
	c-1.7,0.2-4,1.5-6.1,3.6C5.3,14.9,4,17.3,4,19.3c0,4,5.1,6.4,10.1,6.4c6.5,0,10.9-3.8,10.9-6.8c0-1.8-1.5-2.9-2.9-3.3
	c-0.3-0.1-0.6-0.1-0.4-0.6c0.4-1,0.4-1.8,0-2.4c-0.8-1.1-2.9-1.1-5.4,0c0,0-0.8,0.4-0.6-0.3c0.4-1.2,0.3-2.2-0.3-2.8
	C15,9.1,14.4,8.9,13.7,9z M21.8,9.5c-0.3,0-0.5,0-0.8,0.1c-0.4,0.1-0.7,0.5-0.6,1c0.1,0.4,0.5,0.7,0.9,0.6c0.5-0.1,1.1,0.1,1.5,0.5
	s0.5,1,0.3,1.5c-0.1,0.4,0.1,0.9,0.5,1s0.9-0.1,1-0.5c0.3-1,0.1-2.2-0.7-3C23.4,9.9,22.6,9.6,21.8,9.5z M14.6,14.8
	c3.3,0.1,6,1.8,6.2,4.1c0.3,2.6-2.7,5-6.7,5.4s-7.4-1.4-7.7-4c-0.3-2.6,2.8-5,6.8-5.4C13.7,14.8,14.1,14.8,14.6,14.8z M13,16.8
	c-1.4,0.1-2.8,1-3.4,2.2c-0.8,1.7,0,3.6,1.9,4.2c2,0.6,4.3-0.4,5.1-2.2c0.8-1.8-0.2-3.6-2.2-4.1C14,16.8,13.5,16.7,13,16.8z
	 M13.9,18.9c0.1,0,0.1,0,0.2,0c0.2,0.1,0.4,0.4,0.2,0.6c-0.1,0.2-0.4,0.3-0.7,0.3c-0.2-0.1-0.3-0.4-0.2-0.6
	C13.5,19,13.8,18.9,13.9,18.9z M12.1,19.5c0.2,0,0.3,0,0.5,0.1c0.6,0.3,0.8,1,0.4,1.6c-0.4,0.6-1.2,0.9-1.8,0.6s-0.8-1-0.4-1.6
	C11.1,19.8,11.6,19.5,12.1,19.5z"/>
</svg>
