<svg id="Logo" xmlns="http://www.w3.org/2000/svg" viewBox="0 0 503.841 503.841"><path d="M251.921,45.391c67.265,0,75.233.257,101.8,1.469,24.562,1.12,37.9,5.224,46.778,8.674a78.042,78.042,0,0,1,28.966,18.845,78.042,78.042,0,0,1,18.845,28.966c3.45,8.877,7.554,22.216,8.674,46.778,1.212,26.564,1.469,34.532,1.469,101.8s-.257,75.233-1.469,101.8c-1.12,24.562-5.224,37.9-8.674,46.778A83.431,83.431,0,0,1,400.5,448.307c-8.877,3.45-22.216,7.554-46.778,8.674-26.56,1.212-34.527,1.469-101.8,1.469s-75.237-.257-101.8-1.469c-24.562-1.12-37.9-5.224-46.778-8.674a78.042,78.042,0,0,1-28.966-18.845A78.054,78.054,0,0,1,55.534,400.5c-3.45-8.877-7.554-22.216-8.674-46.778-1.212-26.564-1.469-34.532-1.469-101.8s.257-75.234,1.469-101.8c1.12-24.562,5.224-37.9,8.674-46.778A78.042,78.042,0,0,1,74.379,74.379a78.042,78.042,0,0,1,28.966-18.845c8.877-3.45,22.216-7.554,46.778-8.674,26.564-1.212,34.532-1.469,101.8-1.469m0-45.391c-68.418,0-77,.29-103.867,1.516C121.24,2.739,102.927,7,86.9,13.226A123.481,123.481,0,0,0,42.282,42.282,123.481,123.481,0,0,0,13.226,86.9C7,102.927,2.739,121.24,1.516,148.054.29,174.924,0,183.5,0,251.921s.29,77,1.516,103.866C2.739,382.6,7,400.914,13.226,416.938a123.481,123.481,0,0,0,29.056,44.621A123.5,123.5,0,0,0,86.9,490.616c16.024,6.227,34.337,10.486,61.151,11.709,26.87,1.226,35.449,1.516,103.867,1.516s77-.29,103.866-1.516c26.814-1.223,45.127-5.482,61.151-11.709a128.816,128.816,0,0,0,73.678-73.678c6.227-16.024,10.486-34.337,11.709-61.151,1.226-26.87,1.516-35.449,1.516-103.866s-.29-77-1.516-103.867c-1.223-26.814-5.482-45.127-11.709-61.151a123.5,123.5,0,0,0-29.057-44.621,123.481,123.481,0,0,0-44.621-29.056C400.914,7,382.6,2.739,355.787,1.516,328.917.29,320.338,0,251.921,0Z"/><path d="M251.921,122.556A129.365,129.365,0,1,0,381.285,251.921,129.364,129.364,0,0,0,251.921,122.556Zm0,213.338a83.974,83.974,0,1,1,83.973-83.973A83.973,83.973,0,0,1,251.921,335.894Z"/><circle cx="386.396" cy="117.445" r="30.23"/></svg>