<svg xmlns="http://www.w3.org/2000/svg" width="660.715" height="86.156" viewBox="0 0 660.715 86.156">
  <defs>
    <style>
      .cls-1 {
        fill: #fff;
        fill-rule: evenodd;
      }
    </style>
  </defs>
  <path id="OnitsukaTiger_Logo_Typographic_RGB" class="cls-1" d="M1017.5,737.155h30.49v-9.481h-3.39q-4.065,0-4.07-4.064v-7.449c0-5.418,3.66-8.535,9.62-8.535a24.351,24.351,0,0,1,4.21.408v-16.8c-8.41,0-13.28,4.607-15.32,14.5V692.186H1017.5v9.48q4.065,0,4.06,4.065V723.61q0,4.063-4.06,4.064v9.481Zm-29.813-25.6V706a4.743,4.743,0,0,1,9.485,0v5.553h-9.485ZM994.6,738.1c5.284,0,11.922-1.9,17.752-5.419l-3.93-8.669a29.377,29.377,0,0,1-12.061,2.574c-6.5,0-8.266-2.574-8.672-7.72h27.233v-3.522c0-13.816-10.16-24.112-23.3-24.112-13.822,0-23.579,9.618-23.579,23.434S979.15,738.1,994.6,738.1Zm-54.2-13.546a4.9,4.9,0,0,1-5.149-5.146V709.387a5.15,5.15,0,0,1,10.3,0v10.025A4.9,4.9,0,0,1,940.4,724.558Zm-49.324-37.25h18.971v-14.9H891.071v14.9Zm46.208,69.352c16.125,0,26.152-8.4,26.152-21.943V705.731c0.036-2.676,1.367-4.056,4.053-4.056,0-2.988.012-9.489,0.012-9.489h-21.41v9.48c-1.9-6.907-6.639-10.43-13.685-10.43-10.841,0-16.8,8.264-16.8,22.756,0,14.359,5.827,22.487,16.532,22.487,5.962,0,10.569-2.575,12.331-7.18v5.418c0,6.368-3.659,9.753-10.841,9.753-3.523,0-6.64-.813-12.06-3.385L917.5,751.38C925.9,755.306,930.775,756.66,937.279,756.66Zm-50.273-19.5h27.1v-9.481q-4.065,0-4.065-4.064V692.186H887.006v9.48q4.065,0,4.065,4.065V723.61q0,4.063-4.065,4.064v9.481Zm-57.183,0H871.83V726.861h-4.878c-2.982,0-4.608-1.626-4.608-4.6V684.329h2.982c4.065,0,6.5,2.437,6.5,6.5v5.418h10.7V672.409H818.983v23.839h10.84V690.83c0-4.064,2.439-6.5,6.5-6.5h2.981v37.928c0,2.978-1.626,4.6-4.607,4.6h-4.878v10.294Zm-64.907.949c9.214,0,14.093-2.98,16.261-9.075v8.126h18.835v-9.481q-4.065,0-4.065-4.064V710.878c0-12.191-9.757-19.642-25.069-19.642a53.969,53.969,0,0,0-20.055,3.93L753.4,705.6a35.115,35.115,0,0,1,12.331-2.71c6.369,0,11.247,2.44,11.247,7.451v2.032a21.809,21.809,0,0,0-12.06-3.251c-10.57,0-18.429,5.96-18.429,14.493C746.487,732.415,753.94,738.1,764.916,738.1Zm5.556-10.836a4.335,4.335,0,1,1,0-8.67h2.574a4.335,4.335,0,1,1,0,8.67h-2.574Zm-79.813,9.887h25.746v-9.481a3.2,3.2,0,0,1-3.388-3.387v-7.043l14.093,19.911h17.209v-9.481c-1.355,0-2.845-1.219-4.065-2.845l-9.621-12.867,5.962-5.689c2.846-2.711,5.556-4.607,7.047-4.607v-9.48H718.3v9.48h7.588l-12.873,11.785V670.783H690.659v9.482a3.2,3.2,0,0,1,3.387,3.387v40.635a3.2,3.2,0,0,1-3.387,3.387v9.481Zm-41.465.949c6.775,0,11.654-3.251,15.448-10.43v9.481h21.41v-9.481a3.2,3.2,0,0,1-3.388-3.387v-32.1H659.628v9.48q4.065,0,4.065,4.065v13.41a4.743,4.743,0,0,1-9.485,0V692.186H631.172v9.48q4.065,0,4.065,4.065v19.234C635.237,732.956,640.657,738.1,649.194,738.1Zm-35.909,0c10.163,0,17.345-5.96,17.345-14.494,0-6.637-4.065-11.242-10.976-13.681l-10.569-3.792a2.787,2.787,0,0,1-2.033-2.438c0-1.626,1.761-2.438,4.2-2.438a6.945,6.945,0,0,1,6.639,4.47H627.92V692.186h-9.486v4.74c-2.981-3.521-8.13-5.69-13.55-5.69-9.214,0-16.125,6.368-16.125,14.765,0,6.1,3.929,11.514,10.434,13.545l6.1,1.9c5.285,1.626,6.5,2.439,6.5,4.47,0,1.626-1.491,2.3-3.659,2.3-3.117,0-5.556-1.354-9.485-4.605h-9.486v13.545h10.028v-4.74A19.862,19.862,0,0,0,613.285,738.1Zm-54.473-.949h26.83v-9.481h-1.084c-4.742,0-6.775-2.032-6.775-6.773V702.208h8V692.186h-8V677.15H559.354v9.075c0,4.064-1.9,5.961-5.962,5.961v9.48h5.42v35.489Zm-28.727-49.847h18.971v-14.9H530.085v14.9Zm-4.065,49.847h27.1v-9.481q-4.067,0-4.065-4.064V692.186H526.02v9.48q4.065,0,4.065,4.065V723.61q0,4.063-4.065,4.064v9.481Zm-59.623,0h27.1v-9.481q-4.065,0-4.065-4.064V710.2a4.743,4.743,0,0,1,9.486,0v26.954h23.036v-9.481q-4.067,0-4.066-4.064V704.376c0-7.992-5.42-13.14-13.957-13.14-6.775,0-11.653,3.252-15.447,10.43v-9.48H466.4v9.48q4.065,0,4.066,4.065V723.61q0,4.063-4.066,4.064v9.481Zm-38.89-11.107a6.4,6.4,0,0,1-6.775-6.772V690.289a6.776,6.776,0,0,1,13.551,0v28.987A6.4,6.4,0,0,1,427.507,726.048Zm0,13c19.378,0,33.876-13.953,33.876-34.269,0-20.047-14.5-34.27-33.876-34.27-19.242,0-33.876,14.223-33.876,34.27C393.631,724.965,408.13,739.052,427.507,739.052Z" transform="translate(-393.625 -670.5)"/>
</svg>
