<?xml version="1.0" encoding="utf-8"?>
<!-- Generator: Adobe Illustrator 24.1.3, SVG Export Plug-In . SVG Version: 6.00 Build 0)  -->
<svg version="1.1" id="レイヤー_1" xmlns="http://www.w3.org/2000/svg" xmlns:xlink="http://www.w3.org/1999/xlink" x="0px"
	 y="0px" viewBox="0 0 254 50" style="enable-background:new 0 0 254 50;" xml:space="preserve">
<style type="text/css">
	.st0{fill:#FFFFFF;}
	.st1{fill:#231815;}
</style>
<rect class="st0" width="254" height="50"/>
<g>
	<path class="st1" d="M46,32.1c-0.1,0-0.2-0.1-0.2-0.2l-3-10.6h0l-3,10.6c0,0.1-0.1,0.2-0.2,0.2h-1.2c-0.1,0-0.2-0.1-0.2-0.2
		l-3.4-13.9c0-0.1,0-0.2,0.2-0.2h1.4c0.2,0,0.2,0.1,0.2,0.2L39,28.7h0l3-10.6c0-0.1,0.1-0.2,0.2-0.2h1.1c0.2,0,0.2,0.1,0.2,0.2
		l3,10.6h0l2.5-10.6c0-0.1,0.1-0.2,0.3-0.2h1.4c0.2,0,0.2,0.1,0.2,0.2l-3.4,13.9c0,0.1-0.1,0.2-0.2,0.2H46z"/>
	<path class="st1" d="M55.9,18.1c0-0.1,0.1-0.2,0.2-0.2h1.4c0.2,0,0.2,0.1,0.3,0.2l4.9,13.9c0,0.1,0,0.2-0.2,0.2H61
		c-0.2,0-0.2-0.1-0.3-0.2l-1.1-3.1h-5.8l-1.1,3.1c-0.1,0.2-0.2,0.2-0.3,0.2h-1.5c-0.1,0-0.2-0.1-0.2-0.2L55.9,18.1z M59.1,27.1
		l-2.2-6.5h0l-2.3,6.5H59.1z"/>
	<path class="st1" d="M66.6,32.1c-0.1,0-0.2-0.1-0.2-0.2V19.7c0-0.1,0-0.1-0.1-0.1h-3.9c-0.1,0-0.2-0.1-0.2-0.2v-1.3
		c0-0.1,0.1-0.2,0.2-0.2h9.9c0.1,0,0.2,0.1,0.2,0.2v1.3c0,0.1-0.1,0.2-0.2,0.2h-3.9c-0.1,0-0.1,0-0.1,0.1v12.2
		c0,0.1-0.1,0.2-0.2,0.2H66.6z"/>
	<path class="st1" d="M74.2,25c0-2.4,0.1-3.2,0.4-4c0.7-2.2,2.4-3.4,4.8-3.4c2.1,0,3.8,1,4.6,2.9c0,0.1,0,0.2-0.1,0.3l-1.3,0.6
		c-0.1,0.1-0.2,0-0.3-0.1c-0.6-1.1-1.4-1.9-2.9-1.9c-1.6,0-2.5,0.8-3,2.1c-0.2,0.6-0.3,1.3-0.3,3.5s0.1,2.9,0.3,3.5
		c0.5,1.3,1.4,2.1,3,2.1c1.5,0,2.4-0.8,2.9-1.9c0-0.1,0.2-0.2,0.3-0.1l1.3,0.6c0.1,0.1,0.1,0.2,0.1,0.3c-0.8,1.8-2.5,2.9-4.6,2.9
		c-2.3,0-4-1.1-4.8-3.4C74.3,28.2,74.2,27.4,74.2,25z"/>
	<path class="st1" d="M86.4,18.1c0-0.1,0.1-0.2,0.2-0.2h1.4c0.1,0,0.2,0.1,0.2,0.2v5.9c0,0.1,0,0.1,0.1,0.1h6.2c0.1,0,0.1,0,0.1-0.1
		v-5.9c0-0.1,0.1-0.2,0.2-0.2h1.4c0.1,0,0.2,0.1,0.2,0.2v13.9c0,0.1-0.1,0.2-0.2,0.2h-1.4c-0.1,0-0.2-0.1-0.2-0.2v-6
		c0-0.1,0-0.1-0.1-0.1h-6.2c-0.1,0-0.1,0-0.1,0.1v6c0,0.1-0.1,0.2-0.2,0.2h-1.4c-0.1,0-0.2-0.1-0.2-0.2
		C86.4,31.9,86.4,18.1,86.4,18.1z"/>
	<path class="st1" d="M108.3,32.1c-0.1,0-0.2-0.1-0.2-0.2V19.7c0-0.1,0-0.1-0.1-0.1h-3.9c-0.1,0-0.2-0.1-0.2-0.2v-1.3
		c0-0.1,0.1-0.2,0.2-0.2h9.9c0.1,0,0.2,0.1,0.2,0.2v1.3c0,0.1-0.1,0.2-0.2,0.2h-3.9c-0.1,0-0.1,0-0.1,0.1v12.2
		c0,0.1-0.1,0.2-0.2,0.2H108.3z"/>
	<path class="st1" d="M116.5,18.1c0-0.1,0.1-0.2,0.2-0.2h1.4c0.1,0,0.2,0.1,0.2,0.2v5.9c0,0.1,0,0.1,0.1,0.1h6.2
		c0.1,0,0.1,0,0.1-0.1v-5.9c0-0.1,0.1-0.2,0.2-0.2h1.4c0.1,0,0.2,0.1,0.2,0.2v13.9c0,0.1-0.1,0.2-0.2,0.2H125
		c-0.1,0-0.2-0.1-0.2-0.2v-6c0-0.1,0-0.1-0.1-0.1h-6.2c-0.1,0-0.1,0-0.1,0.1v6c0,0.1-0.1,0.2-0.2,0.2h-1.4c-0.1,0-0.2-0.1-0.2-0.2
		V18.1z"/>
	<path class="st1" d="M130,18.1c0-0.1,0.1-0.2,0.2-0.2h8.6c0.1,0,0.2,0.1,0.2,0.2v1.3c0,0.1-0.1,0.2-0.2,0.2H132
		c-0.1,0-0.1,0-0.1,0.1v4.2c0,0.1,0,0.1,0.1,0.1h5.8c0.1,0,0.2,0.1,0.2,0.2v1.3c0,0.1-0.1,0.2-0.2,0.2H132c-0.1,0-0.1,0-0.1,0.1v4.4
		c0,0.1,0,0.1,0.1,0.1h6.8c0.1,0,0.2,0.1,0.2,0.2v1.3c0,0.1-0.1,0.2-0.2,0.2h-8.6c-0.1,0-0.2-0.1-0.2-0.2V18.1z"/>
	<path class="st1" d="M146.9,18.1c0-0.1,0.1-0.2,0.2-0.2h1.4c0.2,0,0.3,0.1,0.3,0.2l4.3,9.6h0.1l4.2-9.6c0.1-0.1,0.2-0.2,0.3-0.2
		h1.4c0.1,0,0.2,0.1,0.2,0.2v13.9c0,0.1-0.1,0.2-0.2,0.2h-1.3c-0.1,0-0.2-0.1-0.2-0.2V22h-0.1l-3.6,7.9c-0.1,0.2-0.2,0.2-0.4,0.2
		h-0.8c-0.2,0-0.3-0.1-0.4-0.2l-3.6-7.9h-0.1v9.9c0,0.1-0.1,0.2-0.2,0.2h-1.3c-0.1,0-0.2-0.1-0.2-0.2L146.9,18.1L146.9,18.1z"/>
	<path class="st1" d="M162.5,29c-0.3-0.8-0.4-1.7-0.4-4s0.1-3.2,0.4-4c0.7-2.2,2.5-3.3,4.9-3.3c2.4,0,4.1,1.1,4.9,3.3
		c0.3,0.8,0.4,1.7,0.4,4s-0.1,3.2-0.4,4c-0.7,2.2-2.5,3.3-4.9,3.3C164.9,32.4,163.2,31.2,162.5,29z M170.4,28.5
		c0.2-0.5,0.3-1.5,0.3-3.5s-0.1-3-0.3-3.5c-0.4-1.4-1.4-2.1-3-2.1c-1.6,0-2.6,0.8-3,2.1c-0.2,0.5-0.3,1.5-0.3,3.5s0.1,3,0.3,3.5
		c0.4,1.4,1.4,2.1,3,2.1C168.9,30.6,169.9,29.9,170.4,28.5z"/>
	<path class="st1" d="M178.9,32.1c-0.1,0-0.2-0.1-0.2-0.2L174,18.1c-0.1-0.2,0-0.2,0.1-0.2h1.4c0.2,0,0.2,0.1,0.3,0.2l3.6,11h0
		l3.5-11c0-0.1,0.1-0.2,0.3-0.2h1.4c0.1,0,0.2,0.1,0.1,0.2l-4.6,13.8c0,0.1-0.1,0.2-0.2,0.2H178.9z"/>
	<path class="st1" d="M187.3,18.1c0-0.1,0.1-0.2,0.2-0.2h1.4c0.1,0,0.2,0.1,0.2,0.2v13.9c0,0.1-0.1,0.2-0.2,0.2h-1.4
		c-0.1,0-0.2-0.1-0.2-0.2V18.1z"/>
	<path class="st1" d="M192.4,18.1c0-0.1,0.1-0.2,0.2-0.2h8.6c0.1,0,0.2,0.1,0.2,0.2v1.3c0,0.1-0.1,0.2-0.2,0.2h-6.8
		c-0.1,0-0.1,0-0.1,0.1v4.2c0,0.1,0,0.1,0.1,0.1h5.8c0.1,0,0.2,0.1,0.2,0.2v1.3c0,0.1-0.1,0.2-0.2,0.2h-5.8c-0.1,0-0.1,0-0.1,0.1
		v4.4c0,0.1,0,0.1,0.1,0.1h6.8c0.1,0,0.2,0.1,0.2,0.2v1.3c0,0.1-0.1,0.2-0.2,0.2h-8.6c-0.1,0-0.2-0.1-0.2-0.2V18.1z"/>
</g>
<g>
	<path class="st1" d="M228.2,14.9c-5.5,0-10,4.5-10,10v0c0,5.5,4.5,10,10,10s10-4.5,10-10v0C238.2,19.3,233.7,14.9,228.2,14.9z
		 M225.9,29v-7.8l6.7,3.9L225.9,29z"/>
</g>
</svg>
