<?xml version="1.0" encoding="utf-8"?>
<!-- Generator: Adobe Illustrator 24.1.3, SVG Export Plug-In . SVG Version: 6.00 Build 0)  -->
<svg version="1.1" id="Logotype" xmlns="http://www.w3.org/2000/svg" xmlns:xlink="http://www.w3.org/1999/xlink" x="0px" y="0px"
	 viewBox="0 0 729 150.5" style="enable-background:new 0 0 729 150.5;" xml:space="preserve">
<g>
	<g>
		<g>
			<g>
				<path d="M665.7,71.4h31.7v-9.9h-3.5c-2.8,0-4.2-1.4-4.2-4.2v-7.7c0-5.6,3.8-8.9,10-8.9c1.3,0,2.8,0.1,4.4,0.4V23.7
					c-8.7,0-13.8,4.8-15.9,15.1V24.7h-22.4v9.9c2.8,0,4.2,1.4,4.2,4.2v18.6c0,2.8-1.4,4.2-4.2,4.2V71.4z"/>
				<path d="M663,48.7c0-14.4-10.6-25.1-24.2-25.1c-14.4,0-24.5,10-24.5,24.4c0,14.4,11.5,24.4,27.6,24.4c5.5,0,12.4-2,18.4-5.6
					l-4.1-9c-4.8,2-8.3,2.7-12.5,2.7c-6.8,0-8.6-2.7-9-8H663V48.7z M644.6,44.8h-9.9V39c0-2.8,2.1-4.9,4.9-4.9
					c2.8,0,4.9,2.1,4.9,4.9V44.8z"/>
				<rect x="534.3" y="4.1" width="19.7" height="15.5"/>
				<path d="M591.5,24.7v9.9c-2-7.2-6.9-10.8-14.2-10.8c-11.3,0-17.5,8.6-17.5,23.7c0,14.9,6.1,23.4,17.2,23.4
					c6.2,0,11-2.7,12.8-7.5v5.6c0,6.6-3.8,10.1-11.3,10.1c-3.7,0-6.9-0.8-12.5-3.5l-4.2,10.7c8.7,4.1,13.8,5.5,20.6,5.5
					c16.8,0,27.2-8.7,27.2-22.8V38.7c0-2.8,1.4-4.2,4.2-4.2c0-3.1,0-9.9,0-9.9H591.5z M590.9,53c0,2.8-1.8,5.4-5.4,5.4
					c-3.5,0-5.4-2.5-5.4-5.4V42.5c0-2.8,1.8-5.4,5.4-5.4c3.5,0,5.4,2.5,5.4,5.4V53z"/>
				<path d="M530.1,71.4h28.2v-9.9c-2.8,0-4.2-1.4-4.2-4.2V24.7h-23.9v9.9c2.8,0,4.2,1.4,4.2,4.2v18.6c0,2.8-1.4,4.2-4.2,4.2V71.4z"
					/>
				<path d="M470.7,71.4h43.7V60.7h-5.1c-3.1,0-4.8-1.7-4.8-4.8V16.5h3.1c4.2,0,6.8,2.5,6.8,6.8v5.6h11.1V4.1h-66v24.8h11.3v-5.6
					c0-4.2,2.5-6.8,6.8-6.8h3.1v39.4c0,3.1-1.7,4.8-4.8,4.8h-5.1V71.4z"/>
			</g>
			<path d="M442.1,57.3V44.1c0-12.7-10.1-20.4-26.1-20.4c-7,0-14.2,1.4-20.8,4.1l2.7,10.8c4.8-1.8,9-2.8,12.8-2.8
				c6.6,0,11.7,2.5,11.7,7.7v2.1c-3.9-2.4-7.7-3.4-12.5-3.4c-11,0-19.2,6.2-19.2,15.1c0,9.2,7.7,15.1,19.2,15.1
				c9.6,0,14.6-3.1,16.9-9.4v8.4h19.6v-9.9C443.5,61.5,442.1,60.1,442.1,57.3z M418.3,61.1h-2.7c-2.8,0-4.5-2.1-4.5-4.5
				c0-2.4,1.7-4.5,4.5-4.5h2.7c2.8,0,4.5,2.1,4.5,4.5C422.8,59,421.1,61.1,418.3,61.1z"/>
			<path d="M332.7,71.4h26.8v-9.9c-2.1,0-3.5-1.4-3.5-3.5v-7.3l14.6,20.7h17.9v-9.9c-1.4,0-3-1.3-4.2-3l-10-13.4l6.2-5.9
				c3-2.8,5.8-4.8,7.3-4.8v-9.9h-26.3v9.9h7.9l-13.4,12.3V2.4h-23.2v9.9c2.1,0,3.5,1.4,3.5,3.5V58c0,2.1-1.4,3.5-3.5,3.5V71.4z"/>
			<path d="M289.6,72.4c7,0,12.1-3.4,16.1-10.8v9.9h22.2v-9.9c-2.1,0-3.5-1.4-3.5-3.5V24.7h-23.9v9.9c2.8,0,4.2,1.4,4.2,4.2v13.9
				c0,2.8-2.1,4.9-4.9,4.9c-2.8,0-4.9-2.1-4.9-4.9v-28h-23.9v9.9c2.8,0,4.2,1.4,4.2,4.2v20C275.1,67,280.7,72.4,289.6,72.4z"/>
			<path d="M252.3,72.4c10.6,0,18-6.2,18-15.1c0-6.9-4.2-11.7-11.4-14.2l-11-3.9c-1.4-0.6-2.1-1.5-2.1-2.5c0-1.7,1.8-2.5,4.4-2.5
				c3.1,0,5.5,1.5,6.9,4.6h10.4V24.7h-9.9v4.9c-3.1-3.7-8.4-5.9-14.1-5.9c-9.6,0-16.8,6.6-16.8,15.3c0,6.3,4.1,12,10.8,14.1l6.3,2
				c5.5,1.7,6.8,2.5,6.8,4.6c0,1.7-1.5,2.4-3.8,2.4c-3.2,0-5.8-1.4-9.9-4.8h-9.9v14.1h10.4v-4.9C241.3,70.1,246.5,72.4,252.3,72.4z"
				/>
			<path d="M195.7,71.4h27.9v-9.9h-1.1c-4.9,0-7-2.1-7-7V35.1h8.3V24.7h-8.3V9h-19.2v9.4c0,4.2-2,6.2-6.2,6.2v9.9h5.6V71.4z"/>
			<rect x="165.8" y="4.1" width="19.7" height="15.5"/>
			<path d="M161.6,71.4h28.2v-9.9c-2.8,0-4.2-1.4-4.2-4.2V24.7h-23.9v9.9c2.8,0,4.2,1.4,4.2,4.2v18.6c0,2.8-1.4,4.2-4.2,4.2V71.4z"
				/>
			<path d="M99.6,71.4h28.2v-9.9c-2.8,0-4.2-1.4-4.2-4.2V43.4c0-2.8,2.1-4.9,4.9-4.9c2.8,0,4.9,2.1,4.9,4.9v28h23.9v-9.9
				c-2.8,0-4.2-1.4-4.2-4.2v-20c0-8.3-5.6-13.7-14.5-13.7c-7,0-12.1,3.4-16.1,10.8v-9.9h-23v9.9c2.8,0,4.2,1.4,4.2,4.2v18.6
				c0,2.8-1.4,4.2-4.2,4.2V71.4z"/>
			<path d="M59.2,2.1C39.2,2.1,24,16.9,24,37.7c0,21,15.1,35.6,35.2,35.6s35.2-14.5,35.2-35.6C94.4,16.9,79.3,2.1,59.2,2.1z
				 M66.2,52.8c0,4.2-2.8,7-7,7s-7-2.8-7-7V22.7c0-4.2,2.8-7,7-7s7,2.8,7,7V52.8z"/>
		</g>
	</g>
	<g>
		<path d="M166.7,141.8h-10l-2,5.8h-6.6l10.6-28h6l10.6,28h-6.5L166.7,141.8z M164.8,136.5l-3.1-8.7l-3.1,8.7H164.8z"/>
		<path d="M175.8,137.2v-17.6h5.9v17.6c0,3.6,2.2,5.3,5.4,5.3c3.1,0,5.4-1.6,5.4-5.3v-17.6h5.9v17.6c0,7.2-4.6,10.7-11.2,10.7
			C180.3,147.9,175.8,144.3,175.8,137.2z"/>
		<path d="M209.7,125h-8.2v-5.4h22.8v5.4h-8.2v22.6h-6.3V125z"/>
		<path d="M227.5,137.2v-17.6h5.9v17.6c0,3.6,2.2,5.3,5.4,5.3c3.1,0,5.4-1.6,5.4-5.3v-17.6h5.9v17.6c0,7.2-4.6,10.7-11.2,10.7
			C232.1,147.9,227.5,144.3,227.5,137.2z"/>
		<path d="M254.3,119.6h7l8.1,19l8.1-19h7v28h-5.9v-16.3l-6.9,16.3h-4.6l-6.9-16.3v16.3h-5.9V119.6z"/>
		<path d="M289.7,119.6h6.3l10.9,18v-18h5.9v28h-6.3l-10.9-18v18h-5.9V119.6z"/>
		<path d="M323.8,119.6h6.5L335,140l4.9-20.4h7.3l4.9,20.4l4.8-20.4h6.5l-7.9,28h-6.7l-5.2-19.5l-5.3,19.5h-6.6L323.8,119.6z"/>
		<path d="M366.8,119.6h6.3v28h-6.3V119.6z"/>
		<path d="M378.2,119.6h6.3l10.9,18v-18h5.9v28H395l-10.9-18v18h-5.9V119.6z"/>
		<path d="M412.8,125h-8.2v-5.4h22.8v5.4h-8.2v22.6h-6.3V125z"/>
		<path d="M430.6,119.6h19.2v5.4h-12.9v5.1h10.2v5.4h-10.2v6.6h13.4v5.4h-19.7V119.6z"/>
		<path d="M469.4,147.6l-6.1-11h-3.5v11h-6.3l-0.1-28h11.2c5.5,0,9.1,3.4,9.1,8.5c0,3-1.5,5.7-4,7.2l7.2,12.3H469.4z M459.8,131.2
			h3.7c2.5,0,3.9-1.2,3.9-3.1c0-2-1.4-3.1-3.9-3.1h-3.7V131.2z"/>
		<path d="M486.3,142.5l9.7-8c2.9-2.4,4.2-4.3,4.2-6.2c0-2.2-1.6-3.7-3.9-3.7c-2.7,0-4.3,2.3-4,5.7l-6-0.4c-0.6-6,4.1-10.7,10-10.7
			c6.1,0,10.2,3.7,10.2,9.1c0,3.6-2.1,6.7-6.9,10.3l-4.5,3.5h11.3v5.4h-20.2V142.5z"/>
		<path d="M508.6,133.6c0-8.6,4.5-14.3,11.6-14.3c7.2,0,11.7,5.7,11.7,14.3c0,8.6-4.5,14.3-11.7,14.3
			C513.1,147.9,508.6,142.2,508.6,133.6z M525.6,133.6c0-5.7-1.9-8.9-5.4-8.9s-5.3,3.2-5.3,8.9c0,5.7,1.8,8.9,5.3,8.9
			S525.6,139.2,525.6,133.6z"/>
		<path d="M534.2,142.5l9.7-8c2.9-2.4,4.2-4.3,4.2-6.2c0-2.2-1.6-3.7-3.9-3.7c-2.7,0-4.3,2.3-4,5.7l-6-0.4c-0.6-6,4.1-10.7,10-10.7
			c6.1,0,10.2,3.7,10.2,9.1c0,3.6-2.1,6.7-6.9,10.3l-4.5,3.5h11.3v5.4h-20.2V142.5z"/>
		<path d="M556.5,133.6c0-8.6,4.5-14.3,11.6-14.3c7.2,0,11.7,5.7,11.7,14.3c0,8.6-4.5,14.3-11.7,14.3
			C561,147.9,556.5,142.2,556.5,133.6z M573.5,133.6c0-5.7-1.9-8.9-5.4-8.9s-5.3,3.2-5.3,8.9c0,5.7,1.8,8.9,5.3,8.9
			S573.5,139.2,573.5,133.6z"/>
	</g>
</g>
</svg>
