<?xml version="1.0" encoding="utf-8"?>
<!-- Generator: Adobe Illustrator 24.1.3, SVG Export Plug-In . SVG Version: 6.00 Build 0)  -->
<svg version="1.1" id="レイヤー_1" xmlns="http://www.w3.org/2000/svg" xmlns:xlink="http://www.w3.org/1999/xlink" x="0px"
	 y="0px" viewBox="0 0 195 126" style="enable-background:new 0 0 195 126;" xml:space="preserve">
<style type="text/css">
	.st0{fill-rule:evenodd;clip-rule:evenodd;fill:#FFFFFF;}
</style>
<path id="new_ShieldLogo" class="st0" d="M183.5,25.5c0,0.5-0.2,1.1-0.6,1.4c-0.9,0.8-2.3,0.8-3.2,0c-0.4-0.3-0.6-0.9-0.6-1.4v-0.7
	c0-0.5,0.2-1.1,0.6-1.4c0.9-0.8,2.3-0.8,3.2,0c0.4,0.3,0.6,0.9,0.6,1.4V25.5z M193,25.2v-7.6c0.1-2.3-1-4.4-2.9-5.7
	c-1.9-1.3-4.7-2-8.4-2c-3.4,0-6.9,0.5-10.2,1.4l1.7,6c1-0.3,2-0.6,3.1-0.7c1.1-0.2,2.3-0.3,3.4-0.3c2.6,0,3.9,0.7,3.9,2.1v1.2
	c-1.7-0.9-3.6-1.4-5.5-1.3c-2.3-0.1-4.6,0.6-6.4,2c-1.6,1.2-2.5,3.2-2.4,5.2c-0.1,2,0.8,4,2.4,5.3c1.8,1.4,4.1,2.1,6.4,2
	c1.6,0,3.2-0.3,4.7-1c1.2-0.5,2.2-1.4,2.8-2.5v2.9h9.3v-5.1c-0.6,0-1.1-0.2-1.5-0.6C193.2,26.2,193,25.7,193,25.2 M167.1,25.9
	l-4.4-5.9l2.8-2.5c1-0.9,2.1-1.7,3.3-2.2v-5h-12.6v5.1h3.1l-5.1,4.6V0.1h-11.6v5.4c0.5,0,1,0.2,1.4,0.5c0.4,0.4,0.6,0.9,0.5,1.4
	v17.8c0,0.5-0.2,0.9-0.5,1.3c-0.3,0.4-0.8,0.6-1.3,0.6v5.1h11.4v-8.9l6.3,8.9h8.6v-5C168.3,27,167.6,26.6,167.1,25.9 M139.7,25.2
	V10.3h-9.4v13.2c0,0.5-0.1,1-0.5,1.4c-0.4,0.4-0.9,0.6-1.4,0.5c-0.5,0.1-1-0.1-1.4-0.5c-0.3-0.4-0.5-0.9-0.5-1.4V10.3H115v5.1
	c0.5,0,1,0.2,1.4,0.5c0.3,0.4,0.5,0.9,0.5,1.4v8.6c-0.1,1.8,0.6,3.6,2,4.9c1.4,1.3,3.3,2,5.2,1.9c1.4,0,2.9-0.4,4.1-1.1
	c1.2-0.7,2.1-1.7,2.6-3v3.6h10.7v-5.1c-0.5,0-1-0.2-1.3-0.6C139.9,26.2,139.7,25.7,139.7,25.2 M103.5,16.1c0-0.3,0.2-0.6,0.5-0.7
	c0.4-0.2,0.8-0.3,1.2-0.3c0.6,0,1.2,0.2,1.8,0.5c0.5,0.2,1,0.6,1.3,1.1h5.2v-6.4h-5.1v1.8c-0.8-0.7-1.7-1.3-2.7-1.7
	c-1.1-0.4-2.2-0.6-3.4-0.6c-1.4,0-2.9,0.3-4.2,0.9c-1.2,0.6-2.1,1.5-2.8,2.6c-0.7,1.2-1,2.5-1,3.8c-0.1,1.4,0.4,2.8,1.2,3.9
	c0.8,0.9,1.8,1.7,2.9,2.2c1.3,0.6,2.6,1.1,4,1.5c1.1,0.4,1.9,0.7,2.3,0.9c0.4,0.1,0.6,0.4,0.7,0.8c0,0.3-0.2,0.5-0.5,0.6
	c-0.4,0.2-0.9,0.3-1.3,0.3c-0.9,0-1.9-0.2-2.7-0.6c-0.8-0.3-1.6-0.9-2.1-1.6h-4.1v7.1h5.2v-1.8c0.8,0.7,1.8,1.3,2.9,1.6
	c1.1,0.4,2.3,0.6,3.5,0.6c1.5,0,3.1-0.3,4.4-1c1.2-0.6,2.3-1.5,3-2.6c0.7-1.1,1.1-2.5,1.1-3.8c0.1-1.4-0.4-2.7-1.3-3.8
	c-0.8-1-1.8-1.8-3-2.3c-1.3-0.6-2.7-1.1-4-1.5c-0.8-0.2-1.5-0.4-2.3-0.8C103.9,16.7,103.6,16.5,103.5,16.1 M79.7,32.2h13.4v-5.3
	h-1.3c-1.7,0-2.5-0.8-2.5-2.4v-6.9c0-1.4,0.8-2.2,2.5-2.2h1.3v-5.1h-1.3c-1.7,0-2.6-0.8-2.6-2.3V3.1h-9.3v5c0,1.5-1,2.2-2.9,2.2v5.1
	c1.7,0,2.6,0.8,2.6,2.2L79.7,32.2L79.7,32.2z M63.8,32.2h13.6v-5.1c-0.5,0-1.1-0.2-1.4-0.6c-0.4-0.3-0.5-0.8-0.5-1.3V10.3H63.8v5.1
	c0.5,0,1,0.2,1.5,0.5c0.4,0.4,0.6,0.9,0.6,1.4v7.9c0,0.5-0.2,1-0.6,1.3c-0.4,0.4-0.9,0.6-1.5,0.6V32.2z M65.7,7.9h9.7v-7h-9.7V7.9z
	 M60.5,25.2v-8.9c0.1-1.8-0.6-3.5-1.9-4.7c-1.4-1.2-3.2-1.9-5-1.8c-1.4,0-2.9,0.4-4.1,1.1c-1.2,0.7-2.1,1.8-2.7,3.1v-3.7H35.5v5.1
	c0.9-0.2,1.8,0.4,2,1.4c0,0.2,0,0.3,0,0.5v7.9c0.1,1-0.6,1.8-1.6,1.9c-0.1,0-0.3,0-0.4,0v5.1h11.8V19c0-0.5,0.2-1,0.5-1.4
	c0.4-0.3,0.9-0.5,1.4-0.5c0.5,0,1,0.2,1.4,0.5c0.4,0.4,0.6,0.9,0.5,1.4v13.2h11.4v-5.1c-1,0.1-1.9-0.5-2-1.5
	C60.4,25.5,60.4,25.3,60.5,25.2 M16.9,25.5c-0.9,0-1.8-0.3-2.5-1c-0.6-0.6-1-1.4-1-2.3V10.9c0-0.9,0.3-1.8,1-2.4
	c1.4-1.2,3.5-1.2,4.9,0c0.7,0.6,1,1.5,1,2.4v11.3c0,0.9-0.3,1.7-1,2.3C18.7,25.2,17.8,25.5,16.9,25.5 M16.9,33
	c3.1,0.1,6.1-0.7,8.8-2.1c2.5-1.4,4.6-3.4,6-5.9c1.5-2.6,2.2-5.5,2.1-8.5c0-3-0.7-5.9-2.1-8.5c-1.4-2.5-3.5-4.5-6-5.9
	c-5.5-2.8-12-2.8-17.5,0C5.7,3.5,3.6,5.5,2.1,8c-1.4,2.6-2.2,5.5-2.1,8.5c-0.1,3,0.7,5.9,2.1,8.5c1.4,2.5,3.5,4.5,6,5.9
	C10.8,32.3,13.9,33.1,16.9,33 M43.5,68.4c0,0-0.6,14.8-6.7,17.7c0,0-6.9-3.6,0.1-16.8L43.5,68.4z M122.9,64.4
	c-1.2,3.2-0.4,4.4-0.4,4.4c1.5-0.1,3-0.4,4.5-0.9c0.7-1.6,0.8-3.3,0.4-5C126.7,60.1,124.2,61.1,122.9,64.4L122.9,64.4z M92.1,86.8
	c0.4,1.1,3.8,3,6.1,1.4c2.9-2.2-0.6-6-0.6-6L92.1,86.8z M195,35.6v63.3c0,8.7-7.1,15.7-15.8,15.7c0,0,0,0,0,0h-58.6
	c0,0-7.5-0.6-22.6,11.4c-15.1-12-22.7-11.4-22.7-11.4H16.8c-8.7,0-15.7-7-15.8-15.7c0,0,0,0,0,0V35.6H195L195,35.6z M56.7,90.5
	L63.1,59c5.6-1.5,10-5.8,11.6-11.4c-7.4,1.9-15,2.9-22.7,3.2c-11.7,0.5-21.1,1.8-23.4,13c4.2-1.8,8.6-2.9,13.1-3.2
	c7-0.3,14.5-0.7,18-1.2l-7,31.9c0,0-6.9,1.7-12.4-2.2c0,0,10.5-5.2,12.1-10.9c1.6-5.7,3.2-14.8,3.2-14.8l-17.5,3.2
	c0.4-0.9,1-1.8,1.5-2.7c0,0-9.8,2.7-13.2,12.2c-3.7,10,2.9,19.2,11.1,22.1c6.6,2.4,17,1.7,25.4-9.4C61,89.5,58.8,90.1,56.7,90.5
	L56.7,90.5z M80.9,86.9c0,0-4.3,1.6-3.8-0.9c0.4-2.6,1.8-8.3,2.1-11s-0.8-4.4-3-4.8c-2.3-0.5-2.9,0.6-4.2,2.4
	c-0.6,1-2.4,1.6-1.9,2.2c0,0,1.1,1,0.4,4c-0.7,3.4-1.6,8.9-1.9,10.4c-0.3,1.4,0.2,5.5,5.7,3.5C77.2,91.7,79.6,89.6,80.9,86.9
	L80.9,86.9z M83.2,62.5c-2.4-1.4-6-3-6-3c-2,1.2-3.9,2.6-5.5,4.3c1.3,0.6,5.3,3.1,5.3,3.1L83.2,62.5z M108,65.6
	c-1.5-0.2-1.9,1-7.2-0.6c-0.7-0.2-1.4-0.2-2,0c-1,0.5-7.9,3.3-10.6,8.6c-2.4,4.9-1.4,10.8,2.6,14.5l-6.1,5.6c0,0,3.6,4.8,12.2,2
	s7.7-11.7,8-13.6c0.3-1.8,2.3-11,3.7-13.5C110.1,65.9,109.6,65.7,108,65.6L108,65.6z M132.7,58.9c-1.2-0.7-6.8-2.3-12.6,1.8
	c-5.9,4.1-6.2,11.4-5.9,15.5s3.4,7.2,9.5,5.4c3.5-0.9,6.4-3.3,8-6.5c-5.2,2.4-7.9,2.6-9.6,1.2c-1.7-1.4-0.3-4.6-0.3-4.6l13.5-3.1
	C137.1,61.3,133.9,59.6,132.7,58.9L132.7,58.9z M172,53.3c0,0-2.2-0.2-4.5-0.3c-1.9,0.1-3.8-0.1-5.6-0.7c-1.5-0.6-1.9-1-2.8-0.4
	s-6.7,4.7-7.8,4.9c0,0-2.6-2.7-5.8-2.4c-0.8,0.9-1.7,1.7-2.7,2.5c-0.7,0.4-1.2,1-1.4,1.8c0,0,1.3,0.8,0.7,3.2
	c-0.6,2.3-1.5,7-1.9,9.1c-0.3,2-0.3,4.8,2.9,5.8s8-0.4,14.4-8.9c-1.6,0.6-3.3,1.1-5.1,1.4c-1.1,0-2.6-0.4-2.3-2.2
	c0.3-1.9,1.2-6.4,1.2-6.4s0-1,1.5-2c1.5-1,2.3-2.1,4.6-1.4c2.3,0.8,6.4,2.6,8.6,1S171.5,54.6,172,53.3L172,53.3z M100.6,71.4
	c-0.8,0-2.9-1.2-4-0.4c-1.1,1-2,2.2-2.5,3.6c-0.6,1.7-0.7,5.3,2.1,6.5c2,0.7,1.3-2.3,1.9-3.8c0.6-1.6,1.6-3.1,2.9-4.2
	C102,72.3,101.4,71.4,100.6,71.4L100.6,71.4z"/>
</svg>
