<?xml version="1.0" encoding="UTF-8"?>
<svg width="40px" height="40px" viewBox="0 0 40 40" version="1.1" xmlns="http://www.w3.org/2000/svg" xmlns:xlink="http://www.w3.org/1999/xlink">
    <!-- Generator: Sketch 63.1 (92452) - https://sketch.com -->
    <title>icon-search</title>
    <desc>Created with Sketch.</desc>
    <g id="icon-search" stroke="none" stroke-width="1" fill="none" fill-rule="evenodd">
        <path d="M39.3892858,36.5186359 L29.5857092,26.7658124 C34.7428512,20.1647843 34.1999941,10.76058 28.2738047,4.83773973 C25.1523766,1.71807579 20.9904726,0 16.55714,0 C12.1238074,0 7.96190339,1.71807579 4.84047536,4.83773973 C1.71904732,7.95740367 0,12.1169556 0,16.5477826 C0,20.9786097 1.71904732,25.1381616 4.84047536,28.2578255 C7.96190339,31.3774895 12.1238074,33.0955653 16.55714,33.0955653 C20.2214251,33.0955653 23.8404721,31.8748272 26.7357097,29.5689887 L36.4940482,39.4122372 C36.901191,39.8191499 37.39881,40 37.941667,40 C38.4845241,40 38.982143,39.7739374 39.3892858,39.4122372 C40.2035714,38.6436244 40.2035714,37.3324613 39.3892858,36.5186359 Z M29.0428522,16.5477826 C29.0428522,19.8935092 27.7309476,23.0131731 25.3785671,25.3642242 C23.0261865,27.7152753 19.8595204,29.0264384 16.55714,29.0264384 C13.2547596,29.0264384 10.0880935,27.7152753 7.73571296,25.3642242 C5.38333241,23.0131731 4.07142787,19.8482967 4.07142787,16.5477826 C4.07142787,13.2020561 5.38333241,10.0823922 7.73571296,7.73134107 C10.0880935,5.38028998 13.2547596,4.06912688 16.55714,4.06912688 C19.9047585,4.06912688 23.0261865,5.38028998 25.3785671,7.73134107 C27.7309476,10.0823922 29.0428522,13.2020561 29.0428522,16.5477826 Z" id="Shape" fill="#222222" fill-rule="nonzero"></path>
    </g>
</svg>