<?xml version="1.0" standalone="no"?>
<!DOCTYPE svg PUBLIC "-//W3C//DTD SVG 1.1//EN" "http://www.w3.org/Graphics/SVG/1.1/DTD/svg11.dtd" >
<svg xmlns="http://www.w3.org/2000/svg" xmlns:xlink="http://www.w3.org/1999/xlink" version="1.1">
<metadata>
Created by FontForge 20170924 at Mon Oct 15 06:49:08 2018
 By www-data
</metadata>
<defs>
<font id="social" horiz-adv-x="1024" >
  <font-face 
    font-family="social"
    font-weight="400"
    font-stretch="normal"
    units-per-em="1024"
    panose-1="0 0 0 0 0 0 0 0 0 0"
    ascent="960"
    descent="-64"
    bbox="0 -14 1024 888"
    underline-thickness="0"
    underline-position="0"
    unicode-range="U+0001-FFFD"
  />
<missing-glyph 
 />
    <glyph glyph-name=".notdef" unicode="&#xfffd;" 
 />
    <glyph glyph-name="glyph1" horiz-adv-x="0" 
d="M0 0v0v0v0z" />
    <glyph glyph-name="glyph1" horiz-adv-x="0" 
d="M0 0v0v0v0z" />
    <glyph glyph-name="uni0001" horiz-adv-x="0" 
d="M0 0v0v0v0z" />
    <glyph glyph-name="space" unicode=" " horiz-adv-x="512" 
d="M0 0v0v0v0z" />
    <glyph glyph-name="uniE901" unicode="&#xe901;" 
d="M358 234l-213 214l-73 -72l286 -286l615 614l-72 72z" />
    <glyph glyph-name="uniE903" unicode="&#xe903;" 
d="M132 104l724 724l37 -37l-724 -724zM169 828l724 -724l-37 -37l-724 724l37 37v0z" />
    <glyph glyph-name="uniE904" unicode="&#xe904;" 
d="M117 147l57 59q44 45 76.5 78t72.5 75q14 13 26.5 26t15.5 17q4 4 7 6.5t4 2.5l20.5 -19.5t47.5 -47.5q28 -27 48 -47t20 -19q1 0 21 19.5t47 46.5l66 66l257 -263q1 0 -30 0q-31 -1 -84.5 -1h-125.5h-153h-153q-72 0 -125.5 0.5t-84.5 0.5t-30 0v0v0zM935 181
q-10 11 -20.5 22t-21.5 22q-29 30 -58.5 59.5t-58.5 59.5q-23 24 -45.5 47t-45.5 46q-2 2 -3 3.5t-1 2.5t39 40.5t94 94.5l133 133v-271v-190.5v-79.5q-3 2 -6 5l-6 6v0v0zM77 442v269l132 -132q55 -55 94 -94.5t38 -39.5q0 -1 -17 -18.5t-63 -64.5q-23 -24 -79 -81t-82 -83
l-23 -25v269v0v0zM308 546l-203 204h814l-203 -204q-51 -51 -102 -101.5t-102 -101.5l-16 16t-44 43.5t-65 64.5l-79 79v0z" />
    <glyph glyph-name="uniE905" unicode="&#xe905;" 
d="M512 387l456 291l-1 -459q0 -16 -10 -26.5t-26 -10.5h-837q-16 0 -27 10.5t-11 26.5v459l456 -291v0zM102 714h820l-410 -256l-410 256v0z" />
    <glyph glyph-name="uniE906" unicode="&#xe906;" 
d="M707 325l218 -217l-73 -73l-217 218l72 72v0zM476 131q-73 0 -138 28q-64 28 -112 75.5t-75 112.5q-28 64 -28 137t28 138q27 64 75 112t112 75q65 28 138 28t137 -28q65 -27 112.5 -75t75.5 -112q28 -65 28 -138t-28 -137q-28 -65 -75.5 -112.5t-112.5 -75.5
q-64 -28 -137 -28zM476 233q52 0 97 20q46 20 80 54t54 80q20 45 20 97t-20 98q-20 45 -54 79t-80 54q-45 20 -97 20t-98 -20q-45 -20 -79 -54t-54 -79q-20 -46 -20 -98t20 -97q20 -46 54 -80t79 -54q46 -20 98 -20z" />
    <glyph glyph-name="uniE907" unicode="&#xe907;" 
d="M365 415l280 -168l-34 -55l-279 167zM328 540l285 158l31 -57l-285 -158l-31 57v0zM729 24q-58 0 -99 41t-41 99q0 59 41 100t99 41t99 -41t41 -100q0 -58 -41 -99t-99 -41zM729 93q30 0 50.5 21t20.5 50q0 30 -20.5 51t-50.5 21t-50.5 -21t-20.5 -51q0 -29 20.5 -50
t50.5 -21zM253 305q-58 0 -99 41t-41 99t41 99t99 41t99 -41t41 -99t-41 -99t-99 -41v0zM253 374q29 0 50 20.5t21 50.5t-21 50.5t-50 20.5q-30 0 -51 -20.5t-21 -50.5t21 -50.5t51 -20.5v0zM729 573q-58 0 -99 41t-41 99t41 99.5t99 41.5t99 -41.5t41 -99.5t-41 -99
t-99 -41zM729 642q30 0 50.5 21t20.5 50q0 30 -20.5 51t-50.5 21t-50.5 -21t-20.5 -51q0 -29 20.5 -50t50.5 -21z" />
    <glyph glyph-name="uniE908" unicode="&#xe908;" 
d="M175 827q-17 0 -29.5 -12.5t-12.5 -29.5v-674q0 -17 12.5 -29.5t29.5 -12.5h363v294h-99v114h99v84q0 74 40.5 112.5t106.5 38.5q31 0 55.5 -1.5t32.5 -2.5v-102h-60q-36 0 -46.5 -15.5t-10.5 -40.5v-73h113l-15 -114h-98v-294h193q17 0 29.5 12.5t12.5 29.5v674
q0 17 -12.5 29.5t-29.5 12.5h-674v0z" />
    <glyph glyph-name="uniE909" unicode="&#xe909;" 
d="M430 38h145v410h108l21 128h-129v92q0 23 12.5 42.5t32.5 19.5h73v128h-90q-105 -5 -137.5 -59t-34.5 -121l-1 -102h-72v-128h72v-410v0z" />
    <glyph glyph-name="uniE90A" unicode="&#xe90a;" 
d="M326 383h185q-6 -36 -47 -88.5t-138 -52.5q-42 0 -78 16q-37 17 -64.5 44.5t-43.5 65.5q-16 37 -16 80t16 80t43.5 65t63.5 45q37 16 79 16q47 0 79.5 -16.5t50.5 -34.5l88 86q-42 39 -97 62t-121 23q-68 0 -127 -26t-103.5 -70t-69.5 -103q-26 -60 -26 -127
q0 -68 26 -127q25 -59 69.5 -103.5t103.5 -69.5q59 -26 127 -26q70 0 128 24q58 23 99 65.5t63 100.5q23 59 23 129q0 16 -1.5 28.5t-4.5 24.5h-307v-111v0zM1024 494h-93v94h-93v-94h-93v-93h93v-93h93v93h93v93v0z" />
    <glyph glyph-name="uniE90B" unicode="&#xe90b;" 
d="M124 655q0 36 13.5 69.5t39.5 58.5q25 26 58.5 39.5t69.5 13.5h414q36 0 69.5 -13.5t58.5 -39.5q26 -25 39.5 -58.5t13.5 -69.5v-414q0 -36 -13.5 -69.5t-39.5 -58.5q-25 -26 -58.5 -39.5t-69.5 -13.5h-414q-36 0 -69.5 13.5t-58.5 39.5q-26 25 -39.5 58.5t-13.5 69.5
v414v0zM512 189q54 0 101 20q47 21 82 56t56 82q20 47 20 101t-20 101q-21 47 -56 82t-82 56q-47 20 -101 20t-101 -20q-47 -21 -82 -56t-56 -82q-20 -47 -20 -101t20 -101q21 -47 56 -82t82 -56q47 -20 101 -20v0zM797 655q21 0 36.5 15t15.5 37q0 21 -15.5 36.5
t-36.5 15.5q-22 0 -37 -15.5t-15 -36.5q0 -22 15 -37t37 -15zM693 448q0 -75 -53 -128t-128 -53t-128 53t-53 128t53 128t128 53t128 -53t53 -128z" />
    <glyph glyph-name="uniE90C" unicode="&#xe90c;" 
d="M512 858q83 0 109.5 -0.5t59.5 -2.5q33 -1 56.5 -6t42.5 -13q21 -8 38.5 -19t34.5 -28t28 -34.5t19 -38.5q8 -19 13 -42.5t6 -56.5q2 -33 2.5 -59.5t0.5 -109.5t-0.5 -109.5t-2.5 -59.5q-1 -33 -6 -56.5t-13 -42.5q-8 -21 -19 -38.5t-28 -34.5t-34.5 -28t-38.5 -19
q-19 -8 -42.5 -13t-56.5 -6q-33 -2 -59.5 -2.5t-109.5 -0.5t-109.5 0.5t-59.5 2.5q-33 1 -56.5 6t-42.5 13q-21 8 -38.5 19t-34.5 28t-28 34.5t-19 38.5q-8 19 -13 42.5t-6 56.5q-2 33 -2.5 59.5t-0.5 109.5t0.5 109.5t2.5 59.5q1 33 6 56.5t13 42.5q8 21 19 38.5t28 34.5
t34.5 28t38.5 19q19 8 42.5 13t56.5 6q33 2 59.5 2.5t109.5 0.5zM512 781q-81 0 -106.5 -0.5t-57.5 -2.5q-30 -1 -47.5 -5t-27.5 -9q-15 -5 -25.5 -12t-21.5 -18t-18 -21.5t-12 -25.5q-5 -10 -9 -27.5t-5 -47.5q-2 -32 -2.5 -57.5t-0.5 -106.5t0.5 -106.5t2.5 -57.5
q1 -30 5 -47.5t9 -27.5q5 -15 12 -25.5t18 -21.5t21.5 -18t25.5 -12q10 -5 27.5 -9t47.5 -5q32 -2 57.5 -2.5t106.5 -0.5t106.5 0.5t57.5 2.5q30 1 47.5 5t27.5 9q15 5 25.5 12t21.5 18t18 21.5t12 25.5q5 10 9 27.5t5 47.5q2 32 2.5 57.5t0.5 106.5t-0.5 106.5t-2.5 57.5
q-1 30 -5 47.5t-9 27.5q-5 15 -12 25.5t-18 21.5t-21.5 18t-25.5 12q-10 5 -27.5 9t-47.5 5q-32 2 -57.5 2.5t-106.5 0.5zM512 653q42 0 80 -16q37 -16 65 -44t44 -65q16 -38 16 -80t-16 -80q-16 -37 -44 -65t-65 -44q-38 -16 -80 -16t-80 16q-37 16 -65 44t-44 65
q-16 38 -16 80t16 80q16 37 44 65t65 44q38 16 80 16zM512 320q53 0 90.5 37.5t37.5 90.5t-37.5 90.5t-90.5 37.5t-90.5 -37.5t-37.5 -90.5t37.5 -90.5t90.5 -37.5zM778 663q0 -21 -15 -36t-36 -15t-36 15t-15 36t15 36t36 15t36 -15t15 -36z" />
    <glyph glyph-name="uniE90D" unicode="&#xe90d;" 
d="M512 857q95 0 179 -28q84 -29 146.5 -78t98.5 -115q37 -67 37 -142t-37 -141q-36 -66 -98.5 -115.5t-146.5 -77.5q-84 -29 -179 -29q-21 0 -41.5 1.5t-40.5 4.5q-10 -7 -39 -28q-30 -21 -62.5 -43t-60.5 -40q-27 -17 -32 -18l-4 -1t-7 2q-4 2 -4.5 6.5l-0.5 4.5
q2 7 22 77.5t25 88.5q-48 25 -88 57q-40 33 -68.5 72.5t-43.5 84.5q-16 46 -16 94q0 75 37 142q36 66 98.5 115t146.5 78q84 28 179 28v0zM257 367q11 0 19 7.5t8 18.5v158h41q11 0 18.5 7.5t7.5 18.5q0 10 -7.5 18t-18.5 8h-136q-10 0 -18 -8t-8 -18q0 -11 7.5 -18.5
t18.5 -7.5h42v-158q0 -11 7.5 -18.5t18.5 -7.5v0zM490 368v0v0q5 0 9 1l8 2q6 3 9.5 11t-2.5 27l-64 167q-3 10 -12.5 18t-22.5 9q-13 -1 -22.5 -9t-13.5 -18l-63 -167q-6 -19 -3 -27t9 -11l8 -2t9 -1q8 0 14 3t8 8l13 35h81l13 -35q2 -5 8 -8t14 -3v0zM441 461h-53l27 75
l26 -75v0zM556 371h86q10 0 17.5 7.5t7.5 17.5t-7.5 17t-17.5 7h-57v156q0 11 -8 19t-19 8t-19 -8t-8 -19v-180q0 -10 7.5 -17.5t17.5 -7.5v0zM704 368q11 0 19 7.5t8 18.5v58l9 10l62 -83q4 -5 9.5 -8t11.5 -3q5 0 9 1.5t7 4.5q5 3 7.5 7.5t3.5 9.5q0 5 -1 10.5t-5 9.5
l-65 87l61 60q3 3 4.5 7.5t0.5 8.5q0 5 -2 9.5t-5 7.5q-4 4 -9 6t-10 2q-4 0 -7.5 -1.5t-6.5 -4.5l-74 -74v57q0 11 -8 19t-19 8t-19 -8t-8 -19v-182q0 -11 8 -18.5t19 -7.5v0z" />
    <glyph glyph-name="uniE90E" unicode="&#xe90e;" 
d="M968 486q0 -61 -24 -117t-74 -111q-36 -41 -90 -84q-53 -44 -106.5 -81.5t-98.5 -64.5t-63 -34q-36 -16 -38.5 0t-0.5 24q0 6 3 23l3 17q0 8 0.5 20t-2.5 21q-4 10 -16.5 15t-23.5 7q-82 11 -152 44q-69 33 -120 81.5t-80 109.5q-29 62 -29 130q0 77 36 144t98 117
t145 79q83 30 177 30t177 -30q83 -29 145 -79t98 -117t36 -144v0zM419 585h-32q-4 0 -6.5 -3t-2.5 -6v-198q0 -4 3 -6.5t6 -2.5h32q4 0 6.5 3t2.5 6v198q0 3 -2.5 6t-6.5 3zM639 585h-32q-4 0 -6.5 -3t-2.5 -6v-118l-90 123l-1 1v0.5t-1 0.5v0h-1v0h-1v0h-1v0h-1v0v0h-0.5
h-0.5h-0.5h-0.5v0h-1h-32q-4 0 -6.5 -2.5t-2.5 -6.5v-198q0 -4 2.5 -6t6.5 -2h32q4 0 6.5 2.5t2.5 5.5v119l90 -123l1.5 -1.5l1.5 -1.5h37q4 0 6 3t2 6v198q2 3 -0.5 6t-6.5 3v0zM343 418h-87v158q0 4 -2.5 6.5t-6.5 2.5h-32q-4 0 -6.5 -3t-2.5 -6v-198q0 -2 1 -3.5t2 -2.5
t2.5 -2t3.5 -1h128q4 0 6 3t2 6v32q0 3 -2 5.5t-6 2.5v0zM816 535q4 0 6.5 3t2.5 6v32q0 4 -3 6.5t-6 2.5h-128q-2 0 -3 -0.5t-3 -2.5q-1 -1 -1.5 -2.5t-0.5 -3.5v-198q0 -2 0.5 -3.5t1.5 -2.5q2 -1 3 -2t3 -1h128q4 0 6.5 3t2.5 6v32q0 4 -3 6.5t-6 2.5h-87v32h87
q4 0 6.5 3t2.5 6v32q0 4 -3 6.5t-6 2.5h-87v33h87v1v0z" />
    <glyph glyph-name="uniE90F" unicode="&#xe90f;" 
d="M915 46h-167v262q0 46 -11 94t-76 48t-82.5 -42.5t-17.5 -95.5v-266h-167v538h160v-74h3q16 32 56.5 59.5t101.5 27.5q63 0 103 -19q39 -20 60.5 -54.5t29.5 -81.5q7 -47 7 -101v-295v0v0zM206 657q-41 0 -69 28.5t-28 68.5q0 41 28 69t69 28q40 0 68.5 -28t28.5 -69
q0 -40 -28.5 -68.5t-68.5 -28.5v0zM122 46h167v538h-167v-538v0z" />
    <glyph glyph-name="uniE910" unicode="&#xe910;" 
d="M512 888q-91 0 -171 -34q-81 -35 -140.5 -94.5t-94.5 -140.5q-34 -80 -34 -171q0 -70 20 -134q21 -64 58 -117t89 -94q51 -41 113 -65q-3 26 -4.5 62t5.5 64q3 13 12 49q8 36 17 73.5t16 67.5l7 29l-6.5 18t-6.5 48q0 45 23 75.5t56 30.5q28 0 42 -18t14 -44
q0 -28 -13.5 -67.5t-23.5 -78.5q-7 -33 13 -56.5t53 -23.5q58 0 98 56.5t40 145.5q0 79 -51.5 129t-132.5 50q-94 0 -146.5 -59t-52.5 -132q0 -28 9.5 -56t23.5 -45q3 -3 3.5 -6t-0.5 -6q-2 -11 -6.5 -28.5t-5.5 -21.5q-2 -6 -5.5 -7.5t-9.5 1.5q-41 19 -65 70.5t-24 100.5
q0 52 19 100q18 48 55 85t91 59t126 22q57 0 107 -19q49 -20 85.5 -54t57.5 -80q21 -47 21 -101q0 -57 -17 -107t-47.5 -87t-72.5 -59q-41 -21 -91 -21q-34 0 -62 15t-39 35l-12 -44.5t-16 -59.5q-7 -29 -24 -61.5t-30 -54.5q31 -9 63.5 -14t66.5 -5q91 0 171 34
q81 35 140.5 94.5t94.5 140.5q34 80 34 171t-34 171q-35 81 -94.5 140.5t-140.5 94.5q-80 34 -171 34v0z" />
    <glyph glyph-name="uniE911" unicode="&#xe911;" 
d="M347 67q126 0 223 47q97 48 163 122.5t100 167.5t34 183v12t-1 12q27 19 50 43t41 51q-25 -11 -51 -18t-54 -10q29 17 50 43t31 58q-27 -16 -56.5 -27.5t-59.5 -17.5q-43 46 -104 56t-116 -20q-55 -29 -80.5 -85.5t-11.5 -116.5q-55 2 -108 17q-52 14 -100.5 38.5
t-90.5 58.5q-43 34 -77 77q-37 -63 -20.5 -133.5t76.5 -110.5q-22 0 -43 6t-40 17v-3q0 -65 41.5 -115.5t105.5 -63.5q-20 -5 -41 -6t-42 3q18 -56 65 -91t106 -36q-48 -38 -106.5 -58t-120.5 -20q-11 0 -22 0.5t-21 1.5q62 -40 133.5 -61t146.5 -21v0z" />
    <glyph glyph-name="uniE912" unicode="&#xe912;" 
d="M884 63q-21 9 -40 20t-39 13q-19 2 -40 -5.5t-41 -9.5q-63 -7 -119 11t-103 61q-44 41 -63 90q-19 50 -14 100t33 96q29 46 80 80q45 30 99 40t106.5 2t99.5 -33q48 -25 80 -67q28 -36 40 -76q12 -41 9 -81.5t-22 -78.5q-18 -38 -53 -68q-19 -18 -25 -34.5t6 -39.5
q3 -4 3.5 -9.5t2.5 -10.5v0v0zM575 361q13 0 22.5 9t9.5 22q1 14 -8.5 23.5t-22.5 9.5q-14 0 -23.5 -9.5t-9.5 -23.5q1 -13 10 -21.5t22 -9.5zM774 425q-12 0 -21.5 -9t-10.5 -21q0 -14 9 -23.5t23 -9.5q13 0 22 8.5t9 21.5q1 14 -8.5 23.5t-22.5 9.5v0v0zM691 596
q-64 -3 -119.5 -24t-100.5 -65q-46 -44 -66.5 -99t-14.5 -122q-25 3 -48.5 6t-46.5 5q-8 1 -16.5 -0.5t-15.5 -5.5q-22 -12 -44 -26.5t-48 -29.5q5 21 8.5 39.5t9.5 36.5q3 13 0.5 21.5t-14.5 16.5q-38 27 -65 61q-27 33 -42 70.5t-17 78.5q-1 41 11 83q22 77 75 125.5
t128 73.5q52 16 105 17q53 0 102 -14.5t92 -43.5q43 -28 74 -69q23 -29 36.5 -62.5t16.5 -72.5v0zM298 631q0 15 -11 27t-27 13q-16 0 -28 -11t-12 -26q-1 -17 10 -28t27 -12q17 0 28.5 10.5t12.5 26.5zM503 671q-16 -1 -27.5 -12.5t-10.5 -26.5q0 -16 11.5 -27t27.5 -11
q17 0 27.5 11.5t10.5 27.5t-11.5 27t-27.5 11v0z" />
    <glyph glyph-name="uniE913" unicode="&#xe913;" 
d="M963 639q3 -38 -5 -75t-33 -39q-42 -3 -34 30.5t8 61.5q2 78 -54 127.5t-122 49.5q-19 0 -50 -1.5t-24 37.5q3 17 16 20t27 5q56 8 104 -6q47 -14 83 -44t58 -73q22 -42 26 -93v0v0zM721 518q47 -26 92 -52t35 -103q-2 -19 -12 -41t-21 -38q-40 -56 -116 -95
q-76 -38 -166 -53.5t-184 -4.5q-93 11 -169 54q-51 29 -93.5 75.5t-34.5 130.5q7 72 48.5 129t89.5 104q46 46 96 79.5t116 50.5q71 17 93.5 -28.5t3.5 -103.5q41 2 112 25.5t110 -20.5q16 -20 13 -51t-13 -58v0zM652 274q15 17 28 42.5t12 56.5q0 47 -27 80t-68.5 52.5
t-92.5 26.5q-50 7 -97 3q-52 -4 -89.5 -15.5t-73.5 -32.5q-30 -17 -59.5 -45.5t-37.5 -71.5q-10 -47 8 -82t51 -59t75 -36q42 -13 80 -15q44 -3 87 2q43 6 81.5 19t69.5 32q32 19 53 43v0zM838 639q4 -29 -4 -50.5t-24 -22.5q-28 -2 -26 15.5t0 42.5q-1 15 -11.5 30.5
t-21.5 20.5q-22 10 -48 5t-26 25q0 23 15 25.5t26 2.5q48 4 81 -24.5t39 -69.5v0v0zM539 386q21 -62 -13 -105q-34 -42 -87 -58.5t-107 -2.5t-73 67q-26 70 22 120.5t113 56.5q56 6 94.5 -18t50.5 -60v0v0zM409 358q9 -15 23.5 -8.5t12.5 18.5q-2 14 -19 11.5t-17 -21.5z
M363 271q36 9 36 53t-53 31q-46 -10 -39 -52.5t56 -31.5v0z" />
    <glyph glyph-name="uniE914" unicode="&#xe914;" 
d="M466 755q-11 0 -21.5 -3t-19.5 -9q-20 -14 -33 -49.5t-26 -66.5q-15 -33 -28.5 -65.5t-28.5 -56.5q-19 22 -36 55q-17 34 -34.5 68.5t-36.5 65.5t-43 49q-15 12 -42.5 11.5t-42.5 -11.5q-40 -30 -17 -76t39 -74q36 -62 73.5 -126.5t67.5 -121.5q-10 -26 -33 -70
q-23 -45 -33.5 -87t4.5 -71q15 -30 81 -26q32 21 49.5 60t35.5 78q18 40 34 78l34 76l34 76q17 39 36 80q15 35 41 81t18 85q-4 22 -25.5 36t-46.5 14v0v0zM895 713q-19 0 -36.5 -9t-25.5 -27q-14 -16 -29 -30.5t-31 -28.5q-8 -10 -16.5 -18.5t-17.5 -16.5
q-12 -11 -22 -23.5t-25 -20.5v123q-1 49 -63 49t-63 -49v-348q4 -19 14 -32t30 -15h38q19 3 30 15t14 32v75q0 20 -0.5 42t12.5 2q19 -19 44.5 -39t49.5 -42q23 -22 46 -49.5t48 -32.5q50 -11 70.5 25.5t1.5 71.5q-20 37 -65 64.5t-70 60.5q17 38 78.5 71t53.5 99
q-3 26 -22.5 38.5t-43.5 12.5v0v0z" />
    <glyph glyph-name="uniE915" unicode="&#xe915;" 
d="M949 626l4 -45t4 -99v-68q0 -54 -4 -99l-4 -45l-8 -34t-28 -54q-25 -27 -50.5 -31.5t-38.5 -6.5q-47 -3 -101 -5q-55 -2 -102 -3t-78 -1h-31h-37q-38 1 -88 2l-100 2q-51 2 -78 5q-15 2 -44 6.5t-54 31.5q-20 20 -28 54l-8 34l-4 45t-4 99v68q0 54 4 99l4 45l8 34t28 55
q25 26 50.5 31t38.5 6q47 4 101 6q55 1 101.5 2t78.5 1h31v0h31q32 0 78.5 -1t101.5 -2q54 -2 101 -6q13 -1 38.5 -6t50.5 -31q20 -21 28 -55l8 -34v0zM420 332l241 125l-241 126v-251v0z" />
  </font>
</defs>
</svg>
