<?xml version="1.0" encoding="utf-8"?>
<!-- Generator: Adobe Illustrator 24.1.3, SVG Export Plug-In . SVG Version: 6.00 Build 0)  -->
<svg version="1.1" id="レイヤー_1" xmlns="http://www.w3.org/2000/svg" xmlns:xlink="http://www.w3.org/1999/xlink" x="0px"
	 y="0px" viewBox="0 0 284 60" style="enable-background:new 0 0 284 60;" xml:space="preserve">
<style type="text/css">
	.st0{fill:#FFFFFF;}
</style>
<rect class="st0" width="284" height="60"/>
<g>
	<path d="M65,37.1c-0.1,0-0.2-0.1-0.2-0.2l-3-10.6h0l-3,10.6c0,0.1-0.1,0.2-0.2,0.2h-1.2c-0.1,0-0.2-0.1-0.2-0.2l-3.4-13.9
		c0-0.1,0-0.2,0.2-0.2h1.4c0.2,0,0.2,0.1,0.2,0.2L58,33.7h0l3-10.6c0-0.1,0.1-0.2,0.2-0.2h1.1c0.2,0,0.2,0.1,0.2,0.2l3,10.6h0
		l2.5-10.6c0-0.1,0.1-0.2,0.3-0.2h1.4c0.2,0,0.2,0.1,0.2,0.2l-3.4,13.9c0,0.1-0.1,0.2-0.2,0.2C66.2,37.1,65,37.1,65,37.1z"/>
	<path d="M74.9,23.1c0-0.1,0.1-0.2,0.2-0.2h1.4c0.2,0,0.2,0.1,0.3,0.2l4.9,13.9c0,0.1,0,0.2-0.2,0.2H80c-0.2,0-0.2-0.1-0.3-0.2
		l-1.1-3.1h-5.8l-1.1,3.1c-0.1,0.2-0.2,0.2-0.3,0.2h-1.5c-0.1,0-0.2-0.1-0.2-0.2L74.9,23.1z M78.1,32.1l-2.2-6.5h0l-2.3,6.5H78.1z"
		/>
	<path d="M85.6,37.1c-0.1,0-0.2-0.1-0.2-0.2V24.7c0-0.1,0-0.1-0.1-0.1h-3.9c-0.1,0-0.2-0.1-0.2-0.2v-1.3c0-0.1,0.1-0.2,0.2-0.2h9.9
		c0.1,0,0.2,0.1,0.2,0.2v1.3c0,0.1-0.1,0.2-0.2,0.2h-3.9c-0.1,0-0.1,0-0.1,0.1v12.2c0,0.1-0.1,0.2-0.2,0.2H85.6z"/>
	<path d="M93.2,30c0-2.4,0.1-3.2,0.4-4c0.7-2.2,2.4-3.4,4.8-3.4c2.1,0,3.8,1,4.6,2.9c0,0.1,0,0.2-0.1,0.3l-1.3,0.6
		c-0.1,0.1-0.2,0-0.3-0.1c-0.6-1.1-1.4-1.9-2.9-1.9c-1.6,0-2.5,0.8-3,2.1c-0.2,0.6-0.3,1.3-0.3,3.5s0.1,2.9,0.3,3.5
		c0.5,1.3,1.4,2.1,3,2.1c1.5,0,2.4-0.8,2.9-1.9c0-0.1,0.2-0.2,0.3-0.1l1.3,0.6c0.1,0.1,0.1,0.2,0.1,0.3c-0.8,1.8-2.5,2.9-4.6,2.9
		c-2.3,0-4-1.1-4.8-3.4C93.3,33.2,93.2,32.4,93.2,30z"/>
	<path d="M105.4,23.1c0-0.1,0.1-0.2,0.2-0.2h1.4c0.1,0,0.2,0.1,0.2,0.2v5.9c0,0.1,0,0.1,0.1,0.1h6.2c0.1,0,0.1,0,0.1-0.1v-5.9
		c0-0.1,0.1-0.2,0.2-0.2h1.4c0.1,0,0.2,0.1,0.2,0.2v13.9c0,0.1-0.1,0.2-0.2,0.2h-1.4c-0.1,0-0.2-0.1-0.2-0.2v-6c0-0.1,0-0.1-0.1-0.1
		h-6.2c-0.1,0-0.1,0-0.1,0.1v6c0,0.1-0.1,0.2-0.2,0.2h-1.4c-0.1,0-0.2-0.1-0.2-0.2V23.1z"/>
	<path d="M127.3,37.1c-0.1,0-0.2-0.1-0.2-0.2V24.7c0-0.1,0-0.1-0.1-0.1h-3.9c-0.1,0-0.2-0.1-0.2-0.2v-1.3c0-0.1,0.1-0.2,0.2-0.2h9.9
		c0.1,0,0.2,0.1,0.2,0.2v1.3c0,0.1-0.1,0.2-0.2,0.2h-3.9c-0.1,0-0.1,0-0.1,0.1v12.2c0,0.1-0.1,0.2-0.2,0.2H127.3z"/>
	<path d="M135.5,23.1c0-0.1,0.1-0.2,0.2-0.2h1.4c0.1,0,0.2,0.1,0.2,0.2v5.9c0,0.1,0,0.1,0.1,0.1h6.2c0.1,0,0.1,0,0.1-0.1v-5.9
		c0-0.1,0.1-0.2,0.2-0.2h1.4c0.1,0,0.2,0.1,0.2,0.2v13.9c0,0.1-0.1,0.2-0.2,0.2H144c-0.1,0-0.2-0.1-0.2-0.2v-6c0-0.1,0-0.1-0.1-0.1
		h-6.2c-0.1,0-0.1,0-0.1,0.1v6c0,0.1-0.1,0.2-0.2,0.2h-1.4c-0.1,0-0.2-0.1-0.2-0.2V23.1z"/>
	<path d="M149,23.1c0-0.1,0.1-0.2,0.2-0.2h8.6c0.1,0,0.2,0.1,0.2,0.2v1.3c0,0.1-0.1,0.2-0.2,0.2H151c-0.1,0-0.1,0-0.1,0.1v4.2
		c0,0.1,0,0.1,0.1,0.1h5.8c0.1,0,0.2,0.1,0.2,0.2v1.3c0,0.1-0.1,0.2-0.2,0.2H151c-0.1,0-0.1,0-0.1,0.1v4.3c0,0.1,0,0.1,0.1,0.1h6.8
		c0.1,0,0.2,0.1,0.2,0.2v1.3c0,0.1-0.1,0.2-0.2,0.2h-8.6c-0.1,0-0.2-0.1-0.2-0.2V23.1z"/>
	<path d="M165.9,23.1c0-0.1,0.1-0.2,0.2-0.2h1.4c0.2,0,0.3,0.1,0.3,0.2l4.3,9.6h0.1l4.2-9.6c0.1-0.1,0.2-0.2,0.3-0.2h1.4
		c0.1,0,0.2,0.1,0.2,0.2v13.9c0,0.1-0.1,0.2-0.2,0.2h-1.3c-0.1,0-0.2-0.1-0.2-0.2V27h-0.1l-3.6,7.8c-0.1,0.2-0.2,0.2-0.4,0.2h-0.8
		c-0.2,0-0.3-0.1-0.4-0.2l-3.6-7.8h-0.1v9.9c0,0.1-0.1,0.2-0.2,0.2h-1.3c-0.1,0-0.2-0.1-0.2-0.2L165.9,23.1L165.9,23.1z"/>
	<path d="M181.5,34c-0.3-0.8-0.4-1.7-0.4-4s0.1-3.2,0.4-4c0.7-2.2,2.5-3.3,4.9-3.3c2.4,0,4.1,1.1,4.9,3.3c0.3,0.8,0.4,1.7,0.4,4
		s-0.1,3.2-0.4,4c-0.7,2.2-2.5,3.3-4.9,3.3C183.9,37.4,182.2,36.2,181.5,34z M189.4,33.5c0.2-0.5,0.3-1.5,0.3-3.5s-0.1-3-0.3-3.5
		c-0.4-1.4-1.4-2.1-3-2.1c-1.6,0-2.6,0.8-3,2.1c-0.2,0.5-0.3,1.5-0.3,3.5s0.1,3,0.3,3.5c0.4,1.4,1.4,2.1,3,2.1
		C187.9,35.6,188.9,34.9,189.4,33.5z"/>
	<path d="M197.9,37.1c-0.1,0-0.2-0.1-0.2-0.2L193,23.1c-0.1-0.2,0-0.2,0.1-0.2h1.4c0.2,0,0.2,0.1,0.3,0.2l3.6,11h0l3.5-11
		c0-0.1,0.1-0.2,0.3-0.2h1.4c0.1,0,0.2,0.1,0.1,0.2l-4.6,13.8c0,0.1-0.1,0.2-0.2,0.2H197.9z"/>
	<path d="M206.3,23.1c0-0.1,0.1-0.2,0.2-0.2h1.4c0.1,0,0.2,0.1,0.2,0.2v13.9c0,0.1-0.1,0.2-0.2,0.2h-1.4c-0.1,0-0.2-0.1-0.2-0.2
		V23.1z"/>
	<path d="M211.4,23.1c0-0.1,0.1-0.2,0.2-0.2h8.6c0.1,0,0.2,0.1,0.2,0.2v1.3c0,0.1-0.1,0.2-0.2,0.2h-6.8c-0.1,0-0.1,0-0.1,0.1v4.2
		c0,0.1,0,0.1,0.1,0.1h5.8c0.1,0,0.2,0.1,0.2,0.2v1.3c0,0.1-0.1,0.2-0.2,0.2h-5.8c-0.1,0-0.1,0-0.1,0.1v4.3c0,0.1,0,0.1,0.1,0.1h6.8
		c0.1,0,0.2,0.1,0.2,0.2v1.3c0,0.1-0.1,0.2-0.2,0.2h-8.6c-0.1,0-0.2-0.1-0.2-0.2V23.1z"/>
</g>
<g>
	<path d="M253.2,19.9c-5.5,0-10,4.5-10,10v0c0,5.5,4.5,10,10,10s10-4.5,10-10v0C263.2,24.3,258.7,19.9,253.2,19.9z M250.9,34v-7.8
		l6.7,3.9L250.9,34z"/>
</g>
</svg>
