<svg id="Logo" xmlns="http://www.w3.org/2000/svg" viewBox="0 0 793.541 500.595"><defs><style>.cls-1{fill:#fff;}</style></defs><path class="cls-1" d="M399.918,95.617l11.952,3.718c10.359,3.187,12.749,4.781,12.749,8.765,0,3.187-2.922,4.515-7.171,4.515-6.109,0-10.89-2.656-18.592-9.03H380.264v26.56h19.654v-9.3A38.921,38.921,0,0,0,427.541,132c19.92,0,34-11.686,34-28.419,0-13.015-7.968-22.045-21.514-26.826l-20.717-7.437c-2.656-1.062-3.984-2.921-3.984-4.781,0-3.187,3.453-4.78,8.234-4.78,5.843,0,10.358,2.921,13.014,8.764h19.655V41.965H437.634v9.3c-5.844-6.905-15.937-11.155-26.561-11.155-18.061,0-31.606,12.483-31.606,28.951C379.467,81.009,387.169,91.633,399.918,95.617Z"/><path class="cls-1" d="M470.568,68.525v37.716c0,15.67,10.624,25.763,27.357,25.763,13.28,0,22.842-6.374,30.279-20.451v18.592h41.965V111.553a6.273,6.273,0,0,1-6.64-6.64V41.965H518.377V60.557q7.968,0,7.968,7.968V94.82a9.3,9.3,0,0,1-18.592,0V41.965H462.6V60.557Q470.568,60.557,470.568,68.525Z"/><path class="cls-1" d="M629.664,111.553a6.273,6.273,0,0,1-6.64-6.64V91.1l27.623,39.043h33.731V111.553c-2.656,0-5.577-2.39-7.968-5.578L657.552,80.743l11.687-11.155c5.578-5.312,10.89-9.031,13.811-9.031V41.965H633.383V60.557h14.873L623.024,83.665V0H579.2V18.592a6.273,6.273,0,0,1,6.64,6.64v79.681a6.273,6.273,0,0,1-6.64,6.64v18.592h50.464Z"/><path class="cls-1" d="M785.573,103.565V78.6c0-23.9-19.124-38.513-49.137-38.513a105.7,105.7,0,0,0-39.309,7.7l5.047,20.451c9.03-3.453,17-5.312,24.169-5.312,12.484,0,22.045,4.781,22.045,14.608V81.52c-7.436-4.515-14.608-6.374-23.638-6.374-20.717,0-36.122,11.686-36.122,28.419,0,17.264,14.608,28.42,36.122,28.42,18.061,0,27.622-5.844,31.872-17.8v15.936h36.919V111.533Q785.573,111.533,785.573,103.565Zm-44.887,7.171H735.64a8.5,8.5,0,1,1,0-17h5.046a8.5,8.5,0,0,1,0,17Z"/><path class="cls-1" d="M309.613,111.553q-7.968,0-7.968-7.968V41.965H256.493V60.557q7.968,0,7.968,7.968v35.06q0,7.968-7.968,7.968v18.592h53.12Z"/><path class="cls-1" d="M64.9,133.864c37.123,0,64.9-26.739,64.9-65.679,0-38.421-27.777-65.679-64.9-65.679C28.037,2.506,0,29.764,0,68.185,0,106.865,27.777,133.864,64.9,133.864ZM51.92,40.407c0-7.788,5.192-12.98,12.98-12.98s12.98,5.192,12.98,12.98V95.962c0,7.788-5.192,12.98-12.98,12.98s-12.98-5.192-12.98-12.98Z"/><path class="cls-1" d="M192.748,111.553q-7.968,0-7.968-7.968V77.29a9.3,9.3,0,0,1,18.592,0v52.855h45.153V111.553q-7.968,0-7.968-7.968V65.869c0-15.67-10.624-25.763-27.357-25.763-13.281,0-22.842,6.374-30.279,20.451V41.965H139.628V60.557q7.968,0,7.968,7.968v35.06q0,7.968-7.968,7.968v18.592h53.12Z"/><path class="cls-1" d="M320.769,130.145h52.589V111.553h-2.125c-9.3,0-13.28-3.984-13.28-13.28V61.62h15.67V41.965h-15.67V12.483H321.831v17.8c0,7.968-3.718,11.686-11.687,11.686V60.557h10.625Z"/><rect class="cls-1" x="264.461" y="3.187" width="37.184" height="29.216"/><path class="cls-1" d="M153.929,282.17c-27.4,52.317-.265,66.775-.265,66.775,23.874-11.752,26.385-70.565,26.385-70.565Z"/><path class="cls-1" d="M372.534,351.653c1.549,4.073,15.122,11.865,24.07,5.351,11.314-8.472-2.51-23.741-2.51-23.741Z"/><path class="cls-1" d="M406.234,290.386c-3.2,0-11.463-4.618-15.873-1.426-4.4,3.322-8.54,10.172-10.036,14.317-2.5,6.507-2.715,20.9,8.479,25.516,7.8,2.978,5.29-8.834,7.469-15.076,2.639-7.046,6.982-13.164,11.452-16.69C411.728,293.975,409.425,290.386,406.234,290.386Z"/><path class="cls-1" d="M494.405,262.7c-4.74,12.605-1.5,17.366-1.5,17.366s10.787-.809,17.846-3.393c0,0,4.476-9.567,1.689-19.951C509.327,245.456,499.494,249.537,494.405,262.7Z"/><path class="cls-1" d="M3.753,143.574V388.916A64.834,64.834,0,0,0,68.7,453.765H304.164c7.1,0,37.715,2,94.483,46.83,56.767-44.825,87.387-46.832,94.483-46.83H728.588a64.889,64.889,0,0,0,64.953-64.849V143.574ZM257.505,359.525c-33.51,43.89-74.335,46.881-100.65,37.3-32.415-11.656-58.536-48.093-43.887-87.918,13.706-37.331,52.291-48.384,52.291-48.384a86.28,86.28,0,0,0-6.1,11.053L228.611,258.9s-6.708,35.754-12.884,58.421c-6.316,22.72-47.683,43.351-47.683,43.351,21.835,15.605,49.174,8.894,49.174,8.894l27.6-126.687c-13.569,1.965-43.269,3.388-71.073,4.684-27.13,1.153-51.888,12.881-51.888,12.881,8.885-44.438,46.12-49.921,92.444-51.63a438.662,438.662,0,0,0,89.653-12.8C292.03,234.2,257.839,241.39,257.839,241.39L232.28,366.306A175.858,175.858,0,0,0,257.505,359.525Zm44.827,15.528c-21.775,7.811-23.607-8.271-22.463-14.108,1.1-5.827,4.692-27.542,7.336-40.986,2.719-12.143-1.694-16.013-1.694-16.013-2.248-2.3,4.819-4.874,7.331-8.612,5.278-7.2,7.657-11.463,16.746-9.842,8.95,1.693,13.63,8.483,12.071,19.134-1.558,10.791-6.775,33.451-8.479,43.634-1.832,10.172,15.061,3.658,15.061,3.658A47.323,47.323,0,0,1,302.332,375.053Zm10.437-102.6s-15.934-9.751-21.018-12.131c0,0,10.041-10.652,21.905-16.966,0,0,13.979,6.314,23.541,11.876Zm125.077,6.806c-5.5,10.172-13.163,46.533-14.517,53.727-1.356,7.326,2.1,42.814-31.821,53.949-33.9,11.056-48.273-8.094-48.273-8.094l24.064-22.1c-13.83-11.8-20.608-36.517-10.165-57.608,10.575-21.167,37.709-32.231,41.838-34a11.261,11.261,0,0,1,8.082,0C428,271.58,429.5,266.5,435.6,267.242,441.849,267.79,443.538,268.8,437.846,279.261Zm105.726.264-53.445,11.937s-5.42,12.96,1.359,18.454c6.977,5.713,17.3,4.893,38.063-4.822,0,0-7.889,18.8-31.747,25.865-24.085,7.118-36.22-5.1-37.592-21.44-1.346-16.425,0-45.194,23.133-61.479,22.991-16.288,44.831-9.982,49.722-7.057C538.009,243.771,550.564,250.542,543.572,279.525Zm121.2-40.992c-8.537,6.111-24.756-.872-33.9-3.862-9.161-3.059-12.233,1.235-18.263,5.422-5.9,4.075-5.75,8.068-5.75,8.068s-3.535,17.788-4.82,25.122c-1.155,7.4,4.608,8.684,9.139,8.684,4.691,0,20.08-5.362,20.08-5.362-25.29,33.724-44.146,39.085-56.757,35.215-12.605-4-12.756-15.057-11.463-23.064,1.351-8.289,5.02-26.732,7.328-36.106,2.5-9.292-2.71-12.68-2.71-12.68.132-1.912,2.507-5.095,5.476-7.061,3.058-2.109,10.665-9.761,10.665-9.761,12.534-1.173,22.911,9.346,22.911,9.346,4.47-.742,27.207-16.892,30.93-19.264,3.667-2.373,5.092-1.083,11.059,1.288s13.372,2.786,22.176,3.119c8.819.064,17.7,1.1,17.7,1.1C686.81,223.616,673.332,232.158,664.771,238.533Z"/></svg>