<svg xmlns="http://www.w3.org/2000/svg" viewBox="0 0 18.24 18.24"><path d="M12.91 18.24H5.33A5.33 5.33 0 0 1 0 12.91V5.33A5.33 5.33 0 0 1 5.33 0h7.58a5.33 5.33 0 0 1 5.33 5.33v7.58a5.33 5.33 0 0 1-5.33 5.33zM5.33 1.7A3.64 3.64 0 0 0 1.7 5.33v7.58a3.64 3.64 0 0 0 3.63 3.63h7.58a3.64 3.64 0 0 0 3.63-3.63V5.33a3.64 3.64 0 0 0-3.63-3.63z" fill="#040000"/><path d="M15.13 4.26A1.14 1.14 0 1 1 14 3.12a1.14 1.14 0 0 1 1.13 1.14zm-6.01 9.57a4.72 4.72 0 1 1 4.71-4.71 4.71 4.71 0 0 1-4.71 4.71zm0-7.73a3 3 0 1 0 3 3 3 3 0 0 0-3-3z" fill="#040000"/></svg>