<svg xmlns="http://www.w3.org/2000/svg" viewBox="0 0 17.55 14.26"><path d="M17.55 1.69a7.12 7.12 0 0 1-2.07.56 3.58 3.58 0 0 0 1.59-2 7.31 7.31 0 0 1-2.29.88A3.6 3.6 0 0 0 8.55 3.6a3.68 3.68 0 0 0 .09.82A10.22 10.22 0 0 1 1.22.66a3.58 3.58 0 0 0 1.12 4.8A3.58 3.58 0 0 1 .71 5a3.61 3.61 0 0 0 2.88 3.59 3.68 3.68 0 0 1-.94.13A3.73 3.73 0 0 1 2 8.65a3.61 3.61 0 0 0 3.36 2.5 7.18 7.18 0 0 1-4.5 1.54 8.12 8.12 0 0 1-.86 0 10.2 10.2 0 0 0 5.52 1.61A10.17 10.17 0 0 0 15.76 4v-.45a7.36 7.36 0 0 0 1.79-1.86z" fill="#040000"/></svg>