<?xml version="1.0" encoding="UTF-8"?>
<svg width="40px" height="40px" viewBox="0 0 40 40" version="1.1" xmlns="http://www.w3.org/2000/svg" xmlns:xlink="http://www.w3.org/1999/xlink">
    <!-- Generator: Sketch 63.1 (92452) - https://sketch.com -->
    <title>icon-Store</title>
    <desc>Created with Sketch.</desc>
    <g id="icon-Store" stroke="none" stroke-width="1" fill="none" fill-rule="evenodd">
        <path d="M6.46096957,19.6789714 C6.98454426,19.6709502 7.41128707,20.094747 7.40377618,20.6153847 L7.40377618,20.6153847 L7.40377618,34.1538462 L15.4490592,34.1538462 L15.4490592,24.6153847 C15.4491104,24.1056045 15.8646953,23.6923588 16.3773611,23.6923078 L16.3773611,23.6923078 L24.4226441,23.6923078 C24.9353098,23.6923587 25.3508947,24.1056045 25.350946,24.6153847 L25.350946,24.6153847 L25.350946,34.1538462 L33.396229,34.1538462 L33.396229,20.6153847 C33.3784822,19.3670939 35.2705796,19.3670939 35.2529568,20.6153847 L35.2529568,20.6153847 L35.2529568,35.0769231 C35.2529568,35.5867033 34.8371967,36 34.3245309,36 L34.3245309,36 L6.47547429,36 C5.96280853,36 5.54707491,35.5867033 5.54707491,35.0769231 L5.54707491,35.0769231 L5.54707491,20.6153847 C5.53982452,20.1060452 5.94875681,19.6870436 6.46096957,19.6789714 Z M23.4943425,25.5384616 L17.3056633,25.5384616 L17.3056633,34.1538462 L23.4943425,34.1538462 L23.4943425,25.5384616 Z M33.0843777,4 C34.4242332,4 35.5848806,4.96321267 35.8245605,6.27403844 L35.8245605,6.27403844 L36.2222315,8.45072113 C36.2909764,8.77917951 36.175106,9.11886795 35.9195875,9.33795913 C35.6640691,9.55705031 35.3091303,9.62105152 34.992517,9.50512497 C34.6759036,9.38919842 34.4474618,9.11159507 34.3958459,8.78004805 L34.3958459,8.78004805 L33.9981749,6.60456733 C33.9168388,6.15973453 33.5390608,5.84615386 33.0843777,5.84615386 L33.0843777,5.84615386 L7.71562744,5.84615386 C7.26094208,5.84615386 6.88316675,6.1597344 6.80183027,6.60456733 L6.80183027,6.60456733 L5.85660618,11.7752403 L5.85660618,14.6454326 C5.85660569,15.8022724 6.70590846,16.8130784 7.81232549,16.9134615 C9.13777547,17.033718 10.1886817,16.0468612 10.1886817,14.7692307 C10.1958576,14.2645181 10.6093633,13.8591118 11.1169835,13.8591118 C11.6246038,13.8591118 12.0381095,14.2645181 12.0452854,14.7692307 C12.0452854,15.9784287 12.9952807,16.9230768 14.2113232,16.9230768 C15.4273656,16.9230768 16.3773609,15.9784287 16.3773609,14.7692307 C16.3845368,14.2645181 16.7980426,13.8591118 17.3056628,13.8591118 C17.813283,13.8591118 18.2267888,14.2645181 18.2339647,14.7692307 C18.2339647,15.9784287 19.1839599,16.9230768 20.4000024,16.9230768 C21.6160449,16.9230768 22.5660401,15.9784287 22.5660401,14.7692307 C22.573216,14.2645181 22.9867218,13.8591118 23.494342,13.8591118 C24.0019623,13.8591118 24.415468,14.2645181 24.4226439,14.7692307 C24.4226439,15.9784287 25.3726392,16.9230768 26.5886817,16.9230768 C27.8047241,16.9230768 28.7547194,15.9784287 28.7547194,14.7692307 C28.7618953,14.2645181 29.1754011,13.8591118 29.6830213,13.8591118 C30.1906415,13.8591118 30.6041473,14.2645181 30.6113232,14.7692307 C30.6113232,16.0468617 31.6622293,17.0337179 32.9876793,16.9134615 C34.0940993,16.8130783 34.9433986,15.8022729 34.9433986,14.6454326 L34.9433986,14.6454326 L34.9433986,12.6153846 L8.02264392,12.6153846 C7.68786596,12.6200909 7.37647298,12.4451901 7.20770278,12.1576545 C7.03893259,11.870119 7.03893259,11.5144964 7.20770278,11.2269608 C7.37647298,10.9394253 7.68786596,10.7645244 8.02264392,10.7692307 L8.02264392,10.7692307 L35.8717005,10.7692307 C36.3843663,10.7692817 36.8000024,11.1825275 36.8000024,11.6923077 L36.8000024,11.6923077 L36.8000024,14.6454326 C36.8000024,16.7065652 35.2720769,18.5603886 33.1556922,18.7524037 C31.7406145,18.880792 30.5071286,18.2164845 29.6938998,17.2043268 C28.955581,18.1327264 27.8643214,18.7692307 26.5886817,18.7692307 C25.3198903,18.7692307 24.2329994,18.1398348 23.494342,17.2199519 C22.7556847,18.1398348 21.6687938,18.7692307 20.4000024,18.7692307 C19.131211,18.7692307 18.0443201,18.1398348 17.3056628,17.2199519 C16.5670054,18.1398348 15.4801145,18.7692307 14.2113232,18.7692307 C12.9356834,18.7692307 11.8444238,18.1327264 11.106105,17.2043268 C10.2928759,18.2164844 9.05939028,18.880792 7.64431256,18.7524037 C5.5279297,18.5603885 4,16.7065657 4,14.6454326 L4,14.6454326 L4,11.6923077 C4,11.637099 4.00473034,11.5819903 4.01450712,11.5276442 L4.01450712,11.5276442 L4.97544464,6.27403846 C5.21512538,4.96321391 6.37577071,4 7.71562744,4 L7.71562744,4 Z" id="Combined-Shape" fill="#303030" fill-rule="nonzero"></path>
    </g>
</svg>