<?xml version="1.0" encoding="UTF-8"?>
<svg width="40px" height="40px" viewBox="0 0 40 40" version="1.1" xmlns="http://www.w3.org/2000/svg" xmlns:xlink="http://www.w3.org/1999/xlink">
    <!-- Generator: Sketch 63.1 (92452) - https://sketch.com -->
    <title>icon-homeD</title>
    <desc>Created with Sketch.</desc>
    <g id="icon-homeD" stroke="none" stroke-width="1" fill="none" fill-rule="evenodd">
        <path d="M25.3519341,8 C25.9018676,8 26.286821,8.43817609 26.286821,8.9311242 L26.286821,8.9311242 L26.286821,10.0265644 L32.0611227,10.4099685 C33.2709764,10.5195125 34.31585,11.4506367 34.4808301,12.655621 L34.4808301,12.655621 L35.6906838,16.8182939 L37.5054643,17.311242 C38.5503379,17.585102 39.3202448,18.4614542 39.4302315,19.5568944 L39.4302315,19.5568944 L39.980165,24.5411475 C40.0351584,24.8697795 39.980165,25.1984116 39.7601916,25.4722717 C39.4302315,25.9104478 38.715318,26.1843078 37.8354244,26.1843078 L37.8354244,26.1843078 L35.3057303,26.1843078 C35.5806971,26.6224839 35.7456771,27.115432 35.8556638,27.6083801 L35.8556638,27.6083801 L35.8824765,27.7989763 C36.099729,29.7021984 34.8001463,31.507794 32.8310296,31.825825 C32.6110562,31.880597 32.4460761,31.880597 32.2261027,31.880597 C30.5763023,31.880597 29.0914818,30.7303848 28.651535,29.1419964 L28.651535,29.1419964 L12.593477,29.1419964 C12.2085236,30.5112967 11.1086566,31.606737 9.62383614,31.825825 C9.40386275,31.880597 9.2388827,31.880597 9.0189093,31.880597 C8.24900241,31.880597 7.53408887,31.606737 6.87416867,31.1685609 C6.10426178,30.5660687 5.55432829,29.7444886 5.38934824,28.7585924 C5.22436819,27.7726962 5.44434159,26.896344 5.93928173,26.1295358 L5.93928173,26.1295358 L3.24460761,26.1295358 C2.69467412,26.1295358 2.30972067,25.6913597 2.30972067,25.1984116 C2.30972067,24.6506915 2.74966747,24.2672874 3.24460761,24.2672874 L3.24460761,24.2672874 L24.4170471,24.2672874 L24.4170471,9.86224839 L9.40386275,9.86224839 C8.85392925,9.86224839 8.46897581,9.47884431 8.46897581,8.9311242 C8.46897581,8.38340408 8.85392925,8 9.40386275,8 L9.40386275,8 Z M9.07390265,26.2938518 L8.74394255,26.2938518 C8.24900241,26.4033959 7.80905561,26.6772559 7.53408887,27.06066 C7.25912212,27.4440641 7.14913542,27.9370122 7.20412877,28.4299603 C7.31411547,28.9229084 7.58908222,29.3610845 7.97403566,29.6349445 C8.35898911,29.9088046 8.85392925,30.0183486 9.3488694,29.9635766 C9.84380954,29.8540326 10.2837563,29.5801725 10.5587231,29.1967685 C10.8886832,28.7585924 10.9986699,28.2656443 10.9436765,27.8274682 L10.9436765,27.8274682 L10.8948055,27.645394 C10.7632296,27.2275435 10.5106039,26.8621115 10.1737696,26.6224839 C9.84380954,26.4033959 9.4588561,26.2938518 9.07390265,26.2938518 L9.07390265,26.2938518 Z M32.2810961,26.2390798 L31.951136,26.2390798 C30.9062624,26.4033959 30.2463422,27.3345201 30.4113222,28.3751883 C30.5763023,29.4158565 31.5111892,30.0731206 32.5560628,29.9088046 C33.5459431,29.7444886 34.2608567,28.8133644 34.15087,27.7726962 C33.9858899,26.896344 33.1609897,26.2390798 32.2810961,26.2390798 L32.2810961,26.2390798 Z M29.1464752,26.0747638 L12.1535302,26.0747638 C12.3735036,26.4033959 12.5384837,26.7867999 12.6484704,27.224976 L12.6484704,27.224976 L28.5965417,27.224976 C28.7065284,26.841572 28.8715084,26.4581679 29.1464752,26.0747638 L29.1464752,26.0747638 Z M26.286821,11.8340408 L26.286821,24.2672874 L38.1653845,24.2672874 L37.6704443,19.7759825 C37.615451,19.4473504 37.3954776,19.1734903 37.0655175,19.0639463 L37.0655175,19.0639463 L34.7557968,18.4066822 C34.4258367,18.3519102 34.2058633,18.1328221 34.0958766,17.8041901 L34.0958766,17.8041901 L32.7210429,13.0937971 C32.6660495,13.0390251 32.6660495,12.984253 32.6660495,12.929481 C32.6110562,12.546077 32.2810961,12.2174449 31.8961426,12.2174449 L31.8961426,12.2174449 L26.286821,11.8340408 Z M12.8134504,18.4066822 C13.3633839,18.4066822 13.7483373,18.8448583 13.7483373,19.3378064 C13.7483373,19.8855265 13.3083906,20.2689306 12.8134504,20.2689306 L12.8134504,20.2689306 L0.93488694,20.2689306 C0.384953446,20.2689306 0,19.8855265 0,19.3378064 C0,18.7900863 0.439946795,18.4066822 0.93488694,18.4066822 L0.93488694,18.4066822 Z M14.8482043,13.4224291 C15.3981378,13.4224291 15.7830913,13.8058332 15.7830913,14.3535533 C15.7830913,14.9012734 15.3431445,15.2846775 14.8482043,15.2846775 L14.8482043,15.2846775 L5.16937484,15.2846775 C4.61944135,15.2846775 4.2344879,14.8465014 4.2344879,14.3535533 C4.2344879,13.8058332 4.61944135,13.4224291 5.16937484,13.4224291 L5.16937484,13.4224291 Z" id="Combined-Shape" fill="#303030" fill-rule="nonzero"></path>
    </g>
</svg>