<?xml version="1.0" encoding="UTF-8"?>
<svg width="40px" height="40px" viewBox="0 0 40 40" version="1.1" xmlns="http://www.w3.org/2000/svg" xmlns:xlink="http://www.w3.org/1999/xlink">
    <!-- Generator: Sketch 63.1 (92452) - https://sketch.com -->
    <title>icon-pin</title>
    <desc>Created with Sketch.</desc>
    <g id="icon-pin" stroke="none" stroke-width="1" fill="none" fill-rule="evenodd">
        <path d="M19.4545455,0 C28.040404,0 35.010101,6.96969697 35.010101,15.4545455 C35.010101,24.3434343 25.9191919,34.7474747 19.4545455,40 C13.0909091,34.7474747 4,24.3434343 4,15.4545455 C4,6.96969697 10.969697,0 19.4545455,0 Z M19.4545455,2.72727273 C12.4848485,2.72727273 6.72727273,8.48484848 6.72727273,15.4545455 C6.72727273,22.6262626 14.4040404,32.020202 19.4545455,36.4646465 C24.6060606,32.020202 32.2828283,22.6262626 32.2828283,15.4545455 C32.2828283,8.48484848 26.5252525,2.72727273 19.4545455,2.72727273 Z M19.4545455,8.88888889 C23.0909091,8.88888889 26.1212121,11.9191919 26.1212121,15.4545455 C26.1212121,19.0909091 23.0909091,22.1212121 19.4545455,22.1212121 C15.9191919,22.1212121 12.8888889,19.0909091 12.8888889,15.4545455 C12.8888889,11.9191919 15.9191919,8.88888889 19.4545455,8.88888889 Z M19.4545455,11.6161616 C17.3333333,11.6161616 15.6161616,13.3333333 15.6161616,15.4545455 C15.6161616,17.6767677 17.3333333,19.2929293 19.4545455,19.2929293 C21.6767677,19.2929293 23.2929293,17.6767677 23.2929293,15.4545455 C23.2929293,13.3333333 21.6767677,11.6161616 19.4545455,11.6161616 Z" id="Combined-Shape" fill="#003c8e" fill-rule="nonzero"></path>
    </g>
</svg>