<?xml version="1.0" encoding="utf-8"?>
<!-- Generator: Adobe Illustrator 25.1.0, SVG Export Plug-In . SVG Version: 6.00 Build 0)  -->
<svg version="1.1" id="レイヤー_1" xmlns="http://www.w3.org/2000/svg" xmlns:xlink="http://www.w3.org/1999/xlink" x="0px"
	 y="0px" viewBox="0 0 28.8 24" style="enable-background:new 0 0 28.8 24;" xml:space="preserve">
<path d="M28.8,2.8c-1.1,0.5-2.2,0.8-3.4,1c1.2-0.8,2.1-2,2.6-3.4c-1.2,0.7-2.4,1.2-3.8,1.5C23.1,0.7,21.6,0,20,0c-3.3,0-6,2.7-6,6
	v0.1c0,0.5,0.1,0.9,0.1,1.4C9.4,7.2,5,4.9,2,1.1C1.5,2,1.2,3.1,1.2,4.2c0,2,1,3.9,2.6,5c-0.9,0-1.9-0.3-2.7-0.8v0.1
	c-0.1,2.9,1.9,5.4,4.8,6c-0.9,0.2-1.8,0.3-2.7,0.1c0.7,2.4,3,4.1,5.5,4.2c-2.1,1.7-4.7,2.6-7.3,2.6c-0.5,0-0.9,0-1.4-0.1
	C2.7,23.1,5.8,24,9.1,24C20,24,25.9,14.8,25.9,6.8c0-0.3,0-0.5,0-0.8C27.1,5.1,28,4,28.8,2.8z"/>
</svg>
