<?xml version="1.0" encoding="utf-8"?>
<!-- Generator: Adobe Illustrator 25.1.0, SVG Export Plug-In . SVG Version: 6.00 Build 0)  -->
<svg version="1.1" id="Logo" xmlns="http://www.w3.org/2000/svg" xmlns:xlink="http://www.w3.org/1999/xlink" x="0px" y="0px"
	 viewBox="0 0 793.5 500.6" style="enable-background:new 0 0 793.5 500.6;" xml:space="preserve">
<path d="M399.9,95.6l12,3.7c10.4,3.2,12.7,4.8,12.7,8.8c0,3.2-2.9,4.5-7.2,4.5c-6.1,0-10.9-2.7-18.6-9h-18.6v26.6h19.7v-9.3
	c7.4,7.2,17.3,11.2,27.6,11.2c19.9,0,34-11.7,34-28.4c0-13-8-22-21.5-26.8l-20.7-7.4c-2.7-1.1-4-2.9-4-4.8c0-3.2,3.5-4.8,8.2-4.8
	c5.8,0,10.4,2.9,13,8.8h19.7V42h-18.6v9.3c-5.8-6.9-15.9-11.2-26.6-11.2c-18.1,0-31.6,12.5-31.6,29C379.5,81,387.2,91.6,399.9,95.6z
	"/>
<path d="M470.6,68.5v37.7c0,15.7,10.6,25.8,27.4,25.8c13.3,0,22.8-6.4,30.3-20.5v18.6h42v-18.6c-3.5,0.2-6.4-2.4-6.6-5.9
	c0-0.3,0-0.5,0-0.8V42h-45.2v18.6c5.3,0,8,2.7,8,8v26.3c-0.2,5.1-4.4,9.2-9.6,9c-4.9-0.1-8.9-4.1-9-9V42h-45.2v18.6
	C467.9,60.6,470.6,63.2,470.6,68.5z"/>
<path d="M629.7,111.6c-3.5,0.2-6.4-2.4-6.6-5.9c0-0.3,0-0.5,0-0.8V91.1l27.6,39h33.7v-18.6c-2.7,0-5.6-2.4-8-5.6l-18.9-25.2
	l11.7-11.2c5.6-5.3,10.9-9,13.8-9V42h-49.7v18.6h14.9L623,83.7V0h-43.8v18.6c3.5-0.2,6.4,2.4,6.6,5.9c0,0.3,0,0.5,0,0.8v79.7
	c0.2,3.5-2.4,6.4-5.9,6.6c-0.3,0-0.5,0-0.8,0v18.6h50.5V111.6z"/>
<path d="M785.6,103.6v-25c0-23.9-19.1-38.5-49.1-38.5c-13.5,0-26.8,2.7-39.3,7.7l5,20.5c9-3.5,17-5.3,24.2-5.3
	c12.5,0,22,4.8,22,14.6v4c-7.4-4.5-14.6-6.4-23.6-6.4c-20.7,0-36.1,11.7-36.1,28.4c0,17.3,14.6,28.4,36.1,28.4
	c18.1,0,27.6-5.8,31.9-17.8v15.9h36.9v-18.6C788.2,111.5,785.6,108.9,785.6,103.6z M740.7,110.7h-5c-4.7,0-8.5-3.8-8.5-8.5
	s3.8-8.5,8.5-8.5h5c4.7,0,8.5,3.8,8.5,8.5S745.4,110.7,740.7,110.7L740.7,110.7z"/>
<path d="M309.6,111.6c-5.3,0-8-2.7-8-8V42h-45.2v18.6c5.3,0,8,2.7,8,8v35.1c0,5.3-2.7,8-8,8v18.6h53.1V111.6z"/>
<path d="M64.9,133.9c37.1,0,64.9-26.7,64.9-65.7c0-38.4-27.8-65.7-64.9-65.7C28,2.5,0,29.8,0,68.2C0,106.9,27.8,133.9,64.9,133.9z
	 M51.9,40.4c0-7.8,5.2-13,13-13s13,5.2,13,13V96c0,7.8-5.2,13-13,13s-13-5.2-13-13L51.9,40.4z"/>
<path d="M192.7,111.6c-5.3,0-8-2.7-8-8V77.3c0.2-5.1,4.4-9.2,9.6-9c4.9,0.1,8.9,4.1,9,9v52.9h45.2v-18.6c-5.3,0-8-2.7-8-8V65.9
	c0-15.7-10.6-25.8-27.4-25.8c-13.3,0-22.8,6.4-30.3,20.5V42h-43.3v18.6c5.3,0,8,2.7,8,8v35.1c0,5.3-2.7,8-8,8v18.6h53.1V111.6z"/>
<path d="M320.8,130.1h52.6v-18.6h-2.1c-9.3,0-13.3-4-13.3-13.3V61.6h15.7V42H358V12.5h-36.1v17.8c0,8-3.7,11.7-11.7,11.7v18.6h10.6
	L320.8,130.1z"/>
<rect x="264.5" y="3.2" width="37.2" height="29.2"/>
<path d="M153.9,282.2c-27.4,52.3-0.3,66.8-0.3,66.8c23.9-11.8,26.4-70.6,26.4-70.6L153.9,282.2z"/>
<path d="M372.5,351.7c1.5,4.1,15.1,11.9,24.1,5.4c11.3-8.5-2.5-23.7-2.5-23.7L372.5,351.7z"/>
<path d="M406.2,290.4c-3.2,0-11.5-4.6-15.9-1.4c-4.4,3.3-8.5,10.2-10,14.3c-2.5,6.5-2.7,20.9,8.5,25.5c7.8,3,5.3-8.8,7.5-15.1
	c2.6-7,7-13.2,11.5-16.7C411.7,294,409.4,290.4,406.2,290.4z"/>
<path d="M494.4,262.7c-4.7,12.6-1.5,17.4-1.5,17.4s10.8-0.8,17.8-3.4c0,0,4.5-9.6,1.7-20C509.3,245.5,499.5,249.5,494.4,262.7z"/>
<path d="M3.8,143.6v245.3c0,35.8,29,64.8,64.8,64.8c0,0,0.1,0,0.1,0h235.5c7.1,0,37.7,2,94.5,46.8c56.8-44.8,87.4-46.8,94.5-46.8
	h235.5c35.8,0,64.9-29,65-64.8c0,0,0,0,0,0V143.6H3.8z M257.5,359.5c-33.5,43.9-74.3,46.9-100.6,37.3
	c-32.4-11.7-58.5-48.1-43.9-87.9c13.7-37.3,52.3-48.4,52.3-48.4c-2.3,3.5-4.3,7.2-6.1,11.1l69.5-12.7c0,0-6.7,35.8-12.9,58.4
	c-6.3,22.7-47.7,43.4-47.7,43.4c21.8,15.6,49.2,8.9,49.2,8.9l27.6-126.7c-13.6,2-43.3,3.4-71.1,4.7c-27.1,1.2-51.9,12.9-51.9,12.9
	c8.9-44.4,46.1-49.9,92.4-51.6c30.2-1.2,60.3-5.5,89.7-12.8c-11.9,38.2-46.1,45.4-46.1,45.4l-25.6,124.9
	C240.8,364.7,249.3,362.4,257.5,359.5z M302.3,375.1c-21.8,7.8-23.6-8.3-22.5-14.1c1.1-5.8,4.7-27.5,7.3-41c2.7-12.1-1.7-16-1.7-16
	c-2.2-2.3,4.8-4.9,7.3-8.6c5.3-7.2,7.7-11.5,16.7-9.8c9,1.7,13.6,8.5,12.1,19.1c-1.6,10.8-6.8,33.5-8.5,43.6
	c-1.8,10.2,15.1,3.7,15.1,3.7C322.8,362.6,313.6,370.9,302.3,375.1L302.3,375.1z M312.8,272.5c0,0-15.9-9.8-21-12.1
	c0,0,10-10.7,21.9-17c0,0,14,6.3,23.5,11.9L312.8,272.5z M437.8,279.3c-5.5,10.2-13.2,46.5-14.5,53.7c-1.4,7.3,2.1,42.8-31.8,53.9
	c-33.9,11.1-48.3-8.1-48.3-8.1l24.1-22.1c-13.8-11.8-20.6-36.5-10.2-57.6c10.6-21.2,37.7-32.2,41.8-34c2.6-1,5.5-1,8.1,0
	c20.9,6.4,22.4,1.4,28.5,2.1C441.8,267.8,443.5,268.8,437.8,279.3L437.8,279.3z M543.6,279.5l-53.4,11.9c0,0-5.4,13,1.4,18.5
	c7,5.7,17.3,4.9,38.1-4.8c0,0-7.9,18.8-31.7,25.9c-24.1,7.1-36.2-5.1-37.6-21.4c-1.3-16.4,0-45.2,23.1-61.5
	c23-16.3,44.8-10,49.7-7.1C538,243.8,550.6,250.5,543.6,279.5L543.6,279.5z M664.8,238.5c-8.5,6.1-24.8-0.9-33.9-3.9
	c-9.2-3.1-12.2,1.2-18.3,5.4c-5.9,4.1-5.8,8.1-5.8,8.1s-3.5,17.8-4.8,25.1c-1.2,7.4,4.6,8.7,9.1,8.7c4.7,0,20.1-5.4,20.1-5.4
	c-25.3,33.7-44.1,39.1-56.8,35.2c-12.6-4-12.8-15.1-11.5-23.1c1.4-8.3,5-26.7,7.3-36.1c2.5-9.3-2.7-12.7-2.7-12.7
	c0.1-1.9,2.5-5.1,5.5-7.1c3.1-2.1,10.7-9.8,10.7-9.8c12.5-1.2,22.9,9.3,22.9,9.3c4.5-0.7,27.2-16.9,30.9-19.3
	c3.7-2.4,5.1-1.1,11.1,1.3s13.4,2.8,22.2,3.1c8.8,0.1,17.7,1.1,17.7,1.1C686.8,223.6,673.3,232.2,664.8,238.5L664.8,238.5z"/>
</svg>
