<svg xmlns="http://www.w3.org/2000/svg" viewBox="0 0 554 128.81"><defs><style>.cls-1{fill:#fff;}</style></defs><title>Asset 14</title><g id="Layer_2" data-name="Layer 2"><g id="レイヤー_1" data-name="レイヤー 1"><path class="cls-1" d="M89.44.21A34.59,34.59,0,0,1,99.78,1.77a18.73,18.73,0,0,1,7.87,4.45,8.6,8.6,0,0,1,2.85,6.05,8.63,8.63,0,0,1-2.77,6,18.43,18.43,0,0,1-7.8,4.45,34.19,34.19,0,0,1-10.49,1.6A34,34,0,0,1,79,22.73a18.45,18.45,0,0,1-7.79-4.45,8.56,8.56,0,0,1-2.78-6,8.64,8.64,0,0,1,2.82-6,18.38,18.38,0,0,1,7.86-4.45A34.67,34.67,0,0,1,89.44.21ZM84.87,7A8.58,8.58,0,0,0,81.2,9.27a4.69,4.69,0,0,0-1.33,3.15,4.63,4.63,0,0,0,1.3,3.11,8.59,8.59,0,0,0,3.66,2.32,14.79,14.79,0,0,0,9.77,0,8.43,8.43,0,0,0,3.65-2.32,4.66,4.66,0,0,0,1.29-3.11,4.69,4.69,0,0,0-1.33-3.15A8.74,8.74,0,0,0,94.53,7a14.47,14.47,0,0,0-9.66,0Z"/><path class="cls-1" d="M125.79.68l16.17,14V.68h8.74V23.81h-13L122.09,9.38V23.81h-8.87V.68Z"/><path class="cls-1" d="M164.21.68V23.81H153.42V.68Z"/><path class="cls-1" d="M166.94.68h36.44V7.57H190.46V23.81h-11V7.57H166.94Z"/><path class="cls-1" d="M230.38,5.21a5.77,5.77,0,0,0-2-.88,26.63,26.63,0,0,0-3.88-.45,19.09,19.09,0,0,0-3.52.43,3.41,3.41,0,0,0-1.56.83,1.69,1.69,0,0,0-.57,1.14,1.66,1.66,0,0,0,.55,1.11,3.58,3.58,0,0,0,1.54.84,7,7,0,0,0,2.12.29h3.2q4.22.13,6.21.28c1.33.11,2.36.21,3.09.31a12.15,12.15,0,0,1,2.85.89,10,10,0,0,1,2.73,1.58,6.13,6.13,0,0,1,1.53,2.16,4.31,4.31,0,0,1,.29,2.66,6.6,6.6,0,0,1-1.31,2.66A11.13,11.13,0,0,1,238,21.71a19.46,19.46,0,0,1-4.55,1.78,27.12,27.12,0,0,1-3.95.59c-1.32.1-3.34.14-6.08.14q-4.56-.28-6.9-.65a23.07,23.07,0,0,1-4-.95,12.88,12.88,0,0,1-3.23-1.71,13.29,13.29,0,0,1-2.34-2.09,3.41,3.41,0,0,1-.81-2.24H218a3.14,3.14,0,0,0,.82,1.42,4.8,4.8,0,0,0,1.47,1.12,5.7,5.7,0,0,0,1.87.49c.72.07,1.59.12,2.64.15a30.3,30.3,0,0,0,3.07-.59,3.53,3.53,0,0,0,1.55-.84,1.42,1.42,0,0,0,0-2.25,3.66,3.66,0,0,0-1.55-.86,6.44,6.44,0,0,0-2.06-.26,90.76,90.76,0,0,1-12.41-.89A11.71,11.71,0,0,1,208,11.85a4.36,4.36,0,0,1-1.9-3.34,5.7,5.7,0,0,1,1-3.28,9.34,9.34,0,0,1,3.79-2.82A24,24,0,0,1,218,.48,36.83,36.83,0,0,1,224.87,0a59,59,0,0,1,6.32.53A25.3,25.3,0,0,1,237.64,2a15.38,15.38,0,0,1,3.66,2.23,5.72,5.72,0,0,1,2.06,3.12H232.19A8.06,8.06,0,0,0,230.38,5.21Z"/><path class="cls-1" d="M246.08.68h10V13.89q0,4.14,7.61,4.16c4.14,0,6.72-.38,7.73-1.09A3.55,3.55,0,0,0,273,13.89V.68h10V13.82a8.36,8.36,0,0,1-1.18,4.46,8.93,8.93,0,0,1-3.47,3.14,19.06,19.06,0,0,1-5.61,1.82,43.14,43.14,0,0,1-7.62.6,50.43,50.43,0,0,1-8-.57,22.57,22.57,0,0,1-6-1.72,9.56,9.56,0,0,1-3.74-2.88,6.77,6.77,0,0,1-1.29-4.13Z"/><path class="cls-1" d="M317.8.68,305.56,12.2l12.93,11.61h-11.9l-10.35-9.07v9.07H285.68V.68h10.56V8.73l10.35-8Z"/><path class="cls-1" d="M333.77.68h13.91l12.63,23.13h-10L348,19.66H333.6l-2.29,4.15h-10.1Zm2.39,14.37h9.43l-4.78-8.37Z"/><path class="cls-1" d="M385.35.68h36.44V7.57H408.88V23.81h-11V7.57H385.35Z"/><path class="cls-1" d="M435.31.68V23.81H424.52V.68Z"/><path class="cls-1" d="M474.67,24l-1.8-3.25A13.65,13.65,0,0,1,470,22.22a30.28,30.28,0,0,1-3.56,1.14,37.78,37.78,0,0,1-3.84.76,27.13,27.13,0,0,1-3.67.27,49.45,49.45,0,0,1-8.08-.61,26.22,26.22,0,0,1-6.46-1.86A12.79,12.79,0,0,1,440,18.77a7.62,7.62,0,0,1-1.89-4.43,4.35,4.35,0,0,0,0-.49c0-.18,0-.35,0-.52a2.89,2.89,0,0,1,0-.5v-.52c0-.2,0-.4,0-.62s0-.43,0-.64v-.61a7.09,7.09,0,0,1,1.7-4.08,12.77,12.77,0,0,1,4.31-3.22A27.31,27.31,0,0,1,450.85,1a48.41,48.41,0,0,1,9.09-.77,51.73,51.73,0,0,1,7,.46,25.58,25.58,0,0,1,5.84,1.46,13.33,13.33,0,0,1,4.27,2.6,7.81,7.81,0,0,1,2.29,3.88v0a.81.81,0,0,1,.07.29,3.13,3.13,0,0,0,.05.36H466.7a1.43,1.43,0,0,1-.13-.38,1.25,1.25,0,0,0-.11-.29v.06a4.36,4.36,0,0,0-2.29-2.24,10.7,10.7,0,0,0-4.5-.8,15.7,15.7,0,0,0-6.32,1.19c-1.81.8-2.87,1.82-3.18,3.08a14.06,14.06,0,0,0-.48,2.35c0,.32,0,.74,0,1.25a2.71,2.71,0,0,0,.45,1.44,7.63,7.63,0,0,0,1.14,1.4,8.23,8.23,0,0,0,2.26,1.46,7.3,7.3,0,0,0,2.94.8q1.41.06,3.18.06c4.13.11,6.69-1,7.67-3.31H465V13.51H480c0,.55,0,1.17,0,1.85v1.71c0,.58.05,1.19.07,1.83s0,1.27,0,1.89,0,1.21,0,1.76V24Z"/><path class="cls-1" d="M514.2.68V6.13H492.91V9.57h18.91v4.87l-18.91,0V18l21.29,0v5.8H482.92V.68Z"/><path class="cls-1" d="M544.12.66q8.75.78,9.26,6.43-.6,5.49-8.48,6.14v.08q9.09.27,7.88,8.66a2.47,2.47,0,0,0,.91,1.84h-9.77c-2-.65-3-1.57-3.24-2.76s-.33-2.38-.42-3.54-.89-1.75-2.43-1.79h-11v8.09h-9.88V.66Zm-17.32,5v5h13.39c1.78,0,2.77-.79,3-2.36a3,3,0,0,0-3.09-2.62Z"/><path class="cls-1" d="M69.31,34.84,57.07,46.36,70,58H58.11L47.75,48.9V58H37.2V34.84H47.75v8l10.36-8Z"/><path class="cls-1" d="M83.52,34.84V58H72.73V34.84Z"/><path class="cls-1" d="M109.66,34.84q14.79.66,15.42,10.56Q125,58.24,105,58H86.24V34.84Zm-12.9,5.87,0,11.17h8.8q8.83.06,8.9-6.14,0-4.86-9.69-5Z"/><path class="cls-1" d="M152.08,39.37a5.77,5.77,0,0,0-2.05-.88,26.45,26.45,0,0,0-3.88-.45,19,19,0,0,0-3.51.43,3.36,3.36,0,0,0-1.56.83,1.75,1.75,0,0,0-.58,1.14,1.68,1.68,0,0,0,.56,1.11,3.54,3.54,0,0,0,1.53.84,7.08,7.08,0,0,0,2.13.29h3.2q4.2.13,6.21.28c1.33.11,2.36.21,3.08.31a12.34,12.34,0,0,1,2.86.89,10.05,10.05,0,0,1,2.72,1.58,6.15,6.15,0,0,1,1.54,2.16,4.31,4.31,0,0,1,.29,2.66,6.63,6.63,0,0,1-1.32,2.66,11.07,11.07,0,0,1-3.6,2.66,19.68,19.68,0,0,1-4.56,1.78,26.92,26.92,0,0,1-3.95.59c-1.31.1-3.34.14-6.07.14q-4.56-.29-6.91-.65a23.29,23.29,0,0,1-4-.95A12.82,12.82,0,0,1,131,55.07,13,13,0,0,1,128.61,53a3.46,3.46,0,0,1-.8-2.24h11.86a3.05,3.05,0,0,0,.82,1.42A4.57,4.57,0,0,0,142,53.28a5.63,5.63,0,0,0,1.87.49c.71.07,1.59.12,2.63.15a29.74,29.74,0,0,0,3.07-.59,3.48,3.48,0,0,0,1.55-.84,1.61,1.61,0,0,0,.56-1.12,1.63,1.63,0,0,0-.56-1.13,3.76,3.76,0,0,0-1.56-.86,6.44,6.44,0,0,0-2.06-.26,90.76,90.76,0,0,1-12.41-.89A11.75,11.75,0,0,1,129.7,46a4.38,4.38,0,0,1-1.89-3.34,5.69,5.69,0,0,1,1-3.28,9.34,9.34,0,0,1,3.79-2.82,24.22,24.22,0,0,1,7.11-1.93,36.92,36.92,0,0,1,6.85-.45,60.77,60.77,0,0,1,6.32.52,25.66,25.66,0,0,1,6.45,1.41A15.25,15.25,0,0,1,163,38.35a5.7,5.7,0,0,1,2.05,3.12H153.89A8.06,8.06,0,0,0,152.08,39.37Z"/><path class="cls-1" d="M210.17,34.5q17.91,0,20.87,9.72h-10.9c-.34-1.45-1.54-2.46-3.59-3a23.35,23.35,0,0,0-6.38-.88,14.25,14.25,0,0,0-6.07,1.35c-1.94.89-3,2.59-3.2,5.08a5,5,0,0,0,3.06,4.8A14.52,14.52,0,0,0,210.17,53a18.44,18.44,0,0,0,6.38-1.13,6.13,6.13,0,0,0,4-3.66H231q-2.68,10.08-20.81,10.08-19.74,0-20.59-11.45Q190.44,34.51,210.17,34.5Z"/><path class="cls-1" d="M254.78,34.37a34.64,34.64,0,0,1,10.34,1.56A18.63,18.63,0,0,1,273,40.38a8.6,8.6,0,0,1,2.85,6,8.59,8.59,0,0,1-2.77,6,18.33,18.33,0,0,1-7.79,4.45,35.06,35.06,0,0,1-20.94,0,18.45,18.45,0,0,1-7.79-4.45,8.6,8.6,0,0,1-2.78-6,8.61,8.61,0,0,1,2.83-6,18.4,18.4,0,0,1,7.85-4.45A34.74,34.74,0,0,1,254.78,34.37Zm-4.58,6.75a8.7,8.7,0,0,0-3.67,2.31,4.72,4.72,0,0,0-1.32,3.15,4.63,4.63,0,0,0,1.3,3.11A8.47,8.47,0,0,0,250.17,52a14.79,14.79,0,0,0,9.77,0,8.49,8.49,0,0,0,3.65-2.32,4.38,4.38,0,0,0,0-6.26,8.7,8.7,0,0,0-3.67-2.31,14.5,14.5,0,0,0-9.67,0Z"/><path class="cls-1" d="M278.56,34.84h11.35V51.25H307V58H278.56Z"/><path class="cls-1" d="M309.71,34.84h11.36V51.25h17.07V58H309.71Z"/><path class="cls-1" d="M372.15,34.84v5.45H350.86v3.45h18.91v4.87l-18.91,0v3.62l21.29,0V58H340.87V34.84Z"/><path class="cls-1" d="M395.45,34.5q17.91,0,20.87,9.72h-10.9c-.34-1.45-1.53-2.46-3.58-3a23.42,23.42,0,0,0-6.39-.88,14.25,14.25,0,0,0-6.07,1.35,5.58,5.58,0,0,0-3.19,5.08,5,5,0,0,0,3.06,4.8,14.47,14.47,0,0,0,6.2,1.43,18.5,18.5,0,0,0,6.39-1.13,6.15,6.15,0,0,0,4-3.66h10.46q-2.68,10.08-20.82,10.08-19.72,0-20.58-11.45Q375.73,34.51,395.45,34.5Z"/><path class="cls-1" d="M419.05,34.84h36.44v6.89H442.57V58H431.62V41.73H419.05Z"/><path class="cls-1" d="M469,34.84V58H458.21V34.84Z"/><path class="cls-1" d="M492.74,34.37a34.59,34.59,0,0,1,10.34,1.56A18.73,18.73,0,0,1,511,40.38a8.6,8.6,0,0,1,2.85,6,8.63,8.63,0,0,1-2.77,6,18.43,18.43,0,0,1-7.8,4.45,35,35,0,0,1-20.93,0,18.45,18.45,0,0,1-7.79-4.45,8.56,8.56,0,0,1-2.78-6,8.64,8.64,0,0,1,2.82-6,18.38,18.38,0,0,1,7.86-4.45A34.67,34.67,0,0,1,492.74,34.37Zm-4.57,6.75a8.58,8.58,0,0,0-3.67,2.31,4.69,4.69,0,0,0-1.33,3.15,4.63,4.63,0,0,0,1.3,3.11A8.53,8.53,0,0,0,488.13,52a14.79,14.79,0,0,0,9.77,0,8.43,8.43,0,0,0,3.65-2.32,4.39,4.39,0,0,0,0-6.26,8.74,8.74,0,0,0-3.68-2.31,14.47,14.47,0,0,0-9.66,0Z"/><path class="cls-1" d="M529.09,34.84l16.17,14v-14H554V58H541l-15.6-14.43V58h-8.87V34.84Z"/><path class="cls-1" d="M0,70.33H32.52v5.22H10.92v4.86H29.37v5.73H10.92v7.32H0Z"/><path class="cls-1" d="M56.26,69.86a34.53,34.53,0,0,1,10.33,1.56,18.61,18.61,0,0,1,7.87,4.45,7.88,7.88,0,0,1,.08,12.06,18.5,18.5,0,0,1-7.79,4.46,35.27,35.27,0,0,1-20.94,0A18.57,18.57,0,0,1,38,87.93a7.88,7.88,0,0,1,0-12.06,18.4,18.4,0,0,1,7.85-4.45A34.74,34.74,0,0,1,56.26,69.86Zm-4.58,6.75A8.64,8.64,0,0,0,48,78.92a4.73,4.73,0,0,0-1.33,3.15A4.68,4.68,0,0,0,48,85.18a8.59,8.59,0,0,0,3.66,2.32,14.82,14.82,0,0,0,9.78,0,8.49,8.49,0,0,0,3.65-2.32,4.38,4.38,0,0,0,0-6.26,8.68,8.68,0,0,0-3.68-2.31,14.35,14.35,0,0,0-4.81-.83A14.5,14.5,0,0,0,51.68,76.61Z"/><path class="cls-1" d="M107.23,70.31q8.76.8,9.26,6.43-.6,5.49-8.48,6.14V83q9.1.27,7.88,8.66a2.54,2.54,0,0,0,.91,1.84H107c-2-.64-3-1.57-3.23-2.76s-.34-2.38-.42-3.54-.9-1.75-2.44-1.79h-11v8.09H80V70.31Zm-17.31,5v5h13.39c1.78,0,2.77-.79,3-2.36a3,3,0,0,0-3.09-2.62Z"/><path class="cls-1" d="M150.34,70.33h10V83.54q0,4.14,7.61,4.16c4.14,0,6.72-.38,7.73-1.09a3.55,3.55,0,0,0,1.52-3.07V70.33h10V83.47A8.36,8.36,0,0,1,186,87.93a8.93,8.93,0,0,1-3.47,3.14A19.06,19.06,0,0,1,177,92.89a43.14,43.14,0,0,1-7.62.6,50.43,50.43,0,0,1-8-.57,22.57,22.57,0,0,1-6-1.72,9.56,9.56,0,0,1-3.74-2.88,6.77,6.77,0,0,1-1.29-4.13Z"/><path class="cls-1" d="M202.51,70.33l16.17,14v-14h8.74V93.46h-13L198.81,79V93.46h-8.87V70.33Z"/><path class="cls-1" d="M250.72,70q17.91,0,20.87,9.72H260.7c-.34-1.45-1.54-2.46-3.59-3a23.36,23.36,0,0,0-6.39-.88,14.21,14.21,0,0,0-6.06,1.35,5.57,5.57,0,0,0-3.2,5.08,5,5,0,0,0,3.06,4.8,14.51,14.51,0,0,0,6.2,1.43,18.46,18.46,0,0,0,6.39-1.13,6.15,6.15,0,0,0,4-3.66h10.46q-2.69,10.08-20.82,10.08-19.72,0-20.58-11.44Q231,70,250.72,70Z"/><path class="cls-1" d="M295.34,69.86a34.58,34.58,0,0,1,10.33,1.56,18.67,18.67,0,0,1,7.87,4.45,7.88,7.88,0,0,1,.08,12.06,18.5,18.5,0,0,1-7.79,4.46,35.27,35.27,0,0,1-20.94,0,18.57,18.57,0,0,1-7.79-4.46,7.89,7.89,0,0,1,0-12.06A18.5,18.5,0,0,1,285,71.42,34.69,34.69,0,0,1,295.34,69.86Zm-4.58,6.75a8.64,8.64,0,0,0-3.67,2.31,4.73,4.73,0,0,0-1.33,3.15,4.68,4.68,0,0,0,1.3,3.11,8.59,8.59,0,0,0,3.66,2.32,14.82,14.82,0,0,0,9.78,0,8.49,8.49,0,0,0,3.65-2.32,4.38,4.38,0,0,0,0-6.26,8.68,8.68,0,0,0-3.68-2.31,14.35,14.35,0,0,0-4.81-.83A14.5,14.5,0,0,0,290.76,76.61Z"/><path class="cls-1" d="M319.12,70.33H333l8.26,12.08,8.3-12.08h13.61V93.46H354.5V78.85l-9.35,14.61h-8l-9.3-14.61V93.46h-8.75Z"/><path class="cls-1" d="M365.87,70.33h13.86L388,82.41l8.3-12.08h13.61V93.46h-8.65V78.85L391.9,93.46h-8l-9.3-14.61V93.46h-8.76Z"/><path class="cls-1" d="M433.65,69.86A34.53,34.53,0,0,1,444,71.42a18.61,18.61,0,0,1,7.87,4.45,7.88,7.88,0,0,1,.08,12.06,18.5,18.5,0,0,1-7.79,4.46,35.27,35.27,0,0,1-20.94,0,18.57,18.57,0,0,1-7.79-4.46,7.88,7.88,0,0,1,0-12.06,18.4,18.4,0,0,1,7.85-4.45A34.74,34.74,0,0,1,433.65,69.86Zm-4.58,6.75a8.7,8.7,0,0,0-3.67,2.31,4.72,4.72,0,0,0-1.32,3.15,4.66,4.66,0,0,0,1.29,3.11A8.59,8.59,0,0,0,429,87.5a14.82,14.82,0,0,0,9.78,0,8.49,8.49,0,0,0,3.65-2.32,4.38,4.38,0,0,0,0-6.26,8.68,8.68,0,0,0-3.68-2.31,14.35,14.35,0,0,0-4.81-.83A14.5,14.5,0,0,0,429.07,76.61Z"/><path class="cls-1" d="M470,70.33l16.16,14v-14h8.74V93.46h-13L466.29,79V93.46h-8.86V70.33Z"/><path class="cls-1" d="M497.63,70.33H509V86.74h17.07v6.72H497.63Z"/><path class="cls-1" d="M543.52,85.63v7.83h-11.1V85.63l-10.34-15.3h10.47l6,9.09,5.79-9.09H554Z"/><path class="cls-1" d="M259.47,104.81q17.91,0,20.87,9.72h-10.9q-.51-2.16-3.58-3a23.09,23.09,0,0,0-6.39-.88A14.39,14.39,0,0,0,253.4,112a5.6,5.6,0,0,0-3.19,5.09,4.94,4.94,0,0,0,3.06,4.79,14.34,14.34,0,0,0,6.2,1.44,18.32,18.32,0,0,0,6.39-1.14,6.1,6.1,0,0,0,4-3.66h10.46q-2.69,10.08-20.82,10.08-19.73,0-20.58-11.44Q239.75,104.81,259.47,104.81Z"/><path class="cls-1" d="M304.08,104.69a34.59,34.59,0,0,1,10.34,1.56,18.62,18.62,0,0,1,7.87,4.45,7.86,7.86,0,0,1,.08,12,18.46,18.46,0,0,1-7.79,4.46,35.06,35.06,0,0,1-20.94,0,18.46,18.46,0,0,1-7.79-4.46,7.88,7.88,0,0,1,0-12,18.34,18.34,0,0,1,7.86-4.45A34.67,34.67,0,0,1,304.08,104.69Zm-4.57,6.74a8.59,8.59,0,0,0-3.67,2.32,4.38,4.38,0,0,0,0,6.26,8.58,8.58,0,0,0,3.66,2.31,14.62,14.62,0,0,0,9.77,0,8.36,8.36,0,0,0,3.65-2.31,4.71,4.71,0,0,0,1.29-3.12,4.64,4.64,0,0,0-1.33-3.14,8.76,8.76,0,0,0-3.68-2.32,14.63,14.63,0,0,0-9.66,0Z"/><path class="cls-1" d="M348.88,104.69a34.64,34.64,0,0,1,10.34,1.56,18.52,18.52,0,0,1,7.86,4.45,7.86,7.86,0,0,1,.08,12,18.34,18.34,0,0,1-7.79,4.46,35,35,0,0,1-20.93,0,18.5,18.5,0,0,1-7.8-4.46,7.87,7.87,0,0,1,.05-12,18.3,18.3,0,0,1,7.85-4.45A34.74,34.74,0,0,1,348.88,104.69Zm-4.58,6.74a8.72,8.72,0,0,0-3.67,2.32,4.39,4.39,0,0,0,0,6.26,8.45,8.45,0,0,0,3.66,2.31,14.62,14.62,0,0,0,9.77,0,8.48,8.48,0,0,0,3.65-2.31,4.71,4.71,0,0,0,1.29-3.12,4.64,4.64,0,0,0-1.33-3.14,8.82,8.82,0,0,0-3.68-2.32,14.66,14.66,0,0,0-9.67,0Z"/><path class="cls-1" d="M372.66,105.16H384v16.4h17.08v6.72H372.66Z"/><path class="cls-1" d="M458.25,105.16,446,116.67l12.93,11.61H447l-10.35-9.06v9.06H426.13V105.16h10.56v8l10.35-8Z"/><path class="cls-1" d="M472.46,105.16v23.12H461.67V105.16Z"/><path class="cls-1" d="M498.59,105.16q14.79.65,15.43,10.55-.13,12.84-20,12.57h-18.8V105.16ZM485.7,111l0,11.18h8.79q8.85,0,8.9-6.14,0-4.87-9.68-5Z"/><path class="cls-1" d="M541,109.68a5.59,5.59,0,0,0-2-.87,26.32,26.32,0,0,0-3.88-.46,19.22,19.22,0,0,0-3.52.43,3.52,3.52,0,0,0-1.56.84,1.41,1.41,0,0,0,0,2.25,3.58,3.58,0,0,0,1.54.84,7.29,7.29,0,0,0,2.12.29h3.2c2.81.08,4.88.18,6.21.28s2.36.2,3.09.31a12.15,12.15,0,0,1,2.85.89,9.73,9.73,0,0,1,2.73,1.58,6,6,0,0,1,1.53,2.16,4.28,4.28,0,0,1,.29,2.65,6.41,6.41,0,0,1-1.31,2.66,11,11,0,0,1-3.61,2.66,19,19,0,0,1-4.55,1.78,25.82,25.82,0,0,1-4,.59q-2,.15-6.08.15-4.56-.28-6.9-.65a23,23,0,0,1-4-1,12.26,12.26,0,0,1-3.23-1.71,13.29,13.29,0,0,1-2.34-2.08,3.42,3.42,0,0,1-.81-2.25H528.6a3.17,3.17,0,0,0,.82,1.43,5,5,0,0,0,1.47,1.12,6,6,0,0,0,1.87.49c.72.07,1.6.12,2.64.14a25.52,25.52,0,0,0,3.07-.59,3.63,3.63,0,0,0,1.55-.83,1.63,1.63,0,0,0,.56-1.12,1.61,1.61,0,0,0-.57-1.14,3.65,3.65,0,0,0-1.55-.85,6.17,6.17,0,0,0-2.06-.26,92.46,92.46,0,0,1-12.41-.89,11.86,11.86,0,0,1-5.35-2.22,4.41,4.41,0,0,1-1.9-3.34,5.7,5.7,0,0,1,1-3.28,9.43,9.43,0,0,1,3.79-2.83,24.38,24.38,0,0,1,7.11-1.92,38,38,0,0,1,6.85-.46,61.56,61.56,0,0,1,6.32.53,24.79,24.79,0,0,1,6.45,1.41,15.74,15.74,0,0,1,3.67,2.22,5.73,5.73,0,0,1,2,3.13H542.83A8.14,8.14,0,0,0,541,109.68Z"/></g></g></svg>