<svg xmlns="http://www.w3.org/2000/svg" viewBox="0 0 21.05 449.28"><defs><style>.cls-1{fill:gray;}</style></defs><title>Asset 1</title><g id="Layer_2" data-name="Layer 2"><g id="レイヤー_1" data-name="レイヤー 1"><path class="cls-1" d="M.52,13.17H1.4v1c0,1,.55,1.12,1,1.12a2.6,2.6,0,0,0,.94-.19l4.28-1.46V5.35l-4-1.43a4,4,0,0,0-1.12-.21C2,3.71,1.4,3.84,1.4,5v.44H.52V0H1.4V.52A2.58,2.58,0,0,0,3.29,2.88L20.64,9,21.05,11,3.16,17a2.27,2.27,0,0,0-1.76,2.2v.85H.52Zm19.1-3.59L8.54,5.65v7.66Z"/><path class="cls-1" d="M.52,33.4H2.64c-1-1-2.64-2.8-2.64-4.86a3.7,3.7,0,0,1,4-3.7h7.66c.6,0,1.12-.28,1.12-.93a5.45,5.45,0,0,0-.08-.86l.6-.19.88,3.57H4.25C2.33,26.43,1.4,27.5,1.4,29a6.71,6.71,0,0,0,2,4.39H11.5a1.11,1.11,0,0,0,1.21-1.12,5.7,5.7,0,0,0-.19-1.18l.6-.22,1,4.17H2.72A1.23,1.23,0,0,0,1.4,36.39v.55H.52Z"/><path class="cls-1" d="M0,44.74c0-2,1.21-2.94,3.35-2.94h9.28V39.47h.87A2.84,2.84,0,0,0,14,41.31a4.19,4.19,0,0,0,2.85,1.51H18v.65H13.5V48h-.87V43.47H3.27a1.87,1.87,0,0,0-2.09,2.09,3.29,3.29,0,0,0,1.43,2.69l-.47.47A5.26,5.26,0,0,1,0,44.74Z"/><path class="cls-1" d="M.52,61H2.64C1.67,60,0,58.21,0,56.15a3.7,3.7,0,0,1,4-3.7h7.66c.6,0,1.12-.27,1.12-.93a5.28,5.28,0,0,0-.08-.85l.6-.2L14.16,54H4.25C2.33,54,1.4,55.11,1.4,56.62a6.71,6.71,0,0,0,2,4.39H11.5a1.11,1.11,0,0,0,1.21-1.12,5.7,5.7,0,0,0-.19-1.18l.6-.22,1,4.17H2.72A1.23,1.23,0,0,0,1.4,64v.55H.52Z"/><path class="cls-1" d="M.52,83.52H1.4v.63c0,1.21.8,1.56,2,1.56h6.73a2.31,2.31,0,0,0,2.63-2.47c0-2.19-1.7-3.62-2.52-4.28H3.4c-1.07,0-2,.33-2,1.68v.63H.52V75.12H1.4v.6c0,1.21.8,1.57,2,1.57H9.94c1.86,0,2.82-.71,2.82-2.64a5.1,5.1,0,0,0-2-3.89H3.4c-1.07,0-2,.35-2,1.67v.44H.52V67.05H1.4v.49c0,1.21.82,1.54,2,1.54h8c.55,0,1.24-.35,1.24-1a3.16,3.16,0,0,0-.11-.8l.57-.14,1.08,3.63H11.8c1,1.12,2.23,2.49,2.23,4.58a3.23,3.23,0,0,1-2.75,3.46C12.46,80,14,81.43,14,83.6s-1.54,3.76-4,3.76H3.4c-1.4,0-2,.44-2,1.37v.66H.52Z"/><path class="cls-1" d="M.52,100H1.4v.68c0,1.24.82,1.57,2,1.57H9.63c1.29,0,3.13-.39,3.13-2.53,0-1.92-1.7-3.51-2.55-4.28H3.4c-1.09,0-2,.33-2,1.62v.71H.52v-6H1.4v.52c0,1.21.82,1.54,2,1.54h8c.55,0,1.24-.36,1.24-1a3.16,3.16,0,0,0-.11-.8l.57-.14,1.08,3.57H11.36C12.74,96.8,14,98.15,14,100.18c0,2.3-1.57,3.65-4,3.65H3.4c-1.23,0-2,.27-2,1.45V106H.52Z"/><path class="cls-1" d="M19.65,144.3c0-1.56-1.37-2.08-2.58-2.39L0,137.47V137l15.59-4.5L0,127.61v-.43l17.43-4.67c1.29-.36,2.22-1.13,2.22-2.44v-.55h.91v6.94h-.91v-.71c0-.83-.41-1.54-1.23-1.54a4.29,4.29,0,0,0-1.1.14l-13.4,3.57L17.13,132l.85-.24a2,2,0,0,0,1.67-1.95V129h.91v7h-.91v-.77c0-1-.46-1.51-1.29-1.51a3.57,3.57,0,0,0-.9.17L4.17,137.63,17,141a8.44,8.44,0,0,0,1.34.19,1.35,1.35,0,0,0,1.32-1.4v-1.1h.91v6.37h-.91Z"/><path class="cls-1" d="M.52,147.81H1.4v.44c0,1.21.8,1.57,2,1.57h8c.55,0,1.26-.36,1.26-1a2.4,2.4,0,0,0-.14-.77l.61-.14,1.07,3.62H3.4c-2,0-2,1.16-2,2H.52Zm17.76,2.8a1.39,1.39,0,0,1,1.4-1.4,1.4,1.4,0,0,1,0,2.8A1.38,1.38,0,0,1,18.28,150.61Z"/><path class="cls-1" d="M.52,164H1.4v.68c0,1.24.82,1.57,2,1.57H9.63c1.29,0,3.13-.39,3.13-2.53,0-1.92-1.7-3.51-2.55-4.28H3.4c-1.09,0-2,.33-2,1.62v.71H.52v-6H1.4v.52c0,1.21.82,1.54,2,1.54h8c.55,0,1.24-.36,1.24-1a3.15,3.15,0,0,0-.11-.79l.57-.14,1.08,3.57H11.36c1.38,1.37,2.67,2.72,2.67,4.75,0,2.3-1.57,3.65-4,3.65H3.4c-1.23,0-2,.27-2,1.45v.72H.52Z"/><path class="cls-1" d="M0,177.73c0-2,1.21-2.94,3.35-2.94h9.28v-2.33h.87A2.83,2.83,0,0,0,14,174.3a4.16,4.16,0,0,0,2.85,1.51H18v.66H13.5V181h-.87v-4.55H3.27a1.87,1.87,0,0,0-2.09,2.08,3.29,3.29,0,0,0,1.43,2.69l-.47.47A5.26,5.26,0,0,1,0,177.73Z"/><path class="cls-1" d="M0,190.11C0,185,4.61,184,7,184c3.51,0,7,1.87,7,5.85a5,5,0,0,1-2.42,4.41,7.73,7.73,0,0,1-3.9,1.21V186c-6.56-.2-6.67,4.19-6.67,4.72A5.21,5.21,0,0,0,3.6,195l-.53.63C1.76,194.58,0,193.24,0,190.11Zm13.2-.33c0-3.1-3.32-3.57-4.58-3.76v7.33C12.16,193.16,13.2,191.45,13.2,189.78Z"/><path class="cls-1" d="M11.36,208.09a1.17,1.17,0,0,1,.3-.8c.28-.3.39-.38.39-.82,0-1.76-1.51-2.77-3.35-3.76H3.4a1.81,1.81,0,0,0-2,1.92v.9H.52v-7H1.4v.63a1.81,1.81,0,0,0,2,1.93H11c.74,0,1.48-.22,1.48-1.13a4.67,4.67,0,0,0-.22-1.18l.61-.19,1.34,4.09H10.29c1.4,1.1,3.74,3,3.74,5a1.51,1.51,0,0,1-1.4,1.59A1.26,1.26,0,0,1,11.36,208.09Z"/><path class="cls-1" d="M5.82,337.71c-2.11-1.1-5.82-3-5.82-8.15,0-6.39,5.38-8.48,10.35-8.48,7.74,0,10.7,4.78,10.7,8.81a6.41,6.41,0,0,1-.44,2.31,3.45,3.45,0,0,0-.3,1.26,3.37,3.37,0,0,0,.74,2l-5,2-.44-1c1.45-1,4.47-2.93,4.47-6.67C20.09,324.68,15,323,11,323c-5.58,0-9.67,3-9.67,7.41,0,3.87,3.24,5.57,5,6.48Z"/><path class="cls-1" d="M0,346.74c0-3.43,3.29-6,7-6s7,2.53,7,6-3.33,6-7,6S0,350.17,0,346.74Zm13.2,0c0-2.72-3-4.14-6.2-4.14S.82,344,.82,346.74c0,2.55,2.69,4.15,6.21,4.15C10.16,350.89,13.2,349.51,13.2,346.74Z"/><path class="cls-1" d="M.52,355.39H1.4v.46c0,1.21.8,1.57,2,1.57H18.28c.85,0,1.26-.33,1.26-1a3.39,3.39,0,0,0-.13-.79l.6-.14,1,3.62H3.4c-1,0-2,.3-2,1.65v.38H.52Z"/><path class="cls-1" d="M.52,363.59H1.4v.47c0,1.21.8,1.56,2,1.56H18.28c.85,0,1.26-.32,1.26-1a3.53,3.53,0,0,0-.13-.8l.6-.13,1,3.62H3.4c-1,0-2,.3-2,1.65v.38H.52Z"/><path class="cls-1" d="M0,378.3c0-5.13,4.61-6.12,7-6.12,3.51,0,7,1.87,7,5.85a5,5,0,0,1-2.42,4.42,7.93,7.93,0,0,1-3.9,1.21v-9.5C1.15,374,1,378.36,1,378.88a5.2,5.2,0,0,0,2.56,4.28l-.53.63C1.76,382.78,0,381.43,0,378.3ZM13.2,378c0-3.11-3.32-3.57-4.58-3.77v7.33C12.16,381.35,13.2,379.65,13.2,378Z"/><path class="cls-1" d="M0,393.1C0,388.24,4.09,387,6.75,387c4.86,0,7.28,3.43,7.28,6.28,0,1.7-1,4.45-2.64,4.45A1.34,1.34,0,0,1,10,396.45a1.29,1.29,0,0,1,1.12-1.29c1-.17,2.06-.33,2.06-2C13.2,390.55,9.91,389,7,389,3.84,389,1,390.63,1,393.45c0,2.31,1.79,3.9,2.56,4.59l-.42.47C1.7,397.43,0,396.2,0,393.1Z"/><path class="cls-1" d="M0,406.33c0-2,1.21-2.94,3.35-2.94h9.28v-2.33h.87A2.84,2.84,0,0,0,14,402.9a4.19,4.19,0,0,0,2.85,1.51H18v.65H13.5v4.56h-.87v-4.56H3.27a1.87,1.87,0,0,0-2.09,2.09,3.29,3.29,0,0,0,1.43,2.69l-.47.47A5.26,5.26,0,0,1,0,406.33Z"/><path class="cls-1" d="M.52,412.23H1.4v.44c0,1.2.8,1.56,2,1.56h8c.55,0,1.26-.36,1.26-1a2.4,2.4,0,0,0-.14-.77l.61-.14,1.07,3.63H3.4c-2,0-2,1.15-2,2H.52ZM18.28,415a1.38,1.38,0,0,1,1.4-1.4,1.36,1.36,0,0,1,1.37,1.4,1.39,1.39,0,1,1-2.77,0Z"/><path class="cls-1" d="M0,426.58c0-3.43,3.29-6,7-6s7,2.53,7,6-3.33,6-7,6S0,430,0,426.58Zm13.2,0c0-2.72-3-4.14-6.2-4.14S.82,423.86.82,426.58c0,2.55,2.69,4.15,6.21,4.15C10.16,430.73,13.2,429.35,13.2,426.58Z"/><path class="cls-1" d="M.52,443.27H1.4V444c0,1.23.82,1.56,2,1.56H9.63c1.29,0,3.13-.38,3.13-2.53,0-1.92-1.7-3.51-2.55-4.28H3.4c-1.09,0-2,.33-2,1.62v.72H.52v-6H1.4v.52c0,1.2.82,1.53,2,1.53h8c.55,0,1.24-.35,1.24-1a3.16,3.16,0,0,0-.11-.8l.57-.14,1.08,3.57H11.36c1.38,1.38,2.67,2.72,2.67,4.75,0,2.31-1.57,3.65-4,3.65H3.4c-1.23,0-2,.28-2,1.46v.71H.52Z"/><path class="cls-1" d="M.72,243.33V221.2a7.18,7.18,0,0,1,4,2.39,30.22,30.22,0,0,1,4,7.2,20.44,20.44,0,0,0,2.07,4c.46.56.86.84,1.22.84s.72-.27,1-.81a4.05,4.05,0,0,0,.46-2.06,4.16,4.16,0,0,0-.48-2.14,2.76,2.76,0,0,0-1.89-1.12v-7.78a6.49,6.49,0,0,1,3.61,1.71,8,8,0,0,1,1.62,3.31,23.93,23.93,0,0,1,.56,5.82,27,27,0,0,1-.53,6,8.06,8.06,0,0,1-1.65,3.45,3.34,3.34,0,0,1-2.57,1.28,3.88,3.88,0,0,1-2.85-1.44,18.47,18.47,0,0,1-2.91-5.2c-.59-1.44-1-2.42-1.25-2.91s-.39-.81-.48-.95v10.5Z"/><path class="cls-1" d="M8.88,245.24c3.22,0,5.47.93,6.76,2.77s1.93,4.62,1.93,8.32a19,19,0,0,1-.42,4.39,10,10,0,0,1-1.09,2.83,7,7,0,0,1-1.43,1.74,6.43,6.43,0,0,1-1.77,1,10.48,10.48,0,0,1-3.93.75q-4.59,0-6.73-2.49T.05,256.13a17.9,17.9,0,0,1,.68-5.4,8.41,8.41,0,0,1,2-3.41,6.06,6.06,0,0,1,2.57-1.53A11.3,11.3,0,0,1,8.88,245.24Zm0,7.67c-2,0-3.41.28-4.12.82a2.86,2.86,0,0,0-1.07,2.4,3.39,3.39,0,0,0,.45,1.78A2.69,2.69,0,0,0,5.57,259a10,10,0,0,0,3.17.37c2.12,0,3.53-.28,4.23-.82a2.92,2.92,0,0,0,1-2.47A2.73,2.73,0,0,0,13,253.66Q11.89,252.91,8.87,252.91Z"/><path class="cls-1" d="M.72,291.11V269a7.13,7.13,0,0,1,4,2.39,30.22,30.22,0,0,1,4,7.2,20.44,20.44,0,0,0,2.07,4c.46.56.86.83,1.22.83s.72-.26,1-.8a4.05,4.05,0,0,0,.46-2.06,4.16,4.16,0,0,0-.48-2.14,2.76,2.76,0,0,0-1.89-1.13V269.5a6.55,6.55,0,0,1,3.61,1.7,8,8,0,0,1,1.62,3.31,24.08,24.08,0,0,1,.56,5.83,26.81,26.81,0,0,1-.53,6,8,8,0,0,1-1.65,3.46,3.37,3.37,0,0,1-2.57,1.28,3.86,3.86,0,0,1-2.85-1.45,18.24,18.24,0,0,1-2.91-5.19c-.59-1.45-1-2.42-1.25-2.91s-.39-.81-.48-.95v10.5Z"/><path class="cls-1" d="M16.72,306.92H.71V299.2H10.76a37,37,0,0,1-1.53-4.9h3.95q2.06,5.16,3.54,6.35Z"/></g></g></svg>