<svg xmlns="http://www.w3.org/2000/svg" viewBox="0 0 13.24 279.24"><defs><style>.cls-1{fill:gray;}</style></defs><title>Asset 2</title><g id="Layer_2" data-name="Layer 2"><g id="レイヤー_1" data-name="レイヤー 1"><path class="cls-1" d="M.33,8.28H.88v.61c0,.62.35.71.66.71a1.49,1.49,0,0,0,.58-.13l2.69-.91V3.37L2.3,2.47a2.27,2.27,0,0,0-.71-.14c-.31,0-.71.09-.71.79V3.4H.33V0H.88V.33A1.62,1.62,0,0,0,2.07,1.81L13,5.68l.26,1.21L2,10.72A1.42,1.42,0,0,0,.88,12.1v.53H.33ZM12.34,6l-7-2.46V8.37Z"/><path class="cls-1" d="M.33,21H1.66A4.92,4.92,0,0,1,0,18a2.32,2.32,0,0,1,2.5-2.33H7.32c.38,0,.7-.17.7-.59a3.39,3.39,0,0,0,0-.53l.38-.12.56,2.24H2.67A1.56,1.56,0,0,0,.88,18.24,4.24,4.24,0,0,0,2.12,21H7.23A.7.7,0,0,0,8,20.29a3.69,3.69,0,0,0-.12-.74l.38-.14L8.91,22H1.71a.77.77,0,0,0-.83.84v.35H.33Z"/><path class="cls-1" d="M0,28.13c0-1.26.76-1.85,2.11-1.85H7.94V24.82h.55A1.77,1.77,0,0,0,8.82,26a2.64,2.64,0,0,0,1.79,1h.73v.42H8.49V30.2H7.94V27.34H2.05A1.17,1.17,0,0,0,.74,28.65a2.1,2.1,0,0,0,.9,1.69l-.29.29A3.28,3.28,0,0,1,0,28.13Z"/><path class="cls-1" d="M.33,38.36H1.66a4.92,4.92,0,0,1-1.66-3A2.33,2.33,0,0,1,2.5,33H7.32c.38,0,.7-.17.7-.59a3.39,3.39,0,0,0,0-.53l.38-.12L8.91,34H2.67A1.56,1.56,0,0,0,.88,35.6a4.24,4.24,0,0,0,1.24,2.76H7.23a.7.7,0,0,0,.76-.7,3.67,3.67,0,0,0-.12-.75l.38-.13.66,2.62H1.71a.77.77,0,0,0-.83.84v.35H.33Z"/><path class="cls-1" d="M.33,52.51H.88v.4c0,.76.5,1,1.26,1H6.37A1.45,1.45,0,0,0,8,52.34a3.6,3.6,0,0,0-1.58-2.69H2.14c-.67,0-1.26.21-1.26,1.05v.4H.33V47.23H.88v.38c0,.76.5,1,1.26,1H6.25C7.42,48.6,8,48.15,8,46.94a3.23,3.23,0,0,0-1.25-2.45H2.14c-.67,0-1.26.22-1.26,1v.28H.33V42.16H.88v.31c0,.76.52,1,1.26,1h5c.35,0,.78-.23.78-.64a2,2,0,0,0-.07-.5l.36-.09.68,2.28H7.42a4.31,4.31,0,0,1,1.4,2.88,2,2,0,0,1-1.73,2.18,4.32,4.32,0,0,1,1.73,3A2.27,2.27,0,0,1,6.3,54.93H2.14c-.88,0-1.26.28-1.26.86v.42H.33Z"/><path class="cls-1" d="M.33,62.87H.88v.43c0,.78.52,1,1.26,1H6.06c.81,0,2-.24,2-1.58A4.12,4.12,0,0,0,6.42,60H2.14c-.69,0-1.26.21-1.26,1v.45H.33V57.69H.88V58c0,.76.52,1,1.26,1h5c.35,0,.78-.23.78-.64a2,2,0,0,0-.07-.5l.36-.09L8.89,60H7.14a4.27,4.27,0,0,1,1.68,3,2.23,2.23,0,0,1-2.52,2.3H2.14c-.78,0-1.26.17-1.26.91v.45H.33Z"/><path class="cls-1" d="M12.36,87.48c0-1-.87-1.31-1.63-1.5L0,83.19v-.31L9.8,80,0,77v-.28l11-2.93a1.62,1.62,0,0,0,1.4-1.54V71.9h.57v4.37h-.57v-.45c0-.52-.26-1-.78-1a2.67,2.67,0,0,0-.69.09L2.47,77.18l8.3,2.59.53-.16a1.27,1.27,0,0,0,1.06-1.22v-.55h.57v4.38h-.57v-.48c0-.66-.3-.95-.81-.95a2.28,2.28,0,0,0-.57.1l-8.36,2.4,8.06,2.12a4.56,4.56,0,0,0,.85.12.85.85,0,0,0,.83-.88V84h.57v4h-.57Z"/><path class="cls-1" d="M.33,89.69H.88V90c0,.76.5,1,1.26,1h5c.34,0,.79-.22.79-.65a1.67,1.67,0,0,0-.08-.49l.38-.08L8.94,92H2.14C.88,92,.88,92.73.88,93.25H.33Zm11.16,1.76a.87.87,0,0,1,.88-.88.86.86,0,0,1,.87.88.88.88,0,1,1-1.75,0Z"/><path class="cls-1" d="M.33,99.89H.88v.43c0,.78.52,1,1.26,1H6.06c.81,0,2-.25,2-1.59A4.07,4.07,0,0,0,6.42,97H2.14c-.69,0-1.26.2-1.26,1v.45H.33V94.71H.88V95c0,.76.52,1,1.26,1h5c.35,0,.78-.23.78-.64a2,2,0,0,0-.07-.5l.36-.09L8.89,97H7.14a4.23,4.23,0,0,1,1.68,3,2.23,2.23,0,0,1-2.52,2.3H2.14c-.78,0-1.26.17-1.26.91v.45H.33Z"/><path class="cls-1" d="M0,108.5c0-1.26.76-1.84,2.11-1.84H7.94v-1.47h.55a1.77,1.77,0,0,0,.33,1.15,2.6,2.6,0,0,0,1.79,1h.73v.42H8.49v2.86H7.94v-2.86H2.05A1.17,1.17,0,0,0,.74,109a2.08,2.08,0,0,0,.9,1.69l-.29.29A3.28,3.28,0,0,1,0,108.5Z"/><path class="cls-1" d="M0,116.29c0-3.23,2.9-3.85,4.4-3.85,2.21,0,4.42,1.17,4.42,3.67a3.15,3.15,0,0,1-1.52,2.78,4.86,4.86,0,0,1-2.45.76v-6c-4.13-.12-4.19,2.64-4.19,3a3.28,3.28,0,0,0,1.6,2.69l-.33.4A4,4,0,0,1,0,116.29Zm8.3-.21c0-2-2.09-2.25-2.88-2.37v4.61C7.65,118.2,8.3,117.13,8.3,116.08Z"/><path class="cls-1" d="M7.14,127.59a.73.73,0,0,1,.19-.5c.18-.19.25-.24.25-.52,0-1.1-1-1.74-2.11-2.36H2.14a1.14,1.14,0,0,0-1.26,1.2V126H.33V121.6H.88v.4a1.14,1.14,0,0,0,1.26,1.21H6.89c.46,0,.93-.14.93-.71a3.24,3.24,0,0,0-.14-.74l.38-.13.85,2.58H6.47c.88.69,2.35,1.86,2.35,3.17a1,1,0,0,1-.88,1A.79.79,0,0,1,7.14,127.59Z"/><path class="cls-1" d="M3.66,209.09C2.33,208.4,0,207.21,0,204c0-4,3.38-5.33,6.51-5.33,4.86,0,6.73,3,6.73,5.54a4,4,0,0,1-.28,1.45,2.16,2.16,0,0,0-.19.79,2.12,2.12,0,0,0,.47,1.26l-3.14,1.24-.28-.64c.91-.6,2.81-1.84,2.81-4.19,0-3.19-3.22-4.23-5.71-4.23-3.5,0-6.07,1.87-6.07,4.66,0,2.43,2,3.5,3.12,4.07Z"/><path class="cls-1" d="M0,214.77C0,212.61,2.07,211,4.42,211s4.4,1.59,4.4,3.78-2.09,3.78-4.4,3.78S0,216.93,0,214.77Zm8.3,0c0-1.71-1.86-2.6-3.9-2.6s-3.88.89-3.88,2.6,1.69,2.61,3.9,2.61C6.39,217.38,8.3,216.51,8.3,214.77Z"/><path class="cls-1" d="M.33,220.21H.88v.29c0,.76.5,1,1.26,1h9.35c.54,0,.8-.2.8-.63a1.93,1.93,0,0,0-.09-.5l.38-.09.66,2.28H2.14c-.64,0-1.26.19-1.26,1v.24H.33Z"/><path class="cls-1" d="M.33,225.37H.88v.29c0,.76.5,1,1.26,1h9.35c.54,0,.8-.2.8-.63a1.93,1.93,0,0,0-.09-.5l.38-.09.66,2.28H2.14c-.64,0-1.26.19-1.26,1V229H.33Z"/><path class="cls-1" d="M0,234.62c0-3.23,2.9-3.85,4.4-3.85,2.21,0,4.42,1.17,4.42,3.67a3.15,3.15,0,0,1-1.52,2.78,4.86,4.86,0,0,1-2.45.76v-6c-4.13-.12-4.19,2.64-4.19,3a3.26,3.26,0,0,0,1.6,2.69l-.33.4A4,4,0,0,1,0,234.62Zm8.3-.21c0-1.95-2.09-2.24-2.88-2.36v4.6C7.65,236.53,8.3,235.46,8.3,234.41Z"/><path class="cls-1" d="M0,243.92c0-3.06,2.57-3.83,4.25-3.83,3.05,0,4.57,2.15,4.57,3.95,0,1.07-.61,2.8-1.66,2.8A.85.85,0,0,1,6.3,246a.82.82,0,0,1,.71-.81c.6-.1,1.29-.2,1.29-1.22,0-1.68-2.07-2.68-3.92-2.68S.66,242.37.66,244.14A4.09,4.09,0,0,0,2.26,247l-.26.29A3.8,3.8,0,0,1,0,243.92Z"/><path class="cls-1" d="M0,252.24c0-1.26.76-1.85,2.11-1.85H7.94v-1.47h.55a1.8,1.8,0,0,0,.33,1.16,2.64,2.64,0,0,0,1.79.95h.73v.41H8.49v2.87H7.94v-2.87H2.05a1.18,1.18,0,0,0-1.31,1.31,2.12,2.12,0,0,0,.9,1.7l-.29.29A3.28,3.28,0,0,1,0,252.24Z"/><path class="cls-1" d="M.33,256H.88v.27c0,.76.5,1,1.26,1h5a.75.75,0,0,0,.79-.66,1.62,1.62,0,0,0-.08-.48l.38-.09.67,2.28H2.14c-1.26,0-1.26.72-1.26,1.24H.33Zm11.16,1.76a.87.87,0,0,1,.88-.88.86.86,0,0,1,.87.88.87.87,0,0,1-.87.88A.88.88,0,0,1,11.49,257.71Z"/><path class="cls-1" d="M0,265c0-2.15,2.07-3.78,4.42-3.78s4.4,1.59,4.4,3.78-2.09,3.78-4.4,3.78S0,267.13,0,265Zm8.3,0c0-1.71-1.86-2.6-3.9-2.6S.52,263.26.52,265s1.69,2.61,3.9,2.61C6.39,267.58,8.3,266.72,8.3,265Z"/><path class="cls-1" d="M.33,275.47H.88v.43c0,.77.52,1,1.26,1H6.06c.81,0,2-.24,2-1.59a4.07,4.07,0,0,0-1.6-2.69H2.14c-.69,0-1.26.21-1.26,1v.45H.33v-3.78H.88v.33c0,.76.52,1,1.26,1h5a.72.72,0,0,0,.78-.64,2,2,0,0,0-.07-.5l.36-.08.68,2.24H7.14a4.25,4.25,0,0,1,1.68,3,2.23,2.23,0,0,1-2.52,2.29H2.14c-.78,0-1.26.17-1.26.92v.44H.33Z"/><path class="cls-1" d="M.45,149.75V135.84A4.45,4.45,0,0,1,3,137.34a19,19,0,0,1,2.54,4.53,13.18,13.18,0,0,0,1.3,2.51c.29.35.54.53.77.53s.45-.17.64-.51a2.6,2.6,0,0,0,.28-1.29,2.65,2.65,0,0,0-.3-1.35A1.71,1.71,0,0,0,7,141.05v-4.89a4.12,4.12,0,0,1,2.27,1.07,5,5,0,0,1,1,2.08,14.76,14.76,0,0,1,.36,3.67,16.25,16.25,0,0,1-.34,3.79,4.89,4.89,0,0,1-1,2.17,2.08,2.08,0,0,1-1.61.81,2.43,2.43,0,0,1-1.79-.91,11.76,11.76,0,0,1-1.83-3.26c-.37-.91-.63-1.53-.78-1.83s-.26-.51-.31-.6v6.6Z"/><path class="cls-1" d="M5.59,151c2,0,3.43.58,4.24,1.74a9.19,9.19,0,0,1,1.22,5.24,11.64,11.64,0,0,1-.27,2.75,6.19,6.19,0,0,1-.68,1.78,5,5,0,0,1-.9,1.1,4,4,0,0,1-1.11.64,6.51,6.51,0,0,1-2.47.48,5.28,5.28,0,0,1-4.24-1.57Q0,161.55,0,157.8a11.35,11.35,0,0,1,.43-3.4,5.32,5.32,0,0,1,1.25-2.14,3.91,3.91,0,0,1,1.62-1A7,7,0,0,1,5.59,151Zm0,4.82a4.55,4.55,0,0,0-2.59.52,1.79,1.79,0,0,0-.68,1.51,2.08,2.08,0,0,0,.29,1.11,1.66,1.66,0,0,0,.9.7,6.34,6.34,0,0,0,2,.23,4.73,4.73,0,0,0,2.66-.51,1.86,1.86,0,0,0,.66-1.56,1.74,1.74,0,0,0-.68-1.53A4.85,4.85,0,0,0,5.58,155.77Z"/><path class="cls-1" d="M.45,179.79V165.88A4.45,4.45,0,0,1,3,167.38a19.19,19.19,0,0,1,2.54,4.53,13.18,13.18,0,0,0,1.3,2.51c.29.35.54.53.77.53s.45-.17.64-.51a2.6,2.6,0,0,0,.28-1.29,2.65,2.65,0,0,0-.3-1.35A1.71,1.71,0,0,0,7,171.09V166.2a4.05,4.05,0,0,1,2.27,1.08,4.87,4.87,0,0,1,1,2.08,14.67,14.67,0,0,1,.36,3.66,16.25,16.25,0,0,1-.34,3.79,5,5,0,0,1-1,2.18,2.1,2.1,0,0,1-1.61.8,2.43,2.43,0,0,1-1.79-.91,11.61,11.61,0,0,1-1.83-3.26q-.55-1.37-.78-1.83c-.15-.31-.26-.51-.31-.6v6.6Z"/><path class="cls-1" d="M10.51,189.73H.45v-4.85H6.77a23.05,23.05,0,0,1-1-3.08H8.29q1.29,3.24,2.22,4Z"/></g></g></svg>