<?xml version="1.0" encoding="utf-8"?>
<!-- Generator: Adobe Illustrator 25.2.3, SVG Export Plug-In . SVG Version: 6.00 Build 0)  -->
<svg version="1.1" id="Logotype" xmlns="http://www.w3.org/2000/svg" xmlns:xlink="http://www.w3.org/1999/xlink" x="0px" y="0px"
	 viewBox="0 0 680.1 89.7" style="enable-background:new 0 0 680.1 89.7;" xml:space="preserve">
<g>
	<g>
		<g>
			<g>
				<path d="M641.7,69.3h31.7v-9.9h-3.5c-2.8,0-4.2-1.4-4.2-4.2v-7.7c0-5.6,3.8-8.9,10-8.9c1.3,0,2.8,0.1,4.4,0.4V21.6
					c-8.7,0-13.8,4.8-15.9,15.1V22.6h-22.4v9.9c2.8,0,4.2,1.4,4.2,4.2v18.6c0,2.8-1.4,4.2-4.2,4.2L641.7,69.3L641.7,69.3z"/>
				<path d="M639,46.6c0-14.4-10.6-25.1-24.2-25.1c-14.4,0-24.5,10-24.5,24.4s11.5,24.4,27.6,24.4c5.5,0,12.4-2,18.4-5.6l-4.1-9
					c-4.8,2-8.3,2.7-12.5,2.7c-6.8,0-8.6-2.7-9-8H639V46.6z M620.6,42.7h-9.9v-5.8c0-2.8,2.1-4.9,4.9-4.9c2.8,0,4.9,2.1,4.9,4.9
					L620.6,42.7L620.6,42.7z"/>
				<rect x="510.3" y="2" width="19.7" height="15.5"/>
				<path d="M567.5,22.6v9.9c-2-7.2-6.9-10.8-14.2-10.8c-11.3,0-17.5,8.6-17.5,23.7c0,14.9,6.1,23.4,17.2,23.4
					c6.2,0,11-2.7,12.8-7.5v5.6c0,6.6-3.8,10.1-11.3,10.1c-3.7,0-6.9-0.8-12.5-3.5l-4.2,10.7c8.7,4.1,13.8,5.5,20.6,5.5
					c16.8,0,27.2-8.7,27.2-22.8V36.6c0-2.8,1.4-4.2,4.2-4.2c0-3.1,0-9.9,0-9.9h-22.3V22.6z M566.9,50.9c0,2.8-1.8,5.4-5.4,5.4
					c-3.5,0-5.4-2.5-5.4-5.4V40.4c0-2.8,1.8-5.4,5.4-5.4c3.5,0,5.4,2.5,5.4,5.4V50.9z"/>
				<path d="M506.1,69.3h28.2v-9.9c-2.8,0-4.2-1.4-4.2-4.2V22.6h-23.9v9.9c2.8,0,4.2,1.4,4.2,4.2v18.6c0,2.8-1.4,4.2-4.2,4.2
					L506.1,69.3L506.1,69.3z"/>
				<path d="M446.7,69.3h43.7V58.6h-5.1c-3.1,0-4.8-1.7-4.8-4.8V14.4h3.1c4.2,0,6.8,2.5,6.8,6.8v5.6h11.1V2h-66v24.8h11.3v-5.6
					c0-4.2,2.5-6.8,6.8-6.8h3.1v39.4c0,3.1-1.7,4.8-4.8,4.8h-5.1L446.7,69.3L446.7,69.3z"/>
			</g>
			<path d="M418.1,55.2V42c0-12.7-10.1-20.4-26.1-20.4c-7,0-14.2,1.4-20.8,4.1l2.7,10.8c4.8-1.8,9-2.8,12.8-2.8
				c6.6,0,11.7,2.5,11.7,7.7v2.1c-3.9-2.4-7.7-3.4-12.5-3.4c-11,0-19.2,6.2-19.2,15.1c0,9.2,7.7,15.1,19.2,15.1
				c9.6,0,14.6-3.1,16.9-9.4v8.4h19.6v-9.9C419.5,59.4,418.1,58,418.1,55.2z M394.3,59h-2.7c-2.8,0-4.5-2.1-4.5-4.5s1.7-4.5,4.5-4.5
				h2.7c2.8,0,4.5,2.1,4.5,4.5S397.1,59,394.3,59z"/>
			<path d="M308.7,69.3h26.8v-9.9c-2.1,0-3.5-1.4-3.5-3.5v-7.3l14.6,20.7h17.9v-9.9c-1.4,0-3-1.3-4.2-3l-10-13.4l6.2-5.9
				c3-2.8,5.8-4.8,7.3-4.8v-9.9h-26.3v9.9h7.9L332,44.6V0.3h-23.2v9.9c2.1,0,3.5,1.4,3.5,3.5v42.2c0,2.1-1.4,3.5-3.5,3.5L308.7,69.3
				L308.7,69.3z"/>
			<path d="M265.6,70.3c7,0,12.1-3.4,16.1-10.8v9.9h22.2v-9.9c-2.1,0-3.5-1.4-3.5-3.5V22.6h-23.9v9.9c2.8,0,4.2,1.4,4.2,4.2v13.9
				c0,2.8-2.1,4.9-4.9,4.9s-4.9-2.1-4.9-4.9v-28H247v9.9c2.8,0,4.2,1.4,4.2,4.2v20C251.1,64.9,256.7,70.3,265.6,70.3z"/>
			<path d="M228.3,70.3c10.6,0,18-6.2,18-15.1c0-6.9-4.2-11.7-11.4-14.2l-11-3.9c-1.4-0.6-2.1-1.5-2.1-2.5c0-1.7,1.8-2.5,4.4-2.5
				c3.1,0,5.5,1.5,6.9,4.6h10.4V22.6h-9.9v4.9c-3.1-3.7-8.4-5.9-14.1-5.9c-9.6,0-16.8,6.6-16.8,15.3c0,6.3,4.1,12,10.8,14.1l6.3,2
				c5.5,1.7,6.8,2.5,6.8,4.6c0,1.7-1.5,2.4-3.8,2.4c-3.2,0-5.8-1.4-9.9-4.8H203v14.1h10.4v-4.9C217.3,68,222.5,70.3,228.3,70.3z"/>
			<path d="M171.7,69.3h27.9v-9.9h-1.1c-4.9,0-7-2.1-7-7V33h8.3V22.6h-8.3V6.9h-19.2v9.4c0,4.2-2,6.2-6.2,6.2v9.9h5.6V69.3z"/>
			<rect x="141.8" y="2" width="19.7" height="15.5"/>
			<path d="M137.6,69.3h28.2v-9.9c-2.8,0-4.2-1.4-4.2-4.2V22.6h-23.9v9.9c2.8,0,4.2,1.4,4.2,4.2v18.6c0,2.8-1.4,4.2-4.2,4.2v9.8
				H137.6z"/>
			<path d="M75.6,69.3h28.2v-9.9c-2.8,0-4.2-1.4-4.2-4.2V41.3c0-2.8,2.1-4.9,4.9-4.9c2.8,0,4.9,2.1,4.9,4.9v28h23.9v-9.9
				c-2.8,0-4.2-1.4-4.2-4.2v-20c0-8.3-5.6-13.7-14.5-13.7c-7,0-12.1,3.4-16.1,10.8v-9.9h-23v9.9c2.8,0,4.2,1.4,4.2,4.2v18.6
				c0,2.8-1.4,4.2-4.2,4.2v10H75.6z"/>
			<path d="M35.2,0C15.2,0,0,14.8,0,35.6c0,21,15.1,35.6,35.2,35.6s35.2-14.5,35.2-35.6C70.4,14.8,55.3,0,35.2,0z M42.2,50.7
				c0,4.2-2.8,7-7,7s-7-2.8-7-7V20.6c0-4.2,2.8-7,7-7s7,2.8,7,7V50.7z"/>
		</g>
	</g>
</g>
</svg>
