<?xml version="1.0" encoding="utf-8"?>
<!-- Generator: Adobe Illustrator 23.0.2, SVG Export Plug-In . SVG Version: 6.00 Build 0)  -->
<svg version="1.1" id="レイヤー_1" xmlns="http://www.w3.org/2000/svg" xmlns:xlink="http://www.w3.org/1999/xlink" x="0px"
	 y="0px" viewBox="0 0 254 50" style="enable-background:new 0 0 254 50;" xml:space="preserve">
<style type="text/css">
	.st0{fill:#FFFFFF;}
</style>
<rect width="254" height="50"/>
<g>
	<path class="st0" d="M46.03,32.14c-0.13,0-0.19-0.08-0.23-0.21l-3.04-10.65h-0.04l-3.02,10.65c-0.04,0.13-0.13,0.21-0.25,0.21
		h-1.15c-0.13,0-0.21-0.08-0.23-0.21l-3.44-13.86c-0.04-0.13,0.02-0.21,0.17-0.21h1.39c0.15,0,0.23,0.06,0.25,0.21l2.54,10.6h0.04
		l2.96-10.6c0.04-0.13,0.13-0.21,0.25-0.21h1.07c0.15,0,0.21,0.08,0.25,0.21l3.02,10.6h0.04l2.48-10.6
		c0.04-0.15,0.13-0.21,0.27-0.21h1.36c0.15,0,0.19,0.08,0.17,0.21l-3.44,13.86c-0.02,0.13-0.13,0.21-0.25,0.21H46.03z"/>
	<path class="st0" d="M55.88,18.07c0.04-0.13,0.1-0.21,0.25-0.21h1.36c0.15,0,0.23,0.08,0.27,0.21l4.89,13.86
		c0.04,0.13-0.02,0.21-0.15,0.21h-1.47c-0.15,0-0.23-0.06-0.27-0.21l-1.09-3.11H53.9l-1.09,3.11c-0.06,0.15-0.15,0.21-0.27,0.21
		h-1.47c-0.13,0-0.19-0.08-0.15-0.21L55.88,18.07z M59.07,27.1l-2.25-6.49h-0.04l-2.27,6.49H59.07z"/>
	<path class="st0" d="M66.64,32.14c-0.13,0-0.21-0.08-0.21-0.21v-12.2c0-0.08-0.04-0.13-0.13-0.13H62.4c-0.13,0-0.21-0.08-0.21-0.21
		v-1.32c0-0.13,0.08-0.21,0.21-0.21h9.93c0.13,0,0.21,0.08,0.21,0.21v1.32c0,0.13-0.08,0.21-0.21,0.21h-3.91
		c-0.08,0-0.13,0.04-0.13,0.13v12.2c0,0.13-0.08,0.21-0.21,0.21H66.64z"/>
	<path class="st0" d="M74.16,25c0-2.37,0.1-3.19,0.38-4.01c0.71-2.25,2.41-3.36,4.75-3.36c2.12,0,3.76,1.05,4.58,2.88
		c0.04,0.1,0.02,0.21-0.08,0.27l-1.26,0.61c-0.13,0.06-0.25,0-0.29-0.1c-0.57-1.11-1.45-1.91-2.94-1.91c-1.55,0-2.5,0.76-2.96,2.1
		c-0.19,0.59-0.27,1.28-0.27,3.53c0,2.25,0.08,2.94,0.27,3.53c0.46,1.34,1.41,2.1,2.96,2.1c1.49,0,2.37-0.8,2.94-1.91
		c0.04-0.11,0.17-0.17,0.29-0.11l1.26,0.61c0.1,0.06,0.13,0.17,0.08,0.27c-0.82,1.83-2.46,2.88-4.58,2.88
		c-2.33,0-4.03-1.11-4.75-3.36C74.26,28.19,74.16,27.37,74.16,25z"/>
	<path class="st0" d="M86.4,18.07c0-0.13,0.08-0.21,0.21-0.21h1.45c0.13,0,0.21,0.08,0.21,0.21v5.86c0,0.08,0.04,0.13,0.13,0.13
		h6.19c0.08,0,0.13-0.04,0.13-0.13v-5.86c0-0.13,0.08-0.21,0.21-0.21h1.45c0.13,0,0.21,0.08,0.21,0.21v13.86
		c0,0.13-0.08,0.21-0.21,0.21h-1.45c-0.13,0-0.21-0.08-0.21-0.21v-6c0-0.08-0.04-0.13-0.13-0.13H88.4c-0.08,0-0.13,0.04-0.13,0.13v6
		c0,0.13-0.08,0.21-0.21,0.21h-1.45c-0.13,0-0.21-0.08-0.21-0.21V18.07z"/>
	<path class="st0" d="M108.3,32.14c-0.13,0-0.21-0.08-0.21-0.21v-12.2c0-0.08-0.04-0.13-0.13-0.13h-3.91
		c-0.13,0-0.21-0.08-0.21-0.21v-1.32c0-0.13,0.08-0.21,0.21-0.21h9.93c0.13,0,0.21,0.08,0.21,0.21v1.32c0,0.13-0.08,0.21-0.21,0.21
		h-3.91c-0.08,0-0.13,0.04-0.13,0.13v12.2c0,0.13-0.08,0.21-0.21,0.21H108.3z"/>
	<path class="st0" d="M116.51,18.07c0-0.13,0.08-0.21,0.21-0.21h1.45c0.13,0,0.21,0.08,0.21,0.21v5.86c0,0.08,0.04,0.13,0.13,0.13
		h6.19c0.08,0,0.13-0.04,0.13-0.13v-5.86c0-0.13,0.08-0.21,0.21-0.21h1.45c0.13,0,0.21,0.08,0.21,0.21v13.86
		c0,0.13-0.08,0.21-0.21,0.21h-1.45c-0.13,0-0.21-0.08-0.21-0.21v-6c0-0.08-0.04-0.13-0.13-0.13h-6.19c-0.08,0-0.13,0.04-0.13,0.13
		v6c0,0.13-0.08,0.21-0.21,0.21h-1.45c-0.13,0-0.21-0.08-0.21-0.21V18.07z"/>
	<path class="st0" d="M130,18.07c0-0.13,0.08-0.21,0.21-0.21h8.59c0.13,0,0.21,0.08,0.21,0.21v1.32c0,0.13-0.08,0.21-0.21,0.21h-6.8
		c-0.08,0-0.13,0.04-0.13,0.13v4.2c0,0.08,0.04,0.13,0.13,0.13h5.77c0.13,0,0.21,0.08,0.21,0.21v1.32c0,0.13-0.08,0.21-0.21,0.21
		h-5.77c-0.08,0-0.13,0.04-0.13,0.13v4.35c0,0.08,0.04,0.13,0.13,0.13h6.8c0.13,0,0.21,0.08,0.21,0.21v1.32
		c0,0.13-0.08,0.21-0.21,0.21h-8.59c-0.13,0-0.21-0.08-0.21-0.21V18.07z"/>
	<path class="st0" d="M146.86,18.07c0-0.13,0.08-0.21,0.21-0.21h1.37c0.17,0,0.27,0.06,0.34,0.21l4.26,9.62h0.06l4.18-9.62
		c0.06-0.15,0.17-0.21,0.34-0.21h1.37c0.13,0,0.21,0.08,0.21,0.21v13.86c0,0.13-0.08,0.21-0.21,0.21h-1.32
		c-0.13,0-0.21-0.08-0.21-0.21V22h-0.06l-3.55,7.85c-0.08,0.19-0.19,0.25-0.38,0.25h-0.84c-0.21,0-0.31-0.06-0.4-0.25L148.66,22
		h-0.06v9.93c0,0.13-0.08,0.21-0.21,0.21h-1.32c-0.13,0-0.21-0.08-0.21-0.21V18.07z"/>
	<path class="st0" d="M162.46,29.03c-0.27-0.82-0.38-1.68-0.38-4.03s0.11-3.21,0.38-4.03c0.74-2.2,2.46-3.34,4.85-3.34
		c2.41,0,4.14,1.13,4.87,3.34c0.27,0.82,0.38,1.68,0.38,4.03s-0.1,3.21-0.38,4.03c-0.74,2.21-2.46,3.34-4.87,3.34
		C164.92,32.37,163.2,31.24,162.46,29.03z M170.36,28.51c0.17-0.53,0.32-1.45,0.32-3.51s-0.15-2.98-0.32-3.51
		c-0.44-1.36-1.45-2.12-3.04-2.12c-1.58,0-2.58,0.76-3.02,2.12c-0.17,0.52-0.32,1.45-0.32,3.51s0.15,2.98,0.32,3.51
		c0.44,1.36,1.45,2.12,3.02,2.12C168.91,30.63,169.92,29.87,170.36,28.51z"/>
	<path class="st0" d="M178.88,32.14c-0.13,0-0.21-0.08-0.25-0.21l-4.62-13.82c-0.06-0.17,0.02-0.25,0.15-0.25h1.43
		c0.17,0,0.25,0.06,0.29,0.21l3.65,11.02h0.04l3.53-11.02c0.04-0.15,0.13-0.21,0.27-0.21h1.45c0.13,0,0.21,0.08,0.15,0.25
		l-4.6,13.82c-0.04,0.13-0.13,0.21-0.25,0.21H178.88z"/>
	<path class="st0" d="M187.26,18.07c0-0.13,0.08-0.21,0.21-0.21h1.45c0.13,0,0.21,0.08,0.21,0.21v13.86c0,0.13-0.08,0.21-0.21,0.21
		h-1.45c-0.13,0-0.21-0.08-0.21-0.21V18.07z"/>
	<path class="st0" d="M192.4,18.07c0-0.13,0.08-0.21,0.21-0.21h8.59c0.13,0,0.21,0.08,0.21,0.21v1.32c0,0.13-0.08,0.21-0.21,0.21
		h-6.8c-0.08,0-0.13,0.04-0.13,0.13v4.2c0,0.08,0.04,0.13,0.13,0.13h5.77c0.13,0,0.21,0.08,0.21,0.21v1.32
		c0,0.13-0.08,0.21-0.21,0.21h-5.77c-0.08,0-0.13,0.04-0.13,0.13v4.35c0,0.08,0.04,0.13,0.13,0.13h6.8c0.13,0,0.21,0.08,0.21,0.21
		v1.32c0,0.13-0.08,0.21-0.21,0.21h-8.59c-0.13,0-0.21-0.08-0.21-0.21V18.07z"/>
</g>
<g>
	<path class="st0" d="M228.21,14.87c-5.51,0-9.98,4.47-9.98,9.98v0.03c0,5.52,4.47,9.99,9.98,9.99c5.51,0,9.98-4.47,9.98-9.99v-0.03
		C238.2,19.34,233.73,14.87,228.21,14.87z M225.92,29.02v-7.78l6.74,3.89L225.92,29.02z"/>
</g>
</svg>
