<svg xmlns="http://www.w3.org/2000/svg" width="195" height="126" viewBox="0 0 195 126">
  <defs>
    <style>
      .cls-1 {
        fill-rule: evenodd;
      }
    </style>
  </defs>
  <path id="new_ShieldLogo" class="cls-1" d="M5900.55,15204.5a1.657,1.657,0,0,1-.61,1.4,2.394,2.394,0,0,1-3.17,0,1.657,1.657,0,0,1-.61-1.4v-0.7a1.657,1.657,0,0,1,.61-1.4,2.394,2.394,0,0,1,3.17,0,1.657,1.657,0,0,1,.61,1.4v0.7Zm9.44-.3v-7.6a6.7,6.7,0,0,0-2.87-5.7c-1.92-1.3-4.71-2-8.39-2a39.112,39.112,0,0,0-10.19,1.4l1.73,6a18.346,18.346,0,0,1,3.09-.7,21,21,0,0,1,3.41-.3q3.915,0,3.92,2.1v1.2a10.241,10.241,0,0,0-5.47-1.3,9.325,9.325,0,0,0-6.35,2,6.285,6.285,0,0,0-2.43,5.2,6.625,6.625,0,0,0,2.41,5.3,9.825,9.825,0,0,0,6.37,2,11.009,11.009,0,0,0,4.66-1,5.613,5.613,0,0,0,2.78-2.5v2.9H5912v-5.1a1.878,1.878,0,0,1-1.47-.6,1.69,1.69,0,0,1-.54-1.3m-25.84.7-4.44-5.9,2.8-2.5a11.7,11.7,0,0,1,3.28-2.2v-5h-12.57v5.1h3.13l-5.14,4.6v-19.9h-11.59v5.4a2.122,2.122,0,0,1,1.44.5,1.79,1.79,0,0,1,.52,1.4v17.8a1.806,1.806,0,0,1-.49,1.3,1.593,1.593,0,0,1-1.29.6v5.1h11.41v-8.9l6.3,8.9h8.6v-5a3.152,3.152,0,0,1-1.96-1.3m-27.43-.7v-14.9h-9.35v13.2a1.85,1.85,0,0,1-.49,1.4,1.617,1.617,0,0,1-1.38.5,1.546,1.546,0,0,1-1.35-.5,1.925,1.925,0,0,1-.47-1.4v-13.2H5832v5.1a2.07,2.07,0,0,1,1.4.5,1.978,1.978,0,0,1,.51,1.4v8.6a6.418,6.418,0,0,0,1.97,4.9,7.49,7.49,0,0,0,5.23,1.9,7.622,7.622,0,0,0,4.11-1.1,5.966,5.966,0,0,0,2.62-3v3.6h10.66v-5.1a1.58,1.58,0,0,1-1.29-.6,1.765,1.765,0,0,1-.49-1.3m-36.17-9.1a0.793,0.793,0,0,1,.47-0.7,2.191,2.191,0,0,1,1.21-.3,4.031,4.031,0,0,1,1.78.5,2.554,2.554,0,0,1,1.26,1.1h5.19v-6.4h-5.14v1.8a7.741,7.741,0,0,0-2.67-1.7,9.552,9.552,0,0,0-3.41-.6,9.284,9.284,0,0,0-4.16.9,7.58,7.58,0,0,0-2.83,2.6,7.238,7.238,0,0,0-1,3.8,5.9,5.9,0,0,0,1.24,3.9,9.175,9.175,0,0,0,2.85,2.2,33.544,33.544,0,0,0,3.99,1.5c1.09,0.4,1.87.7,2.32,0.9a0.96,0.96,0,0,1,.68.8,0.6,0.6,0,0,1-.47.6,2.419,2.419,0,0,1-1.31.3,6.645,6.645,0,0,1-2.71-.6,4.8,4.8,0,0,1-2.1-1.6h-4.12v7.1h5.19v-1.8a8.348,8.348,0,0,0,2.88,1.6,10.5,10.5,0,0,0,3.52.6,9.115,9.115,0,0,0,4.42-1,7.1,7.1,0,0,0,3.01-2.6,6.859,6.859,0,0,0,1.08-3.8,5.586,5.586,0,0,0-1.26-3.8,8.426,8.426,0,0,0-2.95-2.3,39.718,39.718,0,0,0-4.02-1.5,9.148,9.148,0,0,1-2.26-.8,0.859,0.859,0,0,1-.68-0.7m-23.83,16.1h13.36v-5.3h-1.26q-2.52,0-2.52-2.4v-6.9c0-1.4.84-2.2,2.52-2.2h1.26v-5.1h-1.26c-1.71,0-2.57-.8-2.57-2.3v-4.9h-9.3v5c0,1.5-.95,2.2-2.85,2.2v5.1c1.74,0,2.62.8,2.62,2.2v14.6Zm-15.94,0h13.6v-5.1a1.836,1.836,0,0,1-1.43-.6,1.718,1.718,0,0,1-.53-1.3v-14.9h-11.64v5.1a2.267,2.267,0,0,1,1.45.5,2.061,2.061,0,0,1,.56,1.4v7.9a1.672,1.672,0,0,1-.56,1.3,1.893,1.893,0,0,1-1.45.6v5.1Zm1.92-24.3h9.72v-7h-9.72v7Zm-5.24,17.3v-8.9a6.1,6.1,0,0,0-1.89-4.7,6.988,6.988,0,0,0-5.02-1.8,7.835,7.835,0,0,0-4.12,1.1,6.636,6.636,0,0,0-2.66,3.1v-3.7h-11.31v5.1a1.716,1.716,0,0,1,2.01,1.9v7.9a1.757,1.757,0,0,1-2.01,1.9v5.1h11.78V15198a1.766,1.766,0,0,1,.54-1.4,2.143,2.143,0,0,1,1.42-.5,2.07,2.07,0,0,1,1.4.5,1.79,1.79,0,0,1,.52,1.4v13.2h11.35v-5.1a1.757,1.757,0,0,1-2.01-1.9m-43.55.3a3.123,3.123,0,0,1-2.45-1,3.064,3.064,0,0,1-.96-2.3v-11.3a3.134,3.134,0,0,1,.96-2.4,3.785,3.785,0,0,1,4.9,0,3.134,3.134,0,0,1,.96,2.4v11.3a3.064,3.064,0,0,1-.96,2.3,3.123,3.123,0,0,1-2.45,1m0,7.5a18.013,18.013,0,0,0,8.76-2.1,15.292,15.292,0,0,0,6.01-5.9,16.727,16.727,0,0,0,2.15-8.5,16.991,16.991,0,0,0-2.15-8.5,15.988,15.988,0,0,0-6.01-5.9,19.321,19.321,0,0,0-17.52,0,15.988,15.988,0,0,0-6.01,5.9,16.991,16.991,0,0,0-2.15,8.5,16.727,16.727,0,0,0,2.15,8.5,15.292,15.292,0,0,0,6.01,5.9,18.013,18.013,0,0,0,8.76,2.1m26.56,35.4s-0.64,14.8-6.67,17.7c0,0-6.86-3.6.07-16.8Zm79.44-4c-1.2,3.2-.38,4.4-0.38,4.4a18.962,18.962,0,0,0,4.51-.9,8.047,8.047,0,0,0,.43-5C5843.68,15239.1,5841.2,15240.1,5839.91,15243.4Zm-30.8,22.4c0.4,1.1,3.83,3,6.09,1.4,2.85-2.2-.64-6-0.64-6Zm102.89-51.2v63.3a15.729,15.729,0,0,1-15.77,15.7h-58.58s-7.49-.6-22.59,11.4c-15.15-12-22.66-11.4-22.66-11.4h-58.57a15.723,15.723,0,0,1-15.77-15.7v-63.3H5912Zm-138.33,54.9,6.46-31.5a16.746,16.746,0,0,0,11.65-11.4,108.781,108.781,0,0,1-22.66,3.2c-11.7.5-21.11,1.8-23.36,13a39.511,39.511,0,0,1,13.11-3.2c7.03-.3,14.54-0.7,17.97-1.2l-6.98,31.9s-6.91,1.7-12.43-2.2c0,0,10.46-5.2,12.06-10.9,1.56-5.7,3.25-14.8,3.25-14.8l-17.55,3.2a18.424,18.424,0,0,1,1.54-2.7s-9.75,2.7-13.21,12.2c-3.71,10,2.89,19.2,11.09,22.1,6.65,2.4,16.97,1.7,25.43-9.4A47.615,47.615,0,0,1,5773.67,15269.5Zm24.25-3.6s-4.27,1.6-3.81-.9c0.43-2.6,1.75-8.3,2.14-11s-0.78-4.4-3.04-4.8c-2.3-.5-2.9.6-4.24,2.4-0.63,1-2.42,1.6-1.85,2.2,0,0,1.12,1,.43,4-0.67,3.4-1.58,8.9-1.86,10.4-0.29,1.4.18,5.5,5.68,3.5A11.7,11.7,0,0,0,5797.92,15265.9Zm2.26-24.4c-2.41-1.4-5.95-3-5.95-3a24.779,24.779,0,0,0-5.53,4.3c1.28,0.6,5.31,3.1,5.31,3.1Zm24.87,3.1c-1.54-.2-1.92,1-7.21-0.6a3.048,3.048,0,0,0-2.05,0c-1.04.5-7.9,3.3-10.57,8.6a12.4,12.4,0,0,0,2.57,14.5l-6.08,5.6s3.63,4.8,12.2,2,7.7-11.7,8.04-13.6c0.34-1.8,2.28-11,3.67-13.5C5827.06,15244.9,5826.63,15244.7,5825.05,15244.6Zm24.63-6.7c-1.23-.7-6.75-2.3-12.56,1.8-5.85,4.1-6.19,11.4-5.85,15.5s3.41,7.2,9.5,5.4a12.8,12.8,0,0,0,8.02-6.5c-5.24,2.4-7.85,2.6-9.62,1.2-1.71-1.4-.34-4.6-0.34-4.6l13.51-3.1C5854.11,15240.3,5850.93,15238.6,5849.68,15237.9Zm39.3-5.6s-2.24-.2-4.47-0.3a15.613,15.613,0,0,1-5.61-.7c-1.5-.6-1.86-1-2.79-0.4s-6.69,4.7-7.82,4.9c0,0-2.62-2.7-5.79-2.4a27.524,27.524,0,0,1-2.69,2.5,3.115,3.115,0,0,0-1.39,1.8s1.32,0.8.69,3.2c-0.58,2.3-1.51,7-1.85,9.1-0.33,2-.29,4.8,2.89,5.8s7.96-.4,14.35-8.9a28.556,28.556,0,0,1-5.08,1.4c-1.14,0-2.6-.4-2.31-2.2,0.33-1.9,1.22-6.4,1.22-6.4s-0.04-1,1.46-2c1.52-1,2.3-2.1,4.61-1.4,2.31,0.8,6.41,2.6,8.57,1S5888.54,15233.6,5888.98,15232.3Zm-71.35,18.1c-0.81,0-2.9-1.2-4.01-.4a9.982,9.982,0,0,0-2.54,3.6c-0.63,1.7-.68,5.3,2.15,6.5,1.97,0.7,1.33-2.3,1.88-3.8a9.289,9.289,0,0,1,2.9-4.2C5819.02,15251.3,5818.44,15250.4,5817.63,15250.4Z" transform="translate(-5717 -15179)"/>
</svg>
