<?xml version="1.0" encoding="utf-8"?>
<!-- Generator: Adobe Illustrator 23.0.2, SVG Export Plug-In . SVG Version: 6.00 Build 0)  -->
<svg version="1.1" id="レイヤー_1" xmlns="http://www.w3.org/2000/svg" xmlns:xlink="http://www.w3.org/1999/xlink" x="0px"
	 y="0px" viewBox="0 0 640 138" style="enable-background:new 0 0 640 138;" xml:space="preserve">
<g>
	<g>
		<path d="M139.74,118.81l-1.56-0.23c-3.37-0.5-4.58-1.64-4.58-3.43c0-1.96,1.34-3.38,3.93-3.38c2.42,0,4.58,0.82,6.83,2.38
			c0.22,0.14,0.43,0.09,0.6-0.14l2.64-4.16c0.22-0.32,0.17-0.5-0.09-0.69c-2.46-2.01-6.09-3.24-9.98-3.24
			c-6.35,0-10.41,3.79-10.41,9.5c0,5.48,3.33,8.45,9.29,9.32l1.56,0.23c3.5,0.5,4.54,1.64,4.54,3.47c0,2.19-1.73,3.7-4.8,3.7
			c-3.11,0-5.75-1.55-7.69-3.2c-0.22-0.18-0.48-0.18-0.65,0.05l-3.28,3.98c-0.22,0.27-0.13,0.59,0.04,0.78
			c2.29,2.33,6.74,4.25,11.32,4.25c7.6,0,11.53-4.16,11.53-9.78C148.98,122.6,145.78,119.68,139.74,118.81z M162.14,106.43h-11.4
			c-0.26,0-0.43,0.18-0.43,0.46v30.16c0,0.27,0.17,0.46,0.43,0.46h5.49c0.26,0,0.43-0.18,0.43-0.46v-10.37
			c0-0.18,0.09-0.27,0.26-0.27h5.23c6.35,0,10.24-4.11,10.24-9.96C172.37,110.49,168.53,106.43,162.14,106.43z M161.75,120.59h-4.84
			c-0.17,0-0.26-0.09-0.26-0.27v-7.81c0-0.18,0.09-0.27,0.26-0.27h4.84c2.68,0,4.28,1.69,4.28,4.2
			C166.02,118.95,164.42,120.59,161.75,120.59z M192.47,124.7c3.24-1.51,5.23-4.66,5.23-8.64c0-5.67-3.97-9.64-9.98-9.64h-11.71
			c-0.26,0-0.43,0.18-0.43,0.46v30.16c0,0.27,0.17,0.46,0.43,0.46h5.49c0.26,0,0.43-0.18,0.43-0.46v-11.1
			c0-0.18,0.09-0.27,0.26-0.27h3.93l5.05,11.38c0.13,0.32,0.26,0.46,0.65,0.46h6.13c0.3,0,0.43-0.27,0.3-0.55L192.47,124.7z
			 M187.37,119.95h-5.18c-0.17,0-0.26-0.09-0.26-0.27v-7.17c0-0.18,0.09-0.27,0.26-0.27h5.18c2.42,0,3.97,1.51,3.97,3.84
			C191.35,118.44,189.79,119.95,187.37,119.95z M207.52,106.43h-5.49c-0.26,0-0.43,0.18-0.43,0.46v30.16c0,0.27,0.17,0.46,0.43,0.46
			h5.49c0.26,0,0.43-0.18,0.43-0.46v-30.16C207.95,106.61,207.78,106.43,207.52,106.43z M232.91,106.43h-4.88
			c-0.26,0-0.43,0.18-0.43,0.46v19.56h-0.22l-10.37-19.56c-0.17-0.32-0.43-0.46-0.73-0.46h-5.18c-0.26,0-0.43,0.18-0.43,0.46v30.16
			c0,0.27,0.17,0.46,0.43,0.46h4.88c0.26,0,0.43-0.18,0.43-0.46v-19.51h0.22l10.41,19.51c0.17,0.32,0.39,0.46,0.73,0.46h5.14
			c0.26,0,0.43-0.18,0.43-0.46v-30.16C233.34,106.61,233.17,106.43,232.91,106.43z M257.99,120.23h-10.11
			c-0.26,0-0.43,0.18-0.43,0.46v4.39c0,0.27,0.17,0.46,0.43,0.46h3.97c0.17,0,0.26,0.09,0.26,0.27c0,1.33-0.13,2.28-0.35,3.06
			c-0.6,2.06-2.51,3.2-4.71,3.2c-2.55,0-4.15-1.28-4.8-3.43c-0.35-1.1-0.48-2.6-0.48-6.67c0-4.07,0.13-5.53,0.48-6.63
			c0.65-2.15,2.2-3.47,4.71-3.47c2.42,0,3.89,1.1,5.05,3.2c0.09,0.23,0.3,0.32,0.6,0.23l4.62-2.06c0.26-0.14,0.3-0.41,0.17-0.69
			c-1.38-3.75-4.97-6.63-10.45-6.63c-5.23,0-9.29,2.51-10.8,7.54c-0.65,2.15-0.82,3.88-0.82,8.5c0,4.61,0.17,6.35,0.82,8.5
			c1.51,5.03,5.57,7.54,10.8,7.54c5.18,0,9.24-2.79,10.71-7.77c0.52-1.69,0.73-4.25,0.73-6.99v-2.56
			C258.42,120.41,258.25,120.23,257.99,120.23z M282.15,118.81l-1.56-0.23c-3.37-0.5-4.58-1.64-4.58-3.43
			c0-1.96,1.34-3.38,3.93-3.38c2.42,0,4.58,0.82,6.83,2.38c0.22,0.14,0.43,0.09,0.6-0.14l2.64-4.16c0.22-0.32,0.17-0.5-0.09-0.69
			c-2.46-2.01-6.09-3.24-9.98-3.24c-6.35,0-10.41,3.79-10.41,9.5c0,5.48,3.33,8.45,9.29,9.32l1.56,0.23c3.5,0.5,4.54,1.64,4.54,3.47
			c0,2.19-1.73,3.7-4.8,3.7c-3.11,0-5.75-1.55-7.69-3.2c-0.22-0.18-0.48-0.18-0.65,0.05l-3.28,3.98c-0.22,0.27-0.13,0.59,0.04,0.78
			c2.29,2.33,6.74,4.25,11.32,4.25c7.6,0,11.53-4.16,11.53-9.78C291.4,122.6,288.2,119.68,282.15,118.81z M314.7,106.43h-5.49
			c-0.26,0-0.43,0.18-0.43,0.46v19.37c0,3.7-1.94,5.8-4.88,5.8c-2.98,0-4.92-2.1-4.92-5.8v-19.37c0-0.27-0.17-0.46-0.43-0.46h-5.49
			c-0.26,0-0.43,0.18-0.43,0.46v19.19c0,7.72,4.67,11.93,11.28,11.93c6.57,0,11.23-4.2,11.23-11.93v-19.19
			C315.13,106.61,314.96,106.43,314.7,106.43z M344.7,106.43h-5.05c-0.35,0-0.56,0.14-0.69,0.46l-7.3,17.73h-0.17l-7.43-17.73
			c-0.13-0.32-0.35-0.46-0.69-0.46h-5.14c-0.26,0-0.43,0.18-0.43,0.46v30.16c0,0.27,0.17,0.46,0.43,0.46h4.88
			c0.26,0,0.43-0.18,0.43-0.46v-17.5h0.17l5.44,13.11c0.17,0.41,0.43,0.59,0.82,0.59h2.98c0.39,0,0.65-0.18,0.82-0.59l5.44-13.11
			h0.17v17.5c0,0.27,0.17,0.46,0.43,0.46h4.88c0.26,0,0.43-0.18,0.43-0.46v-30.16C345.14,106.61,344.96,106.43,344.7,106.43z
			 M374.83,106.43h-5.05c-0.35,0-0.56,0.14-0.69,0.46l-7.3,17.73h-0.17l-7.43-17.73c-0.13-0.32-0.35-0.46-0.69-0.46h-5.14
			c-0.26,0-0.43,0.18-0.43,0.46v30.16c0,0.27,0.17,0.46,0.43,0.46h4.88c0.26,0,0.43-0.18,0.43-0.46v-17.5h0.17l5.44,13.11
			c0.17,0.41,0.43,0.59,0.82,0.59h2.98c0.39,0,0.65-0.18,0.82-0.59l5.44-13.11h0.17v17.5c0,0.27,0.17,0.46,0.43,0.46h4.88
			c0.26,0,0.43-0.18,0.43-0.46v-30.16C375.26,106.61,375.09,106.43,374.83,106.43z M397.31,106.43h-18.84
			c-0.26,0-0.43,0.18-0.43,0.46v30.16c0,0.27,0.17,0.46,0.43,0.46h18.84c0.26,0,0.43-0.18,0.43-0.46v-4.89
			c0-0.27-0.17-0.46-0.43-0.46h-12.66c-0.17,0-0.26-0.09-0.26-0.27v-6.44c0-0.18,0.09-0.27,0.26-0.27h10.54
			c0.26,0,0.43-0.18,0.43-0.46v-4.84c0-0.27-0.17-0.46-0.43-0.46h-10.54c-0.17,0-0.26-0.09-0.26-0.27v-6.17
			c0-0.18,0.09-0.27,0.26-0.27h12.66c0.26,0,0.43-0.18,0.43-0.46v-4.89C397.74,106.61,397.57,106.43,397.31,106.43z M416.52,124.7
			c3.24-1.51,5.23-4.66,5.23-8.64c0-5.67-3.97-9.64-9.98-9.64h-11.71c-0.26,0-0.43,0.18-0.43,0.46v30.16c0,0.27,0.17,0.46,0.43,0.46
			h5.49c0.26,0,0.43-0.18,0.43-0.46v-11.1c0-0.18,0.09-0.27,0.26-0.27h3.93l5.05,11.38c0.13,0.32,0.26,0.46,0.65,0.46H422
			c0.3,0,0.43-0.27,0.3-0.55L416.52,124.7z M411.42,119.95h-5.18c-0.17,0-0.26-0.09-0.26-0.27v-7.17c0-0.18,0.09-0.27,0.26-0.27
			h5.18c2.42,0,3.97,1.51,3.97,3.84C415.39,118.44,413.84,119.95,411.42,119.95z M448.63,122.33c1.86-2.24,2.98-4.57,2.98-7.54
			c0-5.03-3.41-8.86-9.03-8.86c-5.66,0-8.94,3.75-9.24,8.04c-0.04,0.27,0.09,0.5,0.35,0.55l4.75,0.82c0.3,0.05,0.48-0.09,0.48-0.37
			c0.26-2.38,1.47-3.66,3.46-3.66c2.03,0,3.2,1.51,3.2,3.56c0,1.6-0.6,2.92-1.73,4.29l-10.32,12.98c-0.17,0.23-0.22,0.37-0.22,0.64
			v4.25c0,0.27,0.17,0.46,0.43,0.46h17.45c0.26,0,0.43-0.18,0.43-0.46v-4.52c0-0.27-0.17-0.46-0.43-0.46h-10.28v-0.09L448.63,122.33
			z M462.91,105.92c-4.62,0-7.65,2.38-8.86,6.35c-0.43,1.37-0.65,2.79-0.65,9.69c0,6.9,0.22,8.32,0.65,9.69
			c1.21,3.98,4.23,6.35,8.86,6.35s7.65-2.38,8.86-6.35c0.43-1.37,0.65-2.79,0.65-9.69c0-6.9-0.22-8.32-0.65-9.69
			C470.55,108.3,467.53,105.92,462.91,105.92z M465.89,130.51c-0.43,1.42-1.47,2.1-2.98,2.1c-1.56,0-2.55-0.69-2.98-2.1
			c-0.26-0.82-0.35-1.74-0.35-8.54c0-6.81,0.09-7.72,0.35-8.54c0.43-1.42,1.43-2.1,2.98-2.1c1.51,0,2.55,0.69,2.98,2.1
			c0.26,0.82,0.35,1.74,0.35,8.54C466.23,128.77,466.15,129.68,465.89,130.51z M489.46,122.33c1.86-2.24,2.98-4.57,2.98-7.54
			c0-5.03-3.41-8.86-9.03-8.86c-5.66,0-8.94,3.75-9.24,8.04c-0.04,0.27,0.09,0.5,0.35,0.55l4.75,0.82c0.3,0.05,0.48-0.09,0.48-0.37
			c0.26-2.38,1.47-3.66,3.46-3.66c2.03,0,3.2,1.51,3.2,3.56c0,1.6-0.6,2.92-1.73,4.29l-10.32,12.98c-0.17,0.23-0.22,0.37-0.22,0.64
			v4.25c0,0.27,0.17,0.46,0.43,0.46h17.45c0.26,0,0.43-0.18,0.43-0.46v-4.52c0-0.27-0.17-0.46-0.43-0.46h-10.28v-0.09L489.46,122.33
			z M512.59,112.28c-1.21-3.98-4.23-6.35-8.86-6.35s-7.65,2.38-8.86,6.35c-0.43,1.37-0.65,2.79-0.65,9.69c0,6.9,0.22,8.32,0.65,9.69
			c1.21,3.98,4.23,6.35,8.86,6.35s7.65-2.38,8.86-6.35c0.43-1.37,0.65-2.79,0.65-9.69C513.24,115.06,513.03,113.65,512.59,112.28z
			 M506.72,130.51c-0.43,1.42-1.47,2.1-2.98,2.1c-1.56,0-2.55-0.69-2.98-2.1c-0.26-0.82-0.35-1.74-0.35-8.54
			c0-6.81,0.09-7.72,0.35-8.54c0.43-1.42,1.43-2.1,2.98-2.1c1.51,0,2.55,0.69,2.98,2.1c0.26,0.82,0.35,1.74,0.35,8.54
			C507.07,128.77,506.98,129.68,506.72,130.51z"/>
	</g>
</g>
<path d="M625.23,31.52v-10.7h-22.06v10.41c2.71,0,4.07,1.29,4.07,3.88v15.9c0,2.59-1.36,3.88-4.07,3.88v10.41h29.35V54.9h-1.8
	c-2.71,0-4.07-1.29-4.07-3.88v-7.86c0-2.4,0.66-4.24,1.99-5.54c1.32-1.29,3.15-1.94,5.49-1.94H640V20.07
	c-3.35-0.19-6.39,0.65-9.13,2.51C628.12,24.44,626.24,27.42,625.23,31.52 M577.81,30.76c1.32,0,2.35,0.38,3.08,1.14
	c0.72,0.76,1.09,1.83,1.09,3.22v4.45h-8.33v-4.45c0-1.39,0.36-2.46,1.09-3.22C575.46,31.14,576.48,30.76,577.81,30.76 M601.29,43.83
	c0-4.54-0.95-8.61-2.84-12.21c-1.89-3.6-4.64-6.44-8.23-8.52c-3.6-2.08-7.83-3.12-12.68-3.12c-4.8,0-9.06,0.98-12.78,2.93
	c-3.72,1.96-6.64,4.7-8.76,8.24c-2.11,3.54-3.17,7.54-3.17,12.02c0,4.54,1.07,8.54,3.22,11.97c2.14,3.44,5.3,6.14,9.47,8.09
	c4.17,1.96,9.15,2.94,14.96,2.94c3.6,0,7.04-0.38,10.32-1.14c3.28-0.76,6.15-1.95,8.61-3.6l-4.54-10.13
	c-4.48,1.77-8.46,2.65-11.93,2.65c-5.87,0-8.96-2.08-9.28-6.25h27.64V43.83z M529.25,47.9c0,1.64-0.47,2.92-1.42,3.83
	c-0.95,0.91-2.24,1.37-3.88,1.37c-1.64,0-2.92-0.46-3.83-1.37c-0.92-0.91-1.37-2.19-1.37-3.83V37.49c0-1.64,0.46-2.92,1.37-3.83
	c0.91-0.91,2.19-1.37,3.83-1.37c1.64,0,2.93,0.46,3.88,1.37c0.95,0.91,1.42,2.19,1.42,3.83V47.9z M532.18,20.82v7.2
	c-2.78-5.36-7.67-8.05-14.67-8.05c-6.25,0-10.98,1.97-14.2,5.92c-3.22,3.94-4.83,9.42-4.83,16.42c0,7.01,1.61,12.48,4.83,16.42
	c3.22,3.94,7.92,5.92,14.1,5.92c5.49,0,9.66-1.58,12.5-4.73v2.37c0,5.93-3.28,8.9-9.84,8.9c-4.17,0-8.74-1.14-13.73-3.41
	l-4.64,10.89c5.49,3.15,12.43,4.73,20.83,4.73c17.54,0,26.32-7.07,26.32-21.2V35.12c0-1.2,0.28-2.15,0.85-2.84
	c0.57-0.69,1.36-1.04,2.37-1.04V20.82H532.18z M469.42,65.32h27.55V54.9c-1.2,0-2.16-0.36-2.89-1.09c-0.73-0.72-1.09-1.66-1.09-2.79
	v-30.2h-23.57v10.41c1.2,0,2.18,0.36,2.93,1.09c0.76,0.73,1.14,1.66,1.14,2.79v15.9c0,1.14-0.38,2.07-1.14,2.79
	c-0.76,0.73-1.74,1.09-2.93,1.09V65.32z M473.3,16h19.69V1.7H473.3V16z M402.78,1.7v29.53h11.74V20.26c0-1.83,0.52-3.27,1.56-4.31
	c1.04-1.04,2.44-1.56,4.21-1.56h2.37v35.59c0,1.2-0.36,2.15-1.09,2.84c-0.73,0.7-1.69,1.04-2.89,1.04h-5.02v11.45h41.08V53.86h-5.02
	c-1.2,0-2.15-0.34-2.84-1.04c-0.69-0.69-1.04-1.64-1.04-2.84V14.39h2.37c1.77,0,3.17,0.52,4.21,1.56c1.04,1.04,1.56,2.48,1.56,4.31
	v10.98h11.74V1.7H402.78z M371.83,51.78c0,1.2-0.41,2.16-1.23,2.89c-0.82,0.73-1.89,1.09-3.22,1.09c-1.32,0-2.4-0.36-3.22-1.09
	c-0.82-0.72-1.23-1.69-1.23-2.89v-1.52c0-1.2,0.41-2.16,1.23-2.89c0.82-0.72,1.89-1.09,3.22-1.09c1.33,0,2.4,0.36,3.22,1.09
	c0.82,0.73,1.23,1.69,1.23,2.89V51.78z M390.95,51.02V35.69c0-4.92-1.94-8.76-5.82-11.5c-3.88-2.74-9.55-4.12-16.99-4.12
	c-3.41,0-7.05,0.27-10.93,0.81s-7.12,1.25-9.7,2.13l3.5,12.02c1.7-0.51,3.79-0.95,6.25-1.33s4.76-0.57,6.91-0.57
	c5.3,0,7.95,1.42,7.95,4.26v2.46c-2.97-1.83-6.66-2.75-11.07-2.75c-5.3,0-9.59,1.33-12.87,3.98c-3.28,2.65-4.92,6.19-4.92,10.6
	c0,4.48,1.62,8.06,4.87,10.74c3.25,2.68,7.56,4.02,12.92,4.02c3.66,0,6.8-0.63,9.42-1.89c2.62-1.26,4.5-2.97,5.63-5.11v5.87h18.93
	V54.9c-1.26,0-2.26-0.35-2.98-1.04C391.31,53.17,390.95,52.22,390.95,51.02 M338.6,52.44l-8.99-11.93l5.68-5.11
	c2.46-2.21,4.67-3.66,6.63-4.35V20.82h-25.46v10.41h6.34l-10.41,9.37V0.19H288.9v10.98c1.26,0,2.24,0.33,2.93,0.99
	c0.69,0.66,1.04,1.59,1.04,2.79v36.07c0,1.2-0.33,2.15-0.99,2.84c-0.66,0.7-1.53,1.04-2.6,1.04v10.41h23.1V47.24l12.78,18.08h17.42
	V55.09C341.06,54.9,339.74,54.02,338.6,52.44 M283.04,51.02v-30.2H264.1v26.88c0,1.2-0.33,2.15-0.99,2.84
	c-0.66,0.7-1.59,1.04-2.79,1.04c-1.2,0-2.12-0.33-2.75-0.99c-0.63-0.66-0.95-1.62-0.95-2.89V20.82h-23.67v10.41
	c1.2,0,2.14,0.35,2.84,1.04c0.69,0.7,1.04,1.64,1.04,2.84v17.32c0,4.23,1.32,7.59,3.97,10.08c2.65,2.49,6.18,3.74,10.6,3.74
	c3.28,0,6.06-0.7,8.33-2.08c2.27-1.39,4.04-3.41,5.3-6.06v7.19h21.58V54.9c-1.07,0-1.94-0.35-2.6-1.04
	C283.37,53.17,283.04,52.22,283.04,51.02 M209.77,32.56c0-0.5,0.31-0.95,0.95-1.32c0.63-0.38,1.45-0.57,2.46-0.57
	c1.2,0,2.4,0.3,3.6,0.9c1.2,0.6,2.05,1.37,2.56,2.32h10.51V20.82h-10.41v3.69c-1.45-1.45-3.25-2.59-5.4-3.41
	c-2.15-0.82-4.45-1.23-6.91-1.23c-3.16,0-5.96,0.63-8.43,1.89c-2.46,1.26-4.37,3.01-5.73,5.25c-1.36,2.24-2.04,4.78-2.04,7.62
	c0,3.22,0.84,5.84,2.51,7.86c1.67,2.02,3.6,3.55,5.77,4.59c2.18,1.04,4.88,2.07,8.09,3.08c2.21,0.76,3.77,1.36,4.69,1.8
	c0.91,0.44,1.37,0.98,1.37,1.61c0,0.51-0.32,0.92-0.95,1.23c-0.63,0.32-1.52,0.47-2.65,0.47c-1.83,0-3.66-0.39-5.49-1.18
	c-1.83-0.79-3.25-1.85-4.26-3.17h-8.33v14.39h10.51v-3.69c1.58,1.45,3.52,2.56,5.82,3.31c2.3,0.76,4.69,1.14,7.15,1.14
	c3.34,0,6.33-0.63,8.95-1.89c2.62-1.26,4.65-3.03,6.1-5.3c1.45-2.27,2.18-4.86,2.18-7.76c0-3.15-0.85-5.74-2.56-7.76
	c-1.7-2.02-3.69-3.55-5.96-4.59c-2.27-1.04-4.99-2.04-8.14-2.98c-2.15-0.63-3.68-1.17-4.59-1.61
	C210.23,33.73,209.77,33.19,209.77,32.56 M161.49,65.32h27.07v-10.7h-2.56c-3.41,0-5.11-1.67-5.11-5.02V35.78
	c0-3.03,1.7-4.54,5.11-4.54h2.56V20.82h-2.56c-3.47,0-5.21-1.51-5.21-4.54V6.25h-18.84v10.13c0,3.03-1.93,4.54-5.77,4.54v10.32
	c3.53,0,5.3,1.51,5.3,4.54V65.32z M129.21,65.32h27.55V54.9c-1.2,0-2.16-0.36-2.89-1.09c-0.73-0.72-1.09-1.66-1.09-2.79v-30.2
	h-23.57v10.41c1.2,0,2.18,0.36,2.93,1.09c0.76,0.73,1.14,1.66,1.14,2.79v15.9c0,1.14-0.38,2.07-1.14,2.79
	c-0.76,0.73-1.74,1.09-2.93,1.09V65.32z M133.09,16h19.69V1.7h-19.69V16z M122.49,51.02V33.13c0-4.04-1.28-7.26-3.83-9.66
	c-2.56-2.4-5.95-3.6-10.18-3.6c-3.22,0-6,0.73-8.33,2.18c-2.34,1.45-4.13,3.54-5.4,6.25v-7.48H71.85v10.41
	c2.71,0,4.07,1.29,4.07,3.88v15.9c0,2.59-1.36,3.88-4.07,3.88v10.41H95.7V38.53c0-1.2,0.36-2.14,1.09-2.84
	c0.73-0.69,1.69-1.04,2.89-1.04c1.2,0,2.14,0.35,2.84,1.04c0.69,0.69,1.04,1.64,1.04,2.84v26.79h23V54.9
	C123.85,54.9,122.49,53.61,122.49,51.02 M34.27,51.69c-2.02,0-3.68-0.63-4.97-1.89c-1.29-1.26-1.94-2.87-1.94-4.83V22.06
	c0-1.96,0.65-3.56,1.94-4.83c1.29-1.26,2.95-1.89,4.97-1.89c2.02,0,3.67,0.63,4.97,1.89c1.29,1.26,1.94,2.87,1.94,4.83v22.91
	c0,1.96-0.65,3.57-1.94,4.83C37.94,51.05,36.29,51.69,34.27,51.69 M34.27,67.02c6.63,0,12.54-1.44,17.75-4.31
	c5.21-2.87,9.26-6.85,12.16-11.93c2.9-5.08,4.35-10.84,4.35-17.28c0-6.44-1.45-12.19-4.35-17.28c-2.9-5.08-6.96-9.06-12.16-11.93
	C46.81,1.44,40.89,0,34.27,0c-6.63,0-12.54,1.44-17.75,4.31c-5.21,2.87-9.26,6.85-12.16,11.93C1.45,21.31,0,27.07,0,33.51
	c0,6.44,1.45,12.2,4.35,17.28c2.9,5.08,6.96,9.06,12.16,11.93C21.72,65.58,27.64,67.02,34.27,67.02"/>
</svg>
