<?xml version="1.0" encoding="utf-8"?>
<!-- Generator: Adobe Illustrator 23.0.2, SVG Export Plug-In . SVG Version: 6.00 Build 0)  -->
<svg version="1.1" id="Logotype" xmlns="http://www.w3.org/2000/svg" xmlns:xlink="http://www.w3.org/1999/xlink" x="0px" y="0px"
	 viewBox="0 0 729 150.49" style="enable-background:new 0 0 729 150.49;" xml:space="preserve">
<g>
	<path d="M230.62,150.49c5.6,0,8.49-3.06,8.49-7.2s-2.35-6.29-6.8-6.93l-1.14-0.17c-2.48-0.37-3.37-1.21-3.37-2.52
		c0-1.45,0.99-2.49,2.89-2.49c1.78,0,3.37,0.61,5.02,1.75c0.16,0.1,0.32,0.07,0.45-0.1l1.94-3.06c0.16-0.24,0.13-0.37-0.06-0.5
		c-1.81-1.48-4.48-2.39-7.34-2.39c-4.67,0-7.66,2.79-7.66,6.99c0,4.03,2.45,6.22,6.83,6.86l1.14,0.17c2.57,0.37,3.34,1.21,3.34,2.56
		c0,1.61-1.27,2.72-3.53,2.72c-2.29,0-4.23-1.14-5.66-2.35c-0.16-0.13-0.35-0.13-0.48,0.03l-2.42,2.93c-0.16,0.2-0.1,0.44,0.03,0.57
		C223.97,149.07,227.25,150.49,230.62,150.49z"/>
	<path d="M244.44,150.12c0.19,0,0.32-0.13,0.32-0.34v-7.63c0-0.13,0.06-0.2,0.19-0.2h3.85c4.67,0,7.53-3.03,7.53-7.33
		c0-4.37-2.83-7.36-7.53-7.36h-8.39c-0.19,0-0.32,0.13-0.32,0.34v22.19c0,0.2,0.13,0.34,0.32,0.34H244.44z M248.51,137.68h-3.56
		c-0.13,0-0.19-0.07-0.19-0.2v-5.75c0-0.13,0.06-0.2,0.19-0.2h3.56c1.97,0,3.15,1.24,3.15,3.09
		C251.66,136.46,250.48,137.68,248.51,137.68z"/>
	<path d="M274.95,150.12c0.22,0,0.32-0.2,0.22-0.4l-4.26-9.01c2.38-1.11,3.85-3.43,3.85-6.35c0-4.17-2.92-7.09-7.34-7.09h-8.62
		c-0.19,0-0.32,0.13-0.32,0.34v22.19c0,0.2,0.13,0.34,0.32,0.34h4.04c0.19,0,0.32-0.13,0.32-0.34v-8.17c0-0.13,0.06-0.2,0.19-0.2
		h2.89l3.72,8.37c0.1,0.24,0.19,0.34,0.48,0.34H274.95z M267.16,137.2h-3.81c-0.13,0-0.19-0.07-0.19-0.2v-5.28
		c0-0.13,0.06-0.2,0.19-0.2h3.81c1.78,0,2.92,1.11,2.92,2.82C270.08,136.09,268.94,137.2,267.16,137.2z"/>
	<path d="M277.41,149.78c0,0.2,0.13,0.34,0.32,0.34h4.04c0.19,0,0.32-0.13,0.32-0.34v-22.19c0-0.2-0.13-0.34-0.32-0.34h-4.04
		c-0.19,0-0.32,0.13-0.32,0.34V149.78z"/>
	<path d="M284.09,149.78c0,0.2,0.13,0.34,0.32,0.34H288c0.19,0,0.32-0.13,0.32-0.34v-14.36h0.16l7.66,14.36
		c0.13,0.24,0.29,0.34,0.54,0.34h3.78c0.19,0,0.32-0.13,0.32-0.34v-22.19c0-0.2-0.13-0.34-0.32-0.34h-3.59
		c-0.19,0-0.32,0.13-0.32,0.34v14.39h-0.16l-7.63-14.39c-0.13-0.24-0.32-0.34-0.54-0.34h-3.81c-0.19,0-0.32,0.13-0.32,0.34V149.78z"
		/>
	<path d="M302.88,144.94c1.11,3.7,4.1,5.55,7.95,5.55c3.81,0,6.8-2.05,7.88-5.72c0.38-1.24,0.54-3.13,0.54-5.14v-1.88
		c0-0.2-0.13-0.34-0.32-0.34h-7.44c-0.19,0-0.32,0.13-0.32,0.34v3.23c0,0.2,0.13,0.34,0.32,0.34h2.92c0.13,0,0.19,0.07,0.19,0.2
		c0,0.98-0.1,1.68-0.25,2.25c-0.44,1.51-1.84,2.35-3.47,2.35c-1.88,0-3.05-0.94-3.53-2.52c-0.25-0.81-0.35-1.92-0.35-4.91
		c0-2.99,0.1-4.07,0.35-4.88c0.48-1.58,1.62-2.56,3.47-2.56c1.78,0,2.86,0.81,3.72,2.35c0.06,0.17,0.22,0.24,0.45,0.17l3.4-1.51
		c0.19-0.1,0.22-0.3,0.13-0.5c-1.02-2.76-3.66-4.88-7.69-4.88c-3.85,0-6.83,1.85-7.95,5.55c-0.48,1.58-0.6,2.86-0.6,6.25
		C302.27,142.08,302.4,143.36,302.88,144.94z"/>
	<path d="M335.04,150.49c5.6,0,8.49-3.06,8.49-7.2s-2.35-6.29-6.8-6.93l-1.14-0.17c-2.48-0.37-3.37-1.21-3.37-2.52
		c0-1.45,0.99-2.49,2.89-2.49c1.78,0,3.37,0.61,5.02,1.75c0.16,0.1,0.32,0.07,0.45-0.1l1.94-3.06c0.16-0.24,0.13-0.37-0.06-0.5
		c-1.81-1.48-4.48-2.39-7.34-2.39c-4.67,0-7.66,2.79-7.66,6.99c0,4.03,2.45,6.22,6.83,6.86l1.14,0.17c2.57,0.37,3.34,1.21,3.34,2.56
		c0,1.61-1.27,2.72-3.53,2.72c-2.29,0-4.23-1.14-5.66-2.35c-0.16-0.13-0.35-0.13-0.48,0.03l-2.42,2.93c-0.16,0.2-0.1,0.44,0.03,0.57
		C328.4,149.07,331.67,150.49,335.04,150.49z"/>
	<path d="M352.75,150.49c4.83,0,8.27-3.09,8.27-8.78v-14.12c0-0.2-0.13-0.34-0.32-0.34h-4.04c-0.19,0-0.32,0.13-0.32,0.34v14.26
		c0,2.72-1.43,4.27-3.59,4.27c-2.19,0-3.62-1.55-3.62-4.27v-14.26c0-0.2-0.13-0.34-0.32-0.34h-4.04c-0.19,0-0.32,0.13-0.32,0.34
		v14.12C344.45,147.39,347.88,150.49,352.75,150.49z"/>
	<path d="M362.98,149.78c0,0.2,0.13,0.34,0.32,0.34h3.59c0.19,0,0.32-0.13,0.32-0.34V136.9h0.13l4.01,9.65
		c0.13,0.3,0.32,0.44,0.6,0.44h2.19c0.29,0,0.48-0.13,0.6-0.44l4.01-9.65h0.13v12.88c0,0.2,0.13,0.34,0.32,0.34h3.59
		c0.19,0,0.32-0.13,0.32-0.34v-22.19c0-0.2-0.13-0.34-0.32-0.34h-3.72c-0.25,0-0.41,0.1-0.51,0.34l-5.37,13.05h-0.13l-5.47-13.05
		c-0.1-0.24-0.25-0.34-0.51-0.34h-3.78c-0.19,0-0.32,0.13-0.32,0.34V149.78z"/>
	<path d="M385.17,149.78c0,0.2,0.13,0.34,0.32,0.34h3.59c0.19,0,0.32-0.13,0.32-0.34V136.9h0.13l4.01,9.65
		c0.13,0.3,0.32,0.44,0.6,0.44h2.19c0.29,0,0.48-0.13,0.6-0.44l4.01-9.65h0.13v12.88c0,0.2,0.13,0.34,0.32,0.34h3.59
		c0.19,0,0.32-0.13,0.32-0.34v-22.19c0-0.2-0.13-0.34-0.32-0.34h-3.72c-0.25,0-0.41,0.1-0.51,0.34l-5.37,13.05h-0.13l-5.47-13.05
		c-0.1-0.24-0.25-0.34-0.51-0.34h-3.78c-0.19,0-0.32,0.13-0.32,0.34V149.78z"/>
	<path d="M407.36,149.78c0,0.2,0.13,0.34,0.32,0.34h13.86c0.19,0,0.32-0.13,0.32-0.34v-3.6c0-0.2-0.13-0.34-0.32-0.34h-9.31
		c-0.13,0-0.19-0.07-0.19-0.2v-4.74c0-0.13,0.06-0.2,0.19-0.2h7.76c0.19,0,0.32-0.13,0.32-0.34v-3.56c0-0.2-0.13-0.34-0.32-0.34
		h-7.76c-0.13,0-0.19-0.07-0.19-0.2v-4.54c0-0.13,0.06-0.2,0.19-0.2h9.31c0.19,0,0.32-0.13,0.32-0.34v-3.6
		c0-0.2-0.13-0.34-0.32-0.34h-13.86c-0.19,0-0.32,0.13-0.32,0.34V149.78z"/>
	<path d="M439.72,150.12c0.22,0,0.32-0.2,0.22-0.4l-4.26-9.01c2.38-1.11,3.85-3.43,3.85-6.35c0-4.17-2.92-7.09-7.34-7.09h-8.62
		c-0.19,0-0.32,0.13-0.32,0.34v22.19c0,0.2,0.13,0.34,0.32,0.34h4.04c0.19,0,0.32-0.13,0.32-0.34v-8.17c0-0.13,0.06-0.2,0.19-0.2
		h2.89l3.72,8.37c0.1,0.24,0.19,0.34,0.48,0.34H439.72z M431.93,137.2h-3.81c-0.13,0-0.19-0.07-0.19-0.2v-5.28
		c0-0.13,0.06-0.2,0.19-0.2h3.81c1.78,0,2.92,1.11,2.92,2.82C434.85,136.09,433.71,137.2,431.93,137.2z"/>
	<path d="M448.04,149.78c0,0.2,0.13,0.34,0.32,0.34h12.84c0.19,0,0.32-0.13,0.32-0.34v-3.33c0-0.2-0.13-0.34-0.32-0.34h-7.57v-0.07
		l5.69-7.09c1.37-1.65,2.19-3.36,2.19-5.55c0-3.7-2.51-6.52-6.64-6.52c-4.16,0-6.58,2.76-6.8,5.92c-0.03,0.2,0.06,0.37,0.25,0.4
		l3.5,0.61c0.22,0.03,0.35-0.07,0.35-0.27c0.19-1.75,1.08-2.69,2.54-2.69c1.49,0,2.35,1.11,2.35,2.62c0,1.18-0.45,2.15-1.27,3.16
		l-7.6,9.55c-0.13,0.17-0.16,0.27-0.16,0.47V149.78z"/>
	<path d="M463.33,145.81c0.89,2.93,3.12,4.67,6.52,4.67c3.4,0,5.63-1.75,6.52-4.67c0.32-1.01,0.48-2.05,0.48-7.13
		c0-5.08-0.16-6.12-0.48-7.13c-0.89-2.93-3.12-4.67-6.52-4.67c-3.4,0-5.63,1.75-6.52,4.67c-0.32,1.01-0.48,2.05-0.48,7.13
		C462.86,143.76,463.01,144.8,463.33,145.81z M467.66,144.97c-0.19-0.61-0.25-1.28-0.25-6.29c0-5.01,0.06-5.68,0.25-6.29
		c0.32-1.04,1.05-1.55,2.19-1.55c1.11,0,1.88,0.5,2.19,1.55c0.19,0.61,0.25,1.28,0.25,6.29c0,5.01-0.06,5.68-0.25,6.29
		c-0.32,1.04-1.08,1.55-2.19,1.55C468.71,146.52,467.97,146.01,467.66,144.97z"/>
	<path d="M478.11,149.78c0,0.2,0.13,0.34,0.32,0.34h12.84c0.19,0,0.32-0.13,0.32-0.34v-3.33c0-0.2-0.13-0.34-0.32-0.34h-7.57v-0.07
		l5.69-7.09c1.37-1.65,2.19-3.36,2.19-5.55c0-3.7-2.51-6.52-6.64-6.52c-4.16,0-6.58,2.76-6.8,5.92c-0.03,0.2,0.06,0.37,0.25,0.4
		l3.5,0.61c0.22,0.03,0.35-0.07,0.35-0.27c0.19-1.75,1.08-2.69,2.54-2.69c1.49,0,2.35,1.11,2.35,2.62c0,1.18-0.45,2.15-1.27,3.16
		l-7.6,9.55c-0.13,0.17-0.16,0.27-0.16,0.47V149.78z"/>
	<path d="M493.4,145.81c0.89,2.93,3.12,4.67,6.52,4.67c3.4,0,5.63-1.75,6.52-4.67c0.32-1.01,0.48-2.05,0.48-7.13
		c0-5.08-0.16-6.12-0.48-7.13c-0.89-2.93-3.12-4.67-6.52-4.67c-3.4,0-5.63,1.75-6.52,4.67c-0.32,1.01-0.48,2.05-0.48,7.13
		C492.93,143.76,493.08,144.8,493.4,145.81z M497.73,144.97c-0.19-0.61-0.25-1.28-0.25-6.29c0-5.01,0.06-5.68,0.25-6.29
		c0.32-1.04,1.05-1.55,2.19-1.55c1.11,0,1.88,0.5,2.19,1.55c0.19,0.61,0.25,1.28,0.25,6.29c0,5.01-0.06,5.68-0.25,6.29
		c-0.32,1.04-1.08,1.55-2.19,1.55C498.78,146.52,498.04,146.01,497.73,144.97z"/>
	<path d="M712.18,35.91V23.72h-25.12v11.86c3.09,0,4.64,1.47,4.64,4.42v18.11c0,2.95-1.55,4.42-4.64,4.42V74.4h33.43V62.54h-2.05
		c-3.09,0-4.64-1.47-4.64-4.42v-8.95c0-2.73,0.75-4.83,2.26-6.31c1.51-1.47,3.59-2.21,6.25-2.21H729V22.86
		c-3.81-0.22-7.28,0.74-10.41,2.86C715.47,27.84,713.33,31.23,712.18,35.91 M658.16,35.04c1.51,0,2.68,0.43,3.5,1.29
		c0.83,0.86,1.24,2.09,1.24,3.67v5.07h-9.49V40c0-1.58,0.41-2.8,1.24-3.67C655.48,35.47,656.65,35.04,658.16,35.04 M684.9,49.92
		c0-5.18-1.08-9.81-3.24-13.91c-2.16-4.1-5.28-7.33-9.38-9.7c-4.1-2.37-8.91-3.56-14.45-3.56c-5.46,0-10.32,1.12-14.56,3.34
		c-4.24,2.23-7.57,5.36-9.97,9.38c-2.41,4.03-3.61,8.59-3.61,13.69c0,5.18,1.22,9.72,3.67,13.64c2.44,3.92,6.04,6.99,10.78,9.22
		c4.74,2.23,10.42,3.34,17.04,3.34c4.1,0,8.01-0.43,11.75-1.29c3.74-0.86,7.01-2.23,9.81-4.1l-5.18-11.54
		c-5.1,2.01-9.63,3.02-13.59,3.02c-6.69,0-10.21-2.37-10.57-7.12h31.49V49.92z M602.84,54.56c0,1.87-0.54,3.33-1.62,4.37
		c-1.08,1.04-2.55,1.56-4.42,1.56c-1.87,0-3.33-0.52-4.37-1.56c-1.04-1.04-1.56-2.5-1.56-4.37V42.7c0-1.87,0.52-3.33,1.56-4.37
		c1.04-1.04,2.5-1.56,4.37-1.56c1.87,0,3.34,0.52,4.42,1.56c1.08,1.04,1.62,2.5,1.62,4.37V54.56z M606.19,23.72v8.2
		c-3.16-6.11-8.73-9.17-16.71-9.17c-7.12,0-12.51,2.25-16.17,6.74c-3.67,4.49-5.5,10.73-5.5,18.71c0,7.98,1.83,14.22,5.5,18.71
		c3.67,4.49,9.02,6.74,16.06,6.74c6.25,0,11-1.8,14.23-5.39v2.7c0,6.76-3.74,10.14-11.21,10.14c-4.74,0-9.96-1.29-15.63-3.88
		l-5.28,12.4c6.25,3.59,14.16,5.39,23.72,5.39c19.98,0,29.98-8.05,29.98-24.15V40c0-1.37,0.32-2.44,0.97-3.24
		c0.65-0.79,1.55-1.19,2.7-1.19V23.72H606.19z M534.7,74.4h31.38V62.54c-1.37,0-2.46-0.41-3.29-1.24c-0.83-0.83-1.24-1.89-1.24-3.18
		v-34.4H534.7v11.86c1.36,0,2.48,0.41,3.34,1.24c0.86,0.83,1.29,1.89,1.29,3.18v18.11c0,1.29-0.43,2.36-1.29,3.18
		c-0.86,0.83-1.98,1.24-3.34,1.24V74.4z M539.12,18.22h22.43V1.94h-22.43V18.22z M458.79,1.94v33.64h13.37V23.07
		c0-2.08,0.59-3.72,1.78-4.91c1.19-1.19,2.79-1.78,4.8-1.78h2.7v40.54c0,1.37-0.41,2.44-1.24,3.23c-0.83,0.79-1.92,1.19-3.29,1.19
		h-5.72V74.4h46.8V61.35h-5.71c-1.37,0-2.44-0.39-3.24-1.19c-0.79-0.79-1.19-1.87-1.19-3.23V16.39h2.7c2.01,0,3.61,0.59,4.8,1.78
		c1.19,1.19,1.78,2.82,1.78,4.91v12.51h13.37V1.94H458.79z M423.53,58.98c0,1.37-0.47,2.46-1.4,3.29c-0.94,0.83-2.16,1.24-3.67,1.24
		c-1.51,0-2.73-0.41-3.67-1.24c-0.93-0.83-1.4-1.92-1.4-3.29v-1.73c0-1.36,0.47-2.46,1.4-3.29c0.93-0.83,2.16-1.24,3.67-1.24
		c1.51,0,2.73,0.42,3.67,1.24c0.93,0.83,1.4,1.92,1.4,3.29V58.98z M445.31,58.12V40.65c0-5.61-2.21-9.97-6.63-13.1
		c-4.42-3.13-10.87-4.69-19.35-4.69c-3.88,0-8.03,0.31-12.45,0.92s-8.11,1.42-11.05,2.42l3.99,13.7c1.94-0.58,4.31-1.08,7.12-1.51
		c2.8-0.43,5.43-0.65,7.87-0.65c6.04,0,9.06,1.62,9.06,4.85v2.8c-3.38-2.08-7.58-3.13-12.61-3.13c-6.04,0-10.93,1.51-14.66,4.53
		c-3.74,3.02-5.61,7.05-5.61,12.08c0,5.1,1.85,9.18,5.55,12.24c3.7,3.06,8.61,4.58,14.72,4.58c4.17,0,7.74-0.72,10.73-2.16
		c2.98-1.44,5.12-3.38,6.42-5.82v6.68h21.57V62.54c-1.44,0-2.57-0.39-3.4-1.19C445.73,60.56,445.31,59.48,445.31,58.12
		 M385.69,59.73l-10.24-13.59l6.47-5.82c2.8-2.52,5.32-4.17,7.55-4.96V23.72h-29.01v11.86h7.22l-11.86,10.67V0.22h-26.74v12.51
		c1.44,0,2.55,0.38,3.34,1.13c0.79,0.75,1.19,1.82,1.19,3.18v41.08c0,1.37-0.38,2.44-1.13,3.23c-0.75,0.79-1.74,1.19-2.97,1.19V74.4
		h26.31V53.8l14.56,20.59h19.84V62.75C388.49,62.54,386.98,61.53,385.69,59.73 M322.4,58.12v-34.4h-21.57v30.62
		c0,1.37-0.38,2.44-1.13,3.23c-0.76,0.79-1.82,1.19-3.18,1.19c-1.37,0-2.41-0.38-3.13-1.13c-0.72-0.75-1.08-1.85-1.08-3.29V23.72
		h-26.96v11.86c1.36,0,2.44,0.4,3.23,1.19c0.79,0.79,1.19,1.87,1.19,3.24v19.73c0,4.82,1.51,8.64,4.53,11.48
		c3.02,2.84,7.04,4.26,12.08,4.26c3.74,0,6.9-0.79,9.49-2.37c2.59-1.58,4.6-3.88,6.04-6.9v8.19h24.58V62.54
		c-1.22,0-2.21-0.39-2.97-1.19C322.77,60.56,322.4,59.48,322.4,58.12 M238.94,37.09c0-0.57,0.36-1.08,1.08-1.51
		c0.72-0.43,1.65-0.65,2.8-0.65c1.36,0,2.73,0.34,4.1,1.02c1.36,0.68,2.33,1.56,2.91,2.64h11.97V23.72h-11.86v4.21
		c-1.65-1.65-3.7-2.95-6.15-3.88c-2.44-0.93-5.07-1.4-7.87-1.4c-3.6,0-6.79,0.72-9.6,2.16c-2.8,1.44-4.98,3.43-6.52,5.98
		c-1.55,2.55-2.32,5.45-2.32,8.68c0,3.67,0.95,6.65,2.86,8.95c1.9,2.3,4.1,4.04,6.58,5.23c2.48,1.19,5.55,2.36,9.22,3.5
		c2.51,0.86,4.29,1.55,5.34,2.05c1.04,0.5,1.56,1.11,1.56,1.83c0,0.58-0.36,1.04-1.08,1.4c-0.72,0.36-1.73,0.54-3.02,0.54
		c-2.09,0-4.17-0.45-6.25-1.35c-2.09-0.9-3.7-2.1-4.85-3.61h-9.49V74.4h11.97v-4.2c1.8,1.65,4.01,2.91,6.63,3.77
		c2.62,0.86,5.34,1.29,8.14,1.29c3.81,0,7.2-0.72,10.19-2.16c2.98-1.44,5.3-3.45,6.95-6.04c1.65-2.59,2.48-5.53,2.48-8.84
		c0-3.59-0.97-6.54-2.91-8.84c-1.94-2.3-4.2-4.04-6.79-5.23c-2.59-1.19-5.68-2.32-9.27-3.4c-2.44-0.72-4.19-1.33-5.23-1.83
		C239.46,38.42,238.94,37.81,238.94,37.09 M183.95,74.4h30.84V62.22h-2.91c-3.88,0-5.82-1.9-5.82-5.71V40.76
		c0-3.45,1.94-5.18,5.82-5.18h2.91V23.72h-2.91c-3.95,0-5.93-1.72-5.93-5.17V7.12h-21.46v11.54c0,3.45-2.19,5.18-6.58,5.18v11.75
		c4.03,0,6.04,1.73,6.04,5.18V74.4z M147.18,74.4h31.38V62.54c-1.37,0-2.46-0.41-3.29-1.24c-0.83-0.83-1.24-1.89-1.24-3.18v-34.4
		h-26.85v11.86c1.36,0,2.48,0.41,3.34,1.24c0.86,0.83,1.29,1.89,1.29,3.18v18.11c0,1.29-0.43,2.36-1.29,3.18
		c-0.86,0.83-1.98,1.24-3.34,1.24V74.4z M151.6,18.22h22.43V1.94H151.6V18.22z M139.52,58.12V37.74c0-4.6-1.45-8.27-4.37-11
		c-2.91-2.73-6.78-4.1-11.59-4.1c-3.67,0-6.83,0.83-9.49,2.48c-2.66,1.65-4.71,4.03-6.15,7.12v-8.52H81.84v11.86
		c3.09,0,4.64,1.47,4.64,4.42v18.11c0,2.95-1.55,4.42-4.64,4.42V74.4h27.17V43.88c0-1.36,0.41-2.44,1.24-3.23
		c0.83-0.79,1.92-1.19,3.29-1.19c1.36,0,2.44,0.4,3.23,1.19c0.79,0.79,1.19,1.87,1.19,3.23V74.4h26.2V62.54
		C141.07,62.54,139.52,61.07,139.52,58.12 M39.03,58.87c-2.3,0-4.19-0.72-5.66-2.16c-1.47-1.44-2.21-3.27-2.21-5.5V25.12
		c0-2.23,0.74-4.06,2.21-5.5c1.47-1.44,3.36-2.16,5.66-2.16c2.3,0,4.19,0.72,5.66,2.16c1.47,1.44,2.21,3.27,2.21,5.5v26.09
		c0,2.23-0.74,4.06-2.21,5.5C43.22,58.15,41.33,58.87,39.03,58.87 M39.03,76.34c7.55,0,14.29-1.64,20.22-4.91
		c5.93-3.27,10.55-7.8,13.86-13.59c3.31-5.79,4.96-12.35,4.96-19.68c0-7.33-1.65-13.89-4.96-19.68C69.8,12.71,65.18,8.18,59.25,4.9
		C53.32,1.63,46.58,0,39.03,0c-7.55,0-14.29,1.63-20.22,4.9c-5.93,3.27-10.55,7.8-13.86,13.59C1.65,24.28,0,30.84,0,38.17
		c0,7.33,1.65,13.89,4.96,19.68c3.31,5.79,7.93,10.32,13.86,13.59C24.75,74.7,31.48,76.34,39.03,76.34"/>
</g>
</svg>
