<svg enable-background="new 0 0 30 30" viewBox="0 0 30 30" xmlns="http://www.w3.org/2000/svg"><path d="m29.3 5.8c-1.1.5-2.2.8-3.4 1 1.2-.8 2.1-2 2.6-3.4-1.2.7-2.4 1.2-3.8 1.5-1.1-1.2-2.6-1.9-4.2-1.9-3.3 0-6 2.7-6 6v.1c0 .5.1.9.1 1.4-4.7-.3-9.1-2.6-12.1-6.4-.5.9-.8 2-.8 3.1 0 2 1 3.9 2.6 5-.9 0-1.9-.3-2.7-.8v.1c-.1 2.9 1.9 5.4 4.8 6-.9.2-1.8.3-2.7.1.7 2.4 3 4.1 5.5 4.2-2.1 1.7-4.7 2.6-7.3 2.6-.5 0-.9 0-1.4-.1 2.7 1.8 5.8 2.7 9.1 2.7 10.9 0 16.8-9.2 16.8-17.2 0-.3 0-.5 0-.8 1.2-.9 2.1-2 2.9-3.2z"/></svg>